<svg width="55" height="55" viewBox="0 0 55 55" fill="none" xmlns="http://www.w3.org/2000/svg">
<path d="M27.1119 54.2075C41.9711 54.2075 54.0168 42.1617 54.0168 27.3026C54.0168 12.4434 41.9711 0.397705 27.1119 0.397705C12.2528 0.397705 0.207031 12.4434 0.207031 27.3026C0.207031 42.1617 12.2528 54.2075 27.1119 54.2075Z" fill="#445FD2"/>
<path d="M19.9549 27.8629C21.3453 30.5845 22.7356 33.31 24.1259 36.0316C24.5237 36.8154 25.6935 36.5673 25.9259 35.7953C27.7495 29.7141 31.1367 24.1724 35.7016 19.765C36.6154 18.8828 35.2211 17.4924 34.3073 18.3708C29.5022 23.0105 25.9456 28.8751 24.0235 35.2715L25.8235 35.0352C24.4332 32.3136 23.0428 29.588 21.6525 26.8664C21.0774 25.736 19.3759 26.7325 19.951 27.859H19.9549V27.8629Z" fill="white"/>
</svg>
