<svg width="206" height="245" viewBox="0 0 206 245" fill="none" xmlns="http://www.w3.org/2000/svg">
<path d="M0.933594 0.738525H205.065V244.476H0.933594V0.738525ZM201.463 4.33969H4.53476V240.874H201.463V4.33969Z" fill="#E5E5E5"/>
<path d="M174.395 118.77H31.6016V124.288H174.395V118.77Z" fill="#F1F1F1"/>
<path d="M159.041 85.7825H160.597V29.9563H105.742V31.5138H159.041V85.7825Z" fill="#CBCBCB"/>
<path d="M49.3311 90.9048H104.186V89.3488H50.887V35.0801H49.3311V90.9048Z" fill="#CBCBCB"/>
<path d="M174.395 133.157H31.6016V138.675H174.395V133.157Z" fill="#F1F1F1"/>
<path d="M174.395 147.544H31.6016V153.062H174.395V147.544Z" fill="#F1F1F1"/>
<path d="M174.395 172.865H31.6016V178.384H174.395V172.865Z" fill="#F1F1F1"/>
<path d="M174.395 187.253H31.6016V192.771H174.395V187.253Z" fill="#F1F1F1"/>
<path d="M174.395 201.64H31.6016V207.158H174.395V201.64Z" fill="#F1F1F1"/>
<path d="M92.1605 45.1198L93.5999 43.3577L91.4309 40.8887L89.4982 42.0887C88.3801 41.2138 87.1001 40.5683 85.7319 40.1894L85.4823 37.7125L82.2028 37.5002L81.6515 39.8566C80.1076 40.0223 78.6176 40.5197 77.2836 41.3144L75.6545 39.9837L73.1855 42.1526L74.295 43.9397C73.3348 45.16 72.6496 46.5733 72.2862 48.083L69.8784 48.3257L69.666 51.6052L72.09 52.1723C72.2907 53.5875 72.7708 54.9486 73.5027 56.1764L72.1719 57.8055L74.3407 60.2746L76.1279 59.1651C77.2782 60.0709 78.601 60.7329 80.0155 61.1107L80.2748 63.6826L83.5543 63.8949L84.1377 61.4006C85.6224 61.2211 87.0535 60.7346 88.3401 59.9721L90.1024 61.4114L92.5713 59.2426L91.3714 57.3096C92.2933 56.1321 92.9603 54.7756 93.3299 53.3264L95.8784 53.0694L96.091 49.7898L93.5739 49.201C93.3829 47.7592 92.9021 46.371 92.1605 45.1198ZM88.7244 57.2285C87.422 58.3725 85.8096 59.1047 84.0911 59.3323C82.3726 59.56 80.6251 59.273 79.0697 58.5075C77.5144 57.742 76.221 56.5325 75.353 55.0319C74.485 53.5314 74.0815 51.8071 74.1935 50.0772C74.3055 48.3473 74.928 46.6894 75.9822 45.3133C77.0363 43.9371 78.475 42.9045 80.116 42.346C81.7571 41.7874 83.5269 41.7281 85.2017 42.1754C86.8765 42.6227 88.3811 43.5566 89.5252 44.8591C91.0593 46.6055 91.8368 48.8899 91.6866 51.2096C91.5365 53.5293 90.4708 55.6944 88.7244 57.2285Z" fill="#F1F1F1"/>
<path d="M111.836 68.9643L113.822 67.854L112.712 64.7609L110.474 65.1671C109.755 63.9426 108.802 62.8722 107.668 62.0173L108.346 59.6218L105.373 58.2198L103.995 60.2089C102.498 59.7961 100.93 59.7113 99.3972 59.9606L98.3707 58.1245L95.2776 59.2349L95.6532 61.3046C94.3119 62.0869 93.1554 63.1498 92.263 64.4204L89.9343 63.7619L88.5322 66.7342L90.5785 68.1519C90.2453 69.5419 90.192 70.9843 90.4217 72.395L88.5855 73.4215L89.6958 76.5146L91.7656 76.1391C92.5028 77.4041 93.4899 78.5056 94.6667 79.3766L93.9633 81.8639L96.9356 83.266L98.3944 81.1604C99.8413 81.5387 101.351 81.6118 102.828 81.3753L103.938 83.3612L107.031 82.2509L106.625 80.0122C107.915 79.2556 109.034 78.2389 109.91 77.0268L112.374 77.7238L113.777 74.7516L111.652 73.2794C112.004 71.8682 112.067 70.4004 111.836 68.9643ZM104.193 78.9645C102.561 79.5502 100.793 79.6389 99.1108 79.2195C97.4288 78.8 95.9089 77.8911 94.7435 76.6079C93.578 75.3246 92.8192 73.7246 92.563 72.0101C92.3069 70.2956 92.5649 68.5437 93.3045 66.9758C94.044 65.408 95.2319 64.0947 96.7179 63.2019C98.2039 62.3092 99.9212 61.8771 101.653 61.9604C103.384 62.0437 105.052 62.6385 106.446 63.6697C107.839 64.7009 108.895 66.1222 109.481 67.7538C110.267 69.9417 110.151 72.3519 109.159 74.4543C108.167 76.5568 106.381 78.1791 104.193 78.9645Z" fill="#F1F1F1"/>
<path d="M136.147 54.776L137.515 52.9577L135.249 50.5773L133.366 51.8536C132.213 51.024 130.909 50.4302 129.526 50.1063L129.178 47.6414L125.893 47.5603L125.436 49.9368C123.9 50.1641 122.431 50.7206 121.13 51.568L119.449 50.3035L117.069 52.5693L118.249 54.3106C117.338 55.5683 116.71 57.0079 116.407 58.5309L114.011 58.8697L113.93 62.155L116.374 62.6248C116.631 64.0308 117.166 65.3716 117.946 66.5692L116.681 68.2502L118.947 70.6307L120.689 69.4506C121.874 70.3097 123.222 70.9183 124.651 71.2393L125.013 73.7988L128.298 73.8798L128.781 71.3642C130.258 71.1255 131.668 70.5823 132.923 69.769L134.741 71.1367L137.122 68.871L135.846 66.9875C136.72 65.774 137.332 64.3919 137.643 62.9291L140.18 62.5705L140.261 59.2851L137.722 58.7973C137.474 57.3643 136.938 55.9964 136.147 54.776ZM133.198 67.0123C131.942 68.2074 130.36 69.0034 128.652 69.2996C126.944 69.5957 125.186 69.3787 123.602 68.676C122.017 67.9733 120.676 66.8165 119.749 65.3518C118.822 63.8871 118.35 62.1803 118.392 60.4473C118.435 58.7143 118.991 57.0329 119.989 55.6158C120.988 54.1986 122.384 53.1093 124.001 52.4856C125.619 51.862 127.385 51.7319 129.076 52.112C130.767 52.492 132.308 53.365 133.503 54.6207C135.106 56.3045 135.974 58.5559 135.917 60.8798C135.859 63.2037 134.881 65.4096 133.198 67.0123Z" fill="#F1F1F1"/>
</svg>
