<svg width="15" height="16" viewBox="0 0 15 16" fill="none" xmlns="http://www.w3.org/2000/svg">
<path fill-rule="evenodd" clip-rule="evenodd" d="M7.5954 4.1788C5.52885 4.1788 3.90512 5.80253 3.90512 7.86908C3.90512 9.93564 5.52885 11.5594 7.5954 11.5594C9.66196 11.5594 11.2857 9.93564 11.2857 7.86908C11.2857 5.80253 9.66196 4.1788 7.5954 4.1788ZM7.5954 0.488525C3.5361 0.488525 0.214844 3.80978 0.214844 7.86908C0.214844 11.9284 3.5361 15.2496 7.5954 15.2496C11.6547 15.2496 14.976 11.9284 14.976 7.86908C14.976 3.80978 11.6547 0.488525 7.5954 0.488525ZM7.5954 13.7735C4.34796 13.7735 1.69096 11.1165 1.69096 7.86908C1.69096 4.62164 4.34796 1.96464 7.5954 1.96464C10.8428 1.96464 13.4998 4.62164 13.4998 7.86908C13.4998 11.1165 10.8428 13.7735 7.5954 13.7735Z" fill="#445FD2"/>
</svg>
