<svg width="16" height="16" viewBox="0 0 16 16" fill="none" xmlns="http://www.w3.org/2000/svg">
<path fill-rule="evenodd" clip-rule="evenodd" d="M8 16C12.4183 16 16 12.4183 16 8C16 3.58172 12.4183 0 8 0C3.58172 0 0 3.58172 0 8C0 12.4183 3.58172 16 8 16Z" fill="#375DBB"/>
<path fill-rule="evenodd" clip-rule="evenodd" d="M12.9496 6.29301C13.3401 5.90248 13.3401 5.26932 12.9496 4.8788C12.5591 4.48827 11.9259 4.48827 11.5354 4.8788L6.58564 9.82854L4.46432 7.70722C4.07379 7.3167 3.44063 7.3167 3.0501 7.70722C2.65958 8.09775 2.65958 8.73091 3.0501 9.12144L5.87853 11.9499C6.26905 12.3404 6.90222 12.3404 7.29274 11.9499L12.9496 6.29301Z" fill="white"/>
</svg>
