<svg width="32" height="21" viewBox="0 0 32 21" fill="none" xmlns="http://www.w3.org/2000/svg">
<g clip-path="url(#clip0_563_4952)">
<path fill-rule="evenodd" clip-rule="evenodd" d="M0 1.5C0 0.671573 0.671573 0 1.5 0H30.5C31.3284 0 32 0.671573 32 1.5V19.5C32 20.3284 31.3284 21 30.5 21H1.5C0.671573 21 0 20.3284 0 19.5V1.5Z" fill="url(#paint0_radial_563_4952)"/>
<path fill-rule="evenodd" clip-rule="evenodd" d="M0 1.5C0 0.671573 0.671573 0 1.5 0H30.5C31.3284 0 32 0.671573 32 1.5V19.5C32 20.3284 31.3284 21 30.5 21H1.5C0.671573 21 0 20.3284 0 19.5V1.5Z" fill="#E5E5E5" fill-opacity="0.01"/>
<mask id="path-3-outside-1_563_4952" maskUnits="userSpaceOnUse" x="3.56787" y="7" width="25" height="7" fill="black">
<rect fill="white" x="3.56787" y="7" width="25" height="7"/>
<path fill-rule="evenodd" clip-rule="evenodd" d="M7.39631 11.0672L8.06315 9.23249H8.07749L8.72282 11.0672H7.39631ZM7.50386 8L5.56787 13H6.70078L7.10232 11.8866H9.0168L9.404 13H10.5728L8.65828 8H7.50386ZM11.0173 8V13H12.0714V9.4916H12.0857L13.3405 13H14.2081L15.4629 9.45658H15.4773V13H16.5313V8H14.9467L13.8138 11.4384H13.7994L12.602 8H11.0173ZM17.5208 8V13H21.4071V12.0756H18.6466V10.8501H21.1275V9.9958H18.6466V8.92437H21.3498V8H17.5208ZM23.422 10.381L21.6366 13H22.8986L24.0387 11.2703L25.1572 13H26.4981L24.7127 10.388L26.3547 8H25.1214L24.0817 9.59664L23.0778 8H21.7728L23.422 10.381Z"/>
</mask>
<path fill-rule="evenodd" clip-rule="evenodd" d="M7.39631 11.0672L8.06315 9.23249H8.07749L8.72282 11.0672H7.39631ZM7.50386 8L5.56787 13H6.70078L7.10232 11.8866H9.0168L9.404 13H10.5728L8.65828 8H7.50386ZM11.0173 8V13H12.0714V9.4916H12.0857L13.3405 13H14.2081L15.4629 9.45658H15.4773V13H16.5313V8H14.9467L13.8138 11.4384H13.7994L12.602 8H11.0173ZM17.5208 8V13H21.4071V12.0756H18.6466V10.8501H21.1275V9.9958H18.6466V8.92437H21.3498V8H17.5208ZM23.422 10.381L21.6366 13H22.8986L24.0387 11.2703L25.1572 13H26.4981L24.7127 10.388L26.3547 8H25.1214L24.0817 9.59664L23.0778 8H21.7728L23.422 10.381Z" fill="#1793C0" fill-opacity="0.01"/>
<path d="M7.39631 11.0672L6.45646 10.7256L5.96885 12.0672H7.39631V11.0672ZM8.06315 9.23249V8.23249H7.3626L7.1233 8.8909L8.06315 9.23249ZM8.07749 9.23249L9.02084 8.90069L8.78581 8.23249H8.07749V9.23249ZM8.72282 11.0672V12.0672H10.1346L9.66617 10.7354L8.72282 11.0672ZM7.50386 8V7H6.81871L6.57132 7.63892L7.50386 8ZM5.56787 13L4.63533 12.6389L4.10833 14H5.56787V13ZM6.70078 13V14H7.4032L7.64148 13.3392L6.70078 13ZM7.10232 11.8866V10.8866H6.39991L6.16162 11.5473L7.10232 11.8866ZM9.0168 11.8866L9.96132 11.5581L9.72779 10.8866H9.0168V11.8866ZM9.404 13L8.45948 13.3285L8.69301 14H9.404V13ZM10.5728 13V14H12.0265L11.5066 12.6424L10.5728 13ZM8.65828 8L9.59217 7.64242L9.34619 7H8.65828V8ZM11.0173 8V7H10.0173V8H11.0173ZM11.0173 13H10.0173V14H11.0173V13ZM12.0714 13V14H13.0714V13H12.0714ZM12.0714 9.4916V8.4916H11.0714V9.4916H12.0714ZM12.0857 9.4916L13.0273 9.15483L12.7901 8.4916H12.0857V9.4916ZM13.3405 13L12.3989 13.3368L12.6361 14H13.3405V13ZM14.2081 13V14H14.9148L15.1508 13.3338L14.2081 13ZM15.4629 9.45658V8.45658H14.7562L14.5203 9.12277L15.4629 9.45658ZM15.4773 9.45658H16.4773V8.45658H15.4773V9.45658ZM15.4773 13H14.4773V14H15.4773V13ZM16.5313 13V14H17.5313V13H16.5313ZM16.5313 8H17.5313V7H16.5313V8ZM14.9467 8V7H14.2233L13.9969 7.68706L14.9467 8ZM13.8138 11.4384V12.4384H14.5371L14.7635 11.7513L13.8138 11.4384ZM13.7994 11.4384L12.855 11.7673L13.0888 12.4384H13.7994V11.4384ZM12.602 8L13.5463 7.67111L13.3126 7H12.602V8ZM17.5208 8V7H16.5208V8H17.5208ZM17.5208 13H16.5208V14H17.5208V13ZM21.4071 13V14H22.4071V13H21.4071ZM21.4071 12.0756H22.4071V11.0756H21.4071V12.0756ZM18.6466 12.0756H17.6466V13.0756H18.6466V12.0756ZM18.6466 10.8501V9.85014H17.6466V10.8501H18.6466ZM21.1275 10.8501V11.8501H22.1275V10.8501H21.1275ZM21.1275 9.9958H22.1275V8.9958H21.1275V9.9958ZM18.6466 9.9958H17.6466V10.9958H18.6466V9.9958ZM18.6466 8.92437V7.92437H17.6466V8.92437H18.6466ZM21.3498 8.92437V9.92437H22.3498V8.92437H21.3498ZM21.3498 8H22.3498V7H21.3498V8ZM23.422 10.381L24.2483 10.9442L24.6353 10.3764L24.2441 9.81155L23.422 10.381ZM21.6366 13L20.8103 12.4367L19.7446 14H21.6366V13ZM22.8986 13V14H23.4371L23.7335 13.5503L22.8986 13ZM24.0387 11.2703L24.8784 10.7273L24.0466 9.44113L23.2037 10.72L24.0387 11.2703ZM25.1572 13L24.3175 13.543L24.613 14H25.1572V13ZM26.4981 13V14H28.3929L27.3236 12.4357L26.4981 13ZM24.7127 10.388L23.8887 9.82136L23.5002 10.3863L23.8871 10.9523L24.7127 10.388ZM26.3547 8L27.1787 8.5666L28.2559 7H26.3547V8ZM25.1214 8V7H24.5792L24.2834 7.45432L25.1214 8ZM24.0817 9.59664L23.2351 10.1289L24.0669 11.4519L24.9197 10.1423L24.0817 9.59664ZM23.0778 8L23.9244 7.46774L23.6303 7H23.0778V8ZM21.7728 8V7H19.8637L20.9508 8.5694L21.7728 8ZM8.33615 11.4088L9.003 9.57408L7.1233 8.8909L6.45646 10.7256L8.33615 11.4088ZM8.06315 10.2325H8.07749V8.23249H8.06315V10.2325ZM7.13414 9.5643L7.77947 11.399L9.66617 10.7354L9.02084 8.90069L7.13414 9.5643ZM8.72282 10.0672H7.39631V12.0672H8.72282V10.0672ZM6.57132 7.63892L4.63533 12.6389L6.50041 13.3611L8.4364 8.36108L6.57132 7.63892ZM5.56787 14H6.70078V12H5.56787V14ZM7.64148 13.3392L8.04302 12.2258L6.16162 11.5473L5.76008 12.6608L7.64148 13.3392ZM7.10232 12.8866H9.0168V10.8866H7.10232V12.8866ZM8.07228 12.215L8.45948 13.3285L10.3485 12.6715L9.96132 11.5581L8.07228 12.215ZM9.404 14H10.5728V12H9.404V14ZM11.5066 12.6424L9.59217 7.64242L7.7244 8.35758L9.63888 13.3576L11.5066 12.6424ZM8.65828 7H7.50386V9H8.65828V7ZM10.0173 8V13H12.0173V8H10.0173ZM11.0173 14H12.0714V12H11.0173V14ZM13.0714 13V9.4916H11.0714V13H13.0714ZM12.0714 10.4916H12.0857V8.4916H12.0714V10.4916ZM11.1441 9.82836L12.3989 13.3368L14.2821 12.6632L13.0273 9.15483L11.1441 9.82836ZM13.3405 14H14.2081V12H13.3405V14ZM15.1508 13.3338L16.4056 9.79039L14.5203 9.12277L13.2655 12.6662L15.1508 13.3338ZM15.4629 10.4566H15.4773V8.45658H15.4629V10.4566ZM14.4773 9.45658V13H16.4773V9.45658H14.4773ZM15.4773 14H16.5313V12H15.4773V14ZM17.5313 13V8H15.5313V13H17.5313ZM16.5313 7H14.9467V9H16.5313V7ZM13.9969 7.68706L12.864 11.1254L14.7635 11.7513L15.8964 8.31294L13.9969 7.68706ZM13.8138 10.4384H13.7994V12.4384H13.8138V10.4384ZM14.7438 11.1095L13.5463 7.67111L11.6576 8.32889L12.855 11.7673L14.7438 11.1095ZM12.602 7H11.0173V9H12.602V7ZM16.5208 8V13H18.5208V8H16.5208ZM17.5208 14H21.4071V12H17.5208V14ZM22.4071 13V12.0756H20.4071V13H22.4071ZM21.4071 11.0756H18.6466V13.0756H21.4071V11.0756ZM19.6466 12.0756V10.8501H17.6466V12.0756H19.6466ZM18.6466 11.8501H21.1275V9.85014H18.6466V11.8501ZM22.1275 10.8501V9.9958H20.1275V10.8501H22.1275ZM21.1275 8.9958H18.6466V10.9958H21.1275V8.9958ZM19.6466 9.9958V8.92437H17.6466V9.9958H19.6466ZM18.6466 9.92437H21.3498V7.92437H18.6466V9.92437ZM22.3498 8.92437V8H20.3498V8.92437H22.3498ZM21.3498 7H17.5208V9H21.3498V7ZM22.5957 9.81768L20.8103 12.4367L22.4629 13.5633L24.2483 10.9442L22.5957 9.81768ZM21.6366 14H22.8986V12H21.6366V14ZM23.7335 13.5503L24.8736 11.8206L23.2037 10.72L22.0636 12.4497L23.7335 13.5503ZM23.1989 11.8133L24.3175 13.543L25.9969 12.457L24.8784 10.7273L23.1989 11.8133ZM25.1572 14H26.4981V12H25.1572V14ZM27.3236 12.4357L25.5382 9.82365L23.8871 10.9523L25.6725 13.5643L27.3236 12.4357ZM25.5367 10.9546L27.1787 8.5666L25.5307 7.4334L23.8887 9.82136L25.5367 10.9546ZM26.3547 7H25.1214V9H26.3547V7ZM24.2834 7.45432L23.2437 9.05096L24.9197 10.1423L25.9594 8.54568L24.2834 7.45432ZM24.9283 9.06437L23.9244 7.46774L22.2312 8.53226L23.2351 10.1289L24.9283 9.06437ZM23.0778 7H21.7728V9H23.0778V7ZM20.9508 8.5694L22.5999 10.9504L24.2441 9.81155L22.5949 7.4306L20.9508 8.5694Z" fill="white" mask="url(#path-3-outside-1_563_4952)"/>
</g>
<defs>
<radialGradient id="paint0_radial_563_4952" cx="0" cy="0" r="1" gradientUnits="userSpaceOnUse" gradientTransform="translate(10.7461 3.98047) rotate(90) scale(21 32)">
<stop stop-color="#71C8F2"/>
<stop offset="1" stop-color="#0071BD"/>
</radialGradient>
<clipPath id="clip0_563_4952">
<rect width="32" height="21" fill="white"/>
</clipPath>
</defs>
</svg>
