<svg width="354" height="210" viewBox="0 0 354 210" fill="none" xmlns="http://www.w3.org/2000/svg">
<rect width="354" height="210" rx="15" fill="#445FD2"/>
<path d="M43.712 24.768V36H40.976V29.264L38.464 36H36.256L33.728 29.248V36H30.992V24.768H34.224L37.376 32.544L40.496 24.768H43.712ZM45.1355 31.52C45.1355 30.6027 45.3062 29.7973 45.6475 29.104C45.9995 28.4107 46.4742 27.8773 47.0715 27.504C47.6688 27.1307 48.3355 26.944 49.0715 26.944C49.7008 26.944 50.2502 27.072 50.7195 27.328C51.1995 27.584 51.5675 27.92 51.8235 28.336V27.072H54.5595V36H51.8235V34.736C51.5568 35.152 51.1835 35.488 50.7035 35.744C50.2342 36 49.6848 36.128 49.0555 36.128C48.3302 36.128 47.6688 35.9413 47.0715 35.568C46.4742 35.184 45.9995 34.6453 45.6475 33.952C45.3062 33.248 45.1355 32.4373 45.1355 31.52ZM51.8235 31.536C51.8235 30.8533 51.6315 30.3147 51.2475 29.92C50.8742 29.5253 50.4155 29.328 49.8715 29.328C49.3275 29.328 48.8635 29.5253 48.4795 29.92C48.1062 30.304 47.9195 30.8373 47.9195 31.52C47.9195 32.2027 48.1062 32.7467 48.4795 33.152C48.8635 33.5467 49.3275 33.744 49.8715 33.744C50.4155 33.744 50.8742 33.5467 51.2475 33.152C51.6315 32.7573 51.8235 32.2187 51.8235 31.536ZM59.9309 26.944C60.5602 26.944 61.1095 27.072 61.5789 27.328C62.0589 27.584 62.4269 27.92 62.6829 28.336V27.072H65.4189V35.984C65.4189 36.8053 65.2535 37.5467 64.9229 38.208C64.6029 38.88 64.1069 39.4133 63.4349 39.808C62.7735 40.2027 61.9469 40.4 60.9549 40.4C59.6322 40.4 58.5602 40.0853 57.7389 39.456C56.9175 38.8373 56.4482 37.9947 56.3309 36.928H59.0349C59.1202 37.2693 59.3229 37.536 59.6429 37.728C59.9629 37.9307 60.3575 38.032 60.8269 38.032C61.3922 38.032 61.8402 37.8667 62.1709 37.536C62.5122 37.216 62.6829 36.6987 62.6829 35.984V34.72C62.4162 35.136 62.0482 35.4773 61.5789 35.744C61.1095 36 60.5602 36.128 59.9309 36.128C59.1949 36.128 58.5282 35.9413 57.9309 35.568C57.3335 35.184 56.8589 34.6453 56.5069 33.952C56.1655 33.248 55.9949 32.4373 55.9949 31.52C55.9949 30.6027 56.1655 29.7973 56.5069 29.104C56.8589 28.4107 57.3335 27.8773 57.9309 27.504C58.5282 27.1307 59.1949 26.944 59.9309 26.944ZM62.6829 31.536C62.6829 30.8533 62.4909 30.3147 62.1069 29.92C61.7335 29.5253 61.2749 29.328 60.7309 29.328C60.1869 29.328 59.7229 29.5253 59.3389 29.92C58.9655 30.304 58.7789 30.8373 58.7789 31.52C58.7789 32.2027 58.9655 32.7467 59.3389 33.152C59.7229 33.5467 60.1869 33.744 60.7309 33.744C61.2749 33.744 61.7335 33.5467 62.1069 33.152C62.4909 32.7573 62.6829 32.2187 62.6829 31.536ZM70.1343 24.16V36H67.3983V24.16H70.1343ZM76.181 36.128C75.3063 36.128 74.517 35.9413 73.813 35.568C73.1197 35.1947 72.5703 34.6613 72.165 33.968C71.7703 33.2747 71.573 32.464 71.573 31.536C71.573 30.6187 71.7757 29.8133 72.181 29.12C72.5863 28.416 73.141 27.8773 73.845 27.504C74.549 27.1307 75.3383 26.944 76.213 26.944C77.0877 26.944 77.877 27.1307 78.581 27.504C79.285 27.8773 79.8397 28.416 80.245 29.12C80.6503 29.8133 80.853 30.6187 80.853 31.536C80.853 32.4533 80.645 33.264 80.229 33.968C79.8237 34.6613 79.2637 35.1947 78.549 35.568C77.845 35.9413 77.0557 36.128 76.181 36.128ZM76.181 33.76C76.7037 33.76 77.1463 33.568 77.509 33.184C77.8823 32.8 78.069 32.2507 78.069 31.536C78.069 30.8213 77.8877 30.272 77.525 29.888C77.173 29.504 76.7357 29.312 76.213 29.312C75.6797 29.312 75.237 29.504 74.885 29.888C74.533 30.2613 74.357 30.8107 74.357 31.536C74.357 32.2507 74.5277 32.8 74.869 33.184C75.221 33.568 75.6583 33.76 76.181 33.76ZM83.5845 36.128C83.1045 36.128 82.7098 35.9893 82.4005 35.712C82.1018 35.424 81.9525 35.072 81.9525 34.656C81.9525 34.2293 82.1018 33.872 82.4005 33.584C82.7098 33.296 83.1045 33.152 83.5845 33.152C84.0538 33.152 84.4378 33.296 84.7365 33.584C85.0458 33.872 85.2005 34.2293 85.2005 34.656C85.2005 35.072 85.0458 35.424 84.7365 35.712C84.4378 35.9893 84.0538 36.128 83.5845 36.128Z" fill="white"/>
<path d="M107.256 25.66V30.976C107.256 31.608 107.42 32.084 107.748 32.404C108.084 32.724 108.548 32.884 109.14 32.884C109.74 32.884 110.204 32.724 110.532 32.404C110.868 32.084 111.036 31.608 111.036 30.976V25.66H112.404V30.952C112.404 31.632 112.256 32.208 111.96 32.68C111.664 33.152 111.268 33.504 110.772 33.736C110.276 33.968 109.728 34.084 109.128 34.084C108.528 34.084 107.98 33.968 107.484 33.736C106.996 33.504 106.608 33.152 106.32 32.68C106.032 32.208 105.888 31.632 105.888 30.952V25.66H107.256ZM117.521 27.28C118.041 27.28 118.505 27.388 118.913 27.604C119.329 27.82 119.653 28.14 119.885 28.564C120.117 28.988 120.233 29.5 120.233 30.1V34H118.877V30.304C118.877 29.712 118.729 29.26 118.433 28.948C118.137 28.628 117.733 28.468 117.221 28.468C116.709 28.468 116.301 28.628 115.997 28.948C115.701 29.26 115.553 29.712 115.553 30.304V34H114.185V27.388H115.553V28.144C115.777 27.872 116.061 27.66 116.405 27.508C116.757 27.356 117.129 27.28 117.521 27.28ZM122.674 26.512C122.426 26.512 122.218 26.428 122.05 26.26C121.882 26.092 121.798 25.884 121.798 25.636C121.798 25.388 121.882 25.18 122.05 25.012C122.218 24.844 122.426 24.76 122.674 24.76C122.914 24.76 123.118 24.844 123.286 25.012C123.454 25.18 123.538 25.388 123.538 25.636C123.538 25.884 123.454 26.092 123.286 26.26C123.118 26.428 122.914 26.512 122.674 26.512ZM123.346 27.388V34H121.978V27.388H123.346ZM127.698 32.776L129.57 27.388H131.022L128.502 34H126.87L124.362 27.388H125.826L127.698 32.776ZM138.116 30.532C138.116 30.78 138.1 31.004 138.068 31.204H133.016C133.056 31.732 133.252 32.156 133.604 32.476C133.956 32.796 134.388 32.956 134.9 32.956C135.636 32.956 136.156 32.648 136.46 32.032H137.936C137.736 32.64 137.372 33.14 136.844 33.532C136.324 33.916 135.676 34.108 134.9 34.108C134.268 34.108 133.7 33.968 133.196 33.688C132.7 33.4 132.308 33 132.02 32.488C131.74 31.968 131.6 31.368 131.6 30.688C131.6 30.008 131.736 29.412 132.008 28.9C132.288 28.38 132.676 27.98 133.172 27.7C133.676 27.42 134.252 27.28 134.9 27.28C135.524 27.28 136.08 27.416 136.568 27.688C137.056 27.96 137.436 28.344 137.708 28.84C137.98 29.328 138.116 29.892 138.116 30.532ZM136.688 30.1C136.68 29.596 136.5 29.192 136.148 28.888C135.796 28.584 135.36 28.432 134.84 28.432C134.368 28.432 133.964 28.584 133.628 28.888C133.292 29.184 133.092 29.588 133.028 30.1H136.688ZM140.831 28.348C141.031 28.012 141.295 27.752 141.623 27.568C141.959 27.376 142.355 27.28 142.811 27.28V28.696H142.463C141.927 28.696 141.519 28.832 141.239 29.104C140.967 29.376 140.831 29.848 140.831 30.52V34H139.463V27.388H140.831V28.348ZM146.468 34.108C145.948 34.108 145.48 34.016 145.064 33.832C144.656 33.64 144.332 33.384 144.092 33.064C143.852 32.736 143.724 32.372 143.708 31.972H145.124C145.148 32.252 145.28 32.488 145.52 32.68C145.768 32.864 146.076 32.956 146.444 32.956C146.828 32.956 147.124 32.884 147.332 32.74C147.548 32.588 147.656 32.396 147.656 32.164C147.656 31.916 147.536 31.732 147.296 31.612C147.064 31.492 146.692 31.36 146.18 31.216C145.684 31.08 145.28 30.948 144.968 30.82C144.656 30.692 144.384 30.496 144.152 30.232C143.928 29.968 143.816 29.62 143.816 29.188C143.816 28.836 143.92 28.516 144.128 28.228C144.336 27.932 144.632 27.7 145.016 27.532C145.408 27.364 145.856 27.28 146.36 27.28C147.112 27.28 147.716 27.472 148.172 27.856C148.636 28.232 148.884 28.748 148.916 29.404H147.548C147.524 29.108 147.404 28.872 147.188 28.696C146.972 28.52 146.68 28.432 146.312 28.432C145.952 28.432 145.676 28.5 145.484 28.636C145.292 28.772 145.196 28.952 145.196 29.176C145.196 29.352 145.26 29.5 145.388 29.62C145.516 29.74 145.672 29.836 145.856 29.908C146.04 29.972 146.312 30.056 146.672 30.16C147.152 30.288 147.544 30.42 147.848 30.556C148.16 30.684 148.428 30.876 148.652 31.132C148.876 31.388 148.992 31.728 149 32.152C149 32.528 148.896 32.864 148.688 33.16C148.48 33.456 148.184 33.688 147.8 33.856C147.424 34.024 146.98 34.108 146.468 34.108ZM150.022 30.664C150.022 30 150.158 29.412 150.43 28.9C150.71 28.388 151.086 27.992 151.558 27.712C152.038 27.424 152.566 27.28 153.142 27.28C153.662 27.28 154.114 27.384 154.498 27.592C154.89 27.792 155.202 28.044 155.434 28.348V27.388H156.814V34H155.434V33.016C155.202 33.328 154.886 33.588 154.486 33.796C154.086 34.004 153.63 34.108 153.118 34.108C152.55 34.108 152.03 33.964 151.558 33.676C151.086 33.38 150.71 32.972 150.43 32.452C150.158 31.924 150.022 31.328 150.022 30.664ZM155.434 30.688C155.434 30.232 155.338 29.836 155.146 29.5C154.962 29.164 154.718 28.908 154.414 28.732C154.11 28.556 153.782 28.468 153.43 28.468C153.078 28.468 152.75 28.556 152.446 28.732C152.142 28.9 151.894 29.152 151.702 29.488C151.518 29.816 151.426 30.208 151.426 30.664C151.426 31.12 151.518 31.52 151.702 31.864C151.894 32.208 152.142 32.472 152.446 32.656C152.758 32.832 153.086 32.92 153.43 32.92C153.782 32.92 154.11 32.832 154.414 32.656C154.718 32.48 154.962 32.224 155.146 31.888C155.338 31.544 155.434 31.144 155.434 30.688ZM159.979 25.12V34H158.611V25.12H159.979ZM169.356 29.716C169.804 29.796 170.184 30.032 170.496 30.424C170.808 30.816 170.964 31.26 170.964 31.756C170.964 32.18 170.852 32.564 170.628 32.908C170.412 33.244 170.096 33.512 169.68 33.712C169.264 33.904 168.78 34 168.228 34H164.892V25.66H168.072C168.64 25.66 169.128 25.756 169.536 25.948C169.944 26.14 170.252 26.4 170.46 26.728C170.668 27.048 170.772 27.408 170.772 27.808C170.772 28.288 170.644 28.688 170.388 29.008C170.132 29.328 169.788 29.564 169.356 29.716ZM166.26 29.164H167.952C168.4 29.164 168.748 29.064 168.996 28.864C169.252 28.656 169.38 28.36 169.38 27.976C169.38 27.6 169.252 27.308 168.996 27.1C168.748 26.884 168.4 26.776 167.952 26.776H166.26V29.164ZM168.108 32.884C168.572 32.884 168.936 32.772 169.2 32.548C169.464 32.324 169.596 32.012 169.596 31.612C169.596 31.204 169.456 30.88 169.176 30.64C168.896 30.4 168.524 30.28 168.06 30.28H166.26V32.884H168.108ZM171.995 30.664C171.995 30 172.131 29.412 172.403 28.9C172.683 28.388 173.059 27.992 173.531 27.712C174.011 27.424 174.539 27.28 175.115 27.28C175.635 27.28 176.087 27.384 176.471 27.592C176.863 27.792 177.175 28.044 177.407 28.348V27.388H178.787V34H177.407V33.016C177.175 33.328 176.859 33.588 176.459 33.796C176.059 34.004 175.603 34.108 175.091 34.108C174.523 34.108 174.003 33.964 173.531 33.676C173.059 33.38 172.683 32.972 172.403 32.452C172.131 31.924 171.995 31.328 171.995 30.664ZM177.407 30.688C177.407 30.232 177.311 29.836 177.119 29.5C176.935 29.164 176.691 28.908 176.387 28.732C176.083 28.556 175.755 28.468 175.403 28.468C175.051 28.468 174.723 28.556 174.419 28.732C174.115 28.9 173.867 29.152 173.675 29.488C173.491 29.816 173.399 30.208 173.399 30.664C173.399 31.12 173.491 31.52 173.675 31.864C173.867 32.208 174.115 32.472 174.419 32.656C174.731 32.832 175.059 32.92 175.403 32.92C175.755 32.92 176.083 32.832 176.387 32.656C176.691 32.48 176.935 32.224 177.119 31.888C177.311 31.544 177.407 31.144 177.407 30.688ZM183.92 27.28C184.44 27.28 184.904 27.388 185.312 27.604C185.728 27.82 186.052 28.14 186.284 28.564C186.516 28.988 186.632 29.5 186.632 30.1V34H185.276V30.304C185.276 29.712 185.128 29.26 184.832 28.948C184.536 28.628 184.132 28.468 183.62 28.468C183.108 28.468 182.7 28.628 182.396 28.948C182.1 29.26 181.952 29.712 181.952 30.304V34H180.584V27.388H181.952V28.144C182.176 27.872 182.46 27.66 182.804 27.508C183.156 27.356 183.528 27.28 183.92 27.28ZM190.993 30.7L194.041 34H192.193L189.745 31.156V34H188.377V25.12H189.745V30.28L192.145 27.388H194.041L190.993 30.7Z" fill="white"/>
<rect x="96" y="20" width="1" height="20" fill="#626261"/>
<path d="M64.259 97.8716L33.7923 97.9999C31.7737 98.0116 30.1051 96.3547 30.0934 94.336L30.0001 71.8273C29.9884 69.8087 31.6453 68.1401 33.664 68.1284L64.1306 68.0001C66.1493 67.9884 67.8179 69.6453 67.8295 71.664L67.9229 94.1727C67.9346 96.203 66.2776 97.8716 64.259 97.8716Z" fill="#B2AEA9"/>
<path d="M44.6557 93.9742C44.4924 93.9742 44.3407 93.8925 44.259 93.7409C44.1423 93.5308 44.2357 93.2624 44.4457 93.1458C45.0758 92.819 45.9393 92.2006 46.4294 91.1504C47.0595 89.8085 46.8844 88.35 46.616 88.2333C46.546 88.1983 46.2893 88.3383 46.126 88.42C45.7176 88.63 45.1458 88.9217 44.4807 88.7C43.8273 88.4783 43.5122 87.9066 43.3605 87.6265C42.357 85.8179 42.0303 81.0921 43.0688 78.7351C43.4189 77.9533 43.8856 77.4865 44.469 77.3465C45.0641 77.2065 45.5542 77.4515 45.9509 77.6499C46.2777 77.8133 46.441 77.8833 46.5344 77.8249C46.9428 77.5799 46.9311 76.0746 46.3477 74.8844C45.8459 73.8343 44.9825 73.2275 44.3407 72.9008C44.1306 72.7958 44.0373 72.5274 44.154 72.3174C44.259 72.1073 44.5274 72.014 44.7374 72.1307C45.4959 72.5157 46.5227 73.2392 47.1295 74.5111C47.7362 75.7713 48.028 77.9416 46.9778 78.5834C46.4527 78.9101 45.9393 78.6534 45.5425 78.4434C45.2392 78.2917 44.9474 78.14 44.6674 78.21C44.2823 78.3033 44.014 78.7467 43.8623 79.0968C42.9521 81.1505 43.2322 85.6195 44.119 87.2064C44.2707 87.4748 44.4457 87.7665 44.7608 87.8716C45.0525 87.9766 45.3325 87.8482 45.7292 87.6382C46.1143 87.4398 46.546 87.2181 47.0011 87.4398C47.9813 87.9066 47.9229 90.0186 47.2228 91.5238C46.6277 92.8074 45.6009 93.5308 44.8424 93.9275C44.7958 93.9625 44.7257 93.9742 44.6557 93.9742Z" fill="#3D3D3C"/>
<path d="M43.2796 79.5287L35.3917 79.5637C35.1466 79.5637 34.9482 79.3653 34.9482 79.132C34.9482 78.8869 35.1466 78.6886 35.38 78.6886L43.2679 78.6536C43.513 78.6536 43.7113 78.8519 43.7113 79.0853C43.723 79.3303 43.5246 79.5287 43.2796 79.5287Z" fill="#3D3D3C"/>
<path d="M43.3138 87.4166L35.4258 87.4517C35.1808 87.4517 34.9824 87.2533 34.9824 87.0199C34.9824 86.7749 35.1808 86.5765 35.4142 86.5765L43.3021 86.5415C43.5472 86.5415 43.7455 86.7399 43.7455 86.9732C43.7455 87.2066 43.5588 87.4166 43.3138 87.4166Z" fill="#3D3D3C"/>
<path d="M53.8505 93.9396C53.7805 93.9396 53.7105 93.9279 53.6522 93.8929C52.8937 93.5079 51.8669 92.7844 51.2601 91.5125C50.5367 90.019 50.4667 87.9069 51.4468 87.4285C51.9019 87.2068 52.3336 87.4285 52.7187 87.6152C53.1154 87.8136 53.3955 87.9419 53.6872 87.8369C54.0139 87.7202 54.2006 87.3702 54.3173 87.1601C55.1808 85.5616 55.4258 81.0925 54.504 79.0505C54.3406 78.7004 54.0723 78.257 53.6872 78.1754C53.4538 78.117 53.3021 77.8836 53.3605 77.6503C53.4188 77.4169 53.6522 77.2652 53.8856 77.3236C54.469 77.4636 54.9474 77.9186 55.2974 78.7004C56.3593 81.0458 56.0676 85.7716 55.0874 87.5919C54.9357 87.8719 54.6207 88.4554 53.9789 88.6771C53.3138 88.9104 52.742 88.6187 52.3336 88.4087C52.1703 88.327 51.9019 88.1987 51.8436 88.222C51.5752 88.3503 51.4235 89.8089 52.0653 91.1391C52.567 92.1893 53.4305 92.7961 54.0722 93.1228C54.2823 93.2278 54.3756 93.4962 54.2589 93.7062C54.1656 93.8462 54.0139 93.9396 53.8505 93.9396Z" fill="#3D3D3C"/>
<path d="M52.0306 77.7433C51.8439 77.7433 51.6805 77.6266 51.6105 77.4399C50.6654 74.6278 52.8474 72.4458 53.5592 72.084C53.7692 71.9673 54.0376 72.0607 54.1543 72.2707C54.2709 72.4808 54.1776 72.7491 53.9676 72.8658C53.6525 73.0292 51.6455 74.7678 52.4507 77.1599C52.5323 77.3932 52.404 77.6383 52.1706 77.72C52.1239 77.7316 52.0773 77.7433 52.0306 77.7433Z" fill="#3D3D3C"/>
<path d="M62.9876 79.4469L55.0997 79.4819C54.8546 79.4819 54.6562 79.2836 54.6562 79.0502C54.6562 78.8051 54.8546 78.6068 55.088 78.6068L62.9759 78.5718C63.221 78.5718 63.4193 78.7701 63.4193 79.0035C63.431 79.2485 63.2326 79.4469 62.9876 79.4469Z" fill="#3D3D3C"/>
<path d="M63.0218 87.3349L55.1338 87.3699C54.8888 87.3699 54.6904 87.1715 54.6904 86.9381C54.6904 86.6931 54.8888 86.4947 55.1222 86.4947L63.0101 86.4597C63.2552 86.4597 63.4535 86.6581 63.4535 86.8915C63.4652 87.1365 63.2668 87.3349 63.0218 87.3349Z" fill="#3D3D3C"/>
<path d="M306.227 71.7513C310.93 77.6638 310.93 85.35 306.227 91.2625M311.157 67.75C317.787 76.0825 317.787 86.9175 311.157 95.25M301.056 74.3363C304.513 78.6676 304.513 84.3188 301.056 88.65M295.871 77.925C297.599 80.0975 297.599 82.9162 295.871 85.0887" stroke="#BFC5CC" stroke-width="2" stroke-linecap="round" stroke-linejoin="round"/>
<path d="M30.765 131.625C30.765 129.676 31.139 128.14 31.887 127.018C32.6463 125.896 33.8647 125.335 35.542 125.335C37.2193 125.335 38.432 125.896 39.18 127.018C39.9393 128.14 40.319 129.676 40.319 131.625C40.319 133.597 39.9393 135.144 39.18 136.266C38.432 137.388 37.2193 137.949 35.542 137.949C33.8647 137.949 32.6463 137.388 31.887 136.266C31.139 135.144 30.765 133.597 30.765 131.625ZM37.463 131.625C37.463 130.48 37.3383 129.602 37.089 128.99C36.8397 128.367 36.324 128.055 35.542 128.055C34.76 128.055 34.2443 128.367 33.995 128.99C33.7457 129.602 33.621 130.48 33.621 131.625C33.621 132.396 33.6663 133.036 33.757 133.546C33.8477 134.045 34.029 134.453 34.301 134.77C34.5843 135.076 34.998 135.229 35.542 135.229C36.086 135.229 36.494 135.076 36.766 134.77C37.0493 134.453 37.2363 134.045 37.327 133.546C37.4177 133.036 37.463 132.396 37.463 131.625ZM43.5548 131.625C43.5548 129.676 43.9288 128.14 44.6768 127.018C45.4362 125.896 46.6545 125.335 48.3318 125.335C50.0092 125.335 51.2218 125.896 51.9698 127.018C52.7292 128.14 53.1088 129.676 53.1088 131.625C53.1088 133.597 52.7292 135.144 51.9698 136.266C51.2218 137.388 50.0092 137.949 48.3318 137.949C46.6545 137.949 45.4362 137.388 44.6768 136.266C43.9288 135.144 43.5548 133.597 43.5548 131.625ZM50.2528 131.625C50.2528 130.48 50.1282 129.602 49.8788 128.99C49.6295 128.367 49.1138 128.055 48.3318 128.055C47.5498 128.055 47.0342 128.367 46.7848 128.99C46.5355 129.602 46.4108 130.48 46.4108 131.625C46.4108 132.396 46.4562 133.036 46.5468 133.546C46.6375 134.045 46.8188 134.453 47.0908 134.77C47.3742 135.076 47.7878 135.229 48.3318 135.229C48.8758 135.229 49.2838 135.076 49.5558 134.77C49.8392 134.453 50.0262 134.045 50.1168 133.546C50.2075 133.036 50.2528 132.396 50.2528 131.625ZM56.3447 131.625C56.3447 129.676 56.7187 128.14 57.4667 127.018C58.226 125.896 59.4444 125.335 61.1217 125.335C62.799 125.335 64.0117 125.896 64.7597 127.018C65.519 128.14 65.8987 129.676 65.8987 131.625C65.8987 133.597 65.519 135.144 64.7597 136.266C64.0117 137.388 62.799 137.949 61.1217 137.949C59.4444 137.949 58.226 137.388 57.4667 136.266C56.7187 135.144 56.3447 133.597 56.3447 131.625ZM63.0427 131.625C63.0427 130.48 62.918 129.602 62.6687 128.99C62.4194 128.367 61.9037 128.055 61.1217 128.055C60.3397 128.055 59.824 128.367 59.5747 128.99C59.3254 129.602 59.2007 130.48 59.2007 131.625C59.2007 132.396 59.246 133.036 59.3367 133.546C59.4274 134.045 59.6087 134.453 59.8807 134.77C60.164 135.076 60.5777 135.229 61.1217 135.229C61.6657 135.229 62.0737 135.076 62.3457 134.77C62.629 134.453 62.816 134.045 62.9067 133.546C62.9974 133.036 63.0427 132.396 63.0427 131.625ZM69.1345 131.625C69.1345 129.676 69.5085 128.14 70.2565 127.018C71.0159 125.896 72.2342 125.335 73.9115 125.335C75.5889 125.335 76.8015 125.896 77.5495 127.018C78.3089 128.14 78.6885 129.676 78.6885 131.625C78.6885 133.597 78.3089 135.144 77.5495 136.266C76.8015 137.388 75.5889 137.949 73.9115 137.949C72.2342 137.949 71.0159 137.388 70.2565 136.266C69.5085 135.144 69.1345 133.597 69.1345 131.625ZM75.8325 131.625C75.8325 130.48 75.7079 129.602 75.4585 128.99C75.2092 128.367 74.6935 128.055 73.9115 128.055C73.1295 128.055 72.6139 128.367 72.3645 128.99C72.1152 129.602 71.9905 130.48 71.9905 131.625C71.9905 132.396 72.0359 133.036 72.1265 133.546C72.2172 134.045 72.3985 134.453 72.6705 134.77C72.9539 135.076 73.3675 135.229 73.9115 135.229C74.4555 135.229 74.8635 135.076 75.1355 134.77C75.4189 134.453 75.6059 134.045 75.6965 133.546C75.7872 133.036 75.8325 132.396 75.8325 131.625ZM92.5295 131.625C92.5295 129.676 92.9035 128.14 93.6515 127.018C94.4108 125.896 95.6291 125.335 97.3065 125.335C98.9838 125.335 100.196 125.896 100.944 127.018C101.704 128.14 102.083 129.676 102.083 131.625C102.083 133.597 101.704 135.144 100.944 136.266C100.196 137.388 98.9838 137.949 97.3065 137.949C95.6291 137.949 94.4108 137.388 93.6515 136.266C92.9035 135.144 92.5295 133.597 92.5295 131.625ZM99.2275 131.625C99.2275 130.48 99.1028 129.602 98.8535 128.99C98.6041 128.367 98.0885 128.055 97.3065 128.055C96.5245 128.055 96.0088 128.367 95.7595 128.99C95.5101 129.602 95.3855 130.48 95.3855 131.625C95.3855 132.396 95.4308 133.036 95.5215 133.546C95.6121 134.045 95.7935 134.453 96.0655 134.77C96.3488 135.076 96.7625 135.229 97.3065 135.229C97.8505 135.229 98.2585 135.076 98.5305 134.77C98.8138 134.453 99.0008 134.045 99.0915 133.546C99.1821 133.036 99.2275 132.396 99.2275 131.625ZM105.319 131.625C105.319 129.676 105.693 128.14 106.441 127.018C107.201 125.896 108.419 125.335 110.096 125.335C111.774 125.335 112.986 125.896 113.734 127.018C114.494 128.14 114.873 129.676 114.873 131.625C114.873 133.597 114.494 135.144 113.734 136.266C112.986 137.388 111.774 137.949 110.096 137.949C108.419 137.949 107.201 137.388 106.441 136.266C105.693 135.144 105.319 133.597 105.319 131.625ZM112.017 131.625C112.017 130.48 111.893 129.602 111.643 128.99C111.394 128.367 110.878 128.055 110.096 128.055C109.314 128.055 108.799 128.367 108.549 128.99C108.3 129.602 108.175 130.48 108.175 131.625C108.175 132.396 108.221 133.036 108.311 133.546C108.402 134.045 108.583 134.453 108.855 134.77C109.139 135.076 109.552 135.229 110.096 135.229C110.64 135.229 111.048 135.076 111.32 134.77C111.604 134.453 111.791 134.045 111.881 133.546C111.972 133.036 112.017 132.396 112.017 131.625ZM118.109 131.625C118.109 129.676 118.483 128.14 119.231 127.018C119.99 125.896 121.209 125.335 122.886 125.335C124.563 125.335 125.776 125.896 126.524 127.018C127.283 128.14 127.663 129.676 127.663 131.625C127.663 133.597 127.283 135.144 126.524 136.266C125.776 137.388 124.563 137.949 122.886 137.949C121.209 137.949 119.99 137.388 119.231 136.266C118.483 135.144 118.109 133.597 118.109 131.625ZM124.807 131.625C124.807 130.48 124.682 129.602 124.433 128.99C124.184 128.367 123.668 128.055 122.886 128.055C122.104 128.055 121.588 128.367 121.339 128.99C121.09 129.602 120.965 130.48 120.965 131.625C120.965 132.396 121.01 133.036 121.101 133.546C121.192 134.045 121.373 134.453 121.645 134.77C121.928 135.076 122.342 135.229 122.886 135.229C123.43 135.229 123.838 135.076 124.11 134.77C124.393 134.453 124.58 134.045 124.671 133.546C124.762 133.036 124.807 132.396 124.807 131.625ZM130.899 131.625C130.899 129.676 131.273 128.14 132.021 127.018C132.78 125.896 133.999 125.335 135.676 125.335C137.353 125.335 138.566 125.896 139.314 127.018C140.073 128.14 140.453 129.676 140.453 131.625C140.453 133.597 140.073 135.144 139.314 136.266C138.566 137.388 137.353 137.949 135.676 137.949C133.999 137.949 132.78 137.388 132.021 136.266C131.273 135.144 130.899 133.597 130.899 131.625ZM137.597 131.625C137.597 130.48 137.472 129.602 137.223 128.99C136.974 128.367 136.458 128.055 135.676 128.055C134.894 128.055 134.378 128.367 134.129 128.99C133.88 129.602 133.755 130.48 133.755 131.625C133.755 132.396 133.8 133.036 133.891 133.546C133.982 134.045 134.163 134.453 134.435 134.77C134.718 135.076 135.132 135.229 135.676 135.229C136.22 135.229 136.628 135.076 136.9 134.77C137.183 134.453 137.37 134.045 137.461 133.546C137.552 133.036 137.597 132.396 137.597 131.625ZM154.294 131.625C154.294 129.676 154.668 128.14 155.416 127.018C156.175 125.896 157.394 125.335 159.071 125.335C160.748 125.335 161.961 125.896 162.709 127.018C163.468 128.14 163.848 129.676 163.848 131.625C163.848 133.597 163.468 135.144 162.709 136.266C161.961 137.388 160.748 137.949 159.071 137.949C157.394 137.949 156.175 137.388 155.416 136.266C154.668 135.144 154.294 133.597 154.294 131.625ZM160.992 131.625C160.992 130.48 160.867 129.602 160.618 128.99C160.369 128.367 159.853 128.055 159.071 128.055C158.289 128.055 157.773 128.367 157.524 128.99C157.275 129.602 157.15 130.48 157.15 131.625C157.15 132.396 157.195 133.036 157.286 133.546C157.377 134.045 157.558 134.453 157.83 134.77C158.113 135.076 158.527 135.229 159.071 135.229C159.615 135.229 160.023 135.076 160.295 134.77C160.578 134.453 160.765 134.045 160.856 133.546C160.947 133.036 160.992 132.396 160.992 131.625ZM167.084 131.625C167.084 129.676 167.458 128.14 168.206 127.018C168.965 125.896 170.183 125.335 171.861 125.335C173.538 125.335 174.751 125.896 175.499 127.018C176.258 128.14 176.638 129.676 176.638 131.625C176.638 133.597 176.258 135.144 175.499 136.266C174.751 137.388 173.538 137.949 171.861 137.949C170.183 137.949 168.965 137.388 168.206 136.266C167.458 135.144 167.084 133.597 167.084 131.625ZM173.782 131.625C173.782 130.48 173.657 129.602 173.408 128.99C173.158 128.367 172.643 128.055 171.861 128.055C171.079 128.055 170.563 128.367 170.314 128.99C170.064 129.602 169.94 130.48 169.94 131.625C169.94 132.396 169.985 133.036 170.076 133.546C170.166 134.045 170.348 134.453 170.62 134.77C170.903 135.076 171.317 135.229 171.861 135.229C172.405 135.229 172.813 135.076 173.085 134.77C173.368 134.453 173.555 134.045 173.646 133.546C173.736 133.036 173.782 132.396 173.782 131.625ZM179.874 131.625C179.874 129.676 180.248 128.14 180.996 127.018C181.755 125.896 182.973 125.335 184.651 125.335C186.328 125.335 187.541 125.896 188.289 127.018C189.048 128.14 189.428 129.676 189.428 131.625C189.428 133.597 189.048 135.144 188.289 136.266C187.541 137.388 186.328 137.949 184.651 137.949C182.973 137.949 181.755 137.388 180.996 136.266C180.248 135.144 179.874 133.597 179.874 131.625ZM186.572 131.625C186.572 130.48 186.447 129.602 186.198 128.99C185.948 128.367 185.433 128.055 184.651 128.055C183.869 128.055 183.353 128.367 183.104 128.99C182.854 129.602 182.73 130.48 182.73 131.625C182.73 132.396 182.775 133.036 182.866 133.546C182.956 134.045 183.138 134.453 183.41 134.77C183.693 135.076 184.107 135.229 184.651 135.229C185.195 135.229 185.603 135.076 185.875 134.77C186.158 134.453 186.345 134.045 186.436 133.546C186.526 133.036 186.572 132.396 186.572 131.625ZM192.663 131.625C192.663 129.676 193.037 128.14 193.785 127.018C194.545 125.896 195.763 125.335 197.44 125.335C199.118 125.335 200.33 125.896 201.078 127.018C201.838 128.14 202.217 129.676 202.217 131.625C202.217 133.597 201.838 135.144 201.078 136.266C200.33 137.388 199.118 137.949 197.44 137.949C195.763 137.949 194.545 137.388 193.785 136.266C193.037 135.144 192.663 133.597 192.663 131.625ZM199.361 131.625C199.361 130.48 199.237 129.602 198.987 128.99C198.738 128.367 198.222 128.055 197.44 128.055C196.658 128.055 196.143 128.367 195.893 128.99C195.644 129.602 195.519 130.48 195.519 131.625C195.519 132.396 195.565 133.036 195.655 133.546C195.746 134.045 195.927 134.453 196.199 134.77C196.483 135.076 196.896 135.229 197.44 135.229C197.984 135.229 198.392 135.076 198.664 134.77C198.948 134.453 199.135 134.045 199.225 133.546C199.316 133.036 199.361 132.396 199.361 131.625ZM216.058 131.625C216.058 129.676 216.432 128.14 217.18 127.018C217.94 125.896 219.158 125.335 220.835 125.335C222.513 125.335 223.725 125.896 224.473 127.018C225.233 128.14 225.612 129.676 225.612 131.625C225.612 133.597 225.233 135.144 224.473 136.266C223.725 137.388 222.513 137.949 220.835 137.949C219.158 137.949 217.94 137.388 217.18 136.266C216.432 135.144 216.058 133.597 216.058 131.625ZM222.756 131.625C222.756 130.48 222.632 129.602 222.382 128.99C222.133 128.367 221.617 128.055 220.835 128.055C220.053 128.055 219.538 128.367 219.288 128.99C219.039 129.602 218.914 130.48 218.914 131.625C218.914 132.396 218.96 133.036 219.05 133.546C219.141 134.045 219.322 134.453 219.594 134.77C219.878 135.076 220.291 135.229 220.835 135.229C221.379 135.229 221.787 135.076 222.059 134.77C222.343 134.453 222.53 134.045 222.62 133.546C222.711 133.036 222.756 132.396 222.756 131.625ZM228.848 131.625C228.848 129.676 229.222 128.14 229.97 127.018C230.73 125.896 231.948 125.335 233.625 125.335C235.303 125.335 236.515 125.896 237.263 127.018C238.023 128.14 238.402 129.676 238.402 131.625C238.402 133.597 238.023 135.144 237.263 136.266C236.515 137.388 235.303 137.949 233.625 137.949C231.948 137.949 230.73 137.388 229.97 136.266C229.222 135.144 228.848 133.597 228.848 131.625ZM235.546 131.625C235.546 130.48 235.422 129.602 235.172 128.99C234.923 128.367 234.407 128.055 233.625 128.055C232.843 128.055 232.328 128.367 232.078 128.99C231.829 129.602 231.704 130.48 231.704 131.625C231.704 132.396 231.75 133.036 231.84 133.546C231.931 134.045 232.112 134.453 232.384 134.77C232.668 135.076 233.081 135.229 233.625 135.229C234.169 135.229 234.577 135.076 234.849 134.77C235.133 134.453 235.32 134.045 235.41 133.546C235.501 133.036 235.546 132.396 235.546 131.625ZM241.638 131.625C241.638 129.676 242.012 128.14 242.76 127.018C243.519 125.896 244.738 125.335 246.415 125.335C248.092 125.335 249.305 125.896 250.053 127.018C250.812 128.14 251.192 129.676 251.192 131.625C251.192 133.597 250.812 135.144 250.053 136.266C249.305 137.388 248.092 137.949 246.415 137.949C244.738 137.949 243.519 137.388 242.76 136.266C242.012 135.144 241.638 133.597 241.638 131.625ZM248.336 131.625C248.336 130.48 248.211 129.602 247.962 128.99C247.713 128.367 247.197 128.055 246.415 128.055C245.633 128.055 245.117 128.367 244.868 128.99C244.619 129.602 244.494 130.48 244.494 131.625C244.494 132.396 244.539 133.036 244.63 133.546C244.721 134.045 244.902 134.453 245.174 134.77C245.457 135.076 245.871 135.229 246.415 135.229C246.959 135.229 247.367 135.076 247.639 134.77C247.922 134.453 248.109 134.045 248.2 133.546C248.291 133.036 248.336 132.396 248.336 131.625ZM254.428 131.625C254.428 129.676 254.802 128.14 255.55 127.018C256.309 125.896 257.528 125.335 259.205 125.335C260.882 125.335 262.095 125.896 262.843 127.018C263.602 128.14 263.982 129.676 263.982 131.625C263.982 133.597 263.602 135.144 262.843 136.266C262.095 137.388 260.882 137.949 259.205 137.949C257.528 137.949 256.309 137.388 255.55 136.266C254.802 135.144 254.428 133.597 254.428 131.625ZM261.126 131.625C261.126 130.48 261.001 129.602 260.752 128.99C260.503 128.367 259.987 128.055 259.205 128.055C258.423 128.055 257.907 128.367 257.658 128.99C257.409 129.602 257.284 130.48 257.284 131.625C257.284 132.396 257.329 133.036 257.42 133.546C257.511 134.045 257.692 134.453 257.964 134.77C258.247 135.076 258.661 135.229 259.205 135.229C259.749 135.229 260.157 135.076 260.429 134.77C260.712 134.453 260.899 134.045 260.99 133.546C261.081 133.036 261.126 132.396 261.126 131.625Z" fill="white"/>
<path d="M30.84 160.764C30.84 159.149 31.1107 157.889 31.652 156.984C32.2027 156.069 33.1453 155.612 34.48 155.612C35.8147 155.612 36.7527 156.069 37.294 156.984C37.8447 157.889 38.12 159.149 38.12 160.764C38.12 162.397 37.8447 163.676 37.294 164.6C36.7527 165.515 35.8147 165.972 34.48 165.972C33.1453 165.972 32.2027 165.515 31.652 164.6C31.1107 163.676 30.84 162.397 30.84 160.764ZM36.552 160.764C36.552 160.008 36.5007 159.369 36.398 158.846C36.3047 158.323 36.1087 157.899 35.81 157.572C35.5113 157.236 35.068 157.068 34.48 157.068C33.892 157.068 33.4487 157.236 33.15 157.572C32.8513 157.899 32.6507 158.323 32.548 158.846C32.4547 159.369 32.408 160.008 32.408 160.764C32.408 161.548 32.4547 162.206 32.548 162.738C32.6413 163.27 32.8373 163.699 33.136 164.026C33.444 164.353 33.892 164.516 34.48 164.516C35.068 164.516 35.5113 164.353 35.81 164.026C36.118 163.699 36.3187 163.27 36.412 162.738C36.5053 162.206 36.552 161.548 36.552 160.764ZM39.8927 163.872V162.668L44.5968 155.92H46.5288V162.486H47.8308V163.872H46.5288V166H44.9608V163.872H39.8927ZM45.0307 157.544L41.7267 162.486H45.0307V157.544ZM54.8232 152.784L51.0152 168.45H49.4472L53.2412 152.784H54.8232ZM57.7866 163.83C58.6826 163.055 59.3873 162.421 59.9006 161.926C60.4233 161.422 60.8573 160.899 61.2026 160.358C61.5479 159.817 61.7206 159.275 61.7206 158.734C61.7206 158.174 61.5853 157.735 61.3146 157.418C61.0533 157.101 60.6379 156.942 60.0686 156.942C59.5179 156.942 59.0886 157.119 58.7806 157.474C58.4819 157.819 58.3233 158.286 58.3046 158.874H56.7646C56.7926 157.81 57.1099 156.998 57.7166 156.438C58.3326 155.869 59.1119 155.584 60.0546 155.584C61.0719 155.584 61.8653 155.864 62.4346 156.424C63.0133 156.984 63.3026 157.731 63.3026 158.664C63.3026 159.336 63.1299 159.985 62.7846 160.61C62.4486 161.226 62.0426 161.781 61.5666 162.276C61.0999 162.761 60.5026 163.326 59.7746 163.97L59.1446 164.53H63.5826V165.86H56.7786V164.698L57.7866 163.83ZM65.0687 163.872V162.668L69.7727 155.92H71.7047V162.486H73.0067V163.872H71.7047V166H70.1367V163.872H65.0687ZM70.2067 157.544L66.9027 162.486H70.2067V157.544Z" fill="#868685"/>
<path fill-rule="evenodd" clip-rule="evenodd" d="M295.277 186.095V188V189.904H294.438V189.442C294.172 189.785 293.769 190 293.22 190C292.139 190 291.291 189.164 291.291 188C291.291 186.837 292.139 186 293.22 186C293.769 186 294.172 186.215 294.438 186.558V186.095H295.277ZM293.324 186.78C292.598 186.78 292.154 187.33 292.154 188C292.154 188.669 292.598 189.219 293.324 189.219C294.018 189.219 294.486 188.693 294.486 188C294.486 187.307 294.018 186.78 293.324 186.78ZM323.612 188C323.612 187.33 324.056 186.78 324.782 186.78C325.477 186.78 325.944 187.307 325.944 188C325.944 188.693 325.477 189.219 324.782 189.219C324.056 189.219 323.612 188.669 323.612 188ZM326.735 184.566V188V189.904H325.896V189.442C325.63 189.785 325.227 190 324.678 190C323.597 190 322.749 189.164 322.749 188C322.749 186.837 323.597 186 324.678 186C325.227 186 325.63 186.215 325.896 186.558V184.566H326.735ZM305.685 186.741C306.225 186.741 306.572 187.076 306.661 187.665H304.66C304.75 187.115 305.087 186.741 305.685 186.741ZM303.781 188C303.781 186.812 304.571 186 305.702 186C306.782 186 307.525 186.812 307.533 188C307.533 188.111 307.525 188.215 307.516 188.318H304.653C304.774 189.004 305.266 189.251 305.806 189.251C306.193 189.251 306.605 189.107 306.928 188.853L307.339 189.466C306.871 189.857 306.339 190 305.758 190C304.604 190 303.781 189.211 303.781 188ZM315.827 188C315.827 187.33 316.271 186.78 316.997 186.78C317.69 186.78 318.158 187.307 318.158 188C318.158 188.693 317.69 189.219 316.997 189.219C316.271 189.219 315.827 188.669 315.827 188ZM318.949 186.095V188V189.904H318.11V189.442C317.843 189.785 317.441 190 316.892 190C315.811 190 314.963 189.164 314.963 188C314.963 186.837 315.811 186 316.892 186C317.441 186 317.843 186.215 318.11 186.558V186.095H318.949ZM311.091 188C311.091 189.155 311.905 190 313.148 190C313.729 190 314.116 189.872 314.535 189.546L314.133 188.876C313.818 189.1 313.487 189.219 313.123 189.219C312.454 189.211 311.962 188.733 311.962 188C311.962 187.267 312.454 186.789 313.123 186.78C313.487 186.78 313.818 186.9 314.133 187.123L314.535 186.454C314.116 186.127 313.729 186 313.148 186C311.905 186 311.091 186.844 311.091 188ZM320.885 186.558C321.103 186.223 321.418 186 321.902 186C322.072 186 322.314 186.032 322.499 186.104L322.241 186.884C322.064 186.812 321.886 186.789 321.716 186.789C321.168 186.789 320.893 187.139 320.893 187.769V189.904H320.054V186.096H320.885V186.558ZM299.424 186.398C299.02 186.136 298.464 186 297.851 186C296.874 186 296.245 186.462 296.245 187.219C296.245 187.84 296.713 188.223 297.576 188.343L297.972 188.398C298.432 188.462 298.649 188.582 298.649 188.797C298.649 189.092 298.342 189.259 297.77 189.259C297.189 189.259 296.77 189.076 296.487 188.861L296.092 189.506C296.552 189.84 297.133 190 297.762 190C298.875 190 299.521 189.482 299.521 188.757C299.521 188.087 299.013 187.737 298.173 187.618L297.778 187.561C297.415 187.514 297.124 187.443 297.124 187.187C297.124 186.908 297.399 186.741 297.859 186.741C298.351 186.741 298.827 186.925 299.061 187.068L299.424 186.398ZM309.227 186.558C309.444 186.223 309.759 186 310.243 186C310.413 186 310.655 186.032 310.841 186.104L310.582 186.884C310.405 186.812 310.228 186.789 310.058 186.789C309.509 186.789 309.235 187.139 309.235 187.769V189.904H308.396V186.096H309.227V186.558ZM303.087 186.095H301.716V184.94H300.868V186.095H300.086V186.853H300.868V188.59C300.868 189.474 301.215 190 302.207 190C302.571 190 302.99 189.889 303.256 189.705L303.014 188.996C302.764 189.139 302.49 189.211 302.272 189.211C301.852 189.211 301.716 188.956 301.716 188.574V186.853H303.087V186.095ZM290.549 187.514V189.904H289.701V187.785C289.701 187.139 289.427 186.78 288.855 186.78C288.298 186.78 287.911 187.132 287.911 187.793V189.904H287.063V187.785C287.063 187.139 286.781 186.78 286.225 186.78C285.651 186.78 285.28 187.132 285.28 187.793V189.904H284.433V186.096H285.273V186.565C285.587 186.119 285.99 186 286.402 186C286.991 186 287.41 186.255 287.676 186.677C288.032 186.143 288.54 185.992 289.032 186C289.968 186.008 290.549 186.614 290.549 187.514Z" fill="white"/>
<path d="M311.855 179.624H299.146V157.067H311.855V179.624Z" fill="#FF5F00"/>
<path d="M299.952 168.346C299.952 163.77 302.121 159.694 305.5 157.067C303.029 155.146 299.912 154 296.523 154C288.502 154 282 160.423 282 168.346C282 176.269 288.502 182.691 296.523 182.691C299.912 182.691 303.029 181.545 305.5 179.624C302.121 176.997 299.952 172.921 299.952 168.346Z" fill="#EB001B"/>
<path d="M329 168.346C329 176.269 322.498 182.691 314.477 182.691C311.088 182.691 307.971 181.545 305.5 179.624C308.878 176.997 311.048 172.921 311.048 168.346C311.048 163.77 308.878 159.694 305.5 157.067C307.971 155.146 311.088 154 314.477 154C322.498 154 329 160.423 329 168.346Z" fill="#F79E1B"/>
</svg>
