<svg width="33" height="33" viewBox="0 0 33 33" fill="none" xmlns="http://www.w3.org/2000/svg">
<circle cx="16.5" cy="16.5" r="16.5" fill="#6B7A99"/>
<path d="M13.552 19.472C14.576 18.6187 15.392 17.9093 16 17.344C16.608 16.768 17.1147 16.1707 17.52 15.552C17.9253 14.9333 18.128 14.3253 18.128 13.728C18.128 13.184 18 12.7573 17.744 12.448C17.488 12.1387 17.0933 11.984 16.56 11.984C16.0267 11.984 15.616 12.1653 15.328 12.528C15.04 12.88 14.8907 13.3653 14.88 13.984H12.704C12.7467 12.704 13.1253 11.7333 13.84 11.072C14.5653 10.4107 15.4827 10.08 16.592 10.08C17.808 10.08 18.7413 10.4053 19.392 11.056C20.0427 11.696 20.368 12.544 20.368 13.6C20.368 14.432 20.144 15.2267 19.696 15.984C19.248 16.7413 18.736 17.4027 18.16 17.968C17.584 18.5227 16.832 19.1947 15.904 19.984H20.624V21.84H12.72V20.176L13.552 19.472Z" fill="white"/>
</svg>
