<svg width="33" height="33" viewBox="0 0 33 33" fill="none" xmlns="http://www.w3.org/2000/svg">
<circle cx="16.5" cy="16.5" r="16.5" fill="#6B7A99"/>
<path d="M12.88 13.408C12.9333 12.3413 13.3067 11.52 14 10.944C14.704 10.3573 15.6267 10.064 16.768 10.064C17.5467 10.064 18.2133 10.2027 18.768 10.48C19.3227 10.7467 19.7387 11.1147 20.016 11.584C20.304 12.0427 20.448 12.5653 20.448 13.152C20.448 13.824 20.272 14.3947 19.92 14.864C19.5787 15.3227 19.168 15.632 18.688 15.792V15.856C19.3067 16.048 19.7867 16.3893 20.128 16.88C20.48 17.3707 20.656 18 20.656 18.768C20.656 19.408 20.5067 19.9787 20.208 20.48C19.92 20.9813 19.488 21.376 18.912 21.664C18.3467 21.9413 17.664 22.08 16.864 22.08C15.6587 22.08 14.6773 21.776 13.92 21.168C13.1627 20.56 12.7627 19.664 12.72 18.48H14.896C14.9173 19.0027 15.0933 19.424 15.424 19.744C15.7653 20.0533 16.2293 20.208 16.816 20.208C17.36 20.208 17.776 20.0587 18.064 19.76C18.3627 19.4507 18.512 19.056 18.512 18.576C18.512 17.936 18.3093 17.4773 17.904 17.2C17.4987 16.9227 16.8693 16.784 16.016 16.784H15.552V14.944H16.016C17.5307 14.944 18.288 14.4373 18.288 13.424C18.288 12.9653 18.1493 12.608 17.872 12.352C17.6053 12.096 17.216 11.968 16.704 11.968C16.2027 11.968 15.8133 12.1067 15.536 12.384C15.2693 12.6507 15.1147 12.992 15.072 13.408H12.88Z" fill="white"/>
</svg>
