<svg width="5" height="16" viewBox="0 0 5 16" fill="none" xmlns="http://www.w3.org/2000/svg">
<path d="M0.582031 13.5081C0.582031 14.423 1.37007 15.1616 2.34629 15.1616C3.32251 15.1616 4.11055 14.423 4.11055 13.5081C4.11055 12.5931 3.32251 11.8546 2.34629 11.8546C1.37007 11.8546 0.582031 12.5931 0.582031 13.5081ZM0.582031 2.48457C0.582031 3.39952 1.37007 4.1381 2.34629 4.1381C3.32251 4.1381 4.11055 3.39952 4.11055 2.48457C4.11055 1.56962 3.32251 0.831041 2.34629 0.831041C1.37007 0.831041 0.582031 1.56962 0.582031 2.48457ZM0.582031 7.99633C0.582031 8.91128 1.37007 9.64986 2.34629 9.64986C3.32251 9.64986 4.11055 8.91128 4.11055 7.99633C4.11055 7.08138 3.32251 6.3428 2.34629 6.3428C1.37007 6.3428 0.582031 7.08138 0.582031 7.99633Z" fill="#929EAE"/>
</svg>
