<svg width="40" height="39" viewBox="0 0 40 39" fill="none" xmlns="http://www.w3.org/2000/svg">
<rect x="0.05" y="0.05" width="39.9" height="38.9" rx="1.95" fill="white" stroke="black" stroke-width="0.1"/>
<path d="M20.0489 23.1962C19.6268 23.2024 19.3132 23.5173 19.3128 23.9358C19.3125 24.3704 19.6383 24.6873 20.0761 24.6784C20.491 24.6699 20.8017 24.3442 20.7961 23.9234C20.7902 23.5016 20.47 23.1899 20.0489 23.1962ZM16.9883 16.9629C16.5859 16.9682 16.246 17.3044 16.2421 17.7019C16.2382 18.1116 16.5921 18.4652 17.0027 18.4616C17.396 18.4583 17.7463 18.1086 17.7483 17.7173C17.7506 17.3008 17.4048 16.9577 16.9883 16.9629ZM18.9199 21.0601C18.9182 21.472 19.2679 21.8187 19.6815 21.8155C20.0781 21.8125 20.4097 21.4697 20.4104 21.062C20.411 20.6429 20.0712 20.306 19.6517 20.3102C19.2542 20.3145 18.9219 20.6553 18.9199 21.0601ZM16.327 20.4305C15.7049 20.4312 15.2006 20.9362 15.2071 21.551C15.214 22.1769 15.7072 22.682 16.3184 22.6898C16.9414 22.6974 17.4569 22.1763 17.453 21.5428C17.4491 20.9195 16.9532 20.4299 16.327 20.4305ZM21.3935 21.8958C21.3837 22.4971 21.873 23.0094 22.4724 23.0254C23.1157 23.0421 23.6335 22.5515 23.6387 21.9197C23.6437 21.297 23.1508 20.7776 22.5425 20.7648C21.913 20.7514 21.4043 21.2521 21.3935 21.8958ZM20.6257 14.3795C20.6158 14.4696 20.5972 14.561 20.5972 14.6528C20.5972 14.9379 20.5483 15.1211 20.1839 15.1752C19.7166 15.245 19.4161 15.6658 19.3679 16.138C19.3207 16.605 19.5557 17.0357 19.9784 17.2543C20.0525 17.2926 20.1282 17.3267 20.2295 17.3755C20.1305 18.1391 20.0312 18.9063 19.9214 19.7541C20.7895 19.179 21.5957 18.6451 22.4013 18.1112C22.8103 18.6959 23.2055 18.8319 23.6214 18.5428C24.0182 18.2669 24.0317 17.8419 23.6446 17.2828C23.9127 17.1055 24.1801 16.9285 24.4462 16.7528C26.0331 18.8191 25.7968 22.0285 23.9317 23.9968C22.0132 26.0211 18.834 26.3921 16.5826 24.8538C14.1457 23.1889 13.2969 20.1634 14.5569 17.543C15.8174 14.9206 18.5771 13.9748 20.6257 14.3795Z" fill="#231F20"/>
<path d="M20.8994 12.4035C20.8584 12.6974 20.8168 12.9934 20.7745 13.2959C20.1856 13.2959 19.6147 13.2395 19.0579 13.3054C16.4683 13.6118 14.5957 14.9594 13.5319 17.338C11.8087 21.1913 14.0697 25.7053 18.1885 26.6351C18.9144 26.7989 19.1969 27.8358 18.4215 27.6841C15.8554 27.1817 13.9514 25.7807 12.7749 23.4336C12.2341 22.3547 11.9546 21.2008 12.006 19.9928C12.084 18.1527 12.5845 16.4554 13.8196 15.0308C14.9732 13.6999 16.4031 12.8374 18.1256 12.4621C19.0396 12.2632 20.163 12.2367 20.8994 12.4035Z" fill="#231F20"/>
<path d="M25.3247 16.1643C25.5983 15.9821 25.8503 15.8146 26.1299 15.6288C27.546 17.8366 27.914 20.1798 27.0314 22.6427C26.1138 25.2028 24.2694 26.808 21.6191 27.5762V26.5766C23.7798 25.8956 25.3365 24.4982 26.1197 22.3359C26.9017 20.1776 26.5746 18.1211 25.3247 16.1643Z" fill="#231F20"/>
<path d="M20.9179 15.9174C21.8057 16.0331 22.3625 15.7037 22.4808 15.0162C22.5994 14.326 22.159 13.842 21.2233 13.6598C21.2525 13.4271 21.282 13.1921 21.3167 12.9122C23.0812 13.1721 24.4435 14.0206 25.4568 15.4979C25.1878 15.6759 24.9276 15.8479 24.7857 15.9417C24.4052 15.8833 24.1279 15.7762 23.8743 15.8165C23.4689 15.881 23.2778 16.2576 23.3309 16.6764C23.3427 16.7682 23.3063 16.9153 23.2401 16.9602C22.3727 17.5511 21.496 18.1282 20.6207 18.7073C20.6059 18.7175 20.5807 18.7116 20.54 18.7148C20.6665 17.7792 20.7921 16.8481 20.9179 15.9174Z" fill="#231F20"/>
<path d="M21.4502 11.8862C21.5154 11.566 21.5728 11.2835 21.6304 10.9997C23.3402 11.0223 25.9124 12.4099 27.0965 14.4057C26.8484 14.5712 26.599 14.7374 26.3195 14.9238C25.1364 13.2253 23.5401 12.2001 21.4502 11.8862Z" fill="#231F20"/>
<path d="M18.1367 26.691C18.1367 26.691 21.0206 26.731 21.6203 26.5744C22.2204 26.4174 21.6203 27.5739 21.6203 27.5739C21.6203 27.5739 19.6117 28.1635 18.0977 27.5739C16.5833 26.984 18.1367 26.691 18.1367 26.691Z" fill="#231F20"/>
</svg>
