<svg width="40" height="39" viewBox="0 0 40 39" fill="none" xmlns="http://www.w3.org/2000/svg">
<rect x="0.05" y="0.05" width="39.9" height="38.9" rx="1.95" fill="white" stroke="black" stroke-width="0.1"/>
<path d="M15.002 15.8523C14.8224 16.0162 14.6464 16.1014 14.6202 16.22C14.5881 16.3639 14.6294 16.6045 14.7313 16.6838C15.0921 16.9646 15.4808 17.216 15.8849 17.43C16.0032 17.4926 16.2444 17.4424 16.3594 17.3536C16.4486 17.2848 16.501 16.9872 16.4456 16.9414C15.9924 16.5668 15.5096 16.2276 15.002 15.8523ZM26.7016 15.9677C26.5938 15.7399 26.5715 15.5902 26.4866 15.5312C26.0803 15.25 25.668 14.9727 25.2318 14.7437C25.1348 14.6929 24.872 14.8013 24.7966 14.9121C24.7238 15.0196 24.7291 15.308 24.812 15.3716C25.2157 15.6826 25.6405 15.9782 26.0953 16.203C26.2192 16.2646 26.4735 16.0627 26.7016 15.9677ZM24.3817 18.6675C24.3587 18.615 24.3443 18.483 24.2729 18.4338C23.855 18.1467 23.4359 17.856 22.9882 17.6227C22.8922 17.5725 22.5976 17.7158 22.5363 17.8396C22.4766 17.9606 22.5419 18.2431 22.6513 18.3293C23.0066 18.6104 23.3949 18.8566 23.7944 19.0722C24.0854 19.2295 24.3807 19.0273 24.3817 18.6675ZM15.117 12.3785C14.942 12.5325 14.7775 12.6122 14.7336 12.7347C14.689 12.8586 14.711 13.0972 14.7968 13.1611C15.2022 13.4646 15.6302 13.7418 16.073 13.9879C16.1667 14.0401 16.4017 13.9653 16.4862 13.8716C16.5705 13.7785 16.6177 13.5019 16.5597 13.4544C16.1054 13.0831 15.622 12.7475 15.117 12.3785ZM26.6626 19.9092C26.5571 19.7981 26.4385 19.571 26.3143 19.5677C26.1474 19.5635 25.8817 19.6939 25.8246 19.8341C25.6598 20.2389 25.5431 20.6728 25.4828 21.1057C25.4628 21.2515 25.6369 21.4996 25.7833 21.5671C25.8889 21.616 26.1946 21.4803 26.2408 21.361C26.4119 20.9196 26.5125 20.4509 26.6626 19.9092ZM13.1736 15.3306C13.0698 15.2172 12.9652 15.0052 12.825 14.9777C12.6847 14.9505 12.4104 15.0701 12.3652 15.1897C12.197 15.6334 12.0705 16.0991 11.9935 16.5674C11.9719 16.6972 12.1498 16.9505 12.2826 16.9892C12.4127 17.0269 12.7001 16.9027 12.747 16.7824C12.9203 16.3406 13.0222 15.8714 13.1736 15.3306ZM18.9881 12.8137C19.4456 12.3936 19.889 12.0052 20.2996 11.5848C20.3511 11.532 20.2704 11.2449 20.1747 11.1813C20.0551 11.102 19.808 11.0702 19.7009 11.1427C19.322 11.3996 18.9628 11.6926 18.6341 12.0108C18.5391 12.1029 18.5168 12.3441 18.5624 12.484C18.5997 12.5994 18.7865 12.6662 18.9881 12.8137ZM21.4004 13.5495C21.6167 14.0663 21.7937 14.5477 22.026 15.0003C22.0775 15.1006 22.3518 15.1723 22.475 15.1268C22.5995 15.0806 22.768 14.841 22.7378 14.7401C22.5917 14.2524 22.4052 13.7733 22.1843 13.3145C22.1358 13.2142 21.8687 13.1434 21.7367 13.1808C21.6066 13.2178 21.5204 13.4089 21.4004 13.5495ZM18.7954 14.1705C18.5293 14.1947 18.2182 14.1774 17.9407 14.2655C17.7683 14.3203 17.647 14.5356 17.5028 14.6784C17.6572 14.8164 17.804 15.0606 17.9669 15.0717C18.4001 15.1009 18.8471 15.0648 19.2738 14.9796C19.4171 14.9511 19.5943 14.703 19.6075 14.5431C19.6166 14.4294 19.3941 14.2619 19.2417 14.182C19.1319 14.1239 18.9671 14.1705 18.7954 14.1705ZM19.4321 22.103C20.9072 22.0856 22.1345 20.8311 22.1053 19.3708C22.0755 17.8957 20.8253 16.6972 19.3476 16.728C17.9115 16.7575 16.7012 18.0176 16.7265 19.4566C16.7517 20.9019 17.9974 22.12 19.4321 22.103ZM27.5662 21.9873C26.2018 22.6227 24.911 22.7489 23.5617 22.5628C22.6844 22.4412 22.2679 22.7279 21.9012 23.5479C21.7573 23.8697 21.6603 24.2125 21.5187 24.5356C21.4135 24.7762 21.326 25.0813 21.1323 25.2137C20.8187 25.428 20.4287 25.6276 20.0627 25.6433C19.6219 25.6623 19.4357 25.2402 19.3345 24.8483C19.224 24.4213 19.1414 23.987 19.0395 23.5577C18.913 23.0239 18.5571 22.7758 18.0265 22.8498C17.7014 22.8954 17.3796 23.0091 17.0725 23.1333C16.7137 23.2785 16.3853 23.5046 16.0215 23.6318C15.0692 23.9651 14.3384 23.4247 14.3859 22.414C14.4033 22.0499 14.5317 21.6904 14.6195 21.3312C14.7077 20.9717 14.8424 20.6204 14.8965 20.2563C14.9797 19.6968 14.8608 19.1935 14.3112 18.8942C13.8222 18.6281 13.3208 18.7084 12.804 19.1682C12.0601 19.8309 11.6586 20.6908 11.5055 21.6569C11.4502 22.0063 11.4279 22.4189 11.5593 22.7315C13.5984 27.5749 19.4413 29.4387 23.9085 26.676C25.6523 25.5974 26.8488 24.0686 27.5662 21.9873ZM28.8315 19.4261C28.8348 24.5943 24.6419 28.8307 19.5242 28.8301C14.1932 28.8294 10 24.6906 10 19.4301C10.0003 14.2419 14.1778 9.99696 19.2807 9.99926C24.6491 10.0015 28.8282 14.1262 28.8315 19.4261Z" fill="#231F20"/>
</svg>
