<svg width="40" height="39" viewBox="0 0 40 39" fill="none" xmlns="http://www.w3.org/2000/svg">
<rect x="0.05" y="0.05" width="39.9" height="38.9" rx="1.95" fill="white" stroke="black" stroke-width="0.1"/>
<path d="M25.8994 17.0126C25.8752 17.1228 25.8519 17.2329 25.8224 17.3417C25.8172 17.36 25.7801 17.3862 25.7638 17.3826C25.3541 17.2902 24.9451 17.1945 24.524 17.0962C24.5587 16.9523 24.5863 16.8134 24.6272 16.678C24.6502 16.6007 24.7219 16.6161 24.7819 16.6299C24.9802 16.6751 25.1781 16.722 25.3761 16.7685C25.5206 16.8022 25.6651 16.835 25.8093 16.8707C25.8971 16.8924 25.9181 16.9271 25.8994 17.0126ZM25.6228 18.1944C25.6186 18.2095 25.5648 18.2239 25.5383 18.2177C25.2007 18.142 24.8642 18.063 24.5273 17.9834C24.3306 17.9368 24.3303 17.9355 24.3746 17.7363C24.39 17.6674 24.4077 17.5989 24.4267 17.5196C24.8579 17.6202 25.2817 17.7189 25.7123 17.8188C25.6822 17.9503 25.6569 18.0735 25.6228 18.1944ZM25.4511 18.9449C25.3567 19.3513 25.2601 19.7576 25.168 20.1647C25.1529 20.2312 25.1319 20.2633 25.0562 20.2584C24.9386 20.2509 24.8196 20.259 24.7016 20.2538C24.6718 20.2528 24.6312 20.2341 24.6151 20.2102C24.2526 19.6695 24.5197 18.8095 25.1214 18.5723C25.2551 18.5195 25.3915 18.5087 25.5432 18.5395C25.5114 18.6791 25.4819 18.8122 25.4511 18.9449ZM25.3718 20.4927C25.4773 20.4927 25.479 20.493 25.4793 20.6018C25.4813 21.193 25.4826 21.7843 25.4842 22.3755V22.5895H15.6182V20.4927H25.3718ZM15.2429 16.854C15.2413 16.8468 15.2407 16.8396 15.2407 16.838C15.241 16.8383 15.241 16.839 15.241 16.8399C15.3934 16.7878 15.5389 16.7377 15.6932 16.6846C15.9485 17.8585 16.2071 19.0491 16.4696 20.2564C16.3467 20.2564 16.2323 20.2574 16.1183 20.2564C15.9629 20.2548 15.9869 20.2774 15.9541 20.1276C15.7165 19.0366 15.4799 17.9453 15.2429 16.854ZM15.3694 15.7804C15.3727 15.7627 15.3983 15.7404 15.4173 15.7358C15.5264 15.7086 15.6365 15.6834 15.7476 15.6644C15.7722 15.6605 15.8125 15.6769 15.8273 15.6972C15.9826 15.9138 16.1343 16.1334 16.2864 16.3516C16.1901 16.4444 15.9856 16.444 15.8509 16.3523C15.7237 16.2654 15.6991 16.2704 15.6208 16.3985C15.5356 16.5388 15.3783 16.6161 15.2223 16.5876C15.2715 16.3153 15.3187 16.0475 15.3694 15.7804ZM17.1735 20.2545C17.0126 20.2545 16.8648 20.2571 16.7174 20.2512C16.7006 20.2505 16.6771 20.2053 16.6712 20.1778C16.5892 19.8127 16.5096 19.447 16.4303 19.0812C16.2589 18.2937 16.0881 17.5059 15.9174 16.718C15.9108 16.6866 15.9063 16.6548 15.903 16.6377C16.0583 16.624 16.2091 16.6109 16.3782 16.5958C16.6397 17.7988 16.9051 19.0203 17.1735 20.2545ZM17.7081 17.0756C18.0473 17.1211 18.0473 17.1211 18.2599 17.0254C18.2944 17.3082 18.3284 17.5875 18.3638 17.8768C18.1413 17.8978 17.9293 17.9178 17.7081 17.9385V17.0756ZM18.8498 12.4282C18.8485 12.3905 18.8459 12.3531 18.8433 12.3079C19.1045 12.2974 19.3572 12.2876 19.6098 12.2777C19.8654 12.2676 20.1214 12.2607 20.3767 12.2466C20.4478 12.243 20.4688 12.2643 20.4652 12.3328C20.4603 12.4226 20.4639 12.513 20.4639 12.6133C20.3501 12.6182 20.2328 12.6235 20.1155 12.6284C20.0575 12.6307 19.9998 12.6333 19.9421 12.634C19.8828 12.6346 19.8563 12.6671 19.8566 12.7221C19.8569 12.7775 19.8841 12.8077 19.9438 12.8073C20.1194 12.806 20.2954 12.807 20.4802 12.807C20.4825 12.8483 20.4901 12.9027 20.4858 12.9561C20.4845 12.9725 20.453 12.9964 20.4327 12.9991C20.3813 13.0059 20.3285 13.0023 20.2764 13.0046C20.2204 13.0072 20.1997 13.0433 20.2014 13.0934C20.2027 13.1436 20.2236 13.177 20.2817 13.1757C20.3501 13.1741 20.4183 13.1754 20.5025 13.1754C20.5025 13.2334 20.5058 13.2874 20.5002 13.3409C20.4986 13.3563 20.4707 13.3779 20.453 13.3802C20.4013 13.3864 20.3485 13.3851 20.2964 13.3854C20.241 13.3854 20.2151 13.4162 20.2138 13.4674C20.2122 13.5214 20.2354 13.5578 20.2964 13.5565C20.3403 13.5555 20.3849 13.5578 20.4285 13.5529C20.4989 13.5457 20.5232 13.5765 20.5163 13.6437C20.5127 13.6784 20.5156 13.7138 20.5156 13.7666C20.4468 13.7666 20.3819 13.7672 20.3167 13.7662C20.2538 13.7656 20.2259 13.7987 20.2279 13.8587C20.2299 13.917 20.2636 13.9416 20.32 13.9396C20.3338 13.939 20.3478 13.9399 20.3613 13.9396C20.5428 13.9373 20.5451 13.9399 20.5219 14.1385C20.4658 14.1408 20.4088 14.1461 20.3518 14.1454C20.2872 14.1444 20.24 14.1634 20.2413 14.2355C20.2427 14.3089 20.2944 14.3224 20.3564 14.3204C20.4134 14.3188 20.4704 14.3201 20.5356 14.3201C20.5415 14.4495 20.5501 14.578 20.5504 14.7061C20.5504 14.7235 20.5114 14.7543 20.4891 14.7556C20.3406 14.7651 20.1922 14.7704 20.0437 14.7723C19.9785 14.7733 19.9352 14.79 19.9366 14.8641C19.9379 14.9359 19.9824 14.948 20.0427 14.9447C20.1692 14.9385 20.2957 14.9342 20.4222 14.9303C20.4655 14.929 20.5091 14.93 20.551 14.93C20.5822 15.1312 20.5822 15.1332 20.3901 15.1397C20.3262 15.142 20.2771 15.1591 20.2777 15.2292C20.2787 15.3049 20.3315 15.3216 20.3983 15.3177C20.453 15.3141 20.5081 15.3167 20.5714 15.3167C20.5743 15.379 20.5769 15.4432 20.5802 15.515C20.5091 15.5182 20.4468 15.5232 20.3849 15.5235C20.3229 15.5238 20.2905 15.554 20.2921 15.6136C20.2938 15.6726 20.3265 15.7018 20.3891 15.6991C20.4517 15.6959 20.5147 15.6985 20.5858 15.6985V15.8954C20.5255 15.8987 20.4632 15.904 20.4009 15.9046C20.341 15.9056 20.3066 15.9305 20.3069 15.9928C20.3072 16.0554 20.3416 16.0819 20.4019 16.0793C20.4157 16.079 20.4295 16.0793 20.4432 16.0793C20.6225 16.076 20.6225 16.076 20.6015 16.2753C20.5409 16.2789 20.4786 16.2835 20.4163 16.2854C20.358 16.2874 20.321 16.309 20.322 16.3736C20.3226 16.4362 20.3547 16.4634 20.416 16.4595C20.4272 16.4588 20.438 16.4595 20.4491 16.4591C20.6156 16.4585 20.6169 16.4581 20.6228 16.6213C20.6258 16.7062 20.6235 16.7914 20.6235 16.893C20.4635 16.8986 20.302 16.9045 20.1404 16.9104C20.1184 16.9111 20.088 16.9038 20.0762 16.9153C20.0503 16.9412 20.0195 16.975 20.0155 17.0084C20.0103 17.0569 20.0431 17.0893 20.0988 17.087C20.2279 17.0818 20.3574 17.0772 20.4868 17.0729C20.533 17.0716 20.5795 17.0729 20.6359 17.0729C20.6389 17.1369 20.6418 17.1985 20.6454 17.2712C20.5753 17.2755 20.5107 17.2814 20.4462 17.2827C20.3829 17.2837 20.3544 17.3168 20.3567 17.3758C20.3587 17.4328 20.3924 17.457 20.4498 17.4551C20.5147 17.4528 20.5802 17.4544 20.651 17.4544V17.6569C20.5877 17.6596 20.5251 17.6651 20.4632 17.6645C20.3996 17.6638 20.3695 17.6956 20.3711 17.7543C20.3728 17.809 20.4032 17.8382 20.4626 17.8359C20.5278 17.8333 20.5933 17.8352 20.6651 17.8352V18.0358C20.6041 18.0391 20.5419 18.0446 20.4796 18.0446C20.4183 18.045 20.3852 18.0722 20.3859 18.1331C20.3865 18.1954 20.4232 18.2196 20.4832 18.2177C20.5458 18.216 20.6081 18.2173 20.6792 18.2173V18.415C20.6199 18.4182 20.5602 18.4241 20.5006 18.4245C20.4373 18.4248 20.4 18.4487 20.4006 18.5159C20.4013 18.5808 20.4393 18.6001 20.4986 18.5978C20.5609 18.5955 20.6235 18.5975 20.709 18.5975C20.709 18.7309 20.711 18.8597 20.7064 18.9881C20.7057 19.0049 20.6703 19.033 20.6497 19.0344C20.5042 19.0439 20.3583 19.0488 20.2125 19.052C20.1509 19.0537 20.0926 19.0543 20.0912 19.1379C20.0899 19.2215 20.1453 19.2248 20.2092 19.2241C20.3741 19.2215 20.5386 19.2231 20.7156 19.2231C20.7182 19.2759 20.7211 19.3401 20.7251 19.4211C20.6582 19.4211 20.5989 19.4224 20.5396 19.4207C20.4773 19.4188 20.4373 19.4388 20.437 19.5082C20.4367 19.5853 20.4852 19.5974 20.5474 19.5954C20.6048 19.5938 20.6618 19.5951 20.7277 19.5951V19.8015C20.669 19.8015 20.609 19.8038 20.5494 19.8012C20.4842 19.7983 20.4471 19.8281 20.4488 19.8913C20.4501 19.9552 20.4904 19.9838 20.5543 19.9775C20.5622 19.9769 20.5707 19.9775 20.5789 19.9772C20.7673 19.9713 20.7673 19.9713 20.7447 20.1732C20.7008 20.1765 20.6553 20.181 20.6097 20.1827C20.5523 20.1847 20.4934 20.1755 20.4583 20.2413C20.4521 20.2535 20.4193 20.2558 20.3986 20.2558C19.9992 20.2568 19.6 20.2561 19.2005 20.2571C19.152 20.2574 19.1343 20.243 19.1327 20.1915C19.1173 19.7183 19.0989 19.2454 19.0815 18.7722C19.0534 18.0076 19.0255 17.2434 18.9973 16.4788C18.9806 16.0193 18.9632 15.5602 18.9465 15.1007C18.9144 14.21 18.8823 13.3189 18.8498 12.4282ZM22.9522 18.7669C22.928 18.9039 22.9057 19.033 22.8824 19.1622C22.8218 19.5007 22.7605 19.8389 22.7002 20.1774C22.6927 20.2187 22.6907 20.2574 22.6294 20.2571C22.3571 20.2548 22.0844 20.2561 21.8118 20.2558C21.8016 20.2558 21.7911 20.2509 21.7708 20.2459C21.835 19.7072 21.8993 19.17 21.9652 18.6168C22.2955 18.6673 22.6193 18.7165 22.9522 18.7669ZM21.566 17.5055C22.2634 17.6153 22.9568 17.7245 23.6585 17.8349C23.6395 17.9614 23.6201 18.0725 23.6074 18.1839C23.6015 18.2364 23.5805 18.2475 23.532 18.2393C23.1466 18.1761 22.7609 18.1141 22.3751 18.0532C22.1116 18.0112 21.8478 17.9716 21.5843 17.9306C21.5604 17.927 21.5371 17.9194 21.505 17.9119C21.525 17.7785 21.5447 17.6491 21.566 17.5055ZM22.4515 16.1589C22.7045 16.1989 22.9506 16.2379 23.2066 16.2786C23.1702 16.7229 23.2495 17.1454 23.4238 17.5655C22.9001 17.4826 22.3938 17.403 21.8701 17.3204C22.1579 16.9717 22.3578 16.5945 22.4515 16.1589ZM22.5269 15.6801C22.7782 15.7198 23.022 15.7581 23.278 15.7984C23.2649 15.883 23.2524 15.9623 23.2387 16.0511C22.9844 16.0101 22.7389 15.9711 22.4875 15.9308C22.5016 15.8417 22.5138 15.7644 22.5269 15.6801ZM25.1942 16.0606C25.2925 15.8702 25.3895 15.6791 25.4924 15.4914C25.5104 15.4589 25.5563 15.4416 25.5897 15.4173C25.6127 15.4543 25.6543 15.4904 25.6556 15.5281C25.6668 15.885 25.6713 16.2418 25.6776 16.5987C25.6776 16.6066 25.674 16.6141 25.6687 16.6367C25.4396 16.5837 25.2168 16.5319 24.9818 16.4775C25.0556 16.3323 25.1244 16.196 25.1942 16.0606ZM25.9368 16.7098C25.8781 16.6849 25.8696 16.6525 25.869 16.5978C25.8647 16.2402 25.8575 15.8823 25.8503 15.5245C25.847 15.3708 25.7641 15.2577 25.6366 15.2272C25.5131 15.1981 25.3866 15.2675 25.3154 15.4042C25.1519 15.7195 24.9867 16.0337 24.8268 16.3506C24.7976 16.408 24.7685 16.4303 24.7029 16.4283C24.5732 16.4244 24.4719 16.5063 24.4352 16.6315C24.426 16.663 24.4181 16.6954 24.4109 16.7275C24.1442 17.8713 23.8774 19.015 23.611 20.1588C23.5854 20.2685 23.5628 20.279 23.4363 20.2397C23.5087 19.8379 23.5831 19.4355 23.6529 19.0321C23.7237 18.6201 23.7909 18.2075 23.8574 17.7946C23.8784 17.6668 23.8558 17.6419 23.7319 17.6127C23.7027 17.6061 23.6644 17.5898 23.6532 17.5665C23.452 17.1549 23.3553 16.7216 23.4048 16.2625C23.4235 16.0875 23.4553 15.9141 23.4799 15.7398C23.494 15.6415 23.47 15.6005 23.3878 15.5874C23.0892 15.5389 22.79 15.4917 22.4911 15.4455C22.4076 15.4327 22.3669 15.4622 22.3528 15.5461C22.3368 15.6385 22.3197 15.7306 22.3102 15.8237C22.2588 16.3516 22.0468 16.8078 21.6977 17.2034C21.6591 17.2473 21.625 17.2866 21.5532 17.2729C21.4408 17.2516 21.4041 17.283 21.3871 17.3967C21.3612 17.5681 21.3333 17.7392 21.312 17.9113C21.2245 18.6218 21.1393 19.3323 21.0534 20.0427C21.0466 20.1001 21.0423 20.1581 21.0311 20.2148C21.0282 20.2305 21.0046 20.2423 20.9905 20.2561C20.9774 20.2417 20.96 20.2299 20.9528 20.2132C20.9456 20.1964 20.9479 20.1751 20.9473 20.1558C20.9227 19.4958 20.8984 18.8358 20.8742 18.1757C20.8506 17.5347 20.828 16.894 20.8047 16.253C20.7785 15.5405 20.7516 14.8281 20.7257 14.1156C20.7021 13.4746 20.6792 12.8336 20.6559 12.1925C20.6513 12.0601 20.5838 11.9956 20.4504 12.0002C19.9002 12.0195 19.3499 12.0398 18.8 12.0605C18.7161 12.0634 18.644 12.1506 18.6476 12.24C18.6594 12.5589 18.6719 12.8781 18.683 13.197C18.7033 13.7833 18.7217 14.3693 18.743 14.9552C18.7777 15.9013 18.8148 16.8475 18.8502 17.7936C18.8764 18.4923 18.9019 19.191 18.9262 19.8897C18.9305 20.0093 18.9269 20.1289 18.9269 20.2509H18.7191C18.7561 19.0622 18.5139 17.9054 18.4048 16.7102C18.1194 16.9625 17.8372 16.9871 17.5242 16.7551C17.5809 17.9371 17.4492 19.094 17.6314 20.2561C17.5655 20.2561 17.5111 20.2528 17.4574 20.2571C17.4043 20.2613 17.3849 20.2374 17.3758 20.1889C17.3567 20.086 17.3328 19.9844 17.3109 19.8822C17.0736 18.7909 16.8376 17.6992 16.5987 16.6082C16.5755 16.5017 16.5601 16.3831 16.502 16.2966C16.1838 15.8237 15.8548 15.3583 15.5251 14.8929C15.4996 14.8566 15.4435 14.8228 15.4009 14.8215C15.3367 14.8199 15.3193 14.8818 15.3088 14.9398C15.2131 15.4648 15.1148 15.9895 15.0204 16.5148C15.0063 16.5945 14.9906 16.6816 15.007 16.7583C15.2315 17.8077 15.4612 18.8557 15.6896 19.9041C15.7142 20.0178 15.7368 20.1322 15.7634 20.26H15.375V22.599H15.3642V22.8398H25.7225V22.5983C25.7225 22.5239 25.7228 22.4636 25.7225 22.4033C25.7225 22.3941 25.7221 22.3846 25.7221 22.3755C25.7185 21.7017 25.7136 21.0279 25.713 20.3541C25.713 20.2738 25.6894 20.2486 25.6107 20.2545C25.5252 20.261 25.4387 20.2561 25.3479 20.2561C25.3554 20.2164 25.3587 20.1951 25.3636 20.1738C25.5262 19.4745 25.6884 18.7748 25.8516 18.0754C25.9296 17.7405 26.0089 17.4059 26.0872 17.0713C26.1269 16.9022 26.0761 16.7698 25.9368 16.7098Z" fill="#231F20"/>
<path d="M15.3643 25.8379H15.6025V25.5915H15.3643V25.8379ZM25.4846 25.8379H25.7228V25.5915H25.4846V25.8379Z" fill="#231F20"/>
<path d="M25.4843 25.8379H15.6025V25.5921H25.4843V25.8379Z" fill="#231F20"/>
<path d="M25.7366 25.8269C25.7333 25.8567 25.7301 25.88 25.7301 25.9C25.7232 26.3748 25.7166 26.8533 25.7134 27.3282C25.7134 27.5009 25.6603 27.6536 25.5639 27.7899C25.328 28.1255 24.9894 28.3248 24.6207 28.4775C24.2088 28.6502 23.7769 28.7266 23.3318 28.7266H17.7648C17.1536 28.7233 16.5791 28.587 16.0577 28.2648C15.9381 28.1917 15.8283 28.1023 15.7221 28.0092C15.6756 27.9692 15.6356 27.9263 15.6025 27.883C15.4331 27.6769 15.3702 27.4311 15.3767 27.1456C15.3865 26.7337 15.3734 26.3185 15.3666 25.9065C15.3666 25.8865 15.3666 25.8633 15.3633 25.8334L15.3666 25.5909V25.8367H15.6025V25.9363C15.6091 26.3948 15.616 26.85 15.616 27.3082C15.6192 27.4213 15.6491 27.5242 15.7054 27.6205C15.8119 27.7899 15.9581 27.9194 16.1239 28.0259C16.6289 28.3579 17.1903 28.4909 17.7848 28.4909C19.6315 28.4942 21.4782 28.4942 23.322 28.4909C23.7536 28.4909 24.1721 28.4178 24.5706 28.2451C24.8665 28.1154 25.1389 27.9528 25.3414 27.6936C25.4177 27.594 25.4774 27.4845 25.4774 27.3547C25.4843 26.8766 25.4876 26.4014 25.4941 25.9265V25.8367H25.7232V25.5909L25.7366 25.8269Z" fill="#231F20"/>
<path d="M17.8065 14.1166C17.9058 14.1501 17.9539 14.2254 17.9946 14.307C18.1466 14.6118 18.2515 14.933 18.321 15.2653C18.3603 15.4537 18.3931 15.6438 18.417 15.8349C18.4485 16.0869 18.4003 16.3238 18.2407 16.5283C18.0827 16.7309 17.8324 16.744 17.6528 16.5591C17.4709 16.3723 17.4139 16.1364 17.4043 15.8857C17.3945 15.6304 17.4545 15.3964 17.6164 15.1912C17.7789 14.9854 17.8114 14.7416 17.8068 14.4889C17.8045 14.368 17.8065 14.2474 17.8065 14.1166Z" fill="#231F20"/>
<path d="M23.4136 14.4523C23.3625 14.7944 23.3143 15.1159 23.2648 15.4473C23.1213 15.4256 22.9862 15.4053 22.8515 15.3847C22.7893 15.3752 22.7273 15.3617 22.6647 15.3555C22.6198 15.3509 22.6021 15.3372 22.6103 15.288C22.6379 15.1202 22.6605 14.9514 22.688 14.7836C22.6926 14.7571 22.708 14.7184 22.728 14.7105C22.9495 14.6237 23.173 14.5421 23.4136 14.4523Z" fill="#231F20"/>
<path d="M25.7236 25.8379H25.4854V22.3775H25.7236V25.8379Z" fill="#231F20"/>
<path d="M15.6025 25.8379H15.3643V22.4706H15.6025V25.8379Z" fill="#231F20"/>
<path d="M25.563 20.4261V27.7899C25.327 28.1255 24.9885 28.3248 24.6198 28.4775C24.2078 28.6502 23.7759 28.7266 23.3309 28.7266H17.7639C17.1527 28.7233 16.5782 28.5873 16.0568 28.2648C15.9371 28.1917 15.8274 28.1023 15.7212 28.0092C15.6746 27.9692 15.6347 27.9263 15.6016 27.883V20.4261H25.563Z" fill="#231F20"/>
</svg>
