<svg width="40" height="39" viewBox="0 0 40 39" fill="none" xmlns="http://www.w3.org/2000/svg">
<rect x="0.05" y="0.05" width="39.9" height="38.9" rx="1.95" fill="white" stroke="black" stroke-width="0.1"/>
<path d="M19.5954 15.5206C17.5583 15.519 15.8633 17.2051 15.8908 19.2055C15.918 21.1896 17.5937 22.8586 19.5695 22.8701C21.5929 22.8816 23.2888 21.2099 23.2967 19.1957C23.3045 17.1632 21.6518 15.5223 19.5954 15.5206ZM25.5281 19.2232C25.5186 22.4857 22.8326 25.153 19.579 25.1307C16.3005 25.1084 13.6705 22.4513 13.6807 19.1715C13.6915 15.8389 16.3339 13.2181 19.6642 13.2371C22.9319 13.2561 25.5376 15.9159 25.5281 19.2232Z" fill="#231F20"/>
<path d="M27.7758 13.0311C27.8354 13.3866 27.9423 13.7416 27.9465 14.0978C27.9652 15.6987 27.918 17.3013 27.9646 18.9012C28.0239 20.9298 28.1478 22.9567 28.2507 24.984C28.2713 25.394 28.2569 25.7925 27.7457 25.8528C27.1735 25.92 26.9935 25.5844 27.0289 25.0571C27.1213 23.6748 27.1918 22.2911 27.2901 20.9095C27.3222 20.4592 27.3491 20.058 26.8385 19.8254C26.6983 19.7611 26.5495 19.5288 26.5488 19.3731C26.5423 17.4674 26.4276 15.5473 27.0817 13.7062C27.1718 13.4525 27.3642 13.2352 27.5094 13.0009C27.5982 13.0111 27.687 13.0209 27.7758 13.0311Z" fill="#231F20"/>
<path d="M12.9632 13.2613C13.0166 14.4542 13.092 15.6468 13.1067 16.8403C13.1103 17.1163 12.9855 17.5308 12.7849 17.6455C12.2884 17.9293 12.2586 18.3147 12.2914 18.788C12.4284 20.7681 12.5549 22.7491 12.685 24.7295C12.6945 24.8728 12.7046 25.0163 12.7095 25.1595C12.7253 25.6249 12.5172 25.892 12.0335 25.8805C11.5819 25.8703 11.3905 25.598 11.4167 25.1756C11.4744 24.2449 11.5589 23.3161 11.615 22.3854C11.6926 21.0958 11.768 19.8059 11.8093 18.5153C11.8165 18.2944 11.7133 17.9657 11.5504 17.8641C11.0939 17.5793 10.9798 17.1936 11.0028 16.7079C11.0588 15.5147 11.1086 14.3211 11.1607 13.1276C11.2191 13.1246 11.2771 13.1217 11.3354 13.1187V16.2848C11.4167 16.2845 11.4983 16.2842 11.5796 16.2842C11.6281 15.2293 11.6766 14.1743 11.7251 13.1194C11.7906 13.1181 11.8562 13.1168 11.9217 13.1155V16.2957L12.2101 16.2901V13.1086C12.272 13.1076 12.334 13.1069 12.3959 13.106C12.4457 14.1602 12.4955 15.2145 12.5454 16.2688C12.6165 16.2668 12.6876 16.2649 12.7587 16.2629V13.257C12.8269 13.2583 12.895 13.26 12.9632 13.2613Z" fill="#231F20"/>
</svg>
