<svg width="40" height="39" viewBox="0 0 40 39" fill="none" xmlns="http://www.w3.org/2000/svg">
<rect x="0.05" y="0.05" width="39.9" height="38.9" rx="1.95" fill="white" stroke="black" stroke-width="0.1"/>
<path d="M14.3969 17.96C14.4336 17.6962 14.4477 17.6595 14.4418 17.626C14.3114 16.8647 14.1377 16.1074 14.0656 15.3408C14.0355 15.0187 14.1148 14.5543 14.3294 14.3708C14.683 14.068 14.6552 13.813 14.5526 13.4466C14.1941 12.1649 14.435 12.1963 13.1418 12.8701C12.8822 13.0055 12.7698 13.1579 12.8524 13.4672C13.2093 14.8037 13.538 16.1477 13.905 17.4815C13.9476 17.6362 14.1659 17.7424 14.3969 17.96ZM18.6993 14.6693C18.6357 13.7212 18.5849 12.8269 18.5131 11.9342C18.4122 10.6757 18.401 10.6649 17.2039 11.1345C17.043 11.1978 16.8476 11.4469 16.8503 11.6068C16.8621 12.3055 16.9004 13.0094 17.0072 13.6993C17.1183 14.416 17.3192 15.1193 17.4811 15.8285C17.5988 15.1419 17.9911 14.785 18.6993 14.6693ZM17.8577 19.9627C18.3506 20.0226 18.7399 20.0928 19.1312 20.1042C19.257 20.1082 19.4868 19.9712 19.5005 19.8745C19.6975 18.5099 19.8732 17.142 20.0246 15.7718C20.0364 15.6646 19.8358 15.4352 19.7231 15.4277C18.5947 15.3523 18.4223 15.4939 18.2729 16.6071C18.1254 17.7024 18.0006 18.8006 17.8577 19.9627ZM17.117 19.6585C17.1586 17.8282 16.6045 16.1139 16.3495 14.2689C15.9166 14.4491 15.6141 14.6021 15.2949 14.7008C14.879 14.8296 14.8013 15.0806 14.882 15.4778C15.0642 16.3735 15.2123 17.276 15.3791 18.1746C15.5545 19.1181 15.9828 19.5006 17.117 19.6585ZM20.2979 20.1675C20.7583 20.1314 21.1293 20.0977 21.5013 20.0751C21.806 20.0567 21.8772 19.9043 21.8536 19.6117C21.6841 17.5195 21.5163 15.4267 21.3764 13.3319C21.2902 12.0394 21.3718 12.1803 20.1976 12.5559C20.019 12.6129 19.7473 12.78 19.7421 12.9055C19.7211 13.4043 19.7811 13.9074 19.8332 14.4065C19.8407 14.4773 19.9613 14.5569 20.0462 14.5959C20.7931 14.9404 20.9156 15.1334 20.8173 15.973C20.6571 17.3416 20.4794 18.7082 20.2979 20.1675ZM24.9122 18.7344C24.9751 18.6521 25.0518 18.5767 25.0993 18.4863C25.3189 18.0717 25.5758 17.744 26.1234 17.7607C26.2244 17.7637 26.382 17.4982 26.4325 17.3321C26.8333 16.0104 27.2249 14.6854 27.5985 13.3558C27.9305 12.1731 28.135 12.2491 26.7376 12.1895C26.3276 12.1721 26.1687 12.315 26.0779 12.6955C25.9242 13.3401 25.741 13.9805 25.5273 14.6077C25.0787 15.9248 24.8165 17.2704 24.9122 18.7344ZM22.6965 19.751C23.677 19.6956 23.8638 19.5173 23.9536 18.5754C23.9998 18.0937 24.0614 17.6132 24.1129 17.1318C24.2331 16.0087 24.3426 14.884 24.4747 13.7622C24.5229 13.3525 24.3996 13.2247 23.9762 13.267C22.8593 13.3784 22.8577 13.3617 22.741 14.5078C22.7319 14.5969 22.7165 14.6854 22.703 14.7742C22.4553 16.4328 22.4274 18.0917 22.6965 19.751ZM14.0519 25.0653C14.2691 25.0653 14.4618 25.0653 14.6545 25.0653C15.7868 25.0646 16.9188 25.0741 18.0507 25.0577C18.3702 25.0528 18.5665 25.1157 18.716 25.4405C18.9739 25.9999 19.3793 26.4528 20.0593 26.4456C20.7131 26.4384 21.108 26.0022 21.3558 25.4569C21.4993 25.1413 21.6809 25.0522 22.0112 25.0571C23.2149 25.0754 24.419 25.0705 25.6227 25.0558C25.7734 25.0538 26.0363 24.9653 26.0549 24.8765C26.189 24.2384 26.2735 23.5899 26.381 22.8997C24.8516 22.8997 23.4168 22.8925 21.9817 22.9056C21.6776 22.9086 21.4921 22.8378 21.3617 22.5349C21.1218 21.9768 20.7092 21.5429 20.0744 21.5298C19.4134 21.5161 18.9759 21.947 18.7281 22.5271C18.5865 22.8587 18.3758 22.9095 18.0582 22.9059C16.8008 22.8915 15.5427 22.8994 14.2849 22.9023C14.0994 22.9027 13.9139 22.9203 13.6969 22.9318C13.8195 23.6692 13.9306 24.3374 14.0519 25.0653ZM13.0962 17.6536C12.7672 16.3682 12.4532 15.1357 12.136 13.9041C11.8512 12.799 11.9662 12.6135 12.9396 12.0453C14.3619 11.2152 14.9901 11.4783 15.2978 13.0907C15.3346 13.2827 15.3991 13.4692 15.4686 13.7245C15.7062 13.6386 15.9169 13.5629 16.1571 13.4764C16.1162 12.8393 16.0706 12.214 16.0372 11.5881C16.0008 10.9051 16.2142 10.5961 16.8588 10.3788C17.1649 10.2756 17.4719 10.175 17.781 10.0803C18.6121 9.82594 19.1466 10.1766 19.2557 11.0529C19.2911 11.3358 19.3046 11.6215 19.3331 11.9683C19.7562 11.8365 20.1448 11.7172 20.5325 11.594C21.5363 11.2745 22.0328 11.6045 22.1325 12.6591C22.139 12.7299 22.1534 12.7997 22.1642 12.8708C23.1635 12.5775 24.145 12.1033 25.1668 12.764C25.8013 11.3659 25.8013 11.3659 27.4284 11.4272C28.4614 11.4665 28.8438 11.9889 28.5568 12.9862C28.1589 14.3668 27.7529 15.7452 27.3517 17.1249C27.3075 17.2767 27.2731 17.4314 27.2334 17.5877C28.0698 17.7034 28.1478 17.7994 28.0223 18.56C27.4927 21.7687 26.9536 24.9758 26.4387 28.1868C26.366 28.6384 26.149 28.7548 25.7272 28.8078C24.6792 28.9406 23.7622 28.4428 22.7797 28.2704C20.4024 27.8535 18.0664 27.9227 15.7517 28.685C15.2457 28.8518 14.6476 28.7983 14.1013 28.7475C13.9372 28.7325 13.7091 28.4005 13.6714 28.1852C13.2617 25.8495 12.8848 23.5076 12.4981 21.1677C12.3661 20.37 12.234 19.5724 12.0977 18.7753C11.9168 17.7165 11.9718 17.6457 13.0962 17.6536Z" fill="#231F20"/>
</svg>
