<svg width="40" height="39" viewBox="0 0 40 39" fill="none" xmlns="http://www.w3.org/2000/svg">
<rect x="0.05" y="0.05" width="39.9" height="38.9" rx="1.95" fill="white" stroke="black" stroke-width="0.1"/>
<path d="M18.9016 27.6271C19.0334 28.1184 19.1582 28.589 19.2883 29.0586C19.2969 29.0894 19.345 29.1304 19.3732 29.1291C19.4017 29.1277 19.443 29.0845 19.4532 29.0517C19.4987 28.9085 19.5361 28.7627 19.5748 28.6175C19.6331 28.3969 19.6905 28.176 19.7485 27.9538C19.4633 27.8437 19.1936 27.7398 18.9016 27.6271ZM21.3022 22.1715C21.4074 21.7773 21.5083 21.3988 21.6106 21.015H18.9714C19.7314 21.4801 20.4927 21.853 21.3022 22.1715ZM20.2102 26.2428C19.5754 25.9636 18.9544 25.69 18.3127 25.4075C18.3222 25.452 18.3255 25.4733 18.3311 25.4943C18.4356 25.8843 18.5366 26.2753 18.6486 26.663C18.6663 26.7239 18.724 26.7944 18.781 26.8189C19.1301 26.9694 19.4843 27.1083 19.8369 27.2499C19.8651 27.261 19.8966 27.263 19.934 27.2712C20.0264 26.9271 20.1162 26.5928 20.2102 26.2428ZM20.3908 25.5677C20.4862 25.2118 20.5773 24.8703 20.6694 24.5259C19.6229 24.1297 18.6418 23.6443 17.6743 23.0538C17.8057 23.5411 17.924 23.9901 18.0512 24.4367C18.0646 24.4846 18.123 24.5324 18.1721 24.5551C18.7604 24.8284 19.3509 25.0971 19.9412 25.3665C20.0857 25.4327 20.2312 25.4966 20.3908 25.5677ZM17.126 21.0062C17.2135 21.3329 17.2902 21.638 17.3797 21.9395C17.4003 22.0083 17.4534 22.0824 17.5124 22.123C18.2124 22.6032 18.9495 23.0197 19.7186 23.3776C20.0844 23.5476 20.4586 23.7 20.8457 23.8678C20.9299 23.5555 21.002 23.2645 21.0882 22.9781C21.1216 22.8673 21.0967 22.8276 20.9902 22.7857C19.856 22.339 18.7886 21.7662 17.7907 21.0645C17.754 21.0386 17.7087 21.0104 17.6668 21.0088C17.4931 21.0026 17.3191 21.0062 17.126 21.0062ZM16.0459 19.3125C15.9685 19.9214 16.314 20.3196 16.9088 20.3199C18.5454 20.3206 20.1817 20.3202 21.8183 20.3196C21.8793 20.3193 21.9409 20.316 22.0015 20.3085C22.4908 20.2482 22.7995 19.7992 22.6829 19.3125H16.0459ZM19.3454 11.7353C19.3817 11.9706 19.4512 12.2092 19.4493 12.4471C19.445 12.9033 19.1828 13.2405 18.8561 13.5289C18.3986 13.933 17.8542 14.1925 17.3053 14.4442C17.1608 14.5104 17.0169 14.5855 16.8871 14.6766C16.5961 14.8814 16.4591 15.1629 16.5316 15.5211C16.5574 15.6486 16.603 15.7751 16.6581 15.8937C16.8291 16.2621 17.0998 16.5587 17.3709 16.8539C17.5049 17.0001 17.5101 17.2043 17.382 17.3383C17.248 17.4779 17.0359 17.4819 16.8884 17.3403C16.8006 17.2554 16.7256 17.1571 16.6371 17.0729C16.605 17.0421 16.5463 17.0116 16.5083 17.0198C16.1799 17.0912 15.8719 17.2194 15.7447 17.5556C15.6208 17.8836 15.6955 18.2045 15.8935 18.4939C15.9564 18.586 16.037 18.623 16.1547 18.6227C18.3042 18.6191 20.454 18.621 22.6039 18.6158C22.6822 18.6158 22.7779 18.5725 22.8356 18.5178C23.0601 18.3051 23.102 18.0305 23.0653 17.7365C23.0162 17.3423 22.848 17.0355 22.4417 16.9152C22.325 16.8808 22.2018 16.8697 22.0818 16.8467C21.9852 16.8284 21.9163 16.8635 21.8472 16.9352C21.7168 17.0709 21.5791 17.201 21.4336 17.32C21.275 17.4494 21.0636 17.4189 20.944 17.2656C20.8306 17.1204 20.8621 16.9218 21.004 16.7835C21.2196 16.5734 21.4293 16.3568 21.6368 16.1385C21.8708 15.8918 21.935 15.5886 21.9016 15.2616C21.8632 14.8821 21.6905 14.688 21.3133 14.631C21.0862 14.5966 20.8529 14.596 20.6225 14.5943C20.5586 14.5937 20.4783 14.6271 20.4331 14.6726C20.2328 14.8745 20.0277 15.0685 19.7609 15.1796C19.5938 15.2491 19.4083 15.1741 19.3296 15.0158C19.2507 14.8558 19.2985 14.6559 19.4581 14.5717C19.7953 14.3934 20.031 14.1149 20.2322 13.8045C20.4252 13.5063 20.5284 13.174 20.535 12.8177C20.5465 12.198 19.9792 11.7015 19.3454 11.7353ZM16.1029 16.4122C16.0141 16.1294 15.9014 15.8672 15.8522 15.5935C15.7391 14.962 15.9895 14.4649 16.5053 14.1077C16.72 13.9589 16.9641 13.851 17.2008 13.7363C17.6294 13.5282 18.0597 13.3228 18.4173 13.0006C18.5208 12.9072 18.6159 12.7961 18.6853 12.6758C18.858 12.3786 18.7692 12.0466 18.4782 11.8651C18.391 11.811 18.2914 11.7776 18.198 11.7336C18.0492 11.6638 17.9581 11.5075 17.9771 11.3568C17.9981 11.1883 18.1289 11.0389 18.2957 11.0241C18.897 10.9701 19.4938 10.9927 20.0677 11.2014C20.9564 11.5252 21.3743 12.2786 21.1819 13.209C21.1337 13.4424 21.0544 13.6692 20.9876 13.9061C21.545 13.9363 22.0933 14.028 22.3961 14.5851C22.6773 15.1026 22.6534 15.6437 22.4331 16.1946C22.5128 16.2185 22.5885 16.2391 22.6629 16.2641C23.3209 16.4836 23.6516 16.9614 23.745 17.631C23.8112 18.1078 23.7165 18.5381 23.4104 18.9176C23.3835 18.9507 23.3849 19.011 23.3829 19.0592C23.3721 19.3259 23.3996 19.6002 23.3478 19.8585C23.2482 20.3589 22.9329 20.705 22.459 20.8961C22.3686 20.9324 22.3296 20.9845 22.3057 21.0734C21.5801 23.7866 20.8522 26.4991 20.1244 29.212C20.0208 29.5983 19.7318 29.8333 19.3663 29.83C19.0009 29.8268 18.7201 29.5993 18.6175 29.2179C17.8926 26.5191 17.168 23.82 16.4454 21.1205C16.4149 21.0058 16.3697 20.936 16.2478 20.8816C15.6683 20.6234 15.3685 20.1633 15.3449 19.5301C15.3387 19.3571 15.3629 19.1831 15.3659 19.0094C15.3668 18.9677 15.3475 18.9196 15.3229 18.8842C15.0332 18.4667 14.9408 18.0026 15.0362 17.5114C15.1332 17.0129 15.4707 16.7016 15.9145 16.4915C15.982 16.4594 16.0524 16.4332 16.1029 16.4122Z" fill="#231F20"/>
</svg>
