<svg width="40" height="39" viewBox="0 0 40 39" fill="none" xmlns="http://www.w3.org/2000/svg">
<rect x="0.05" y="0.05" width="39.9" height="38.9" rx="1.95" fill="white" stroke="black" stroke-width="0.1"/>
<path d="M16.5815 21.1893C17.0787 20.5649 17.489 20.0491 17.9144 19.5149C18.3951 20.1002 18.8117 20.6069 19.2708 21.1657C19.7398 20.5604 20.1288 20.0583 20.5578 19.5048C21.0251 20.0819 21.438 20.5915 21.9155 21.1811C22.489 20.4211 22.9944 19.7512 23.4997 19.0814C23.4011 18.9971 23.3027 18.9129 23.2041 18.8287C22.7699 19.3491 22.3353 19.8695 21.8854 20.4089C21.4501 19.8698 21.0366 19.3573 20.5656 18.774C20.0819 19.3756 19.6719 19.8859 19.2462 20.4158C18.7792 19.8394 18.3801 19.3465 17.915 18.7726C17.4408 19.3688 17.0354 19.878 16.6238 20.3952C16.1335 19.8413 15.6944 19.3445 15.2549 18.848C15.1694 18.928 15.0838 19.0076 14.9983 19.0873C15.4955 19.7476 15.9929 20.4076 16.5815 21.1893ZM16.6071 14.5893C16.1319 14.0096 15.7196 13.5062 15.3073 13.0031C15.2323 13.0598 15.1569 13.1165 15.0819 13.1732C15.3722 13.9948 16.0355 14.5703 16.6015 15.3437C17.0918 14.7305 17.5018 14.2173 17.9229 13.6904C18.3964 14.2698 18.8087 14.7745 19.261 15.328C19.7509 14.7142 20.1445 14.2209 20.5659 13.6926C21.0257 14.2504 21.4423 14.7554 21.8611 15.2634C22.9865 14.1918 23.4011 13.4895 23.1723 12.9877C22.7433 13.5275 22.3337 14.043 21.8968 14.5926C21.4229 14.0089 21.01 13.5003 20.5594 12.9451C20.0862 13.5399 19.69 14.0381 19.2508 14.5899C18.7966 14.0295 18.3837 13.5199 17.9173 12.9445C17.4608 13.5173 17.0636 14.0161 16.6071 14.5893ZM21.9014 18.2883C22.4952 17.5034 23.0035 16.8319 23.5115 16.1604C23.4024 16.0742 23.2932 15.9877 23.1838 15.9015C22.7663 16.4203 22.3484 16.9387 21.9004 17.4945C21.4511 16.9495 21.0333 16.4425 20.5545 15.8615C20.0868 16.4524 19.6821 16.964 19.2505 17.5096C18.7815 16.9259 18.3863 16.4334 17.9327 15.8687C17.4461 16.458 17.0315 16.96 16.5861 17.4998C16.3121 17.1511 16.0985 16.8581 15.8622 16.5851C15.6682 16.3606 15.4466 16.1597 15.2375 15.9483C15.1586 16.0273 15.0793 16.1063 15.0003 16.1856C15.5109 16.8551 16.0211 17.5247 16.5894 18.2702C17.08 17.6561 17.4752 17.1616 17.9121 16.6149C18.3712 17.1625 18.7894 17.6613 19.2619 18.225C19.7326 17.6427 20.1304 17.1501 20.5823 16.5907C21.0038 17.1334 21.3934 17.6348 21.9014 18.2883ZM14.6372 27.5044C13.8454 24.9069 13.6717 22.2956 13.7431 19.6926C13.8241 16.7493 14.1226 13.8116 14.3714 10.8752C14.3907 10.6468 14.7388 10.3043 14.9773 10.2624C15.8317 10.113 16.7047 10.0015 17.5706 10.0009C19.3114 9.99989 21.0533 10.0582 22.7925 10.1362C24.0434 10.1923 24.0729 10.2319 24.1869 11.4763C24.532 15.2506 25.0151 19.0237 24.6425 22.8236C24.5088 24.1882 24.2374 25.5391 24.0345 26.8972C23.9726 27.3124 23.8074 27.5195 23.326 27.5156C20.4594 27.493 17.5929 27.5044 14.6372 27.5044Z" fill="#231F20"/>
<path d="M10.9865 27.3203C10.0083 27.0863 9.09164 26.8671 8 26.6059C8.46307 24.1889 8.7826 21.7933 9.40527 19.4789C10.0138 17.2173 10.8387 15 11.7468 12.8383C12.3479 11.4082 13.0443 10.9631 14.1179 10.6872C13.838 16.3646 13.2884 21.9621 10.9865 27.3203Z" fill="#231F20"/>
<path d="M30.3986 26.6354C29.3823 26.874 28.4627 27.09 27.514 27.3125C25.1905 21.9929 24.6933 16.3706 24.3623 10.6731C25.3619 10.8091 25.9816 11.4571 26.3755 12.2213C27.0791 13.5853 27.7549 14.9827 28.2491 16.4322C29.3646 19.7058 29.9709 23.0997 30.3986 26.6354Z" fill="#231F20"/>
<path d="M23.5993 27.7503C23.8198 28.5188 23.6206 28.8429 22.8177 28.8318C20.4312 28.7983 18.0434 28.7983 15.657 28.8304C14.8305 28.8416 14.6859 28.4804 14.8882 27.7503H23.5993Z" fill="#231F20"/>
<path d="M8.24555 26.9331C9.08746 27.1232 9.88645 27.3034 10.7919 27.5076C10.5091 27.9975 10.8742 28.8139 9.87563 28.6323C7.91652 28.2761 7.91422 28.2774 8.24555 26.9331Z" fill="#231F20"/>
<path d="M27.6533 27.5542C28.6093 27.331 29.4066 27.1446 30.3878 26.9155C30.3649 27.4234 30.4612 28.0723 30.3115 28.1353C29.6596 28.4086 28.9409 28.5767 28.2357 28.6249C28.082 28.6354 27.884 27.996 27.6533 27.5542Z" fill="#231F20"/>
</svg>
