<svg width="40" height="39" viewBox="0 0 40 39" fill="none" xmlns="http://www.w3.org/2000/svg">
<rect x="0.05" y="0.05" width="39.9" height="38.9" rx="1.95" fill="white" stroke="black" stroke-width="0.1"/>
<path d="M23.5662 15.0314V13.322H23.289V15.2356H24.5844V15.0314H23.5662ZM20.4004 15.2329H20.6849V13.535H21.436V13.3223H19.6283V13.5442H20.4004V15.2329ZM21.7018 13.3177V15.2369H22.9344V15.0265H21.9866V14.335H22.84C22.8361 14.2517 22.8331 14.1931 22.8292 14.119H21.9896V13.5406H22.9357V13.3177H21.7018ZM15.7111 14.3428H16.807V15.2346H17.0669V13.3259H16.7942V14.1082H15.7153V13.3223H15.4404V15.2356H15.7111V14.3428ZM18.4574 15.2867C19.0669 15.2854 19.4858 14.8721 19.4828 14.276C19.4799 13.6887 19.0483 13.2761 18.4394 13.2791C17.8544 13.282 17.4169 13.7123 17.4156 14.2862C17.4142 14.8659 17.8537 15.2883 18.4574 15.2867ZM19.2482 18.5596H21.0936V16.5979H19.2482V18.5596ZM15.2778 18.5541H17.1278V16.6028H15.2778V18.5541ZM24.6965 22.6702H22.8452V24.6284H24.6965V22.6702ZM19.2767 24.6284H21.1283V22.665H19.2767V24.6284ZM24.7218 25.5535H22.8747V27.5248H24.7218V25.5535ZM24.6949 19.6565H22.8439V21.6271H24.6949V19.6565ZM21.1309 19.6581H19.28V21.6251H21.1309V19.6581ZM22.8144 18.555H24.6733V16.5989H22.8144V18.555ZM17.1806 25.5558H15.3319V27.527H17.1806V25.5558ZM17.1567 24.6415V22.6663H15.2893V22.86C15.2893 23.3224 15.2896 23.7848 15.2893 24.2469C15.2893 24.6415 15.2893 24.6415 15.6888 24.6415C16.1728 24.6415 16.6569 24.6415 17.1567 24.6415ZM17.1544 19.6591H15.3021V21.6281H17.1544V19.6591ZM18.5655 27.5189H21.7195V25.5552H18.5655V27.5189ZM13.6825 27.5123V27.317C13.6822 23.638 13.6822 19.959 13.6815 16.2797C13.6812 15.6472 13.9565 15.2313 14.5437 15.0085C14.6401 14.9717 14.6394 14.917 14.6394 14.842C14.6385 14.3343 14.6385 13.8264 14.6391 13.3184C14.6394 12.8435 14.9193 12.565 15.3965 12.5646C18.4266 12.5646 21.4567 12.5646 24.4868 12.5646C24.9731 12.5646 25.2419 12.8307 25.2425 13.3145C25.2432 13.85 25.2425 14.3855 25.2425 14.9314C25.3389 14.9514 25.427 14.9655 25.5126 14.9888C26.0844 15.1448 26.4393 15.6328 26.4397 16.2685C26.4407 18.52 26.4403 20.7714 26.4403 23.0229C26.4407 24.4786 26.44 25.9347 26.44 27.3904C26.44 27.4294 26.44 27.4681 26.44 27.5208C26.4967 27.5251 26.5449 27.53 26.5934 27.5316C26.9437 27.5434 27.2252 27.8246 27.2318 28.1704C27.2387 28.5197 26.9735 28.8045 26.618 28.8294C26.5786 28.832 26.539 28.832 26.4993 28.832C22.2389 28.832 17.9789 28.832 13.7185 28.8314C13.2384 28.8314 12.9366 28.4984 13.0113 28.0563C13.0598 27.7683 13.2742 27.591 13.6825 27.5123Z" fill="#010101"/>
<path d="M20.5662 12.2207C20.362 12.0965 20.191 11.9998 20.0281 11.8907C19.9291 11.8245 19.8446 11.8107 19.7338 11.8681C19.5558 11.9598 19.369 12.0339 19.1527 12.1303C19.2068 11.9015 19.2514 11.7055 19.3002 11.5109C19.3264 11.4066 19.3225 11.3231 19.235 11.2379C19.0908 11.0973 18.9636 10.9393 18.8037 10.7594C19.039 10.7394 19.2422 10.7138 19.446 10.7076C19.5555 10.7043 19.6194 10.6699 19.6702 10.5713C19.7656 10.3874 19.8754 10.2108 19.9956 10.0024C20.0838 10.2128 20.166 10.3933 20.2345 10.5792C20.2778 10.6965 20.3433 10.7568 20.4718 10.7761C20.6691 10.8053 20.8631 10.8574 21.0837 10.9056C20.9028 11.0622 20.7494 11.2031 20.5865 11.3319C20.5049 11.3968 20.4813 11.4666 20.4938 11.5649C20.5203 11.7711 20.54 11.9779 20.5662 12.2207Z" fill="#010101"/>
<path d="M16.2908 12.129C16.3432 11.8996 16.3812 11.6902 16.4409 11.4873C16.4733 11.3775 16.4448 11.3103 16.3711 11.2346C16.2298 11.0898 16.0984 10.9361 15.9385 10.7588C16.1741 10.7385 16.3783 10.7116 16.5834 10.7067C16.6945 10.7041 16.7565 10.6654 16.8073 10.5697C16.9043 10.3862 17.0127 10.2085 17.1327 10.0004C17.2248 10.2203 17.2972 10.4196 17.3926 10.6074C17.427 10.6752 17.5083 10.7414 17.5813 10.7627C17.779 10.8197 17.9841 10.8519 18.2217 10.9013C18.0392 11.0593 17.8868 11.1983 17.7265 11.3274C17.6433 11.3942 17.6115 11.4604 17.6302 11.5719C17.6636 11.7711 17.6751 11.974 17.6996 12.2148C17.4909 12.089 17.3146 11.9723 17.1278 11.876C17.0645 11.8432 16.9659 11.8363 16.8994 11.8612C16.7001 11.9353 16.509 12.031 16.2908 12.129Z" fill="#010101"/>
<path d="M23.4568 12.2188C23.2346 12.0841 23.056 11.9674 22.8686 11.8671C22.8151 11.8386 22.7286 11.8353 22.6713 11.8573C22.4678 11.9356 22.2705 12.0293 22.0473 12.1276C22.101 11.8937 22.1567 11.6829 22.1938 11.4689C22.2049 11.404 22.1836 11.3139 22.1427 11.2631C22.0096 11.0973 21.8608 10.9439 21.6943 10.7601C21.9264 10.7397 22.1295 10.7125 22.3334 10.708C22.4514 10.7053 22.5156 10.664 22.5684 10.5608C22.6608 10.3812 22.7686 10.2095 22.8876 10.0034C22.9777 10.2151 23.0658 10.3989 23.1327 10.59C23.1743 10.7083 23.2451 10.7538 23.3611 10.7742C23.5581 10.8082 23.7524 10.8564 23.9779 10.9052C23.7908 11.0662 23.6318 11.2084 23.4663 11.3424C23.3919 11.4031 23.371 11.4653 23.3847 11.5604C23.4152 11.7655 23.4309 11.973 23.4568 12.2188Z" fill="#010101"/>
<path d="M18.4496 13.5074C18.8957 13.5041 19.2077 13.8171 19.2109 14.272C19.2145 14.7354 18.9012 15.0683 18.4598 15.0703C18.0279 15.0719 17.7011 14.7436 17.6916 14.2985C17.6818 13.8463 18.0036 13.5107 18.4496 13.5074Z" fill="#010101"/>
</svg>
