<svg width="40" height="39" viewBox="0 0 40 39" fill="none" xmlns="http://www.w3.org/2000/svg">
<rect x="0.05" y="0.05" width="39.9" height="38.9" rx="1.95" fill="white" stroke="black" stroke-width="0.1"/>
<path d="M18.1611 23.2215C18.0953 21.8664 18.0304 20.5293 17.9648 19.1833H26.5505C26.5505 19.4154 26.559 19.6441 26.5488 19.8722C26.5154 20.6116 26.4741 21.3506 26.4371 22.0899C26.3771 23.2913 26.3178 24.4927 26.2591 25.6942C26.2149 26.5977 26.1716 27.5012 26.1287 28.4051C26.1166 28.664 25.956 28.8308 25.7004 28.8311C24.1008 28.8327 22.5015 28.8318 20.9019 28.8314C20.8816 28.8314 20.8616 28.8285 20.817 28.8249C20.817 28.5807 20.8108 28.3363 20.8193 28.0921C20.8242 27.9535 20.7826 27.8542 20.6823 27.7539C20.3117 27.3836 20.0318 26.9559 19.9571 26.4253C19.8745 25.841 20.1013 25.3494 20.448 24.9004C20.5014 24.8313 20.5519 24.7549 20.6197 24.7031C20.7885 24.574 20.835 24.4108 20.8206 24.2047C20.8045 23.9694 20.8173 23.7318 20.817 23.4952C20.8167 23.2723 20.7682 23.2218 20.5476 23.2218C19.8276 23.2209 19.1076 23.2215 18.3876 23.2215H18.1611Z" fill="#231F20"/>
<path d="M17.5477 26.5043C17.5477 26.9566 17.547 27.4088 17.548 27.8611C17.5483 28.0417 17.5968 28.0951 17.7715 28.0957C18.229 28.098 18.6862 28.098 19.1437 28.0957C19.3085 28.0951 19.3655 28.0371 19.3659 27.8729C19.3668 26.9789 19.3711 26.0845 19.3645 25.1905C19.3609 24.6855 18.9398 24.2863 18.4384 24.2938C17.9458 24.3011 17.5496 24.7071 17.548 25.2092C17.5463 25.6411 17.5477 26.0727 17.5477 26.5043ZM16.4347 23.5647H20.4768C20.4768 23.8275 20.4808 24.0867 20.4726 24.346C20.4713 24.3859 20.4152 24.4262 20.3808 24.463C20.0308 24.8366 19.7637 25.2593 19.6503 25.763C19.5146 26.3634 19.6621 26.9143 19.9895 27.4203C20.1114 27.6091 20.2681 27.7756 20.4014 27.9574C20.4404 28.0102 20.4732 28.081 20.4758 28.1449C20.485 28.3651 20.4794 28.586 20.4794 28.8184H16.4367C16.4367 28.5657 16.4328 28.3107 16.4406 28.0564C16.4419 28.0148 16.4911 27.9709 16.5252 27.9345C16.7733 27.6704 16.9778 27.3774 17.1233 27.0441C17.4143 26.3785 17.3612 25.7302 17.0017 25.1109C16.866 24.8775 16.6795 24.6743 16.5235 24.4521C16.4803 24.3905 16.4426 24.3115 16.439 24.2388C16.4278 24.0192 16.4347 23.799 16.4347 23.5647Z" fill="#231F20"/>
<path d="M23.2061 14.9162H25.5529C25.5529 15.2337 25.5443 15.5454 25.5552 15.8561C25.5696 16.2729 25.3589 16.6256 25.2474 17.0061C25.2189 17.1044 25.1776 17.1988 25.1455 17.2961C25.1327 17.3341 25.1085 17.3882 25.1242 17.4128C25.2274 17.5737 25.1232 17.708 25.0757 17.847C24.9748 18.1429 24.864 18.4352 24.7627 18.7312C24.7352 18.8111 24.6962 18.8426 24.6087 18.8397C24.4045 18.8328 24.2 18.8374 23.9516 18.8374C23.9516 18.3736 23.9572 17.9273 23.9503 17.4809C23.9411 16.8956 23.9198 16.3103 23.9084 15.725C23.9057 15.5975 23.8785 15.4828 23.7353 15.4841C23.5931 15.4854 23.5629 15.6005 23.5665 15.7276C23.5944 16.7547 23.62 17.7818 23.6468 18.8229H23.288C23.2608 17.5248 23.2336 16.2277 23.2061 14.9162Z" fill="#231F20"/>
<path d="M18.035 16.958C18.0373 17.1819 18.2143 17.3566 18.4375 17.3552C18.6574 17.3539 18.8393 17.173 18.8412 16.9538C18.8432 16.7296 18.6534 16.5451 18.4257 16.5494C18.2028 16.5536 18.0327 16.7316 18.035 16.958ZM20.5155 18.8372C20.1803 18.8372 19.8676 18.8401 19.555 18.8339C19.5058 18.8329 19.4495 18.7979 19.4101 18.7631C18.0108 17.5302 16.6121 16.2964 15.2173 15.0586C15.1734 15.0199 15.1494 14.9396 15.1468 14.8773C15.1432 14.7928 15.1691 14.7069 15.1917 14.5601C15.2671 14.6525 15.314 14.7236 15.3739 14.7817C15.7534 15.149 16.1641 15.4666 16.6901 15.6032C16.9785 15.678 17.26 15.6694 17.5346 15.5583C17.6201 15.5239 17.6735 15.5361 17.7394 15.5947C18.6354 16.3885 19.534 17.1799 20.4297 17.974C20.468 18.0081 20.51 18.0628 20.5116 18.1097C20.5201 18.345 20.5155 18.5806 20.5155 18.8372Z" fill="#231F20"/>
<path d="M25.502 17.2991C25.9719 15.9623 26.4383 14.6354 26.9085 13.2983C27.2844 13.4411 27.6472 13.5788 28.032 13.7253C27.4965 15.0352 26.9649 16.3359 26.4278 17.6504C26.1135 17.5311 25.8139 17.4174 25.502 17.2991Z" fill="#231F20"/>
<path d="M22.1462 11.3232C22.3733 12.0995 22.5929 12.85 22.8164 13.6133H20.9229C20.9533 13.4992 20.9805 13.3888 21.0123 13.2797C21.1224 12.9011 21.2306 12.5223 21.3482 12.1461C21.3725 12.0678 21.4207 11.9878 21.4796 11.9311C21.6904 11.7289 21.9106 11.5365 22.1462 11.3232Z" fill="#231F20"/>
<path d="M18.9265 12.5089C19.536 12.5102 20.0266 12.0278 20.0319 11.4222C20.0374 10.8228 19.5396 10.3184 18.9409 10.3174C18.3379 10.3165 17.8427 10.8035 17.8325 11.4078C17.8224 12.0016 18.3251 12.5076 18.9265 12.5089ZM18.9389 10.0005C19.7245 10.0025 20.3579 10.6396 20.354 11.4238C20.3501 12.2005 19.7146 12.8311 18.937 12.8301C18.1386 12.8291 17.514 12.1992 17.5176 11.3989C17.5212 10.6229 18.1557 9.99857 18.9389 10.0005Z" fill="#231F20"/>
<path d="M13.4299 13.4607C12.8151 13.4594 12.3294 13.9376 12.3284 14.5452C12.3274 15.157 12.8089 15.6483 13.4138 15.6522C14.0185 15.6561 14.5235 15.1514 14.5212 14.5455C14.5189 13.948 14.0299 13.462 13.4299 13.4607ZM14.8338 14.5609C14.8332 15.3513 14.2092 15.9662 13.4092 15.9648C12.6335 15.9639 12.0063 15.335 12 14.552C11.9941 13.7822 12.6522 13.1261 13.4256 13.131C14.2082 13.1356 14.8345 13.7717 14.8338 14.5609Z" fill="#231F20"/>
<path d="M21.3276 18.8281H20.8643V13.9749H21.3276V18.8281Z" fill="#231F20"/>
<path d="M22.4072 18.8242V13.9651C22.5416 13.9651 22.6684 13.9602 22.7946 13.969C22.8244 13.971 22.8526 14.0189 22.8775 14.049C22.8854 14.0582 22.8795 14.0788 22.8795 14.0942C22.8791 15.647 22.8791 17.1997 22.8785 18.7524C22.8785 18.7724 22.8746 18.7924 22.871 18.8242H22.4072Z" fill="#231F20"/>
<path d="M22.0503 18.8301H21.6895V13.9726H22.0503V18.8301Z" fill="#231F20"/>
<path d="M18.0751 12.9746C18.3789 12.9992 18.4589 13.1899 18.5047 13.454C18.6643 14.3789 18.8479 15.2994 19.0222 16.2216C19.0238 16.2315 19.0209 16.242 19.0186 16.2754C18.6368 15.9385 18.2655 15.6111 17.8965 15.2857C18.4274 14.5421 18.2691 13.7572 18.0751 12.9746Z" fill="#231F20"/>
<path d="M23.2266 14.0031H25.5688V14.5625H23.2266V14.0031Z" fill="#231F20"/>
<path d="M24.216 12.1803H24.5533C24.6329 12.7256 24.8164 13.2238 25.2257 13.6426H23.5547C23.9443 13.227 24.1439 12.7374 24.216 12.1803Z" fill="#231F20"/>
<path d="M25.0801 18.8373C25.223 18.4391 25.3593 18.0593 25.5019 17.6624C25.7303 17.7489 25.9525 17.8331 26.1865 17.9216C26.0711 18.211 25.9613 18.4912 25.8456 18.7694C25.8332 18.7989 25.7889 18.8337 25.7585 18.8343C25.5389 18.8399 25.319 18.8373 25.0801 18.8373Z" fill="#231F20"/>
<path d="M27.4297 16.5293C27.5968 15.5776 27.9714 14.7472 28.325 13.9079C28.4902 14.0547 28.5538 14.2723 28.4535 14.4781C28.1248 15.1539 27.7833 15.8234 27.4297 16.5293Z" fill="#231F20"/>
<path d="M18.9741 18.8262H18.2276C18.1807 18.5784 18.1329 18.3274 18.0771 18.0334C18.3911 18.311 18.6713 18.5588 18.9741 18.8262Z" fill="#231F20"/>
<path d="M21.585 11.3391C21.6741 11.0349 21.7636 10.7308 21.8527 10.4264C21.8625 10.4264 21.8724 10.4264 21.8822 10.426C21.9291 10.584 21.9799 10.7413 22.0195 10.9012C22.028 10.9363 22.0084 10.9937 21.9812 11.0199C21.8609 11.1365 21.7334 11.2457 21.6082 11.3574C21.6004 11.3512 21.5928 11.3453 21.585 11.3391Z" fill="#231F20"/>
<path d="M27.9932 13.1037C27.9637 13.1794 27.9391 13.2437 27.9109 13.3164C27.6936 13.2338 27.4898 13.1562 27.2656 13.0709C27.2922 13.0024 27.3167 12.9395 27.3476 12.8599C27.5645 12.9418 27.7723 13.0201 27.9932 13.1037Z" fill="#231F20"/>
<path d="M24.5387 11.3127V11.8223H24.2513C24.168 11.4411 24.2188 11.349 24.5387 11.3127Z" fill="#231F20"/>
<path d="M18.9385 26.6987C18.9391 26.4358 18.7255 26.2166 18.4643 26.2113C18.1968 26.2064 17.9747 26.4263 17.974 26.6967C17.973 26.9687 18.1929 27.1876 18.4623 27.1834C18.7268 27.1794 18.9378 26.9644 18.9385 26.6987ZM19.0135 27.752H17.896C17.8921 27.7221 17.8858 27.6979 17.8855 27.6736C17.8852 26.8514 17.8835 26.0295 17.8865 25.2075C17.8872 24.9375 18.0441 24.7356 18.2978 24.6593C18.536 24.5875 18.7953 24.6753 18.9277 24.8932C18.9814 24.9814 19.022 25.0935 19.023 25.1951C19.0302 26.0324 19.027 26.8701 19.0263 27.7074C19.0263 27.7169 19.0211 27.7264 19.0135 27.752Z" fill="#231F20"/>
<path d="M18.29 26.6677C18.3438 26.6281 18.4008 26.553 18.45 26.5579C18.5034 26.5635 18.5879 26.6432 18.5879 26.6903C18.5879 26.7418 18.5122 26.825 18.4585 26.8352C18.411 26.844 18.3484 26.7713 18.2923 26.7343C18.2917 26.7123 18.2907 26.69 18.29 26.6677Z" fill="#231F20"/>
</svg>
