<svg width="40" height="39" viewBox="0 0 40 39" fill="none" xmlns="http://www.w3.org/2000/svg">
<rect x="0.05" y="0.05" width="39.9" height="38.9" rx="1.95" fill="white" stroke="black" stroke-width="0.1"/>
<path d="M14.4651 16.1928H16.1073V14.2475C15.1504 14.3556 14.4061 15.2467 14.4651 16.1928ZM16.0991 19.08V18.0097C15.5895 18.0097 15.1183 18.0097 14.647 18.0097C13.6514 18.0097 13.6409 18.0212 13.7926 18.9915C13.7966 19.0161 13.8244 19.0368 13.8565 19.08H16.0991ZM16.8919 18.012V22.8501C16.9374 22.86 16.9827 22.8701 17.0282 22.8799C17.0708 22.7102 17.1478 22.5408 17.1501 22.3703C17.1626 21.454 17.1849 20.5361 17.1446 19.6214C17.1246 19.1649 17.2717 19.0564 17.6978 19.0918C18.1782 19.1312 18.6642 19.1007 19.1745 19.1007C19.2108 18.8457 19.2538 18.6366 19.2672 18.4259C19.2833 18.1686 19.1525 18.0153 18.8871 18.0136C18.231 18.009 17.5749 18.012 16.8919 18.012ZM13.4656 17.0737C13.3109 16.9072 13.1565 16.7404 13.0022 16.5739C13.189 16.4206 13.3758 16.2675 13.5626 16.1142L13.6583 16.2056C13.7081 15.9562 13.7346 15.6996 13.812 15.4594C14.123 14.4906 14.7633 13.8313 15.7481 13.5625C16.0628 13.4767 16.1752 13.3498 16.1408 13.0405C16.1201 12.8566 16.1381 12.6682 16.1398 12.482C16.1424 12.2385 16.1702 12.0009 16.4894 12.0006C16.7985 12 16.8562 12.2244 16.8571 12.4738C16.8594 13.3338 16.8588 14.1934 16.8591 15.0533C16.8594 15.4233 16.8591 15.7936 16.8591 16.1948H18.5672C18.5361 15.4246 18.2116 14.8292 17.569 14.4844C17.1449 14.257 17.0951 13.9814 17.1924 13.5884C18.2801 13.7379 19.0755 14.7063 19.3193 16.1892C19.5579 16.281 20.017 16.1555 19.9502 16.6051C19.9243 16.7794 19.6097 16.9108 19.4265 17.0619C19.3701 17.0459 19.3134 17.0298 19.257 17.0138C19.3239 17.1527 19.3541 17.3447 19.4645 17.4214C19.8954 17.7206 20.0269 18.1231 19.9669 18.617C19.7512 20.3942 19.5363 22.1714 19.3193 23.9483C19.2259 24.7155 19.1335 25.4834 19.0299 26.2492C18.9411 26.9063 18.5646 27.234 17.9009 27.2376C16.9551 27.2429 16.0093 27.2442 15.0635 27.2383C14.4169 27.2344 14.0237 26.8758 13.9444 26.2296C13.6334 23.6996 13.3246 21.1696 13.0136 18.6396C12.9599 18.2004 13.0605 17.8262 13.3948 17.5089C13.5147 17.3952 13.558 17.2006 13.6363 17.0429C13.5793 17.0531 13.5223 17.0636 13.4656 17.0737Z" fill="#231F20"/>
<path d="M26.9995 17.5467C26.9995 17.0597 27.0086 16.5721 26.9968 16.0854C26.9844 15.5571 27.0159 15.0167 26.9149 14.5041C26.7157 13.4895 25.7869 12.7643 24.7582 12.7299C23.7452 12.6961 22.8256 13.3588 22.5199 14.3436C22.5028 14.3983 22.4596 14.4648 22.4766 14.5064C22.5431 14.6729 22.6287 14.8319 22.7073 14.9938C22.8522 14.8892 23.0835 14.8119 23.1265 14.6755C23.3297 14.0303 23.7173 13.5911 24.3839 13.459C25.4402 13.2503 26.3024 14.0109 26.3099 15.1553C26.3208 16.8172 26.3129 18.4791 26.3132 20.1413C26.3136 20.389 26.2978 20.6787 26.6409 20.6846C27.0096 20.6909 27.0001 20.392 26.9998 20.1255C26.9988 19.2659 26.9995 18.4063 26.9995 17.5467ZM25.4038 21.7786C25.4038 21.97 25.4041 22.1092 25.4038 22.2485C25.4035 23.6246 25.4054 25.001 25.4018 26.3771C25.4005 26.9402 25.1695 27.2246 24.7218 27.2341C24.2594 27.2443 24.0048 26.9425 24.0041 26.3696C24.0018 24.8663 24.0031 23.3628 24.0031 21.7773C23.6407 21.7773 23.3047 21.7795 22.9692 21.7769C22.1033 21.7704 21.6979 21.3728 21.697 20.5208C21.695 18.6859 21.6884 16.851 21.7002 15.016C21.7097 13.4908 22.762 12.2953 24.2856 12.0449C25.6814 11.8155 27.0791 12.6692 27.5445 14.0621C27.647 14.3691 27.7011 14.706 27.7037 15.0298C27.7188 16.8647 27.7142 18.6996 27.711 20.5345C27.7093 21.3666 27.302 21.77 26.4702 21.7782C26.1304 21.7812 25.7908 21.7786 25.4038 21.7786Z" fill="#231F20"/>
</svg>
