<svg width="40" height="39" viewBox="0 0 40 39" fill="none" xmlns="http://www.w3.org/2000/svg">
<rect x="0.05" y="0.05" width="39.9" height="38.9" rx="1.95" fill="white" stroke="black" stroke-width="0.1"/>
<path d="M18.5123 10.0632H21.7105C21.3933 9.62212 19.0357 9.5959 18.5123 10.0632ZM14.4945 26.4905C14.7173 23.7053 14.2287 15.3143 13.7266 13.7131C12.8582 18.0901 12.7566 22.4009 12.7382 26.7662C13.3602 26.6685 13.918 26.581 14.4945 26.4905ZM19.424 17.3173C19.4132 17.3308 19.4018 17.3432 19.39 17.3557C19.2644 17.5448 19.1393 17.7339 18.9597 18.0052C17.5842 15.8786 16.1232 14.0621 15.4304 11.769C15.1037 11.9004 14.7471 12.044 14.3703 12.1957C14.5931 14.2007 14.8651 16.1755 15.0182 18.1596C15.1712 20.1433 15.2053 22.1361 15.2944 24.1945C15.5655 24.1945 15.8715 24.1942 16.1776 24.1949C16.4287 24.1952 16.7141 24.1818 16.7138 24.5337C16.7131 24.9031 16.4244 24.9083 16.1488 24.9047C15.847 24.9008 15.5451 24.9037 15.2269 24.9037C15.2269 25.5123 15.2187 26.035 15.2299 26.5574C15.2371 26.8841 15.1968 27.1417 14.7888 27.183C14.7029 27.1919 14.5761 27.3403 14.5643 27.436C14.5227 27.7759 14.4974 28.1229 14.5217 28.4631C14.5292 28.5706 14.695 28.7256 14.815 28.7567C15.4612 28.9245 16.1101 29.1107 16.7698 29.1864C17.1143 29.2257 17.5901 29.1677 17.8235 28.9537C18.9479 27.9247 19.7655 26.6973 19.7809 25.0981C19.7986 23.2658 19.7839 21.4335 19.7868 19.6012C19.7872 19.3675 19.8081 19.1339 19.8206 18.8815C20.3813 19.0703 20.5373 19.3879 20.5245 19.9155C20.4849 21.5341 20.5534 23.156 20.497 24.7736C20.44 26.4112 21.2065 27.6445 22.2421 28.7862C22.5711 29.149 22.9828 29.2604 23.4403 29.2041C23.8925 29.1484 24.3451 29.072 24.7878 28.9635C25.7864 28.719 25.7838 28.7089 25.7323 27.7192C25.7291 27.6536 25.7517 27.573 25.7212 27.5258C25.6383 27.3983 25.5534 27.2128 25.4338 27.1804C25.109 27.0922 25.0359 26.8927 25.0412 26.598C25.0503 26.0475 25.0438 25.4962 25.0438 24.9047C24.8495 24.9047 24.7017 24.9267 24.5634 24.9001C24.2376 24.8375 23.6752 25.123 23.6762 24.536C23.6772 23.9789 24.2238 24.2588 24.5362 24.1975C24.6885 24.1673 24.8517 24.1922 25.1487 24.1922V18.72C25.204 18.7118 25.2598 18.7033 25.3151 18.6951C25.3056 19.0362 25.3577 19.3066 25.8244 19.0887C25.8244 19.3299 25.8257 19.5068 25.8241 19.6838C25.8041 21.794 25.7785 23.9042 25.7736 26.0144C25.7733 26.1858 25.8841 26.4804 25.9955 26.5079C26.492 26.6308 27.0075 26.6773 27.5145 26.7514C27.8425 24.6422 27.117 15.3962 26.4989 13.7943C26.2482 14.5982 26.4615 15.4801 26.0371 16.1975C25.4341 15.8813 25.5436 15.4185 25.6104 14.9423C25.7238 14.1338 25.8054 13.3204 25.8834 12.5074C25.8949 12.3887 25.848 12.1908 25.7667 12.1492C25.4577 11.9906 25.1234 11.8811 24.8111 11.7579C24.7259 12.0797 24.7023 12.3701 24.5771 12.6067C24.0423 13.6154 23.4812 14.6103 22.9175 15.6037C22.8599 15.7056 22.7321 15.7937 22.6177 15.8334C22.1825 15.9848 22.0478 16.3253 21.9934 16.7356C21.9737 16.886 21.9219 17.0322 21.8849 17.1807C21.7142 16.5845 21.7486 16.0707 22.091 15.5388C22.7438 14.5248 23.3069 13.4525 23.8932 12.3966C24.1052 12.0148 24.1632 11.5819 23.8348 11.2548C23.4265 10.8478 22.9513 10.5076 22.4528 10.0957C22.3991 10.3116 22.3742 10.4034 22.3539 10.4961C22.0691 11.8031 21.7892 13.111 21.4962 14.4163C21.448 14.6303 21.373 14.8506 21.256 15.0334C21.1383 15.2166 20.8991 17.0633 21.0161 17.2518C21.2898 17.6932 21.1459 18.3408 20.7677 18.6158C20.6635 17.7535 20.5527 16.8526 20.4482 15.9507C20.439 15.8734 20.4685 15.7905 20.4855 15.7115C20.652 14.9463 20.8218 14.1817 20.9866 13.4161C21.1672 12.5775 21.3438 11.7379 21.5369 10.8291H18.747C19.0944 12.4484 19.4211 13.9628 19.7423 15.4782C19.7911 15.7076 19.8258 15.9999 19.4971 15.9894C19.3434 15.9848 19.1029 15.7646 19.0626 15.602C18.8037 14.5573 18.59 13.501 18.3593 12.449C18.1948 11.6986 18.0266 10.9484 17.8464 10.1373C17.4712 10.4011 17.1674 10.5928 16.8875 10.8153C16.1685 11.3879 16.0482 11.7736 16.4824 12.5903C17.0563 13.6695 17.6871 14.7198 18.3258 15.7629C18.6329 16.2644 19.0144 16.7205 19.3621 17.197C19.3827 17.237 19.4034 17.2773 19.424 17.3173ZM26.4438 27.3341C26.4717 27.8817 26.5244 28.3382 26.5021 28.7908C26.494 28.957 26.3357 29.2237 26.1987 29.2585C25.2234 29.5043 24.2425 29.7396 23.2505 29.9002C22.6586 29.9962 22.1038 29.7589 21.7266 29.2801C21.1583 28.5585 20.6337 27.8027 20.1283 27.1135C19.7147 27.7123 19.271 28.3907 18.7902 29.0419C18.2279 29.8035 17.4302 30.0522 16.5309 29.8867C15.7323 29.7399 14.9487 29.5092 14.1599 29.3086C13.842 29.2277 13.7165 29.0166 13.7519 28.6866C13.7968 28.2671 13.8197 27.845 13.8587 27.34C13.4153 27.4003 13.0168 27.4327 12.6288 27.5134C12.2021 27.6018 11.9881 27.4534 12.0005 27.0234C12.0697 24.6219 12.0739 22.2154 12.2417 19.8208C12.3794 17.8545 12.714 15.9022 12.9614 13.9441C12.9634 13.9277 12.965 13.9113 12.9683 13.8953C13.3868 11.847 13.4051 11.8418 15.3157 11.0198C15.6759 10.8652 16.0197 10.6223 16.3051 10.351C17.675 9.0486 19.3369 8.90703 21.101 9.03877C22.1127 9.11448 22.9919 9.48841 23.6946 10.1651C24.37 10.8157 25.1805 11.1503 26.0214 11.4485C26.4651 11.6055 26.7561 11.8588 26.8633 12.3078C27.113 13.3526 27.4417 14.3898 27.5656 15.4503C27.6606 16.264 28.2204 24.8608 28.2728 26.9848C28.2849 27.4731 28.1257 27.5851 27.6456 27.5062C27.2634 27.4436 26.879 27.3957 26.4438 27.3341Z" fill="#231F20"/>
<path d="M19.5729 17.3168C19.6846 17.3852 19.8783 17.439 19.8937 17.5245C19.9573 17.8785 19.9668 18.2422 19.9976 18.623C19.4139 18.5316 19.335 18.3363 19.3894 17.3548C19.4015 17.3426 19.413 17.3299 19.4238 17.3168C19.4736 17.3168 19.5231 17.3168 19.5729 17.3168Z" fill="#231F20"/>
<path d="M19.5724 17.3164C19.5226 17.3164 19.4731 17.3164 19.4233 17.3164C19.4026 17.2761 19.382 17.2361 19.3613 17.1961C19.3925 17.0244 19.3898 16.836 19.4655 16.6872C19.5222 16.5758 19.6792 16.5155 19.7916 16.4325C19.846 16.5663 19.9765 16.7295 19.9388 16.8278C19.8683 17.0106 19.6999 17.1555 19.5724 17.3164Z" fill="#231F20"/>
<path d="M24.9001 17.1504V15.8592C24.6602 15.8284 24.4718 15.8045 24.2636 15.778C24.1529 16.0192 24.0457 16.2522 23.9385 16.4855L24.0585 16.4691C24.1034 16.671 24.1775 16.8725 24.1804 17.0751C24.1817 17.1698 24.0451 17.2661 23.953 17.3848C23.4797 16.5609 23.5348 15.814 24.1044 15.1894C24.1752 15.1114 24.4773 15.1012 24.5196 15.1635C24.8103 15.5918 25.0852 16.0359 25.3143 16.4999C25.4566 16.7883 25.2566 17.0957 24.9001 17.1504Z" fill="#231F20"/>
<path d="M21.8194 20.9888C21.5474 21.27 21.3409 21.6901 20.9375 21.3024C20.8333 21.2021 20.83 20.8121 20.9323 20.7158C21.3114 20.3573 21.5526 20.7027 21.8194 20.9888Z" fill="#231F20"/>
<path d="M21.8064 24.295C21.5708 24.6077 21.3404 24.9377 20.9484 24.6168C20.8419 24.5297 20.8236 24.1344 20.9219 24.0335C21.2915 23.6537 21.5409 23.9883 21.8064 24.295Z" fill="#231F20"/>
</svg>
