<svg width="40" height="39" viewBox="0 0 40 39" fill="none" xmlns="http://www.w3.org/2000/svg">
<rect x="0.05" y="0.05" width="39.9" height="38.9" rx="1.95" fill="white" stroke="black" stroke-width="0.1"/>
<path d="M28.6204 15.9145C28.9792 16.0548 29.1431 15.9833 29.2089 15.5982C29.3253 14.9149 29.4708 14.2333 29.6596 13.5664C29.7743 13.1607 29.6743 12.9961 29.2299 12.9775C29.0264 13.9586 28.8242 14.9333 28.6204 15.9145ZM10.7262 13.1256C10.9117 13.9639 11.1106 14.7714 11.2626 15.5874C11.337 15.9882 11.5137 16.0626 11.9017 15.8991C11.6952 14.913 11.4898 13.9301 11.2761 12.9093C11.0552 12.9961 10.9028 13.0561 10.7262 13.1256ZM13.9198 11.8996C13.2227 12.1654 12.5856 12.399 11.959 12.6576C11.8683 12.695 11.7565 12.8647 11.7729 12.9512C11.9607 13.9485 12.1711 14.9415 12.3664 15.8899H14.2098C14.1118 14.5384 14.0178 13.2462 13.9198 11.8996ZM28.8072 12.7549C28.0439 12.4646 27.3046 12.1834 26.5111 11.8819C26.4158 13.2603 26.326 14.559 26.2329 15.9047H28.1537C28.3677 14.8733 28.5833 13.8341 28.8072 12.7549ZM23.1248 10.8882C23.0861 10.8378 23.0475 10.7876 23.0085 10.7372C22.9138 10.8171 22.7889 10.8787 22.7283 10.9793C21.4439 13.1089 18.9729 13.1171 17.72 10.9961C17.6633 10.9004 17.5342 10.8476 17.4389 10.7748C17.4362 10.8951 17.3946 11.0321 17.4372 11.1334C18.1186 12.7395 19.9889 13.4363 21.5573 12.6835C21.7284 12.6012 21.9444 12.3423 22.0833 12.6678C22.1181 12.749 21.8867 13.0233 21.7268 13.0948C20.5938 13.5998 19.4756 13.5736 18.3968 12.9208C17.6339 12.459 17.2013 11.7298 16.827 10.9394C16.1863 11.1307 15.5682 11.3264 14.9433 11.4962C14.645 11.5774 14.5893 11.7226 14.6093 12.0284C14.7319 13.9144 14.8758 15.8018 14.9112 17.6907C14.9616 20.3574 14.9305 23.0257 14.9167 25.6933C14.9151 26.0093 15.0068 26.1967 15.3031 26.2793C16.1794 26.5241 17.0564 26.7673 17.934 27.0078C18.1621 27.0704 18.5213 26.9239 18.5102 27.329C18.5089 27.3755 18.0468 27.4837 17.8252 27.4368C16.8621 27.233 15.9084 26.9819 14.9593 26.7502C14.9154 27.0707 14.9128 27.0757 15.2343 27.2376C15.4273 27.3349 15.6256 27.425 15.8291 27.4978C17.7371 28.1814 19.7126 28.2345 21.7018 28.0867C22.9092 27.9969 24.0926 27.775 25.1973 27.2385C25.4497 27.116 25.6191 26.98 25.5155 26.7358C24.5468 26.9737 23.6013 27.2592 22.6355 27.4257C21.8769 27.5568 21.0933 27.5486 20.3199 27.5807C20.2179 27.5849 20.1104 27.4601 20.0056 27.3949C20.0983 27.3116 20.1812 27.1759 20.2861 27.156C20.5119 27.1134 20.7488 27.1304 20.9812 27.1229C22.4153 27.0763 23.8127 26.861 25.14 26.278C25.4369 26.1476 25.5424 25.9821 25.5408 25.6517C25.5263 22.9221 25.526 20.1925 25.5365 17.4626C25.5398 16.642 25.5785 15.8208 25.623 15.0011C25.6778 13.9954 25.7617 12.9909 25.8177 11.9851C25.8252 11.853 25.7764 11.6223 25.6991 11.5955C25.0066 11.3559 24.3023 11.1517 23.6121 10.9403C23.4702 11.2183 23.389 11.4421 23.2516 11.624C23.1579 11.7488 22.9865 11.8154 22.8499 11.9078C22.8505 11.7456 22.8168 11.5732 22.8603 11.4234C22.9154 11.2353 23.034 11.0659 23.1248 10.8882ZM26.1982 16.6814C26.1982 16.818 26.1982 16.9858 26.1982 17.1533C26.1982 20.3948 26.1897 23.6362 26.209 26.8777C26.2116 27.3152 26.0602 27.5636 25.6882 27.7554C24.5399 28.3479 23.308 28.6333 22.0358 28.7388C19.9564 28.9116 17.8865 28.8873 15.8717 28.2365C14.2823 27.7229 14.2403 27.6646 14.24 26.0116C14.2393 23.0339 14.2383 20.0559 14.2374 17.0782C14.2374 16.9268 14.2374 16.7751 14.2374 16.6791C13.264 16.6791 12.3366 16.6555 11.4111 16.6892C10.9674 16.7053 10.7681 16.5558 10.6822 16.1246C10.483 15.1237 10.2533 14.1284 10.0232 13.1338C9.95045 12.8192 10.0461 12.6353 10.348 12.5239C12.7115 11.6515 15.0288 10.6497 17.4867 10.045C17.8891 9.94637 18.0645 10.0293 18.2192 10.4173C18.5656 11.2867 19.1751 11.8491 20.1747 11.8678C21.1958 11.8865 21.8362 11.3402 22.1961 10.4507C22.3678 10.0263 22.5667 9.9113 22.9993 10.063C25.3753 10.8968 27.7571 11.7141 30.138 12.5347C30.4202 12.632 30.527 12.8103 30.4592 13.1053C30.2173 14.1602 29.9709 15.2141 29.748 16.2733C29.6782 16.6056 29.498 16.6889 29.1909 16.6856C28.2163 16.6745 27.2416 16.6814 26.1982 16.6814Z" fill="#231F20"/>
<path d="M23.385 23.3829C23.2959 23.4458 23.207 23.5638 23.1176 23.5641C21.108 23.5746 19.0981 23.572 17.0469 23.572C17.1023 23.4098 17.1475 23.2767 17.193 23.144C18.1136 21.9094 19.0345 20.6749 19.9554 19.4404C20.0206 19.3457 20.0858 19.251 20.1622 19.1402C20.3542 19.3421 20.4847 19.4791 20.6148 19.6161C20.7268 19.7439 20.8501 19.8635 20.9494 20.0005C21.7638 21.1262 22.5736 22.2552 23.385 23.3829Z" fill="#231F20"/>
<path d="M19.9557 19.4424C19.0348 20.6769 18.1142 21.9114 17.1933 23.1459C17.1121 23.2079 17.0305 23.2701 16.8935 23.375C16.8935 23.2102 16.8935 23.1092 16.8935 23.008C16.8935 20.3842 16.8905 17.7605 16.901 15.1368C16.9017 15.0014 16.7394 14.6773 17.1409 14.7759C17.9546 15.9049 18.7684 17.0339 19.5821 18.1629C19.4405 18.667 19.646 19.0701 19.9557 19.4424Z" fill="#231F20"/>
<path d="M23.3845 23.3848C22.573 22.2571 21.7632 21.1281 20.9489 20.0024C20.8496 19.8654 20.7263 19.7458 20.6143 19.6179C20.6211 19.4678 20.6034 19.3115 20.6395 19.1686C20.7427 18.756 20.8679 18.3487 20.9843 17.9394L23.2908 14.8732C23.3497 14.8277 23.4084 14.7818 23.5342 14.6838C23.5342 14.9863 23.5339 15.2363 23.5342 15.4867C23.5375 17.9489 23.5441 20.4107 23.5372 22.8729C23.5369 23.0436 23.4379 23.214 23.3845 23.3848Z" fill="#231F20"/>
<path d="M20.4454 17.4146C19.9486 17.0869 19.8515 17.1069 19.6972 17.4146H20.4454ZM23.2913 14.8708C22.5225 15.893 21.7536 16.9151 20.9848 17.937C20.9006 18.0048 20.8167 18.0727 20.7157 18.1539C20.6728 17.9481 20.64 17.7915 20.6076 17.6348C20.5581 17.6227 20.5086 17.6106 20.4591 17.5981C20.3825 17.7662 20.3054 17.9344 20.2288 18.1025L20.2301 18.0766C20.0138 18.1044 19.7975 18.1323 19.5815 18.1602C18.7678 17.0315 17.954 15.9025 17.1403 14.7735C16.9243 14.4612 17.2127 14.5284 17.3432 14.5267C18.0376 14.5175 18.7321 14.5234 19.4268 14.5238C20.7367 14.5238 22.0469 14.5238 23.3749 14.5238C23.3401 14.6676 23.3159 14.7692 23.2913 14.8708Z" fill="#231F20"/>
<path d="M20.2295 18.1016C20.237 18.0915 20.2441 18.0811 20.2515 18.0711C20.2447 18.0727 20.2379 18.0743 20.2308 18.0759L20.2295 18.1016Z" fill="#231F20"/>
</svg>
