<svg width="40" height="39" viewBox="0 0 40 39" fill="none" xmlns="http://www.w3.org/2000/svg">
<rect x="0.05" y="0.05" width="39.9" height="38.9" rx="1.95" fill="white" stroke="black" stroke-width="0.1"/>
<path d="M17.1195 18.3944C17.3925 15.6409 18.7735 13.744 21.3606 12.482C18.2069 12.7327 15.2112 15.908 15.576 18.3944H17.1195ZM13.7627 18.998C14.5941 14.7351 17.1025 12.3066 21.2642 11.469C21.2783 10.7208 21.4064 9.96476 22.3726 10.0018C23.2112 10.0339 23.4255 10.6526 23.3318 11.4441C27.4867 12.2739 30.0527 14.6898 30.8753 18.998H13.7627Z" fill="#231F20"/>
<path d="M13.1961 27.9367C13.0388 26.127 12.8884 24.3977 12.7308 22.5808C12.2733 22.6411 11.9141 22.6883 11.4353 22.7515C11.5995 24.5455 11.7574 26.2719 11.9206 28.0553C12.3873 28.0118 12.7504 27.978 13.1961 27.9367ZM22.9389 22.3815C22.933 22.2462 22.9275 22.1105 22.9216 21.9748C22.5794 21.9322 22.2343 21.8362 21.8958 21.8559C20.2716 21.9512 18.6399 22.0073 17.0295 22.2193C15.9965 22.3556 14.9858 22.7086 13.9889 23.0363C13.785 23.1035 13.5524 23.4981 13.5625 23.7317C13.615 24.9141 13.7428 26.093 13.8444 27.2754C15.8484 27.2754 17.8583 27.5569 19.7522 27.2085C22.5037 26.7025 25.2563 25.9026 26.9411 23.2896C27.2462 22.8167 27.6358 22.3986 27.9865 21.9552C27.8937 21.8368 27.8013 21.7182 27.7086 21.5999C27.0957 21.9506 26.4056 22.2127 25.8851 22.6686C24.431 23.9428 22.6938 24.4721 20.8527 24.7559C20.2726 24.8453 19.6594 24.864 19.0843 24.7716C18.8424 24.7326 18.5137 24.3338 18.4934 24.0771C18.4747 23.835 18.7536 23.4479 18.9994 23.3329C19.4412 23.1254 19.9554 23.071 20.4404 22.9577C21.2728 22.7636 22.1059 22.5736 22.9389 22.3815ZM19.5113 24.1519C21.4023 23.9847 23.2696 23.7671 24.8587 22.5172C25.4938 22.0174 26.184 21.574 26.8942 21.188C27.4467 20.8878 28.0448 20.8658 28.4935 21.4511C28.9228 22.0105 28.6 22.4277 28.2365 22.8511C27.5637 23.6347 26.9178 24.4422 26.2325 25.215C25.9677 25.5135 25.6636 25.8173 25.3146 25.995C22.1344 27.6129 18.8116 28.5119 15.1877 28.1478C14.1583 28.0442 13.0883 28.3064 12.0409 28.4348C11.2491 28.5319 10.4639 28.6833 9.55286 28.8301C9.36344 26.655 9.18549 24.613 9 22.4848C10.4413 22.2907 11.7964 22.0495 13.1598 22.5424C13.2535 22.5765 13.4088 22.5149 13.5065 22.4526C15.092 21.4446 16.9092 21.5075 18.6723 21.3426C19.7935 21.2378 20.9199 21.1601 22.0452 21.1395C22.4559 21.1319 22.9445 21.2184 23.267 21.4465C23.9549 21.9332 23.8913 22.6539 23.1044 22.9645C22.2432 23.3047 21.3102 23.4637 20.407 23.697C20.0874 23.7792 19.7643 23.8471 19.4431 23.9218C19.4658 23.9985 19.4887 24.0752 19.5113 24.1519Z" fill="#231F20"/>
<path d="M31.5868 20.0645H12.6642C12.6403 20.0274 12.6167 19.9904 12.5928 19.9537C12.8009 19.8655 13.0087 19.701 13.2171 19.7007C19.1996 19.6889 25.1822 19.6928 31.1647 19.7C31.3112 19.7 31.4574 19.7662 31.6038 19.8013C31.5983 19.8891 31.5924 19.9766 31.5868 20.0645Z" fill="#231F20"/>
</svg>
