<svg width="40" height="39" viewBox="0 0 40 39" fill="none" xmlns="http://www.w3.org/2000/svg">
<rect x="0.05" y="0.05" width="39.9" height="38.9" rx="1.95" fill="white" stroke="black" stroke-width="0.1"/>
<path d="M15.1669 26.8851C14.772 26.8903 14.4928 27.0536 14.4758 27.416C14.4581 27.7883 14.7402 27.9699 15.0912 27.9823C15.4452 27.9951 15.7267 27.8257 15.7431 27.4547C15.7598 27.0771 15.4815 26.9195 15.1669 26.8851ZM12.1522 27.4409C12.1165 27.0657 11.9012 26.8894 11.5322 26.8887C11.1684 26.8884 10.9118 27.0496 10.9043 27.4285C10.8964 27.8119 11.1579 27.9807 11.5158 27.9843C11.8733 27.9879 12.1109 27.8234 12.1522 27.4409ZM18.7129 27.9915C19.0727 27.9561 19.3323 27.8027 19.3159 27.4131C19.2995 27.0264 19.036 26.8779 18.6765 26.8884C18.314 26.8992 18.0686 27.0683 18.0807 27.4566C18.0931 27.8512 18.371 27.9728 18.7129 27.9915ZM18.6981 23.4132C18.3717 23.4847 18.0807 23.6043 18.0823 23.9995C18.084 24.3885 18.3442 24.5596 18.6958 24.5648C19.055 24.5701 19.3077 24.3787 19.3152 24.0035C19.3231 23.6145 19.0298 23.4847 18.6981 23.4132ZM12.1506 24.0251C12.1316 23.6312 11.8809 23.4391 11.5427 23.4313C11.2064 23.4231 10.9223 23.5968 10.9102 23.9845C10.8984 24.3718 11.1517 24.5524 11.5073 24.5639C11.8668 24.576 12.0975 24.3925 12.1506 24.0251ZM10.3661 20.4637C10.2862 20.2268 10.1053 20.0125 9.72545 20.0171C9.3512 20.0217 9.09754 20.2199 9.09492 20.5726C9.0923 20.9376 9.38364 21.1398 9.73299 21.1313C10.0666 21.1231 10.3455 20.9724 10.3661 20.4637ZM17.0552 20.0276C16.5512 19.9951 16.2858 20.1999 16.2648 20.5421C16.2428 20.8957 16.5214 21.1274 16.8757 21.1303C17.204 21.1326 17.5164 21.0091 17.5285 20.602C17.5406 20.2104 17.285 20.0538 17.0552 20.0276ZM15.0627 22.8374C15.4448 22.8466 15.7181 22.6798 15.7467 22.3167C15.7762 21.9375 15.493 21.7471 15.1437 21.7288C14.7917 21.7104 14.5 21.8874 14.4758 22.2541C14.4512 22.626 14.716 22.8063 15.0627 22.8374ZM12.1506 22.2826C12.1273 21.8985 11.873 21.7343 11.5289 21.7324C11.1864 21.7304 10.9079 21.8831 10.9085 22.2803C10.9092 22.669 11.154 22.8296 11.5197 22.8348C11.8894 22.8397 12.1099 22.67 12.1506 22.2826ZM12.1571 25.7033C12.1083 25.3438 11.8864 25.1528 11.523 25.1593C11.1674 25.1659 10.9092 25.333 10.9079 25.7243C10.9066 26.1222 11.1946 26.2857 11.5286 26.2893C11.8746 26.2932 12.1178 26.0946 12.1571 25.7033ZM19.3257 25.7128C19.2883 25.3537 19.0711 25.1623 18.707 25.1593C18.3468 25.1567 18.0902 25.3291 18.0797 25.7112C18.0686 26.1035 18.354 26.2801 18.6889 26.288C19.0294 26.2959 19.2864 26.1143 19.3257 25.7128ZM12.1503 20.5431C12.1018 20.1586 11.8596 20.0056 11.4978 20.0203C11.1324 20.0351 10.8951 20.2101 10.9075 20.6017C10.9206 21.0065 11.2284 21.149 11.5512 21.1352C11.8766 21.1212 12.1581 20.9511 12.1503 20.5431ZM19.3205 22.3016C19.2952 21.8739 19.0291 21.7281 18.6843 21.7324C18.336 21.7366 18.0653 21.9047 18.0787 22.2973C18.0918 22.6801 18.3422 22.8427 18.7096 22.8361C19.0773 22.8296 19.2978 22.6585 19.3205 22.3016ZM13.3517 20.0144C12.9915 20.0236 12.7159 20.1639 12.6907 20.546C12.6648 20.9425 12.9515 21.1136 13.2927 21.1307C13.6434 21.1484 13.935 20.9566 13.9537 20.5948C13.9727 20.2321 13.7154 20.0374 13.3517 20.0144ZM13.976 22.3049C13.9183 21.9378 13.6794 21.7291 13.3359 21.7248C13.0053 21.7206 12.6959 21.8657 12.6913 22.2659C12.6871 22.6503 12.9381 22.8214 13.3019 22.8355C13.6738 22.8499 13.8839 22.6506 13.976 22.3049ZM15.7611 20.5444C15.6887 20.1921 15.4602 20.0085 15.0974 20.0184C14.7389 20.0279 14.4659 20.2068 14.4741 20.5837C14.4823 20.9629 14.7904 21.1398 15.1246 21.1343C15.4606 21.129 15.7214 20.9422 15.7611 20.5444ZM18.6578 20.0148C18.3494 20.039 18.083 20.1783 18.0787 20.5712C18.0741 20.9701 18.3655 21.1303 18.6978 21.1326C19.0337 21.1349 19.3244 20.9734 19.3188 20.5732C19.3132 20.1875 19.0701 20.0226 18.6578 20.0148ZM13.9743 27.4294C13.8967 27.0765 13.6837 26.8749 13.3166 26.8851C12.9637 26.8949 12.6907 27.045 12.692 27.4406C12.693 27.8384 12.9745 27.9853 13.3232 27.9885C13.6846 27.9925 13.9049 27.7913 13.9743 27.4294ZM9.74479 26.307C10.0555 26.2323 10.3609 26.1291 10.3543 25.7315C10.3478 25.3094 10.0637 25.1465 9.68449 25.1567C9.32367 25.1665 9.07984 25.3887 9.09721 25.742C9.11425 26.0943 9.39118 26.2651 9.74479 26.307ZM10.3622 27.4081C10.3153 27.044 10.0778 26.8864 9.71759 26.8861C9.34562 26.8858 9.09328 27.087 9.09819 27.4462C9.10311 27.8112 9.37872 27.9987 9.74053 27.9876C10.0909 27.9771 10.3442 27.824 10.3622 27.4081ZM17.538 22.3311C17.5278 21.8995 17.2561 21.7366 16.9206 21.7255C16.5774 21.714 16.2792 21.8979 16.272 22.2701C16.2651 22.6313 16.508 22.8361 16.8852 22.8364C17.247 22.8368 17.4826 22.6788 17.538 22.3311ZM9.75003 21.7156C9.38528 21.7553 9.09361 21.9139 9.09656 22.2846C9.09885 22.6434 9.35054 22.8414 9.72676 22.8345C10.0889 22.8279 10.3442 22.6801 10.3534 22.2869C10.3629 21.8785 10.063 21.7733 9.75003 21.7156ZM16.9104 26.305C17.2358 26.232 17.5409 26.1205 17.5281 25.7165C17.516 25.3301 17.2548 25.1626 16.8976 25.1593C16.5293 25.1564 16.2697 25.3668 16.2704 25.7253C16.271 26.0914 16.5679 26.249 16.9104 26.305ZM16.9153 27.9928C17.2693 27.9633 17.538 27.8198 17.5295 27.4232C17.5209 27.0254 17.2414 26.8844 16.8894 26.8844C16.5247 26.8841 16.2615 27.0765 16.2694 27.4481C16.2772 27.8214 16.5545 27.9823 16.9153 27.9928ZM17.5399 24.0284C17.518 23.6249 17.2647 23.445 16.9301 23.4319C16.5499 23.4175 16.255 23.6407 16.2674 24.03C16.2786 24.3728 16.5456 24.5799 16.9104 24.5694C17.265 24.5589 17.4901 24.3797 17.5399 24.0284ZM9.77953 23.4172C9.41412 23.4391 9.12605 23.6072 9.09754 23.9514C9.06509 24.34 9.33448 24.5701 9.72709 24.5684C10.0738 24.5668 10.3367 24.3984 10.355 24.0189C10.374 23.6269 10.0866 23.4981 9.77953 23.4172ZM13.9747 23.9976C13.9003 23.6469 13.6696 23.4263 13.331 23.4293C12.9696 23.4329 12.6595 23.6158 12.691 24.0421C12.7185 24.4128 12.9925 24.5743 13.3422 24.5701C13.7066 24.5658 13.9 24.3413 13.9747 23.9976ZM13.9809 25.7027C13.8944 25.3973 13.7217 25.1603 13.3494 25.1551C12.9964 25.1502 12.7225 25.3042 12.6907 25.6735C12.654 26.0996 12.9643 26.2841 13.3258 26.2923C13.6676 26.3001 13.8947 26.0766 13.9809 25.7027ZM15.1102 23.4126C14.7789 23.4775 14.4715 23.6174 14.4725 23.9861C14.4735 24.3833 14.7563 24.5865 15.1482 24.5662C15.5009 24.5478 15.7591 24.3528 15.7476 23.9815C15.7358 23.6072 15.4432 23.4703 15.1102 23.4126ZM15.123 26.3172C15.4124 26.2421 15.7254 26.1359 15.747 25.7577C15.7683 25.3855 15.5215 25.1862 15.1659 25.161C14.776 25.1331 14.4869 25.3199 14.4725 25.7194C14.4587 26.0946 14.771 26.2297 15.123 26.3172ZM14.3719 18.9677C15.9082 18.9677 17.4449 18.9752 18.9809 18.9638C19.5046 18.9598 20.2387 19.0428 20.2302 18.3224C20.2227 17.6889 19.5282 17.7106 19.0124 17.7102C15.9397 17.7079 12.867 17.7086 9.79427 17.7102C9.60026 17.7106 9.39675 17.6968 9.21388 17.7479C8.90353 17.8341 8.58105 17.9757 8.59514 18.3637C8.60924 18.7494 8.93696 18.8707 9.25321 18.9398C9.44066 18.9808 9.64156 18.9664 9.83622 18.9667C11.348 18.9684 12.8601 18.9677 14.3719 18.9677ZM20.2846 23.4204C20.2649 25.2331 21.7246 26.6931 23.5775 26.7137C25.3875 26.734 26.8908 25.3068 26.9164 23.544C26.9426 21.7219 25.4986 20.2815 23.6264 20.2622C21.8003 20.2432 20.3039 21.6576 20.2846 23.4204ZM13.1488 16.6209C13.7882 16.6209 14.4318 16.6212 15.0758 16.6209C18.1747 16.6206 21.2746 16.6701 24.3719 16.6016C26.3396 16.558 27.9156 17.878 27.792 20.0413C27.6855 21.9139 27.7724 23.7977 27.7691 25.6765C27.7655 27.4452 26.566 28.78 24.7881 28.7954C19.8596 28.838 14.9303 28.84 10.0017 28.7957C8.2317 28.78 7.01717 27.4331 7.00832 25.6716C6.99882 23.6708 6.99587 21.6701 7.00799 19.6694C7.01848 17.96 8.21335 16.5885 9.91455 16.6704C11.4935 16.7464 12.7103 16.1922 13.9324 15.3241C15.6578 14.0978 17.4511 12.9668 19.2189 11.7998C19.5046 11.611 19.7412 11.455 19.7494 11.0257C19.7573 10.6017 20.128 10.4296 20.5429 10.4693C20.926 10.506 21.1839 10.7062 21.1973 11.1175C21.2111 11.535 20.9302 11.7949 20.5779 11.7972C20.1122 11.7998 19.8084 12.0531 19.4696 12.2773C17.44 13.6213 15.4114 14.9666 13.3845 16.3148C13.2927 16.3761 13.1364 16.3846 13.1488 16.6209Z" fill="#161717"/>
<path d="M34.6453 18.9412C34.6453 19.1604 34.643 19.3797 34.6459 19.5989C34.6502 19.9155 34.5266 19.9922 34.195 19.963C32.8346 19.8424 32.8929 19.8516 32.7356 18.4801C32.381 15.3864 30.5435 13.4443 27.7497 12.298C27.459 12.1787 27.1539 12.0882 26.8488 12.0099C25.6952 11.714 25.7382 11.7212 25.8253 10.5817C25.8699 10.0013 26.0288 9.94101 26.5706 10.0367C30.8349 10.7908 33.9226 13.832 34.5879 17.9957C34.6377 18.3067 34.6466 18.6246 34.6748 18.9396L34.6453 18.9412Z" fill="#161717"/>
<path d="M30.5886 18.733C30.5309 18.9837 30.7187 19.5064 30.4535 19.5474C29.9479 19.6254 29.3986 19.4884 28.8811 19.377C28.7307 19.3445 28.8185 19.0676 28.8136 18.9027C28.7563 17.0092 27.701 15.6115 25.8579 15.1392C25.3401 15.0065 25.2946 14.8361 25.3775 14.3684C25.5885 13.1778 25.5613 13.1729 26.7202 13.5576C29.0129 14.3186 30.5345 16.336 30.5886 18.733Z" fill="#161717"/>
<path d="M23.5673 24.8747C22.7637 24.86 22.0775 24.2186 22.0762 23.4809C22.0752 22.7206 22.8109 22.0606 23.6387 22.079C24.4387 22.0967 25.125 22.7419 25.1292 23.48C25.1338 24.2403 24.4063 24.8898 23.5673 24.8747Z" fill="#161717"/>
</svg>
