<svg width="40" height="39" viewBox="0 0 40 39" fill="none" xmlns="http://www.w3.org/2000/svg">
<rect x="0.05" y="0.05" width="39.9" height="38.9" rx="1.95" fill="white" stroke="black" stroke-width="0.1"/>
<path d="M25.7947 19.9611C26.342 19.852 26.1401 19.4672 26.1526 19.207C26.1578 19.0972 25.9995 18.9799 25.9153 18.8659C25.875 18.8908 25.835 18.9157 25.7947 18.9406V19.9611ZM23.536 14.6779C23.422 14.3902 23.3188 14.0828 23.1759 13.7947C23.1284 13.6984 22.9819 13.5961 22.877 13.5925C22.3087 13.5729 21.7395 13.5833 21.206 13.5833C21.9663 13.9406 22.742 14.305 23.536 14.6779ZM18.5753 13.5811C18.0431 13.5811 17.4867 13.5748 16.9308 13.587C16.8253 13.5892 16.6634 13.6377 16.6274 13.7128C16.4747 14.0307 16.3596 14.3666 16.242 14.6668C17.0423 14.2945 17.816 13.9343 18.5753 13.5811ZM21.1771 25.2531C21.7464 25.2531 22.3143 25.2613 22.8816 25.245C22.9789 25.242 23.1195 25.1545 23.1605 25.0683C23.3089 24.7563 23.423 24.4279 23.5354 24.1432C22.7459 24.5148 21.9686 24.8805 21.1771 25.2531ZM16.241 24.1563C16.3455 24.4227 16.4481 24.7452 16.6012 25.0414C16.6549 25.1453 16.8296 25.241 16.9525 25.2459C17.508 25.2676 18.0644 25.2554 18.6147 25.2554C17.8222 24.8884 17.0328 24.523 16.241 24.1563ZM17.4077 25.7398C17.3818 25.7978 17.3562 25.8558 17.3303 25.9138C17.4893 25.9984 17.6469 26.1534 17.8072 26.1557C19.1888 26.175 20.5712 26.1609 21.9532 26.1711C22.2534 26.1734 22.3776 26.0492 22.3772 25.7398H17.4077ZM17.389 13.0849H22.392C22.3622 12.7483 22.2134 12.6425 21.9004 12.6464C20.5472 12.6631 19.1938 12.6608 17.8406 12.6484C17.5217 12.6454 17.3828 12.7644 17.389 13.0849ZM19.8754 24.8284C22.8491 24.8425 25.2975 22.4249 25.3179 19.4545C25.3382 16.4542 22.8744 13.974 19.8698 13.9707C16.9312 13.9674 14.4883 16.3965 14.467 19.343C14.4451 22.3938 16.8312 24.814 19.8754 24.8284ZM25.8878 20.4016C25.2785 21.6056 24.7113 22.6999 24.1715 23.8072C23.9611 24.2389 23.8113 24.7003 23.6353 25.1489C23.5229 25.436 23.3873 25.6202 23.0504 25.7732C22.7744 25.8988 22.6306 26.4169 22.5247 26.7885C22.3762 27.3089 22.3084 27.8536 22.2242 28.3907C22.1754 28.7024 22.0459 28.8358 21.7038 28.8299C20.4896 28.8096 19.2747 28.8135 18.0602 28.8289C17.7302 28.8328 17.6148 28.7185 17.546 28.3911C17.3772 27.5908 17.1521 26.8023 16.9371 26.0125C16.9082 25.9063 16.8027 25.7372 16.7365 25.7388C16.2836 25.7503 16.2331 25.3987 16.1132 25.1027C15.7288 24.1556 15.348 23.219 14.8 22.3355C13.5789 20.3672 13.809 17.7978 15.1277 15.9079C15.6052 15.2233 15.8343 14.364 16.1673 13.5804C16.2725 13.332 16.3406 13.0836 16.7001 13.1006C16.7758 13.1042 16.903 12.9256 16.9348 12.8109C17.1527 12.0227 17.3792 11.2346 17.5443 10.4343C17.6141 10.0971 17.7485 10.002 18.0664 10.005C19.2652 10.0161 20.4647 10.0236 21.6631 9.9994C22.0462 9.99186 22.1658 10.1511 22.2406 10.4926C22.412 11.2759 22.6207 12.0513 22.8278 12.826C22.856 12.9312 22.9678 13.1006 23.0307 13.0964C23.4967 13.0636 23.5184 13.4362 23.653 13.72C24.0765 14.6137 24.5228 15.4966 24.9334 16.3958C25.1842 16.9441 25.3988 17.5094 25.6027 18.0771C25.682 18.2986 25.739 18.4448 26.0264 18.4575C26.4003 18.4742 26.597 18.7309 26.632 19.1067C26.7199 20.0496 26.5386 20.3229 25.8878 20.4016Z" fill="#231F20"/>
<path d="M17.7942 23.2497C18.7685 24.1539 21.3188 24.0438 21.9651 23.2189C20.5752 23.8642 19.1873 23.8426 17.7942 23.2497ZM21.9497 15.5899C21.1441 14.6903 18.446 14.7274 17.708 15.6892C19.186 14.9945 20.5644 14.9705 21.9497 15.5899ZM17.5847 23.1613C14.8634 20.6608 14.8958 18.1632 17.6614 15.6103C16.384 16.0671 15.3825 17.8342 15.3933 19.4462C15.4038 21.0278 16.4344 22.8106 17.5847 23.1613ZM22.1715 15.6843C24.8824 18.1734 24.868 20.6585 22.1692 23.1423C23.1177 23.0846 24.3391 21.115 24.383 19.5862C24.4318 17.9036 23.2494 15.8062 22.1715 15.6843ZM19.3394 18.9999C19.0605 19.3679 19.0939 19.7287 19.4315 20.0011C19.7261 20.2383 20.2285 20.2334 20.433 19.907C20.663 19.5396 20.9806 19.5101 21.3358 19.4813C21.5839 19.461 21.8363 19.4469 22.0752 19.3863C22.1741 19.361 22.2436 19.2204 22.3265 19.1323C22.2194 19.069 22.1106 18.9487 22.006 18.9527C21.6652 18.9658 21.3257 19.0215 20.9865 19.0667C20.6096 19.1169 19.9266 18.6813 19.8257 18.312C19.6618 17.7129 19.5163 17.1086 19.3374 16.5141C19.302 16.3974 19.1499 16.3162 19.0516 16.2185C19.0018 16.3601 18.8865 16.5161 18.914 16.6406C19.0447 17.2318 19.2299 17.8112 19.3607 18.4024C19.4033 18.5945 19.339 18.8101 19.3236 19.0149L19.3394 18.9999ZM19.8696 24.3607C16.9781 24.3145 14.8892 22.1126 14.9404 19.1654C14.9849 16.6019 17.3314 14.3872 19.9443 14.4432C22.7047 14.5022 24.8896 16.7648 24.8444 19.5177C24.8005 22.1994 22.5366 24.4033 19.8696 24.3607Z" fill="#231F20"/>
<path d="M19.3225 19.0124C19.4012 19.0704 19.5411 19.1206 19.5496 19.1874C19.6302 19.8225 19.6689 19.8511 20.2365 19.6148C20.2893 19.5928 20.3522 19.5961 20.421 19.5863C20.2958 19.9517 20.0536 20.1122 19.7466 20.0188C19.4303 19.9225 19.2576 19.6974 19.2724 19.3578C19.2773 19.2369 19.3153 19.1176 19.3382 18.9977L19.3225 19.0124Z" fill="#231F20"/>
</svg>
