<svg width="40" height="39" viewBox="0 0 40 39" fill="none" xmlns="http://www.w3.org/2000/svg">
<rect x="0.05" y="0.05" width="39.9" height="38.9" rx="1.95" fill="white" stroke="black" stroke-width="0.1"/>
<path d="M24.4823 21.0099C24.4328 20.5715 24.0972 20.8153 23.9193 20.8222C23.801 20.8267 23.6919 21.0673 23.5788 21.2023C23.6093 21.223 23.6401 21.2436 23.6709 21.2639C23.9452 21.1751 24.2198 21.086 24.4944 20.9968C24.3512 21.258 24.208 21.5192 24.0651 21.7798C24.7334 21.8437 24.1136 22.5735 24.5567 22.7619C24.7556 22.4788 24.795 21.2816 24.6111 21.0404C24.5905 21.0132 24.5266 21.0191 24.4823 21.0099ZM25.0627 20.6114C25.8977 20.2523 26.1016 19.4785 26.3149 18.6697C26.1281 18.6107 25.8866 18.5887 25.7214 18.4649C25.5874 18.3643 25.5451 18.1414 25.4209 17.8894C25.2921 17.856 25.0453 17.7793 24.7933 17.7291C23.6332 17.4974 22.8955 17.8704 22.38 18.9394C22.3207 19.0623 22.2899 19.2176 22.1955 19.3002C22.0978 19.3858 21.8933 19.4746 21.817 19.428C21.7111 19.3635 21.5967 19.1462 21.6315 19.043C22.0467 17.8039 23.0256 16.7866 24.5849 17.0258C25.3183 17.1386 26.0324 17.3726 26.7596 17.5318C27.1703 17.6216 27.5993 17.6361 28.0024 17.7475C28.6126 17.9166 29.2316 18.0929 29.794 18.3724C29.952 18.4511 29.9592 18.9017 29.972 19.1849C29.9874 19.5231 29.9126 19.8649 29.9156 20.2047C29.9222 20.929 29.7573 21.5916 29.2874 22.1576C28.4985 23.107 27.246 23.087 26.525 22.0803C26.2661 21.7188 26.1147 21.28 25.8991 20.8454C25.6084 21.0503 25.4589 21.2842 25.5956 21.7155C25.9122 22.7161 25.7726 23.6782 25.1509 24.5339C24.3037 25.6996 22.8732 25.6931 22.0634 24.5064C21.796 24.1148 21.6459 23.6428 21.4175 23.1542C20.9829 23.4816 20.4972 23.2312 20.0076 23.1057C18.9632 22.8383 17.922 22.5565 16.8753 22.2995C16.5315 22.2153 16.3594 22.0596 16.4902 21.6421C16.0986 21.5713 15.7312 21.4825 15.3583 21.4425C14.6245 21.3632 14.0549 21.6592 13.6469 22.2677C13.5542 22.406 13.4889 22.5624 13.4018 22.7049C13.2563 22.9432 13.212 23.3948 12.7876 23.1745C12.412 22.9795 12.6841 22.658 12.7965 22.4201C13.4493 21.0388 14.5589 20.5049 16.0553 20.8644C17.5464 21.2226 19.0317 21.6041 20.5179 21.9813C21.1294 22.1363 21.4919 21.9639 21.7285 21.3921C21.7924 21.238 21.8602 21.083 21.9487 20.9428C22.5452 19.9953 23.7957 19.334 25.0627 20.6114Z" fill="#231F20"/>
<path d="M13.8694 12.8154C14.1968 13.4781 14.925 13.6917 15.3071 13.9742C15.9619 14.0057 16.461 13.9323 16.8926 14.0706C17.7538 14.3469 18.5745 14.7473 19.4203 15.076C19.5874 15.1409 19.8027 15.1612 19.9758 15.1196C21.4377 14.7673 22.8941 14.3944 24.3531 14.0309C25.9564 13.6318 27.1948 14.2666 27.7687 15.8082C27.824 15.9569 27.7067 16.17 27.6694 16.3532C27.5058 16.266 27.3295 16.1955 27.1843 16.0844C27.1099 16.0277 27.0949 15.896 27.0467 15.801C26.5154 14.7513 25.7564 14.3977 24.6012 14.6628C24.4098 14.7067 24.2198 14.7581 23.992 14.8158C24.1575 15.2838 23.858 15.3939 23.4998 15.4827C22.4976 15.7311 21.4967 15.9858 20.5008 16.2584C20.3763 16.2922 20.215 16.4318 20.1888 16.5491C19.7631 18.444 18.2815 19.1404 16.5213 18.2582C15.3454 17.6686 14.7739 16.442 14.9853 15.0315C15.0161 14.825 14.9059 14.5976 14.8611 14.38C14.7958 14.3819 14.7309 14.3842 14.6657 14.3862C14.6179 14.5343 14.5684 14.6821 14.5225 14.8309C14.283 15.6076 13.8615 16.2077 12.9917 16.3312C12.2134 16.4413 11.147 15.9058 10.7872 15.2101C10.425 14.5097 10.2533 13.755 10.3107 12.9632C10.3667 12.1842 10.9218 11.787 11.6963 11.9191C11.9122 11.9558 12.1505 11.9404 12.3655 11.8919C13.6236 11.6074 14.8653 11.2237 16.1365 11.0313C17.6362 10.8045 18.4994 11.8831 18.8989 12.9898C18.9418 13.1087 18.8045 13.2926 18.7511 13.4466C18.6026 13.3804 18.4539 13.3152 18.3064 13.2474C18.2959 13.2424 18.2923 13.2211 18.2867 13.207C17.6696 11.6228 16.6176 11.4026 15.117 11.8988C15.1806 12.899 14.18 12.3897 13.8694 12.8154Z" fill="#231F20"/>
<path d="M17.006 26.8042H15.8934C16.1444 27.1958 16.7625 27.1952 17.006 26.8042ZM22.2948 27.2735C22.1656 27.8382 22.105 28.3573 21.9261 28.8311C21.5482 29.831 20.7974 30.2443 19.7556 30.045C18.4601 29.7966 17.4789 29.1084 17.0031 27.8424C16.8743 27.4999 16.6655 27.5304 16.4066 27.5173C16.1467 27.5045 16.0061 27.5724 15.9032 27.8437C15.4146 29.1304 14.42 29.8196 13.1042 30.0486C12.0132 30.2384 11.2368 29.7271 10.8891 28.6162C10.7593 28.2016 10.7239 27.7575 10.6397 27.2948C10.6531 27.3036 10.6302 27.2843 10.6037 27.2719C10.4028 27.1778 10.2012 27.0851 10 26.9917C10.1239 26.8193 10.2147 26.6007 10.3779 26.4827C11.1916 25.8941 12.0102 25.3104 12.8548 24.7677C13.5135 24.3447 14.0673 24.5236 14.3243 25.2115C14.377 25.3527 14.2728 25.5523 14.241 25.725C14.0804 25.6595 13.9061 25.6149 13.7642 25.5212C13.6711 25.4599 13.6246 25.3281 13.5132 25.1613C13.1032 25.416 12.7047 25.6637 12.3062 25.9112C13.2602 25.8427 14.1716 25.841 15.0574 26.2009C15.1819 26.2513 15.354 26.1746 15.5041 26.1737C16.1408 26.1697 16.7776 26.1704 17.414 26.1724C17.5789 26.173 17.764 26.2376 17.9046 26.1828C18.7829 25.8394 19.6796 25.8318 20.6273 25.9239C20.2282 25.6716 19.829 25.4192 19.4 25.1482C19.2928 25.3245 19.2476 25.471 19.1483 25.5441C19.0195 25.6391 18.8478 25.6759 18.6944 25.7378C18.6479 25.5775 18.5315 25.3999 18.5669 25.2603C18.7193 24.6563 19.2837 24.3833 19.847 24.6661C20.3065 24.8965 20.7309 25.2007 21.1589 25.4904C21.6501 25.8227 22.1394 26.1606 22.6051 26.5273C22.7493 26.641 22.8129 26.8566 22.9132 27.0257C22.7336 27.1041 22.555 27.1844 22.3741 27.2594C22.3334 27.2764 22.2853 27.2751 22.2948 27.2735Z" fill="#231F20"/>
</svg>
