<svg width="40" height="39" viewBox="0 0 40 39" fill="none" xmlns="http://www.w3.org/2000/svg">
<rect x="0.05" y="0.05" width="39.9" height="38.9" rx="1.95" fill="white" stroke="black" stroke-width="0.1"/>
<path d="M14.5952 28.832C14.5749 23.0602 13.884 17.332 14.9085 11.5418C15.5725 11.4622 16.2856 11.3763 16.9823 11.2928C17.0285 11.3911 17.077 11.4448 17.0652 11.4763C16.7267 12.3877 17.2117 12.8462 17.9635 13.2073C18.4164 13.4246 18.8205 13.7405 19.2616 13.985C19.454 14.0915 19.684 14.1298 19.9875 14.2285V28.5951C20.076 28.598 20.1641 28.601 20.2526 28.6043C20.3303 27.0384 20.2769 25.4657 20.2851 23.8969C20.2939 22.2527 20.2861 20.6085 20.2857 18.9647C20.2854 17.3487 20.2857 15.733 20.2857 14.2082C20.5577 14.1239 20.779 14.0872 20.9684 13.9896C21.2817 13.828 21.5815 13.6373 21.8745 13.4403C22.6194 12.9399 23.7832 12.7052 23.0746 11.2796C23.9287 11.3744 24.6241 11.4517 25.3251 11.5297C26.3502 17.2838 25.6738 23.033 25.6318 28.832H14.5952Z" fill="#231F20"/>
<path d="M25.7148 11.6121C27.1335 11.9005 27.8139 12.5638 28.0413 13.9353C28.7433 18.1691 29.4322 22.4052 30.1217 26.6414C30.161 26.8822 30.1594 27.13 30.1823 27.4531C29.5066 27.4063 28.8888 27.3637 28.2396 27.3188C27.242 22.07 25.8177 16.952 25.7148 11.6121Z" fill="#231F20"/>
<path d="M10 27.457C10.4241 24.809 10.8245 22.2918 11.2309 19.7756C11.557 17.7558 11.8765 15.7348 12.2252 13.719C12.4268 12.5526 13.2877 11.7972 14.6838 11.6353C14.3099 14.3249 14.0011 16.9782 13.5568 19.6085C13.1576 21.9723 12.588 24.3067 12.142 26.6633C12.042 27.1926 11.8529 27.402 11.3217 27.3767C10.9255 27.3581 10.5253 27.4216 10 27.457Z" fill="#231F20"/>
<path d="M21.3199 11.7082C21.7941 11.274 22.2687 10.8394 22.7144 10.4314C22.7904 10.8673 22.9218 11.4712 22.986 12.0821C23.0041 12.2555 22.8753 12.5219 22.7291 12.6209C22.0651 13.0709 21.371 13.4762 20.6645 13.9121C20.4796 13.5247 20.323 13.196 20.1178 12.7661C19.9078 13.1983 19.7495 13.5234 19.5623 13.9082C18.8443 13.4641 18.1469 13.063 17.4902 12.6035C17.3374 12.4967 17.2414 12.1834 17.2614 11.9789C17.3178 11.4044 17.4485 10.8371 17.5193 10.4393C17.964 10.8289 18.4569 11.2609 18.9498 11.6925C20.1322 12.5173 20.1322 12.5173 21.3199 11.7082Z" fill="#231F20"/>
<path d="M22.3503 10.0003C22.3365 10.8884 21.9275 11.1765 21.1043 11.0837C20.4302 11.0077 19.7325 11.0028 19.0596 11.0851C18.2223 11.1873 17.9162 10.8131 17.8848 10.0003H22.3503Z" fill="#231F20"/>
<path d="M21.3213 11.7056C20.1337 12.5148 20.1337 12.5148 18.9512 11.6899C18.8818 11.5929 18.812 11.4956 18.6982 11.337H21.4439C21.3944 11.4857 21.3577 11.5959 21.3213 11.7056Z" fill="#231F20"/>
</svg>
