<svg width="40" height="39" viewBox="0 0 40 39" fill="none" xmlns="http://www.w3.org/2000/svg">
<rect x="0.05" y="0.05" width="39.9" height="38.9" rx="1.95" fill="white" stroke="black" stroke-width="0.1"/>
<path d="M28.1398 21.2582C27.9707 21.1792 27.7787 21.1969 27.6994 20.98C27.6375 20.8099 27.3845 20.8128 27.3369 20.9266C27.1629 21.3405 26.826 21.1668 26.5481 21.1953C26.1663 21.2343 25.7744 21.1373 25.2608 21.2864C25.466 21.3133 25.5361 21.3175 25.6039 21.332C26.2076 21.4598 26.9037 21.0308 27.4336 21.6423C27.4883 21.7052 27.6771 21.6659 27.705 21.5397C27.7574 21.3005 27.9914 21.3693 28.1398 21.2582ZM28.0832 22.4439C27.5971 22.1558 26.9676 22.5917 26.5802 21.9966C26.5609 21.9668 26.3901 21.9802 26.3797 22.0077C26.1912 22.5039 25.6957 22.2004 25.3591 22.3784C25.6567 22.5367 26.0277 22.2896 26.2119 22.5363C26.435 22.8352 26.5697 22.8831 26.7608 22.5485C26.8594 22.3751 27.0236 22.4528 27.159 22.4475C27.4667 22.436 27.7751 22.4439 28.0832 22.4439ZM25.3165 20.2787C25.4742 20.4455 25.72 20.3878 25.815 20.6126C25.874 20.7522 26.1352 20.7381 26.1902 20.6067C26.3167 20.3052 26.5497 20.4216 26.7477 20.4035C27.2032 20.3613 27.6725 20.4773 28.2198 20.3003C28.0753 20.2465 28.032 20.2236 27.9861 20.2144C27.3441 20.0856 26.6137 20.5051 26.0437 19.8962C25.9897 19.8385 25.835 19.8884 25.8084 19.9772C25.7386 20.2095 25.5161 20.1935 25.3165 20.2787ZM18.3643 19.637C17.1625 19.637 15.9608 19.637 14.7593 19.637C14.7223 19.637 14.6853 19.6367 14.6482 19.6376C12.986 19.6776 11.8436 20.8312 11.8338 22.4849C11.8292 23.298 11.8321 24.1114 11.8331 24.9248C11.8344 26.721 12.9356 27.9129 14.7197 27.9401C17.1409 27.9771 19.5637 27.9798 21.9849 27.9382C23.7238 27.9083 24.9308 26.5958 24.8141 24.9913C24.7542 24.1638 24.8053 23.3281 24.804 22.4964C24.801 20.7991 23.6724 19.655 21.9692 19.6393C20.7678 19.6285 19.566 19.6373 18.3643 19.637ZM27.5948 26.4064C27.0145 26.0095 26.3974 26.0619 25.9966 26.5427C25.6187 26.996 25.659 27.5042 26.1126 28.0001C26.6762 28.4546 27.333 28.4307 27.7649 27.9404C28.1772 27.4725 28.112 26.8855 27.5948 26.4064ZM26.2443 23.3176C26.2237 23.1793 26.1444 23.2177 26.0647 23.258C26.0093 23.2445 25.954 23.2314 25.8989 23.218C25.8661 23.2236 25.833 23.2288 25.8003 23.234C25.6524 23.3078 25.3532 23.0722 25.3647 23.4792C25.3837 24.1759 25.3667 24.8736 25.37 25.5707C25.3706 25.6946 25.3749 25.8407 25.5754 25.7634C25.6259 25.7486 25.6764 25.7339 25.7265 25.7188C25.7835 25.7444 25.8235 25.8401 25.9048 25.7608C25.9566 25.7467 26.0084 25.7329 26.0601 25.7188C26.1165 25.745 26.1568 25.8401 26.2381 25.7608C26.2928 25.727 26.4069 25.7899 26.4029 25.6602C26.4341 25.7349 26.4691 25.8044 26.571 25.7611C26.631 25.7359 26.7346 25.7883 26.7395 25.6661C26.7742 25.7336 26.8057 25.8073 26.9057 25.7624C26.9794 25.7637 27.0528 25.7647 27.1265 25.7657C27.1642 25.765 27.2022 25.7644 27.2403 25.7637C27.314 25.7637 27.3881 25.7637 27.4618 25.7637L27.5726 25.7631C27.647 25.7631 27.7217 25.7631 27.7961 25.7627L27.9068 25.7644C27.9793 25.765 28.0517 25.766 28.1238 25.7667C28.3329 25.8293 28.3198 25.6703 28.3204 25.5543C28.324 24.8382 28.3211 24.1222 28.3191 23.4061C28.3188 23.2835 28.285 23.1882 28.131 23.2124C28.0537 23.2134 27.9763 23.2144 27.899 23.2157C27.8669 23.1839 27.8344 23.1839 27.8023 23.2154C27.7236 23.2154 27.6447 23.2154 27.566 23.2154C27.5339 23.1826 27.5014 23.1823 27.469 23.215C27.39 23.2154 27.3114 23.2157 27.2324 23.216C27.2006 23.1862 27.1682 23.1859 27.1357 23.215C27.0567 23.2157 26.9777 23.2164 26.8988 23.2167C26.8165 23.1928 26.7746 23.2406 26.7411 23.3045C26.7195 23.2 26.63 23.2331 26.5648 23.2177C26.435 23.177 26.3833 23.3874 26.2443 23.3176ZM17.1052 18.3245C18.2332 18.3248 19.3615 18.3251 20.4899 18.3241C20.6888 18.3241 20.9215 18.3726 21.025 18.1429C21.1099 17.9545 20.9172 17.8499 20.8258 17.7224C19.6312 16.0583 18.4341 14.3958 17.2372 12.7332C17.1078 12.5533 16.9715 12.4134 16.7247 12.36C16.4707 12.3049 16.3245 12.0938 16.4176 11.8084C16.4864 11.5973 16.6434 11.4502 16.8708 11.4748C17.1465 11.5043 17.3277 11.694 17.2703 11.969C17.2156 12.2325 17.3421 12.3868 17.4758 12.5612C18.7238 14.1877 19.9757 15.8112 21.2138 17.4449C21.414 17.7087 21.571 17.8365 21.9348 17.69C22.3838 17.5091 22.8894 17.5019 23.3489 17.6753C23.6881 17.8034 23.7858 17.6641 23.91 17.3947C25.1753 14.6543 26.4511 11.9185 27.7272 9.18303C27.8128 8.99951 27.8993 8.85236 27.7571 8.63508C27.5903 8.38012 27.7495 8.17463 27.9878 8.05305C28.2257 7.93147 28.4263 8.02978 28.5593 8.23428C28.7206 8.48269 28.6436 8.74323 28.3961 8.83598C28.1261 8.93724 28.0494 9.13518 27.9553 9.34984C26.7542 12.0988 25.5531 14.8474 24.353 17.5966C24.0922 18.1937 24.1807 18.3087 24.862 18.3271C25.4329 18.3422 26.0074 18.2612 26.5747 18.393C27.8813 18.6961 28.7442 19.6947 28.7635 21.0272C28.7907 22.8945 28.7956 24.7632 28.7638 26.6305C28.7392 28.0705 27.7404 29.1278 26.3135 29.3224C26.2063 29.3369 26.0575 29.3277 26.0008 29.3929C25.2189 30.2948 24.2174 29.6767 23.3246 29.7924C22.5696 28.959 21.5822 29.3939 20.7016 29.3532C19.2252 29.2848 17.7432 29.3346 16.2636 29.3342C16.0106 29.3342 15.7966 29.312 15.6222 29.6144C15.4246 29.9572 12.9998 29.9848 12.8999 29.6452C12.7291 29.0662 12.209 28.9433 11.8607 28.6057C11.2878 28.0506 10.9951 27.3886 11.0001 26.5824C11.0115 24.733 10.9955 22.8834 11.0086 21.0341C11.0197 19.5161 12.1903 18.3599 13.7205 18.3251C13.7575 18.3241 13.7945 18.3241 13.8312 18.3241C14.9225 18.3241 16.0139 18.3241 17.1052 18.3245Z" fill="#161717"/>
<path d="M28.1305 23.2133C28.1282 24.0647 28.1259 24.9162 28.1236 25.7676C28.0512 25.7669 27.9787 25.7659 27.9063 25.7653C27.9037 24.9155 27.9011 24.0661 27.8984 23.2166C27.9758 23.2153 28.0531 23.2143 28.1305 23.2133Z" fill="#7B7B7C"/>
<path d="M27.1262 25.7656C27.0528 25.7646 26.9791 25.7637 26.9056 25.7623C26.903 24.9139 26.9007 24.0654 26.8984 23.2166C26.9774 23.216 27.0564 23.2156 27.1354 23.215C27.1324 24.0651 27.1292 24.9155 27.1262 25.7656Z" fill="#7B7B7C"/>
<path d="M27.2314 23.2176C27.3104 23.2173 27.3891 23.2169 27.4681 23.2166C27.4654 24.0664 27.4631 24.9158 27.4608 25.7656C27.3868 25.7656 27.313 25.7656 27.2393 25.7656C27.2367 24.9162 27.2341 24.067 27.2314 23.2176Z" fill="#7B7B7C"/>
<path d="M27.5654 23.2176C27.6441 23.2176 27.7231 23.2176 27.8017 23.2176C27.7997 24.0667 27.7975 24.9158 27.7955 25.7653C27.7211 25.7653 27.6464 25.7653 27.572 25.7656L27.5654 23.2176Z" fill="#7B7B7C"/>
<path d="M26.7382 25.6686C26.7332 25.7909 26.6297 25.7384 26.5697 25.7637C26.5677 24.9159 26.5658 24.068 26.5635 23.2202C26.629 23.236 26.7182 23.2025 26.7398 23.3071C26.8165 24.0943 26.8201 24.8814 26.7382 25.6686Z" fill="#7B7B7C"/>
<path d="M26.0587 25.7181C26.0069 25.7319 25.9551 25.746 25.9034 25.7598C25.9014 24.9123 25.8994 24.0648 25.8975 23.2173C25.9528 23.2304 26.0079 23.2439 26.0633 23.2573C26.1433 24.0776 26.1485 24.8979 26.0587 25.7181Z" fill="#7B7B7C"/>
<path d="M25.5747 25.7656C25.5747 25.0876 25.5684 24.4092 25.5799 23.7311C25.5822 23.6109 25.4757 23.3546 25.7919 23.4401C25.729 24.1994 25.8516 24.964 25.7257 25.7214C25.6756 25.7361 25.6251 25.7509 25.5747 25.7656Z" fill="#7B7B7C"/>
<path d="M26.4031 25.6592C26.4071 25.7889 26.293 25.726 26.2383 25.7598C26.2412 24.9421 26.2442 24.1241 26.2471 23.3061C26.4503 23.2878 26.4421 23.4484 26.4415 23.5653C26.4375 24.2634 26.5096 24.9631 26.4031 25.6592Z" fill="#7B7B7C"/>
<path d="M19.5856 23.7755C19.5856 24.1258 19.5856 24.4761 19.5856 24.8265C19.5859 25.4754 19.7298 25.5891 20.3583 25.4079C20.7113 25.3063 20.9826 25.0828 21.1255 24.7429C21.3697 24.1625 21.4097 23.5641 21.1832 22.9683C20.9843 22.4443 20.5851 22.2096 20.0277 22.1969C19.7196 22.1896 19.5443 22.2421 19.578 22.6147C19.6128 22.9988 19.5859 23.3884 19.5856 23.7755ZM18.6719 23.8384C18.6722 23.1541 18.6811 22.4695 18.6673 21.7852C18.6624 21.5424 18.7145 21.4352 18.9852 21.3998C19.4099 21.3448 19.8333 21.3068 20.2571 21.3448C21.4886 21.4549 22.1411 22.1143 22.2778 23.3609C22.5111 25.4865 20.9921 26.8066 18.9072 26.3061C18.6322 26.2403 18.6732 26.0705 18.6725 25.8919C18.6709 25.2073 18.6719 24.523 18.6719 23.8384Z" fill="#161717"/>
<path d="M16.1879 22.2661C16.0677 22.7996 15.9654 23.2394 15.87 23.6809C15.834 23.848 15.6718 24.0761 15.8789 24.1701C16.0624 24.2534 16.3384 24.2547 16.5255 24.1767C16.7441 24.0853 16.5694 23.8552 16.5363 23.6969C16.4426 23.2493 16.322 22.8075 16.1879 22.2661ZM17.6027 26.2731C17.1911 26.3672 17.0806 26.1814 16.9827 25.8317C16.8932 25.5118 17.0357 25.0019 16.3701 24.9852C15.7786 24.9704 15.5079 25.1297 15.446 25.7255C15.4234 25.9438 15.4758 26.2938 15.0262 26.3016C14.3596 26.3134 14.3383 26.3161 14.5028 25.6767C14.8322 24.3959 15.1681 23.1169 15.4807 21.8319C15.5662 21.4805 15.6868 21.2665 16.0991 21.3396C16.4399 21.3999 16.8349 21.1787 16.9692 21.7955C17.2589 23.1221 17.6476 24.4277 18.0101 25.7376C18.1254 26.1538 18.1464 26.4471 17.6027 26.2731Z" fill="#1B1C1C"/>
<path d="M26.209 27.9019C26.4338 27.2465 26.9129 26.8257 27.4992 26.5038C27.5913 26.5897 27.6241 26.7139 27.5477 26.7978C27.1912 27.1878 26.8225 27.567 26.4508 27.9425C26.3735 28.0209 26.2821 27.9632 26.209 27.9019Z" fill="#202222"/>
</svg>
