<svg width="40" height="39" viewBox="0 0 40 39" fill="none" xmlns="http://www.w3.org/2000/svg">
<rect x="0.05" y="0.05" width="39.9" height="38.9" rx="1.95" fill="white" stroke="black" stroke-width="0.1"/>
<path d="M28.2703 17.8451C27.2324 16.8442 25.973 16.7187 24.8679 17.5347C24.0843 18.1135 23.4715 18.9197 22.7013 19.5204C21.788 20.2332 20.871 21.1036 19.8089 21.4326C16.7775 22.3709 13.7749 22.4633 11.2124 20.0742C11.0709 19.9425 10.7795 19.971 10.5583 19.9248C10.9227 20.3898 11.2387 20.6808 11.5896 20.9204C12.2372 21.3625 12.853 21.9353 13.5743 22.1713C17.0216 23.298 20.2647 23.0434 22.995 20.3754C24.4363 18.9662 25.9857 17.8333 28.2703 17.8451ZM11.119 21.7289C10.5082 20.9345 9.92744 20.1116 10.0074 18.8734C10.2824 19.0176 10.4875 19.074 10.6216 19.2038C13.0218 21.5286 15.9074 21.4765 18.8955 20.8978C20.2769 20.6304 21.4235 19.9169 22.4185 18.9416C23.0422 18.3301 23.6432 17.6936 24.2924 17.1106C25.6456 15.8951 27.4067 15.9108 28.8182 17.1165C30.1134 18.2226 30.3523 19.8674 29.239 21.3608C28.6364 22.1697 27.8292 22.9103 26.961 23.4209C24.395 24.93 14.9629 26.0748 11.119 21.7289Z" fill="#231F20"/>
<path d="M29.5926 13.0008C30.19 13.7736 30.2274 14.6089 29.9105 15.3617C29.6424 15.9984 29.7001 16.4766 30.0324 17.0157C30.1261 17.1678 30.117 17.3831 30.1586 17.5879C29.2347 16.9282 28.3863 16.3222 27.3867 15.6085C27.759 15.6085 28.0451 15.5806 28.3237 15.6134C29.2803 15.7258 29.7063 15.2204 29.4215 14.2661C29.3616 14.0662 29.2256 13.8889 29.0683 13.5959C29.2003 13.4462 29.3845 13.2371 29.5926 13.0008Z" fill="#231F20"/>
</svg>
