<svg width="40" height="39" viewBox="0 0 40 39" fill="none" xmlns="http://www.w3.org/2000/svg">
<rect x="0.05" y="0.05" width="39.9" height="38.9" rx="1.95" fill="white" stroke="black" stroke-width="0.1"/>
<path d="M17.43 10.57C17.4297 10.527 17.4297 10.4841 17.4294 10.4408H15.2543C15.2569 10.4841 15.2595 10.527 15.2618 10.57H17.43ZM13.5465 20.1332C14.1974 21.0878 14.5051 21.0737 14.9839 20.1332H13.5465ZM16.3934 20.1364C17.0535 21.0816 17.3835 21.0688 17.823 20.1364H16.3934ZM23.563 20.1689H22.1059C22.7837 21.0934 22.9521 21.0914 23.563 20.1689ZM24.887 20.1469L24.8073 20.2751C25.0564 20.4678 25.3124 20.8204 25.5526 20.8102C25.8154 20.7988 26.0635 20.4517 26.4495 20.1469H24.887ZM10.8369 20.145C10.8078 20.1954 10.7786 20.2462 10.7494 20.297C11.0267 20.4792 11.3003 20.7942 11.5825 20.802C11.808 20.8083 12.0439 20.4412 12.3844 20.145H10.8369ZM30.4025 10.4867C30.3973 10.429 30.392 10.3714 30.3868 10.314H28.1652C28.1661 10.3714 28.1671 10.429 28.1681 10.4867H30.4025ZM9.2937 10.3111L9.30124 10.4631H11.591C11.5874 10.4123 11.5838 10.3619 11.5802 10.3111H9.2937ZM27.6985 20.1423C27.668 20.2276 27.6375 20.3128 27.6074 20.3976C27.9557 20.5504 28.3061 20.822 28.6525 20.8171C28.9156 20.8132 29.1736 20.4573 29.4338 20.258C29.4 20.2194 29.3663 20.181 29.3322 20.1423H27.6985ZM18.7127 20.8558C19.4321 20.8558 20.1177 20.8361 20.8019 20.862C21.3594 20.8833 21.4082 20.6162 21.265 20.1535H18.7127V20.8558ZM30.6185 12.6156H9.38415V19.752H30.6185V12.6156ZM18.8484 22.0313C18.4945 20.9708 17.705 21.1842 16.9512 21.1838C14.8404 21.1832 12.7295 21.1871 10.6187 21.1743C10.2605 21.172 10.2339 20.6647 9.98421 20.1899C9.00137 20.0155 9.00137 20.0155 9.00137 18.9891C9.00105 17.0864 9.00236 15.1836 9.00006 13.2809C8.99908 12.2499 8.99646 12.2499 10.1251 12.1181C9.78725 12.0476 9.58996 12.0064 9.39267 11.9651C9.39562 11.9418 9.39857 11.9185 9.40152 11.8953C9.78364 11.8733 10.1661 11.8513 10.5407 11.83C10.6334 10.5647 9.70433 10.8679 9.00727 10.8161V10.0007H11.8329V10.7889C11.4626 10.8135 11.0808 10.839 10.6986 10.8643C10.7976 11.8631 10.7976 11.8645 11.7644 11.8654C13.3138 11.8667 14.8636 11.8658 16.4056 11.8658C16.5212 10.5496 15.5351 11.0137 14.8915 10.8629C14.8751 10.6355 14.8591 10.414 14.8391 10.1338H17.7266C17.7368 10.3599 17.7466 10.5821 17.759 10.8629C17.3389 10.8898 16.9558 10.9141 16.5753 10.9383C16.5586 11.6636 16.8657 11.9195 17.5906 11.8818C18.794 11.8196 20.0056 11.815 21.2083 11.8828C21.9503 11.9248 22.22 11.6295 22.2272 10.8829C21.8372 10.8505 21.4384 10.8174 21.0104 10.782V10.0155H23.8445V10.7532C22.4772 10.9678 22.4772 10.9678 22.3599 11.8645C22.9157 11.8645 23.4624 11.8645 24.0087 11.8645C25.3543 11.8648 26.7019 11.8238 28.0449 11.8818C28.7905 11.9139 29.0228 11.5839 29.0385 10.8718C28.6423 10.8443 28.2605 10.8177 27.8388 10.7882V10.002H30.6585V10.78C30.0656 10.9295 29.0785 10.5201 29.1913 11.8199C29.613 11.8428 30.06 11.8671 30.5074 11.8913C30.5126 11.913 30.5179 11.9346 30.5231 11.9562C30.3386 11.9969 30.1541 12.0378 29.8841 12.0971C30.9796 12.2879 30.9806 12.2879 30.9813 13.3431C30.9819 15.3154 30.9655 17.2879 30.9911 19.2598C30.9983 19.8336 30.92 20.2377 30.0643 20.1079C30.1833 20.4622 29.578 21.173 29.1319 21.176C26.8353 21.1901 24.5383 21.1901 22.2416 21.1724C21.7815 21.1688 21.5993 21.3634 21.3014 21.7249C20.7207 22.4289 20.8436 23.1675 20.8383 23.92C20.8245 26.0046 19.0093 22.5137 18.8484 22.0313Z" fill="#231F20"/>
<path d="M21.0525 28.832H18.9492V21.2646H21.0525V28.832Z" fill="#231F20"/>
</svg>
