<svg width="40" height="39" viewBox="0 0 40 39" fill="none" xmlns="http://www.w3.org/2000/svg">
<rect x="0.05" y="0.05" width="39.9" height="38.9" rx="1.95" fill="white" stroke="black" stroke-width="0.1"/>
<path d="M19.6388 27.9844C18.4597 28.8433 17.3221 28.9751 16.0804 28.7086C13.1925 28.0882 11.1574 24.8586 12.055 22.283C12.4817 21.059 12.8412 20.8784 13.8706 21.6181C14.4919 22.0641 15.0209 22.6897 15.4581 23.3261C15.8828 23.9442 16.1338 24.6806 16.4674 25.3619C17.1032 26.6597 17.8943 27.7848 19.6388 27.9844Z" fill="#231F20"/>
<path d="M20.2322 16.0707C19.171 18.1992 16.5597 18.969 14.1424 17.9849C11.7678 17.0178 10.5326 14.8987 11.1638 12.8475C12.5415 12.5811 13.7253 13.0134 14.7972 13.8667C15.5575 14.4724 16.3051 15.0973 17.0982 15.6568C18.0089 16.2994 19.0176 16.5498 20.2322 16.0707Z" fill="#231F20"/>
<path d="M23.0632 23.1152C21.1025 21.5867 20.5912 19.4107 21.5052 17.215C22.4245 15.0061 24.32 13.7995 26.3945 14.0325C27.0312 14.1042 27.338 14.3936 27.1332 14.9573C26.8077 15.8516 26.4355 16.7486 25.937 17.5538C25.5781 18.1336 24.9781 18.5629 24.4917 19.0653C23.4516 20.1392 22.5647 21.2774 23.0632 23.1152Z" fill="#231F20"/>
<path d="M11.2725 12.436C12.1085 10.6145 13.7949 9.80732 16.1152 10.04C18.6495 10.2946 20.679 12.4969 20.605 14.8244C20.5781 15.6611 20.1711 15.8449 19.5097 15.6578C19.0253 15.5205 18.5482 15.2862 18.13 15.0027C17.6558 14.6815 17.2432 14.2663 16.8178 13.8766C15.2431 12.4333 13.5508 11.4246 11.2725 12.436Z" fill="#231F20"/>
<path d="M13.1074 20.7813C13.9372 20.0246 14.8371 19.8358 15.7924 19.862C18.6731 19.942 21.0599 22.5008 20.9304 25.3808C20.8918 26.2395 20.7731 27.3268 19.8962 27.5133C19.0808 27.6864 18.5033 26.7976 18.1419 26.0268C17.7299 25.1488 17.3799 24.24 16.9372 23.3788C16.073 21.6982 15.1023 21.0448 13.1074 20.7813Z" fill="#231F20"/>
<path d="M27.4631 14.3375C29.3104 15.5573 29.7027 17.1231 29.531 18.9282C29.2957 21.4051 27.0914 23.5651 24.8007 23.5487C23.342 23.5382 23.1408 23.0965 23.7729 21.7328C23.9335 21.3868 24.2291 21.0921 24.5021 20.8119C24.9681 20.3335 25.4604 19.8789 25.951 19.425C27.39 18.0935 28.1755 16.5473 27.4631 14.3375Z" fill="#231F20"/>
</svg>
