<svg width="40" height="39" viewBox="0 0 40 39" fill="none" xmlns="http://www.w3.org/2000/svg">
<rect x="0.05" y="0.05" width="39.9" height="38.9" rx="1.95" fill="white" stroke="black" stroke-width="0.1"/>
<path d="M23.5932 21.2172C23.6142 21.3201 23.6712 21.3886 23.7816 21.3752C23.8714 21.3647 23.9304 21.3057 23.9268 21.2094C23.9226 21.0924 23.8468 21.0556 23.7403 21.0579C23.6338 21.0599 23.6043 21.1291 23.5932 21.2172ZM23.9311 24.6986C23.9239 24.5954 23.8799 24.5216 23.7643 24.5183C23.6653 24.5157 23.606 24.5734 23.5961 24.6658C23.586 24.7569 23.6233 24.829 23.7276 24.8398C23.8331 24.8507 23.9111 24.8182 23.9311 24.6986ZM23.7816 24.267C23.8665 24.2594 23.9245 24.2054 23.9258 24.113C23.9275 24.0038 23.8632 23.9484 23.7515 23.9488C23.6492 23.9494 23.5965 24.0117 23.5968 24.1002C23.5975 24.2024 23.6568 24.2699 23.7816 24.267ZM23.7774 19.0598C23.8731 19.0493 23.9278 18.9917 23.9271 18.8999C23.9262 18.7888 23.8554 18.7396 23.7466 18.7406C23.6417 18.7413 23.5984 18.8081 23.5991 18.8973C23.6001 19.0058 23.6643 19.0634 23.7774 19.0598ZM23.9294 19.4865C23.9226 19.3794 23.8665 19.3181 23.7574 19.3151C23.6578 19.3125 23.604 19.3721 23.6001 19.4649C23.5965 19.5514 23.6243 19.6268 23.7331 19.632C23.839 19.6376 23.9111 19.6006 23.9294 19.4865ZM23.5945 22.3524C23.5988 22.4655 23.6423 22.5268 23.7456 22.5288C23.855 22.5307 23.9291 22.4829 23.9298 22.3665C23.9304 22.2705 23.8714 22.2066 23.7774 22.2023C23.6705 22.1974 23.602 22.2541 23.5945 22.3524ZM23.5896 21.794C23.6079 21.8818 23.6427 21.9523 23.7492 21.952C23.8606 21.952 23.934 21.9022 23.9294 21.7874C23.9252 21.677 23.856 21.6213 23.742 21.6285C23.6378 21.6354 23.603 21.7049 23.5896 21.794ZM22.1456 15.471C22.0323 15.4749 21.9693 15.527 21.9651 15.6224C21.9605 15.7308 22.0234 15.8033 22.1339 15.7984C22.2384 15.7938 22.3095 15.7315 22.2987 15.6165C22.2895 15.5198 22.225 15.4746 22.1456 15.471ZM23.9314 17.1532C23.9137 17.0535 23.855 16.986 23.7446 16.9955C23.6522 17.0037 23.5929 17.0683 23.5932 17.1613C23.5932 17.276 23.6666 17.3295 23.777 17.3206C23.8704 17.3131 23.9278 17.2593 23.9314 17.1532ZM22.0414 15.1177C22.0132 15.0171 21.9579 14.9489 21.8484 14.9584C21.7576 14.9663 21.6868 15.0259 21.6872 15.1134C21.6875 15.2098 21.7471 15.2937 21.8563 15.2907C21.9592 15.2878 22.0139 15.2117 22.0414 15.1177ZM23.7767 23.699C23.8786 23.6728 23.9448 23.6125 23.9278 23.5008C23.913 23.4041 23.8419 23.3635 23.7469 23.368C23.6479 23.3733 23.5899 23.4267 23.5945 23.5263C23.5994 23.6358 23.6643 23.6938 23.7767 23.699ZM27.2584 14.1863C27.245 14.1611 27.2315 14.1355 27.2178 14.1099C26.9209 14.264 26.6236 14.418 26.3264 14.5717C26.6859 14.5438 26.9569 14.3331 27.2584 14.1863ZM21.4863 14.0451C21.4738 13.9887 21.4184 13.9238 21.3247 13.9281C21.2185 13.9326 21.1543 13.9982 21.1582 14.1129C21.1618 14.2171 21.2323 14.2709 21.3208 14.2633C21.4165 14.2554 21.502 14.2053 21.4863 14.0451ZM23.7741 25.4324C23.8488 25.4061 23.9399 25.3773 23.9301 25.258C23.9216 25.1512 23.8534 25.0899 23.7489 25.0935C23.6571 25.0964 23.602 25.16 23.5945 25.2515C23.5857 25.3652 23.6541 25.4156 23.7741 25.4324ZM23.7705 18.1543C23.6771 18.1583 23.604 18.1946 23.5948 18.2956C23.5847 18.406 23.642 18.4785 23.7528 18.4876C23.8468 18.4952 23.9144 18.4417 23.9284 18.3474C23.9461 18.231 23.874 18.1773 23.7705 18.1543ZM23.7643 20.2183C23.8619 20.2039 23.9393 20.159 23.9294 20.0397C23.9212 19.9421 23.8527 19.8867 23.7623 19.886C23.6528 19.8854 23.5889 19.9539 23.5935 20.0659C23.5978 20.1652 23.66 20.2137 23.7643 20.2183ZM21.5911 14.4357C21.501 14.4609 21.4194 14.4996 21.4211 14.6133C21.4227 14.709 21.4882 14.7729 21.5712 14.7788C21.6685 14.7857 21.7507 14.7267 21.7593 14.6192C21.7675 14.5107 21.697 14.4554 21.5911 14.4357ZM23.759 22.7693C23.6879 22.7916 23.6096 22.8194 23.5965 22.9201C23.5814 23.0338 23.641 23.1059 23.7485 23.1134C23.836 23.1196 23.9121 23.0698 23.9284 22.9741C23.9491 22.8561 23.8652 22.8096 23.759 22.7693ZM23.9343 17.7273C23.9265 17.6405 23.8609 17.5756 23.7613 17.5723C23.6564 17.569 23.5932 17.6392 23.5938 17.7476C23.5942 17.8437 23.6578 17.904 23.7449 17.9072C23.8419 17.9105 23.9209 17.8633 23.9343 17.7273ZM23.9307 20.6552C23.934 20.5231 23.8583 20.4707 23.76 20.4658C23.6725 20.4615 23.603 20.512 23.5955 20.6113C23.5873 20.7197 23.6417 20.7948 23.7479 20.8017C23.8498 20.8085 23.9199 20.7505 23.9307 20.6552ZM25.958 23.644C25.958 23.6561 25.958 23.6682 25.958 23.6804H28.9642C28.9642 23.6682 28.9642 23.6561 28.9642 23.644H25.958ZM28.9573 22.9935C28.9596 22.98 28.9622 22.9669 28.9645 22.9538H25.9561C25.9561 22.9669 25.9561 22.98 25.9561 22.9935H28.9573ZM25.9593 20.8302C25.9593 20.8416 25.9593 20.8531 25.9593 20.8649H28.9694C28.9694 20.8531 28.9694 20.8416 28.9698 20.8302H25.9593ZM28.9652 24.8559C28.9652 24.8382 28.9655 24.8205 28.9655 24.8028H25.9502C25.9505 24.8205 25.9508 24.8382 25.9511 24.8559H28.9652ZM28.9691 23.9016L28.9681 23.8613H25.9564L25.957 23.9016H28.9691ZM28.9835 18.7164C28.9839 18.699 28.9845 18.6813 28.9848 18.6639H25.9397C25.9393 18.6813 25.9387 18.699 25.9384 18.7164H28.9835ZM25.9393 22.3413C25.9397 22.3633 25.94 22.3849 25.9403 22.4068H28.9878C28.9875 22.3849 28.9871 22.3633 28.9868 22.3413H25.9393ZM25.9538 19.928C25.9534 19.9457 25.9534 19.9634 25.9531 19.9811H28.9629C28.9626 19.9634 28.9626 19.9457 28.9626 19.928H25.9538ZM29.0009 22.6965C28.9616 22.6736 28.937 22.6464 28.9121 22.6464C27.962 22.6425 27.0116 22.6408 26.0616 22.6402C26.0131 22.6402 25.9429 22.6244 25.9384 22.6972C25.9305 22.8247 26.038 22.7795 26.0966 22.7795C27.0156 22.7827 27.9345 22.7818 28.8534 22.7808C28.9036 22.7808 28.957 22.7821 29.0009 22.6965ZM24.0281 14.4786C24.0736 14.4544 24.11 14.4347 24.147 14.4154C24.9293 14.0047 25.7122 13.5957 26.4922 13.1809C26.5581 13.1458 26.7203 13.1458 26.6456 13.0147C26.5872 12.9124 26.4965 13.0268 26.4332 13.0596C25.667 13.4548 24.9041 13.856 24.1405 14.2558C24.0851 14.2849 24.0307 14.3154 23.9766 14.3462C23.933 14.3715 23.9216 14.4101 23.9543 14.4468C23.972 14.4665 24.0068 14.4701 24.0281 14.4786ZM26.4358 15.9478C27.0107 16.0035 27.478 15.9891 27.8958 15.6938C27.9935 15.6247 28.0407 15.5719 27.9515 15.4844C27.8781 15.412 27.9181 15.1832 27.7244 15.2776C27.3118 15.4782 26.9094 15.6997 26.4358 15.9478ZM27.4514 20.7492C27.9001 20.7492 28.3491 20.7496 28.798 20.7489C28.8806 20.7486 28.9907 20.76 28.9927 20.6476C28.995 20.5179 28.8731 20.5605 28.8013 20.5601C27.9139 20.5565 27.0264 20.5559 26.1389 20.5598C26.0688 20.5601 25.9495 20.5054 25.9367 20.6326C25.9216 20.785 26.0501 20.7469 26.1356 20.7476C26.5741 20.7496 27.013 20.7486 27.4514 20.7492ZM12.2845 18.9271C12.2855 18.9766 12.2868 19.0257 12.2881 19.0752C13.5391 19.0752 14.79 19.0759 16.0409 19.0739C16.1333 19.0736 16.266 19.1303 16.2657 18.9507C16.2654 18.7501 16.1153 18.817 16.0173 18.8196C14.8496 18.8488 13.6819 18.8825 12.5143 18.9156C12.4376 18.9176 12.3612 18.9232 12.2845 18.9271ZM12.1702 23.4516C12.1698 23.471 12.1695 23.4903 12.1692 23.5096C13.4512 23.5375 14.7333 23.566 16.015 23.5909C16.114 23.5929 16.269 23.6627 16.2647 23.4631C16.2604 23.2681 16.1054 23.3359 16.0071 23.3382C15.0475 23.3579 14.0883 23.3825 13.1287 23.4093C12.8092 23.4182 12.4897 23.4372 12.1702 23.4516ZM27.4744 22.0742C27.9135 22.0742 28.3527 22.0758 28.7918 22.0726C28.876 22.0719 28.9875 22.1132 28.9973 21.9566C29.0075 21.792 28.9023 21.8012 28.7948 21.8012C27.906 21.8012 27.0172 21.8012 26.1284 21.7992C26.019 21.7992 25.9223 21.7878 25.9292 21.9526C25.9354 22.1116 26.0413 22.0726 26.1255 22.0732C26.5751 22.0758 27.0248 22.0745 27.4744 22.0742ZM26.5056 12.7555C26.4611 12.5929 26.4155 12.5215 26.2438 12.6142C25.4569 13.0386 24.6616 13.447 23.8691 13.8615C23.7767 13.9097 23.6777 13.9464 23.7603 14.0886C23.8321 14.2125 23.8999 14.164 23.9887 14.1175C24.7799 13.7009 25.5726 13.288 26.3644 12.8731C26.4247 12.8413 26.5099 12.8295 26.5056 12.7555ZM27.418 20.5077C27.8772 20.5077 28.3363 20.507 28.7951 20.5084C28.9052 20.5087 29.0062 20.5123 29.0029 20.3533C28.9996 20.1928 28.8928 20.2062 28.7866 20.2062C27.8998 20.2062 27.013 20.2062 26.1261 20.2039C26.0118 20.2036 25.9249 20.2059 25.9253 20.3638C25.9256 20.5339 26.0324 20.5077 26.1347 20.5077C26.5623 20.508 26.9903 20.5077 27.418 20.5077ZM27.4747 18.427V18.428C27.9132 18.428 28.3517 18.4277 28.7902 18.4283C28.8967 18.4286 29.0022 18.4421 29.0032 18.2799C29.0042 18.1212 28.9042 18.1255 28.7941 18.1258C27.9066 18.1268 27.0192 18.1268 26.132 18.1258C26.0249 18.1258 25.9256 18.1114 25.9243 18.2756C25.9233 18.4381 26.018 18.4283 26.1278 18.428C26.5768 18.4257 27.0257 18.427 27.4747 18.427ZM27.4455 23.5165C27.8939 23.5165 28.3419 23.5178 28.7899 23.5155C28.8862 23.5152 29.0055 23.5522 29.0029 23.3766C29.0003 23.2153 28.9016 23.2271 28.7925 23.2271C27.907 23.2284 27.0215 23.2275 26.136 23.2268C26.0298 23.2265 25.9285 23.2107 25.9253 23.3749C25.9216 23.5483 26.0337 23.5162 26.1327 23.5165C26.5705 23.5172 27.008 23.5168 27.4455 23.5165ZM27.4744 21.6233V21.6223C27.9125 21.6223 28.3504 21.6147 28.7882 21.6259C28.9586 21.6305 29.0032 21.5679 28.9999 21.4096C28.9966 21.269 28.9944 21.1766 28.8062 21.1785C27.9096 21.1867 27.013 21.1887 26.1163 21.1759C25.9157 21.173 25.9351 21.2746 25.9295 21.4047C25.923 21.5538 25.9498 21.6324 26.1297 21.6275C26.5777 21.6151 27.0261 21.6233 27.4744 21.6233ZM27.4475 17.9951C27.8857 17.9951 28.3238 17.9885 28.7617 17.9983C28.9285 18.0019 29.0048 17.9705 29.0025 17.7794C29.0006 17.6021 28.9504 17.5497 28.7722 17.5513C27.8962 17.5599 27.0198 17.5615 26.1435 17.5507C25.9515 17.5484 25.9321 17.6228 25.9256 17.7857C25.9177 17.9813 26.0039 18.0019 26.1648 17.9987C26.5922 17.9898 27.0198 17.9957 27.4475 17.9951ZM27.4986 24.2139C27.0402 24.2139 26.5813 24.2224 26.1232 24.2096C25.9351 24.2044 25.9311 24.2965 25.9285 24.4377C25.9259 24.5842 25.9426 24.6616 26.1245 24.6599C27.01 24.6504 27.8958 24.6534 28.7817 24.6576C28.9314 24.6583 29.0098 24.633 29.0006 24.4538C28.9927 24.2945 28.9763 24.2041 28.7804 24.2103C28.3533 24.2237 27.926 24.2145 27.4986 24.2139ZM23.6735 13.8065C23.723 13.7822 23.7512 13.7691 23.7784 13.7547C24.5872 13.3306 25.3934 12.9013 26.2068 12.4861C26.3864 12.3943 26.2825 12.3026 26.2386 12.2134C26.1937 12.1233 26.175 11.9942 25.9987 12.0889C25.1853 12.5257 24.364 12.9472 23.5463 13.3758C23.4877 13.4067 23.3992 13.4335 23.4746 13.5325C23.5437 13.6233 23.5496 13.7665 23.6735 13.8065ZM27.4285 19.7929C27.7936 19.7929 28.1587 19.7929 28.5237 19.7929C29.0016 19.7929 28.9914 19.7926 28.9999 19.3099C29.0035 19.1083 28.9534 19.0428 28.7417 19.0464C27.9702 19.0598 27.1984 19.0526 26.4267 19.0516C25.9171 19.051 25.9279 19.05 25.9262 19.5573C25.9256 19.7566 25.9908 19.8024 26.1773 19.7969C26.5941 19.7838 27.0116 19.7926 27.4285 19.7929ZM18.407 22.7369C18.6807 22.0762 19.0631 21.6383 19.8392 21.8225C19.9581 21.8507 20.0899 21.8346 20.2147 21.8258C20.5962 21.7996 20.9527 21.6859 21.2667 21.4669C21.4955 21.3073 21.4905 21.1353 21.2723 20.9613C21.1061 20.8292 20.9072 20.7636 20.7106 20.6935C20.2527 20.5303 19.7802 20.5818 19.3132 20.6099C19.0657 20.6247 18.9071 20.5601 18.7888 20.3373C18.6774 20.1272 18.5299 19.9365 18.3775 19.7054C18.6204 19.7054 18.7151 19.5862 18.697 19.3758C18.683 19.2096 18.5791 19.1096 18.4273 19.1444C18.0351 19.2342 17.8663 18.9897 17.7014 18.7118C17.6166 18.5686 17.5061 18.4404 17.4216 18.2969C17.2606 18.0233 17.0201 17.9023 16.713 17.842C16.4053 17.7814 16.4164 17.8931 16.4853 18.1242C16.7314 18.95 16.9647 19.7795 17.2112 20.6365C17.0247 20.6365 16.8651 20.6155 16.7127 20.6398C15.9983 20.7541 15.4116 20.5929 15.0069 19.9398C14.8791 19.733 14.65 19.67 14.3741 19.7199C14.497 20.0551 14.6005 20.3805 14.7352 20.6929C14.8352 20.9246 14.8804 21.0845 14.536 21.0779C14.4626 21.0766 14.3515 21.1051 14.341 21.2012C14.3289 21.3119 14.4495 21.3021 14.5163 21.3421C14.6136 21.4004 14.7438 21.3411 14.8417 21.4368C14.7215 21.7602 14.5973 22.0794 14.4858 22.4029C14.4544 22.4943 14.3436 22.6117 14.4242 22.6811C14.5166 22.7605 14.6677 22.7218 14.7811 22.6664C14.8627 22.6264 14.9368 22.5615 15.0004 22.4947C15.1872 22.2977 15.3687 22.0955 15.5496 21.893C15.6207 21.813 15.6899 21.7553 15.8121 21.7606C16.209 21.777 16.6068 21.7881 17.0037 21.7838C17.1974 21.7819 17.2013 21.8599 17.1532 22.0087C17.0732 22.2561 17.004 22.5071 16.9326 22.7575C16.7605 23.3599 16.5901 23.9625 16.4158 24.5764C16.8946 24.6203 17.2279 24.4653 17.4547 24.0802C17.5658 23.8917 17.7119 23.7236 17.8191 23.5335C17.9341 23.3297 18.0777 23.233 18.3211 23.2668C18.4794 23.2887 18.6741 23.3127 18.6951 23.0583C18.7121 22.8519 18.641 22.7165 18.407 22.7369ZM25.4317 14.9784C25.2724 15.2206 24.9437 15.2163 24.7923 15.4811C25.1938 15.2701 25.5956 15.0593 26.0655 14.8122C25.767 14.7752 25.6473 15.0308 25.4317 14.9784C25.4301 14.8368 25.5648 14.8453 25.6408 14.8031C25.9951 14.6068 26.3569 14.4246 26.7157 14.2368C27.1857 13.991 27.1755 13.9959 26.9379 13.5335C26.8442 13.3509 26.7675 13.367 26.6115 13.4515C25.9357 13.8179 25.2524 14.1702 24.5708 14.5261C24.1166 14.7634 24.1267 14.7569 24.3528 15.2153C24.4397 15.3913 24.5039 15.3926 24.6694 15.3137C24.9191 15.1947 25.1361 14.9931 25.4317 14.9784ZM27.1906 15.2222C27.2286 15.2314 27.2496 15.215 27.2571 15.1783C27.2768 15.1714 27.2964 15.1649 27.3161 15.158C27.4721 15.0859 27.6287 15.0138 27.5698 14.7923C27.5622 14.7729 27.5543 14.7536 27.5468 14.7342C27.4492 14.7041 27.5157 14.5858 27.4439 14.5419C27.4056 14.3528 27.3056 14.4141 27.1932 14.4731C26.4109 14.885 25.6264 15.2924 24.8448 15.7053C24.7825 15.7384 24.6534 15.7394 24.6999 15.8636C24.7396 15.9694 24.8405 15.974 24.9395 15.957C25.0001 15.9465 25.0607 15.935 25.1214 15.9239C25.2472 16.0219 25.3727 15.9776 25.4986 15.9235C25.5818 15.8996 25.6647 15.8757 25.748 15.8518C25.8561 15.8885 25.9066 15.8226 25.9475 15.74C26.0816 15.759 26.1166 15.5765 26.249 15.5922C26.271 15.5939 26.2933 15.5955 26.3152 15.5971C26.3352 15.5971 26.3549 15.5971 26.3749 15.5971C26.5296 15.4883 26.7387 15.5037 26.8835 15.3726C26.9051 15.374 26.9241 15.3667 26.9402 15.352C26.9766 15.3589 27.0012 15.3474 27.0077 15.3084C27.0687 15.2796 27.1296 15.2511 27.1906 15.2222ZM27.3217 26.4647C26.4119 26.4643 25.5025 26.4617 24.5931 26.4663C24.3492 26.4673 24.1405 26.3968 23.9737 26.2202C23.9065 26.1488 23.8124 26.0786 23.9032 25.9531C23.9612 25.8735 23.9301 25.7919 23.8514 25.7365C23.796 25.6975 23.7295 25.6965 23.6735 25.7316C23.6047 25.7745 23.5712 25.8499 23.6096 25.9213C23.6889 26.0691 23.5794 26.132 23.4952 26.2032C23.2701 26.3926 23.0082 26.467 22.7142 26.4663C21.1566 26.4624 19.5989 26.466 18.0409 26.4624C17.86 26.4621 17.7004 26.4932 17.5359 26.5804C16.2565 27.2578 14.9715 27.9243 13.6891 28.5962C12.8515 29.035 12.2924 28.862 11.8608 28.0299C11.6261 27.577 11.38 27.13 11.1529 26.6731C11.0733 26.5129 10.976 26.447 10.7954 26.4607C10.5771 26.4768 10.3566 26.465 10.137 26.464C9.36487 26.4614 8.91655 26.016 8.91295 25.238C8.90869 24.402 8.90541 23.5657 8.91491 22.7296C8.91754 22.5016 8.86576 22.3036 8.75597 22.1063C8.54361 21.7242 8.34206 21.3359 8.14575 20.9452C7.8354 20.3281 8.02909 19.6969 8.64651 19.381C8.85658 19.2738 8.92311 19.15 8.9159 18.9222C8.89853 18.3687 8.91197 17.8142 8.90869 17.2603C8.90345 16.4037 9.33571 15.9648 10.1891 15.9645C11.7467 15.9639 13.3047 15.9606 14.8624 15.9658C15.0679 15.9665 15.2471 15.9216 15.4287 15.8259C16.8848 15.0593 18.3457 14.301 19.8028 13.5354C20.0299 13.4162 20.2636 13.3182 20.5179 13.3644C20.686 13.3949 20.9373 13.3493 20.9229 13.6675C20.9187 13.7576 21.0275 13.815 21.1389 13.7517C21.2411 13.6937 21.2628 13.6131 21.2048 13.5168C20.9957 13.1694 21.0606 12.9016 21.4391 12.6827C21.7724 12.49 22.1201 12.3216 22.4616 12.143C23.7348 11.4764 25.0083 10.8098 26.2818 10.1439C26.8163 9.86432 27.2175 9.98853 27.5006 10.5273C28.4058 12.2511 29.3083 13.9759 30.2125 15.7C30.299 15.8649 30.3803 16.0242 30.5668 16.1172C30.7532 16.2103 30.8807 16.4066 30.8712 16.6003C30.8499 17.0421 31.1026 17.3668 31.2773 17.7263C31.368 17.9135 31.4755 18.0931 31.5689 18.2792C31.8055 18.7508 31.6895 19.1867 31.2199 19.4098C30.9515 19.5376 30.883 19.6969 30.885 19.9807C30.8984 21.8307 30.8922 23.681 30.8915 25.531C30.8912 26.1746 30.6005 26.464 29.9562 26.4647C29.0779 26.4653 28.1996 26.4647 27.3217 26.4647Z" fill="#060707"/>
</svg>
