<svg width="40" height="39" viewBox="0 0 40 39" fill="none" xmlns="http://www.w3.org/2000/svg">
<rect x="0.05" y="0.05" width="39.9" height="38.9" rx="1.95" fill="white" stroke="black" stroke-width="0.1"/>
<path d="M17.7695 17.4059C19.785 21.2166 21.7743 24.9775 23.7956 28.7991C22.7558 28.7991 21.7346 28.7293 20.7282 28.8204C19.8486 28.9 19.4117 28.572 19.0319 27.7986C18.0114 25.7195 16.845 23.7119 16.0988 21.504C16.0595 21.3874 15.8753 21.3192 15.7586 21.2288C15.7239 21.3779 15.6216 21.5522 15.6659 21.6722C15.9671 22.4859 16.2548 23.3098 16.6304 24.0901C17.3107 25.5022 18.0497 26.8865 18.7642 28.2826C18.8395 28.4298 18.9129 28.5782 19.0224 28.7961C17.8534 28.7961 16.7516 28.8076 15.6505 28.7794C15.5315 28.7765 15.3686 28.5628 15.31 28.4137C14.4228 26.1475 13.5436 23.878 12.6764 21.604C12.4342 20.9695 12.2366 20.3187 12 19.6206C13.9676 18.8652 15.8976 18.1246 17.7695 17.4059Z" fill="#231F20"/>
<path d="M21.0349 12.0516C22.3477 11.9592 23.6045 11.873 24.861 11.7812C25.116 11.7625 25.3752 11.7465 25.6203 11.6832C25.7377 11.6531 25.8271 11.5151 25.9291 11.4256C25.8127 11.3535 25.6993 11.227 25.5794 11.2205C25.3319 11.2067 25.0812 11.2572 24.8027 11.2841V10.2586C25.4709 10.1787 26.1532 10.0971 26.9633 10.0004C26.8437 11.1533 26.7379 12.2315 26.6091 13.3068C26.5989 13.3923 26.439 13.4949 26.3302 13.5267C26.1198 13.5883 25.8855 13.5771 25.6816 13.6519C25.5682 13.6931 25.4958 13.8468 25.4047 13.9501C25.5125 14.0127 25.621 14.128 25.7282 14.127C25.9756 14.1248 26.2224 14.0658 26.5458 14.0186C25.9943 18.6378 25.4234 23.1902 24.4373 27.8379C23.8113 25.9817 23.2319 24.2749 22.66 22.5659C22.1573 21.0639 21.6612 19.56 21.1666 18.0554C21.1083 17.8788 21.0414 17.693 21.0404 17.5111C21.0313 15.7034 21.0349 13.8953 21.0349 12.0516Z" fill="#231F20"/>
<path d="M12.7744 10.0138C13.5675 10.1131 14.2033 10.1927 14.8712 10.2766V11.289C14.5851 11.2683 14.3314 11.2241 14.0823 11.2421C13.9493 11.2519 13.8244 11.3696 13.696 11.4384C13.7985 11.5253 13.891 11.6695 14.0047 11.6888C14.475 11.7688 14.9524 11.8038 15.4247 11.8713C15.5473 11.8887 15.7239 11.9313 15.7701 12.0181C16.342 13.098 16.8942 14.188 17.4726 15.3167C16.1955 15.7158 14.9846 16.0943 13.712 16.4922C13.3971 14.3174 13.0913 12.2046 12.7744 10.0138Z" fill="#231F20"/>
<path d="M13.2182 18.3564C13.1461 18.0599 13.0835 17.8016 13.0078 17.4896C15.1835 16.8086 17.3321 16.1358 19.5144 15.4528C20.5654 18.5993 21.6033 21.7077 22.6412 24.8158C22.6205 24.8293 22.6002 24.8424 22.5795 24.8555C22.5278 24.7912 22.4629 24.7332 22.4262 24.6611C21.1176 22.0987 19.8024 19.5395 18.5155 16.9663C18.3071 16.5494 18.098 16.477 17.6801 16.6425C16.2126 17.2248 14.7333 17.7774 13.2182 18.3564Z" fill="#231F20"/>
<path d="M18.1358 15.1345C18.0447 15.09 17.9071 15.07 17.869 14.9975C17.3506 14.0078 16.8456 13.0112 16.3311 12.0038H20.5252V15.8683C20.502 15.8775 20.479 15.887 20.4557 15.8965C20.3653 15.6376 20.2512 15.3843 20.1896 15.1188C20.0812 14.6521 19.8085 14.5256 19.4018 14.7252C18.8634 14.989 18.5848 14.8117 18.3737 14.2779C18.162 13.7427 17.8713 13.2367 17.5856 12.735C17.522 12.6239 17.3326 12.5849 17.2012 12.5128C17.1907 12.6606 17.1235 12.8349 17.1785 12.9519C17.5043 13.6437 17.8582 14.3221 18.2027 15.0051C18.1804 15.0483 18.1581 15.0913 18.1358 15.1345Z" fill="#231F20"/>
<path d="M20.5898 11.4456V10.4588H23.3093C23.3093 10.6715 23.3316 10.9534 23.2958 11.2277C23.285 11.3109 23.1159 11.4338 23.0169 11.4361C22.2239 11.4531 21.4298 11.4456 20.5898 11.4456Z" fill="#231F20"/>
<path d="M16.3945 10.4525H18.994C19.0517 10.5426 19.0825 10.5692 19.0854 10.5987C19.1841 11.5599 19.1841 11.5579 18.234 11.5123C17.6576 11.4845 17.0808 11.4652 16.5043 11.4386C16.4755 11.4373 16.4476 11.4058 16.3945 11.3727V10.4525Z" fill="#231F20"/>
<path d="M20.0668 10.3611C20.0668 10.8052 20.0747 11.0742 20.0612 11.3423C20.058 11.4091 19.9967 11.514 19.9429 11.5281C19.8544 11.551 19.6686 11.5258 19.665 11.5009C19.6254 11.2214 19.5821 10.9349 19.6109 10.6577C19.6198 10.5695 19.839 10.5027 20.0668 10.3611Z" fill="#231F20"/>
<path d="M23.8415 11.3205C23.6993 10.435 23.7426 10.3294 24.2322 10.371C24.3433 11.3273 24.3279 11.3647 23.8415 11.3205Z" fill="#231F20"/>
<path d="M15.8356 11.3549C15.167 11.4582 15.4075 10.9744 15.3921 10.6998C15.3728 10.3577 15.3997 10.356 15.8356 10.3724V11.3549Z" fill="#231F20"/>
</svg>
