<svg width="40" height="39" viewBox="0 0 40 39" fill="none" xmlns="http://www.w3.org/2000/svg">
<rect x="0.05" y="0.05" width="39.9" height="38.9" rx="1.95" fill="white" stroke="black" stroke-width="0.1"/>
<path d="M21.3952 24.5075C21.3952 25.7935 21.3635 27.0165 21.41 28.2363C21.4303 28.7666 21.838 29.0376 22.364 29.0405C24.0137 29.05 25.6635 29.05 27.3132 29.0405C27.8477 29.0373 28.2394 28.7308 28.2613 28.2199C28.3141 27.0018 28.2784 25.7797 28.2784 24.5059C27.8546 24.5059 27.4892 24.5377 27.1317 24.498C26.6516 24.4446 26.3769 24.6002 26.1534 25.0538C25.7756 25.8204 25.0162 26.1933 24.4142 25.8715C24.0039 25.6519 23.7158 25.2039 23.3701 24.8611C23.2465 24.7385 23.1213 24.5347 22.9844 24.5236C22.4751 24.4833 21.9609 24.5075 21.3952 24.5075ZM28.2902 22.146C28.2902 20.5621 28.3095 19.0683 28.28 17.5759C28.2689 17.0138 27.8802 16.6812 27.2811 16.675C25.6314 16.6586 23.981 16.6583 22.3312 16.6773C21.7276 16.6845 21.3972 17.0515 21.3867 17.6801C21.3707 18.639 21.3805 19.5986 21.3795 20.5581C21.3792 21.0694 21.3795 21.581 21.3795 22.1456C21.68 22.1456 21.9081 22.1269 22.132 22.1492C22.7933 22.2144 23.2682 22.1187 23.6473 21.4086C24.1602 20.4477 25.245 20.4392 25.9414 21.2624C26.0879 21.4355 26.1678 21.6649 26.3137 21.8382C26.4215 21.966 26.5811 22.1214 26.7276 22.1322C27.2215 22.1686 27.7193 22.146 28.2902 22.146ZM24.2988 14.2987C24.3241 14.1433 24.3654 14.0463 24.35 13.9598C24.1701 12.9426 24.6659 12.3111 25.476 11.7788C26.1793 11.3171 26.8144 10.7505 27.4738 10.2228C27.7399 10.0098 28.0277 9.87445 28.2849 10.1714C28.5818 10.5132 28.3357 10.7642 28.0594 10.9808C27.3647 11.5262 26.7043 12.1239 25.9666 12.6031C25.323 13.0212 25.1971 13.5394 25.3807 14.2961C26.138 14.2961 26.918 14.2957 27.6983 14.2961C27.8903 14.2964 28.1109 14.24 28.2672 14.3157C28.4609 14.4095 28.6015 14.6136 28.765 14.7699C28.6015 14.9227 28.4524 15.0967 28.2692 15.2196C28.1719 15.2848 28.0152 15.2609 27.7137 15.2986C27.893 15.5502 27.9752 15.7846 28.1371 15.8727C28.8896 16.2834 29.2402 16.9011 29.2392 17.7473C29.2363 21.1657 29.2432 24.5842 29.2356 28.0026C29.233 29.2188 28.4619 29.9772 27.2513 29.9808C25.6379 29.9854 24.0245 29.9857 22.4115 29.9811C21.197 29.9772 20.4301 29.2329 20.4252 28.0085C20.4121 24.5901 20.4183 21.1716 20.416 17.7532C20.4154 16.9126 20.7473 16.2771 21.5162 15.8796C21.6551 15.8078 21.7325 15.6161 21.8383 15.4798C21.6948 15.3965 21.5581 15.2605 21.4061 15.2409C21.0878 15.1993 20.8381 15.056 20.9345 14.7447C20.9925 14.5576 21.2845 14.3282 21.4811 14.3187C22.3997 14.2738 23.3216 14.2987 24.2988 14.2987Z" fill="#231F20"/>
<path d="M18.3993 17.8263C18.2472 19.1162 18.0837 20.4045 17.9178 21.7498C17.421 21.7498 16.9648 21.7622 16.5103 21.7402C16.4054 21.7353 16.2894 21.6272 16.2101 21.5384C16.1364 21.4561 16.1105 21.3329 16.0544 21.2326C15.3531 19.986 14.0694 19.9715 13.3386 21.1979C13.2252 21.3883 13.1049 21.696 12.9529 21.7189C12.5039 21.7865 12.0366 21.7556 11.5797 21.7186C11.5066 21.7127 11.4126 21.4827 11.3949 21.3476C11.2435 20.1888 11.1065 19.0277 10.9679 17.8672C10.9158 17.431 11.114 17.2207 11.5545 17.2213C13.645 17.2243 15.7355 17.2236 17.8261 17.2239C18.2295 17.2239 18.4481 17.4124 18.3993 17.8263ZM17.4803 25.3868C17.3742 26.2811 17.2526 27.1739 17.1543 28.0692C17.1113 28.4641 16.9235 28.6535 16.5234 28.6522C15.2957 28.6479 14.0671 28.6735 12.8408 28.6309C12.6301 28.6234 12.2758 28.3612 12.2473 28.1764C12.0425 26.856 11.9048 25.5251 11.7357 24.1129C12.1434 24.1129 12.5039 24.091 12.8591 24.1251C12.9765 24.1365 13.1017 24.2758 13.1849 24.3856C13.3111 24.5521 13.3858 24.7576 13.5129 24.9227C14.2054 25.8207 15.2387 25.7846 15.9178 24.8467C16.507 24.0327 16.507 24.0327 17.6039 24.1677C17.5632 24.5711 17.5285 24.9798 17.4803 25.3868ZM18.8397 16.579C18.8682 16.5724 18.8977 16.5688 18.9249 16.559C19.097 16.4948 19.3182 16.2657 19.3159 16.1126C19.3139 15.9524 19.0986 15.7141 18.9272 15.6561C18.6847 15.5745 18.3963 15.6135 18.1286 15.625C17.8425 15.6374 17.634 15.6125 17.5138 15.2746C17.364 14.8532 16.996 14.6851 16.5496 14.6906C16.097 14.6965 15.6448 14.692 15.2515 14.692C14.9824 13.8713 15.2567 13.3798 15.8758 12.9603C16.5886 12.4769 17.2362 11.8985 17.9185 11.3692C18.1833 11.164 18.4084 10.9294 18.1676 10.6043C17.909 10.2559 17.6072 10.3975 17.3224 10.6243C16.6473 11.1624 15.9935 11.7343 15.2774 12.2121C14.5063 12.7269 14.0406 13.3352 14.2162 14.3059C14.2349 14.4095 14.1858 14.5258 14.1589 14.6916C13.6886 14.6916 13.2226 14.6353 12.7792 14.711C12.4701 14.7641 12.0392 14.9302 11.9327 15.1668C11.737 15.604 11.4703 15.6574 11.0842 15.6253C10.9125 15.6109 10.7109 15.5676 10.5726 15.6368C10.3606 15.743 10.1918 15.935 10.0047 16.0907C10.1836 16.2473 10.3583 16.4086 10.5445 16.5557C10.1417 16.8438 9.94243 17.3242 10.0145 17.9315C10.4248 21.3824 10.8476 24.832 11.2772 28.2806C11.3808 29.1126 11.9265 29.5813 12.7608 29.5862C14.0481 29.5941 15.3354 29.5937 16.6227 29.5846C17.4384 29.5787 17.9565 29.129 18.0758 28.3235C18.1853 27.5832 18.2737 26.8396 18.3642 26.0963C18.6867 23.447 19.018 20.799 19.3211 18.1474C19.408 17.3875 19.2467 16.8782 18.8397 16.579Z" fill="#231F20"/>
</svg>
