<svg width="40" height="39" viewBox="0 0 40 39" fill="none" xmlns="http://www.w3.org/2000/svg">
<rect x="0.05" y="0.05" width="39.9" height="38.9" rx="1.95" fill="white" stroke="black" stroke-width="0.1"/>
<path d="M19.7943 10.2515C20.4782 9.49185 21.2228 9.82252 21.9667 10.1624V8.38973C21.9395 8.38776 21.9127 8.3858 21.8854 8.38383C21.8104 8.77709 21.7354 9.17003 21.6479 9.6295C20.7489 8.99011 20.2852 9.64981 19.7943 10.2515ZM16.3824 10.2446C17.1954 9.65244 17.904 9.69275 18.5902 10.2404C17.7182 9.31685 17.7182 9.31685 16.6898 9.52856C16.6223 9.14611 16.5544 8.763 16.4869 8.3799C16.4518 8.3858 16.4171 8.39202 16.3824 8.39792V10.2446ZM20.9016 6.29068H17.4661C17.512 6.93465 17.768 7.22403 18.41 7.16045C18.9252 7.10933 19.4531 7.1126 19.9693 7.16012C20.5572 7.2142 20.8476 6.98217 20.9016 6.29068ZM19.1798 10.5714C19.6746 9.41353 20.0872 8.44741 20.5329 7.40427H17.8365C18.2786 8.44675 18.683 9.40009 19.1798 10.5714ZM19.9132 11.3818C20.139 16.4995 20.3661 21.6549 20.6024 27.0092C21.0812 26.359 20.2744 11.9504 19.9132 11.3818ZM23.9101 27.0488H14.689C14.689 25.2067 14.6435 23.4065 14.6989 21.6093C14.8018 18.2784 15.022 14.9497 15.0636 11.6184C15.0754 10.6848 14.6759 9.7324 14.3859 8.8138C14.2109 8.2593 14.2538 7.9319 14.8522 7.74576C15.1993 7.63761 15.5424 7.47834 15.8439 7.27679C16.0697 7.12604 16.191 6.81306 16.4204 6.67542C16.8454 6.42078 17.3006 6.11305 17.7699 6.05898C18.625 5.96033 19.5006 6.00622 20.3658 6.03866C21.0517 6.06455 21.8022 6.02326 22.0057 6.96611C22.0323 7.08966 22.2849 7.17815 22.4455 7.25647C22.9859 7.51897 23.5322 7.77001 24.1566 8.06299C24.0428 8.49722 23.9714 8.93145 23.8161 9.33389C23.2039 10.9214 23.2684 12.5528 23.3559 14.2137C23.5788 18.4573 23.7276 22.7049 23.9101 27.0488Z" fill="#231F20"/>
<path d="M24.3288 8.28767C25.1472 9.64149 25.3923 10.8403 25.3595 12.1741C25.2832 15.2911 25.3353 18.411 25.3353 21.5928C24.7814 21.6495 24.4045 21.6882 23.9572 21.7344C23.8995 20.9364 23.8291 20.1859 23.7943 19.4338C23.6803 16.9713 23.4784 14.5065 23.5164 12.046C23.5351 10.8554 24.0136 9.67197 24.3288 8.28767Z" fill="#231F20"/>
<path d="M13.9866 8.31135C14.3461 9.94503 14.9979 11.2916 14.858 12.8896C14.6253 15.5517 14.5955 18.2318 14.4778 20.904C14.4667 21.1593 14.4401 21.4139 14.4165 21.7227C13.9987 21.6919 13.6395 21.6653 13.0781 21.624C13.0781 20.2024 13.084 18.7968 13.0765 17.3915C13.0663 15.4763 13.1106 13.5578 13.006 11.6475C12.9402 10.4497 13.4242 9.49114 13.9866 8.31135Z" fill="#231F20"/>
<path d="M19.7943 17.2515C20.4782 16.4919 21.2228 16.8225 21.9667 17.1624V15.3897C21.9395 15.3878 21.9127 15.3858 21.8854 15.3838C21.8104 15.7771 21.7354 16.17 21.6479 16.6295C20.7489 15.9901 20.2852 16.6498 19.7943 17.2515ZM16.3824 17.2446C17.1954 16.6524 17.904 16.6927 18.5902 17.2404C17.7182 16.3169 17.7182 16.3169 16.6898 16.5286C16.6223 16.1461 16.5544 15.763 16.4869 15.3799C16.4518 15.3858 16.4171 15.392 16.3824 15.3979V17.2446ZM20.9016 13.2907H17.4661C17.512 13.9346 17.768 14.224 18.41 14.1604C18.9252 14.1093 19.4531 14.1126 19.9693 14.1601C20.5572 14.2142 20.8476 13.9822 20.9016 13.2907ZM19.1798 17.5714C19.6746 16.4135 20.0872 15.4474 20.5329 14.4043H17.8365C18.2786 15.4468 18.683 16.4001 19.1798 17.5714ZM19.9132 18.3818C20.139 23.4995 20.3661 28.6549 20.6024 34.0092C21.0812 33.359 20.2744 18.9504 19.9132 18.3818ZM23.9101 34.0488H14.689C14.689 32.2067 14.6435 30.4065 14.6989 28.6093C14.8018 25.2784 15.022 21.9497 15.0636 18.6184C15.0754 17.6848 14.6759 16.7324 14.3859 15.8138C14.2109 15.2593 14.2538 14.9319 14.8522 14.7458C15.1993 14.6376 15.5424 14.4783 15.8439 14.2768C16.0697 14.126 16.191 13.8131 16.4204 13.6754C16.8454 13.4208 17.3006 13.1131 17.7699 13.059C18.625 12.9603 19.5006 13.0062 20.3658 13.0387C21.0517 13.0646 21.8022 13.0233 22.0057 13.9661C22.0323 14.0897 22.2849 14.1781 22.4455 14.2565C22.9859 14.519 23.5322 14.77 24.1566 15.063C24.0428 15.4972 23.9714 15.9315 23.8161 16.3339C23.2039 17.9214 23.2684 19.5528 23.3559 21.2137C23.5788 25.4573 23.7276 29.7049 23.9101 34.0488Z" fill="#231F20"/>
<path d="M24.3288 15.2877C25.1472 16.6415 25.3923 17.8403 25.3595 19.1741C25.2832 22.2911 25.3353 25.411 25.3353 28.5928C24.7814 28.6495 24.4045 28.6882 23.9572 28.7344C23.8995 27.9364 23.8291 27.1859 23.7943 26.4338C23.6803 23.9713 23.4784 21.5065 23.5164 19.046C23.5351 17.8554 24.0136 16.672 24.3288 15.2877Z" fill="#231F20"/>
<path d="M13.9866 15.3113C14.3461 16.945 14.9979 18.2916 14.858 19.8896C14.6253 22.5517 14.5955 25.2318 14.4778 27.904C14.4667 28.1593 14.4401 28.4139 14.4165 28.7227C13.9987 28.6919 13.6395 28.6653 13.0781 28.624C13.0781 27.2024 13.084 25.7968 13.0765 24.3915C13.0663 22.4763 13.1106 20.5578 13.006 18.6475C12.9402 17.4497 13.4242 16.4911 13.9866 15.3113Z" fill="#231F20"/>
</svg>
