<svg width="40" height="39" viewBox="0 0 40 39" fill="none" xmlns="http://www.w3.org/2000/svg">
<rect x="0.05" y="0.05" width="39.9" height="38.9" rx="1.95" fill="white" stroke="black" stroke-width="0.1"/>
<path d="M10 13.3206C10.4939 12.6193 10.8413 12.6114 11.3764 13.2793C12.0564 14.1281 12.742 14.9727 13.426 15.8182C13.4899 15.8972 13.5568 15.9739 13.6275 16.0466C13.8238 16.2475 14.05 16.3157 14.282 16.1246C14.5255 15.9244 14.5275 15.6684 14.341 15.4325C13.7655 14.7043 13.1789 13.9852 12.5962 13.2626C12.3776 12.9919 12.1554 12.7238 11.9395 12.4509C11.6507 12.0861 11.6661 11.7925 11.9794 11.5503C12.2921 11.3088 12.5798 11.3569 12.8754 11.7187C13.5453 12.5384 14.2092 13.3632 14.8762 14.1855C14.9859 14.3208 15.0957 14.4559 15.2091 14.5879C15.4451 14.8629 15.7213 14.9222 16.0058 14.682C16.286 14.445 16.289 14.1507 16.0671 13.8725C15.5522 13.2259 15.0253 12.5892 14.5042 11.9478C14.2663 11.6552 14.0257 11.3645 13.7947 11.0666C13.5417 10.7405 13.5862 10.4049 13.9045 10.1585C14.2092 9.92216 14.5379 9.94773 14.7841 10.2427C15.8895 11.5683 17.0031 12.8871 18.0895 14.2281C18.6718 14.9474 19.0608 15.7562 18.7941 16.7171C18.6961 17.0707 18.504 17.3978 18.3369 17.778C20.0541 19.7512 21.8153 21.7761 23.5778 23.8001C24.3876 24.7302 25.203 25.6557 26.0085 26.589C26.3854 27.0259 26.463 27.6158 26.1904 28.0874C25.9112 28.5701 25.4904 28.9119 24.9155 28.813C24.6068 28.7599 24.2499 28.5623 24.0579 28.3174C21.7222 25.3408 19.4134 22.3428 17.0965 19.351C17.0001 19.2265 16.8959 19.1085 16.7999 18.9931C15.3317 19.567 14.3551 19.3225 13.3536 18.0696C12.2164 16.6473 11.1162 15.1955 10 13.7562L10 13.3206Z" fill="#231F20"/>
<path d="M30.1286 14.018C29.906 15.0572 29.5488 16.0401 28.9065 16.9007C28.0456 18.0542 27.026 19.0174 25.5526 19.2698C24.9919 19.3661 24.3941 19.2439 23.7115 19.217C23.3438 19.6807 22.8853 20.2585 22.3888 20.8848C21.8598 20.285 21.3473 19.704 20.8193 19.1056C21.1634 18.6848 21.5092 18.2755 21.8359 17.8514C21.9106 17.7547 21.9804 17.5886 21.9493 17.4853C21.4767 15.9201 21.9198 14.5371 22.8066 13.261C23.7423 11.9151 24.9394 10.8985 26.5833 10.5229C28.2674 10.1382 29.7402 11.1243 30.0463 12.8215C30.0611 12.9031 30.1007 12.9801 30.1286 13.0595V14.018Z" fill="#231F20"/>
<path d="M18.1595 22.3261C18.6963 23.0097 19.1945 23.6436 19.7093 24.2993C18.6694 25.6132 17.6627 26.9191 16.6166 28.1926C16.1188 28.7989 15.3018 28.8445 14.7614 28.3729C14.2406 27.919 14.1984 27.1626 14.6958 26.5363C15.3624 25.6974 16.0536 24.8777 16.7352 24.0503C17.195 23.4918 17.6568 22.9347 18.1595 22.3261Z" fill="#231F20"/>
</svg>
