<svg width="520" height="505" viewBox="0 0 520 505" fill="none" xmlns="http://www.w3.org/2000/svg">
<line x1="304.708" y1="5.69889" x2="304.738" y2="479.539" stroke="#BFBFBF" stroke-width="0.835379"/>
<g filter="url(#filter0_b_831_549)">
<circle cx="304.292" cy="98.2646" r="23.8038" fill="#00A5DF" fill-opacity="0.05"/>
</g>
<g filter="url(#filter1_b_831_549)">
<circle cx="304.293" cy="98.5344" r="19.0942" stroke="#00A5DF"/>
</g>
<circle cx="304.292" cy="98.5345" r="16.205" stroke="#00A5DF"/>
<ellipse cx="304.291" cy="98.5345" rx="6.17219" ry="5.92398" fill="#00A5DF"/>
<g filter="url(#filter2_b_831_549)">
<circle cx="304.292" cy="170.265" r="23.8038" fill="#00A5DF" fill-opacity="0.05"/>
</g>
<g filter="url(#filter3_b_831_549)">
<circle cx="304.293" cy="170.534" r="19.0942" stroke="#00A5DF"/>
</g>
<circle cx="304.292" cy="170.534" r="16.205" stroke="#00A5DF"/>
<ellipse cx="304.291" cy="170.535" rx="6.17219" ry="5.92398" fill="#00A5DF"/>
<g filter="url(#filter4_b_831_549)">
<circle cx="304.292" cy="243.265" r="23.8038" fill="#00A5DF" fill-opacity="0.05"/>
</g>
<g filter="url(#filter5_b_831_549)">
<circle cx="304.293" cy="243.534" r="19.0942" stroke="#00A5DF"/>
</g>
<circle cx="304.292" cy="243.534" r="16.205" stroke="#00A5DF"/>
<ellipse cx="304.291" cy="243.535" rx="6.17219" ry="5.92398" fill="#00A5DF"/>
<g filter="url(#filter6_b_831_549)">
<circle cx="304.292" cy="316.265" r="23.8038" fill="#00A5DF" fill-opacity="0.05"/>
</g>
<g filter="url(#filter7_b_831_549)">
<circle cx="304.293" cy="316.534" r="19.0942" stroke="#00A5DF"/>
</g>
<circle cx="304.292" cy="316.534" r="16.205" stroke="#00A5DF"/>
<ellipse cx="304.291" cy="316.535" rx="6.17219" ry="5.92398" fill="#00A5DF"/>
<g filter="url(#filter8_b_831_549)">
<circle cx="304.292" cy="389.265" r="23.8038" fill="#00A5DF" fill-opacity="0.05"/>
</g>
<g filter="url(#filter9_b_831_549)">
<circle cx="304.293" cy="389.534" r="19.0942" stroke="#00A5DF"/>
</g>
<circle cx="304.292" cy="389.534" r="16.205" stroke="#00A5DF"/>
<ellipse cx="304.291" cy="389.535" rx="6.17219" ry="5.92398" fill="#00A5DF"/>
<g filter="url(#filter10_b_831_549)">
<circle cx="304.292" cy="462.265" r="23.8038" fill="#00A5DF" fill-opacity="0.05"/>
</g>
<g filter="url(#filter11_b_831_549)">
<circle cx="304.293" cy="462.534" r="19.0942" stroke="#00A5DF"/>
</g>
<circle cx="304.292" cy="462.534" r="16.205" stroke="#00A5DF"/>
<ellipse cx="304.291" cy="462.535" rx="6.17219" ry="5.92398" fill="#00A5DF"/>
<g filter="url(#filter12_b_831_549)">
<circle cx="304.292" cy="24.2646" r="23.8038" fill="#00A5DF" fill-opacity="0.05"/>
</g>
<g filter="url(#filter13_b_831_549)">
<circle cx="304.293" cy="24.5344" r="19.0942" stroke="#00A5DF"/>
</g>
<circle cx="304.292" cy="24.5345" r="16.205" stroke="#00A5DF"/>
<ellipse cx="304.291" cy="24.5345" rx="6.17219" ry="5.92398" fill="#00A5DF"/>
<path d="M180.679 27.5392L177.738 22.43H176.139V27.5392H174.044V14.7662H178.455C179.435 14.7662 180.262 14.9378 180.936 15.2808C181.622 15.6239 182.131 16.0833 182.461 16.6592C182.804 17.2351 182.976 17.8783 182.976 18.5889C182.976 19.4221 182.731 20.1817 182.241 20.8678C181.763 21.5417 181.022 22.0012 180.017 22.2462L183.178 27.5392H180.679ZM176.139 20.7576H178.455C179.239 20.7576 179.827 20.5615 180.219 20.1695C180.624 19.7774 180.826 19.2506 180.826 18.5889C180.826 17.9273 180.63 17.4127 180.238 17.0451C179.846 16.6653 179.251 16.4754 178.455 16.4754H176.139V20.7576ZM194.937 22.2278C194.937 22.6077 194.913 22.9507 194.864 23.257H187.126C187.188 24.0657 187.488 24.715 188.027 25.2051C188.566 25.6952 189.228 25.9403 190.012 25.9403C191.139 25.9403 191.935 25.4686 192.401 24.5251H194.662C194.355 25.4563 193.798 26.2221 192.989 26.8224C192.193 27.4105 191.2 27.7046 190.012 27.7046C189.044 27.7046 188.174 27.4902 187.402 27.0613C186.643 26.6203 186.042 26.0077 185.601 25.2235C185.172 24.4271 184.958 23.5082 184.958 22.4668C184.958 21.4253 185.166 20.5125 185.583 19.7284C186.012 18.932 186.606 18.3194 187.365 17.8906C188.137 17.4617 189.019 17.2473 190.012 17.2473C190.968 17.2473 191.819 17.4556 192.566 17.8722C193.314 18.2888 193.896 18.8769 194.312 19.6365C194.729 20.3839 194.937 21.2477 194.937 22.2278ZM192.75 21.5662C192.738 20.7943 192.462 20.1756 191.923 19.71C191.384 19.2444 190.716 19.0116 189.92 19.0116C189.197 19.0116 188.578 19.2444 188.064 19.71C187.549 20.1633 187.243 20.7821 187.145 21.5662H192.75ZM201.079 17.2473C201.863 17.2473 202.556 17.4066 203.156 17.7251C203.768 18.0315 204.246 18.4174 204.589 18.883V17.4127H206.703V27.7046C206.703 28.6358 206.507 29.4628 206.115 30.1857C205.723 30.9208 205.153 31.4967 204.406 31.9132C203.67 32.3298 202.788 32.5381 201.759 32.5381C200.387 32.5381 199.247 32.2134 198.341 31.564C197.434 30.9269 196.919 30.057 196.797 28.9543H198.874C199.033 29.4812 199.37 29.9039 199.885 30.2224C200.411 30.5532 201.036 30.7186 201.759 30.7186C202.605 30.7186 203.285 30.4613 203.799 29.9467C204.326 29.4322 204.589 28.6848 204.589 27.7046V26.0138C204.234 26.4916 203.75 26.8959 203.137 27.2268C202.537 27.5453 201.851 27.7046 201.079 27.7046C200.197 27.7046 199.388 27.484 198.653 27.043C197.93 26.5896 197.354 25.9648 196.926 25.1684C196.509 24.3597 196.301 23.4469 196.301 22.43C196.301 21.4131 196.509 20.5125 196.926 19.7284C197.354 18.9442 197.93 18.3378 198.653 17.9089C199.388 17.4679 200.197 17.2473 201.079 17.2473ZM204.589 22.4668C204.589 21.7684 204.442 21.1619 204.148 20.6473C203.866 20.1327 203.493 19.7406 203.027 19.4711C202.562 19.2015 202.059 19.0668 201.52 19.0668C200.981 19.0668 200.479 19.2015 200.013 19.4711C199.548 19.7284 199.168 20.1143 198.874 20.6289C198.592 21.1313 198.451 21.7316 198.451 22.43C198.451 23.1284 198.592 23.741 198.874 24.2678C199.168 24.7947 199.548 25.199 200.013 25.4808C200.491 25.7504 200.993 25.8851 201.52 25.8851C202.059 25.8851 202.562 25.7504 203.027 25.4808C203.493 25.2113 203.866 24.8192 204.148 24.3046C204.442 23.7778 204.589 23.1651 204.589 22.4668ZM210.521 16.0711C210.141 16.0711 209.822 15.9424 209.565 15.6852C209.308 15.4279 209.179 15.1093 209.179 14.7295C209.179 14.3497 209.308 14.0311 209.565 13.7738C209.822 13.5165 210.141 13.3879 210.521 13.3879C210.888 13.3879 211.201 13.5165 211.458 13.7738C211.715 14.0311 211.844 14.3497 211.844 14.7295C211.844 15.1093 211.715 15.4279 211.458 15.6852C211.201 15.9424 210.888 16.0711 210.521 16.0711ZM211.55 17.4127V27.5392H209.455V17.4127H211.55ZM217.976 27.7046C217.18 27.7046 216.463 27.5637 215.826 27.2819C215.201 26.9878 214.705 26.5958 214.337 26.1057C213.97 25.6033 213.774 25.0459 213.749 24.4332H215.918C215.955 24.8621 216.157 25.2235 216.524 25.5176C216.904 25.7994 217.376 25.9403 217.94 25.9403C218.528 25.9403 218.981 25.83 219.3 25.6095C219.63 25.3767 219.796 25.0826 219.796 24.7273C219.796 24.3475 219.612 24.0657 219.244 23.8819C218.889 23.6981 218.319 23.4959 217.535 23.2754C216.776 23.0671 216.157 22.865 215.679 22.6689C215.201 22.4729 214.785 22.1727 214.429 21.7684C214.086 21.3641 213.915 20.8311 213.915 20.1695C213.915 19.6304 214.074 19.1403 214.392 18.6992C214.711 18.2459 215.164 17.8906 215.752 17.6333C216.353 17.376 217.039 17.2473 217.811 17.2473C218.963 17.2473 219.888 17.5414 220.586 18.1295C221.297 18.7053 221.676 19.4956 221.725 20.5003H219.63C219.594 20.0469 219.41 19.6855 219.079 19.416C218.748 19.1464 218.301 19.0116 217.737 19.0116C217.186 19.0116 216.763 19.1158 216.469 19.3241C216.175 19.5324 216.028 19.808 216.028 20.1511C216.028 20.4206 216.126 20.6473 216.322 20.8311C216.518 21.0149 216.757 21.1619 217.039 21.2722C217.321 21.3702 217.737 21.4988 218.289 21.6581C219.024 21.8541 219.624 22.0563 220.09 22.2646C220.568 22.4606 220.978 22.7547 221.321 23.1468C221.664 23.5388 221.842 24.0596 221.854 24.7089C221.854 25.2848 221.695 25.7994 221.376 26.2527C221.058 26.706 220.604 27.0613 220.016 27.3186C219.44 27.5759 218.76 27.7046 217.976 27.7046ZM226.562 19.1219V24.7273C226.562 25.1071 226.648 25.3828 226.82 25.5543C227.003 25.7136 227.31 25.7932 227.738 25.7932H229.025V27.5392H227.371C226.427 27.5392 225.705 27.3186 225.202 26.8776C224.7 26.4365 224.449 25.7197 224.449 24.7273V19.1219H223.254V17.4127H224.449V14.8949H226.562V17.4127H229.025V19.1219H226.562ZM240.237 22.2278C240.237 22.6077 240.213 22.9507 240.164 23.257H232.426C232.488 24.0657 232.788 24.715 233.327 25.2051C233.866 25.6952 234.527 25.9403 235.312 25.9403C236.439 25.9403 237.235 25.4686 237.701 24.5251H239.961C239.655 25.4563 239.098 26.2221 238.289 26.8224C237.493 27.4105 236.5 27.7046 235.312 27.7046C234.344 27.7046 233.474 27.4902 232.702 27.0613C231.942 26.6203 231.342 26.0077 230.901 25.2235C230.472 24.4271 230.258 23.5082 230.258 22.4668C230.258 21.4253 230.466 20.5125 230.882 19.7284C231.311 18.932 231.906 18.3194 232.665 17.8906C233.437 17.4617 234.319 17.2473 235.312 17.2473C236.267 17.2473 237.119 17.4556 237.866 17.8722C238.614 18.2888 239.196 18.8769 239.612 19.6365C240.029 20.3839 240.237 21.2477 240.237 22.2278ZM238.05 21.5662C238.038 20.7943 237.762 20.1756 237.223 19.71C236.684 19.2444 236.016 19.0116 235.22 19.0116C234.497 19.0116 233.878 19.2444 233.364 19.71C232.849 20.1633 232.543 20.7821 232.445 21.5662H238.05ZM244.394 18.883C244.7 18.3684 245.105 17.9702 245.607 17.6884C246.122 17.3943 246.728 17.2473 247.426 17.2473V19.416H246.893C246.073 19.416 245.448 19.6242 245.019 20.0408C244.602 20.4574 244.394 21.1803 244.394 22.2095V27.5392H242.299V17.4127H244.394V18.883Z" fill="#5A5A5A"/>
<path d="M370.02 100.217L365.076 94.5015V100.217H362.981V87.4442H365.076V93.2701L370.038 87.4442H372.666L367.116 93.8399L372.758 100.217H370.02ZM384.076 87.4442L379.849 95.5858V100.217H377.754V95.5858L373.508 87.4442H375.842L378.801 93.7112L381.76 87.4442H384.076ZM385.04 93.8031C385.04 92.5534 385.328 91.4323 385.904 90.4399C386.492 89.4475 387.282 88.6756 388.275 88.1242C389.279 87.5606 390.376 87.2788 391.564 87.2788C392.924 87.2788 394.131 87.6157 395.185 88.2896C396.251 88.9512 397.023 89.8947 397.501 91.1199H394.983C394.652 90.446 394.192 89.9437 393.604 89.6129C393.016 89.282 392.336 89.1166 391.564 89.1166C390.719 89.1166 389.965 89.3066 389.304 89.6864C388.642 90.0662 388.121 90.6114 387.742 91.322C387.374 92.0327 387.19 92.8597 387.19 93.8031C387.19 94.7465 387.374 95.5736 387.742 96.2842C388.121 96.9948 388.642 97.5462 389.304 97.9382C389.965 98.3181 390.719 98.508 391.564 98.508C392.336 98.508 393.016 98.3426 393.604 98.0118C394.192 97.681 394.652 97.1786 394.983 96.5047H397.501C397.023 97.73 396.251 98.6734 395.185 99.335C394.131 99.9966 392.924 100.327 391.564 100.327C390.364 100.327 389.267 100.052 388.275 99.5004C387.282 98.9368 386.492 98.1588 385.904 97.1664C385.328 96.1739 385.04 95.0528 385.04 93.8031ZM404.029 93.8031C404.029 92.5534 404.316 91.4323 404.892 90.4399C405.48 89.4475 406.271 88.6756 407.263 88.1242C408.268 87.5606 409.364 87.2788 410.553 87.2788C411.913 87.2788 413.12 87.6157 414.173 88.2896C415.239 88.9512 416.011 89.8947 416.489 91.1199H413.971C413.64 90.446 413.181 89.9437 412.593 89.6129C412.005 89.282 411.325 89.1166 410.553 89.1166C409.707 89.1166 408.954 89.3066 408.292 89.6864C407.631 90.0662 407.11 90.6114 406.73 91.322C406.363 92.0327 406.179 92.8597 406.179 93.8031C406.179 94.7465 406.363 95.5736 406.73 96.2842C407.11 96.9948 407.631 97.5462 408.292 97.9382C408.954 98.3181 409.707 98.508 410.553 98.508C411.325 98.508 412.005 98.3426 412.593 98.0118C413.181 97.681 413.64 97.1786 413.971 96.5047H416.489C416.011 97.73 415.239 98.6734 414.173 99.335C413.12 99.9966 411.913 100.327 410.553 100.327C409.352 100.327 408.256 100.052 407.263 99.5004C406.271 98.9368 405.48 98.1588 404.892 97.1664C404.316 96.1739 404.029 95.0528 404.029 93.8031ZM424.179 89.9253C424.951 89.9253 425.637 90.0907 426.238 90.4215C426.85 90.7523 427.328 91.2424 427.671 91.8918C428.026 92.5411 428.204 93.3253 428.204 94.2442V100.217H426.127V94.5566C426.127 93.65 425.901 92.9577 425.447 92.4799C424.994 91.9898 424.375 91.7447 423.591 91.7447C422.807 91.7447 422.182 91.9898 421.717 92.4799C421.263 92.9577 421.037 93.65 421.037 94.5566V100.217H418.941V86.6172H421.037V91.2669C421.392 90.8381 421.839 90.5073 422.378 90.2745C422.93 90.0417 423.53 89.9253 424.179 89.9253ZM440.158 94.9058C440.158 95.2856 440.133 95.6287 440.084 95.935H432.347C432.408 96.7437 432.708 97.393 433.247 97.8831C433.786 98.3732 434.448 98.6182 435.232 98.6182C436.359 98.6182 437.156 98.1465 437.621 97.2031H439.882C439.576 98.1343 439.018 98.9 438.21 99.5004C437.413 100.089 436.421 100.383 435.232 100.383C434.264 100.383 433.394 100.168 432.623 99.7393C431.863 99.2982 431.263 98.6856 430.821 97.9015C430.393 97.1051 430.178 96.1862 430.178 95.1447C430.178 94.1033 430.387 93.1905 430.803 92.4064C431.232 91.61 431.826 90.9974 432.586 90.5685C433.358 90.1397 434.24 89.9253 435.232 89.9253C436.188 89.9253 437.039 90.1336 437.787 90.5502C438.534 90.9667 439.116 91.5548 439.533 92.3145C439.949 93.0619 440.158 93.9256 440.158 94.9058ZM437.971 94.2442C437.958 93.4723 437.683 92.8536 437.144 92.388C436.605 91.9224 435.937 91.6896 435.14 91.6896C434.417 91.6896 433.799 91.9224 433.284 92.388C432.77 92.8413 432.463 93.4601 432.365 94.2442H437.971ZM441.521 95.1447C441.521 94.1033 441.729 93.1905 442.146 92.4064C442.575 91.61 443.163 90.9974 443.91 90.5685C444.658 90.1397 445.515 89.9253 446.483 89.9253C447.708 89.9253 448.719 90.2193 449.516 90.8075C450.324 91.3833 450.87 92.2103 451.151 93.2885H448.891C448.707 92.7862 448.413 92.3941 448.009 92.1123C447.604 91.8305 447.096 91.6896 446.483 91.6896C445.626 91.6896 444.939 91.9959 444.425 92.6085C443.923 93.2089 443.671 94.0543 443.671 95.1447C443.671 96.2352 443.923 97.0867 444.425 97.6993C444.939 98.3119 445.626 98.6182 446.483 98.6182C447.696 98.6182 448.499 98.0853 448.891 97.0193H451.151C450.857 98.0485 450.306 98.8694 449.497 99.482C448.689 100.082 447.684 100.383 446.483 100.383C445.515 100.383 444.658 100.168 443.91 99.7393C443.163 99.2982 442.575 98.6856 442.146 97.9015C441.729 97.1051 441.521 96.1862 441.521 95.1447ZM457.246 95.1631L461.914 100.217H459.084L455.334 95.8615V100.217H453.239V86.6172H455.334V94.5199L459.01 90.0907H461.914L457.246 95.1631Z" fill="#5A5A5A"/>
<path d="M112.333 164.806C112.002 164.169 111.543 163.691 110.955 163.372C110.366 163.042 109.686 162.876 108.915 162.876C108.069 162.876 107.316 163.066 106.654 163.446C105.992 163.826 105.472 164.365 105.092 165.063C104.724 165.762 104.541 166.57 104.541 167.489C104.541 168.408 104.724 169.223 105.092 169.934C105.472 170.632 105.992 171.171 106.654 171.551C107.316 171.931 108.069 172.121 108.915 172.121C110.054 172.121 110.979 171.802 111.69 171.165C112.4 170.528 112.835 169.664 112.995 168.574H108.198V166.901H115.237V168.537C115.102 169.529 114.747 170.442 114.171 171.275C113.607 172.108 112.866 172.776 111.947 173.278C111.04 173.768 110.03 174.014 108.915 174.014C107.714 174.014 106.617 173.738 105.625 173.187C104.632 172.623 103.842 171.845 103.254 170.852C102.678 169.86 102.39 168.739 102.39 167.489C102.39 166.239 102.678 165.118 103.254 164.126C103.842 163.134 104.632 162.362 105.625 161.81C106.63 161.247 107.726 160.965 108.915 160.965C110.275 160.965 111.481 161.302 112.535 161.976C113.601 162.637 114.373 163.581 114.851 164.806H112.333ZM121.512 174.032C120.654 174.032 119.882 173.885 119.196 173.591C118.51 173.285 117.971 172.856 117.579 172.304C117.187 171.753 116.991 171.11 116.991 170.375H119.233C119.282 170.926 119.496 171.379 119.876 171.735C120.268 172.09 120.813 172.268 121.512 172.268C122.235 172.268 122.798 172.096 123.203 171.753C123.607 171.398 123.809 170.944 123.809 170.393C123.809 169.964 123.68 169.615 123.423 169.345C123.178 169.076 122.866 168.868 122.486 168.721C122.118 168.574 121.604 168.414 120.942 168.243C120.109 168.022 119.429 167.802 118.902 167.581C118.387 167.348 117.946 166.993 117.579 166.515C117.211 166.037 117.027 165.4 117.027 164.604C117.027 163.869 117.211 163.225 117.579 162.674C117.946 162.123 118.461 161.7 119.123 161.406C119.784 161.112 120.55 160.965 121.42 160.965C122.657 160.965 123.668 161.277 124.452 161.902C125.249 162.515 125.69 163.36 125.776 164.438H123.46C123.423 163.973 123.203 163.575 122.798 163.244C122.394 162.913 121.861 162.748 121.199 162.748C120.599 162.748 120.109 162.901 119.729 163.207C119.349 163.513 119.159 163.954 119.159 164.53C119.159 164.922 119.276 165.247 119.509 165.504C119.754 165.749 120.06 165.945 120.427 166.092C120.795 166.239 121.297 166.399 121.934 166.57C122.78 166.803 123.466 167.036 123.993 167.269C124.532 167.501 124.985 167.863 125.353 168.353C125.733 168.831 125.923 169.474 125.923 170.283C125.923 170.932 125.745 171.545 125.39 172.121C125.047 172.696 124.538 173.162 123.864 173.517C123.203 173.86 122.418 174.032 121.512 174.032ZM136.647 161.13V162.839H133.247V173.903H131.152V162.839H127.733V161.13H136.647ZM154.551 161.13L149.754 173.903H147.328L142.513 161.13H144.756L148.541 171.753L152.346 161.13H154.551ZM165.584 168.592C165.584 168.972 165.56 169.315 165.511 169.621H157.774C157.835 170.43 158.135 171.079 158.674 171.569C159.213 172.059 159.875 172.304 160.659 172.304C161.786 172.304 162.583 171.833 163.048 170.889H165.309C165.002 171.82 164.445 172.586 163.636 173.187C162.84 173.775 161.847 174.069 160.659 174.069C159.691 174.069 158.821 173.854 158.049 173.425C157.29 172.984 156.689 172.372 156.248 171.588C155.819 170.791 155.605 169.872 155.605 168.831C155.605 167.789 155.813 166.877 156.23 166.092C156.659 165.296 157.253 164.683 158.012 164.255C158.784 163.826 159.667 163.611 160.659 163.611C161.615 163.611 162.466 163.82 163.214 164.236C163.961 164.653 164.543 165.241 164.959 166.001C165.376 166.748 165.584 167.612 165.584 168.592ZM163.397 167.93C163.385 167.158 163.109 166.54 162.57 166.074C162.031 165.608 161.363 165.376 160.567 165.376C159.844 165.376 159.225 165.608 158.711 166.074C158.196 166.527 157.89 167.146 157.792 167.93H163.397ZM169.741 165.247C170.048 164.732 170.452 164.334 170.954 164.052C171.469 163.758 172.075 163.611 172.774 163.611V165.78H172.241C171.42 165.78 170.795 165.988 170.366 166.405C169.95 166.821 169.741 167.544 169.741 168.574V173.903H167.646V163.777H169.741V165.247ZM175.766 162.435C175.386 162.435 175.067 162.307 174.81 162.049C174.553 161.792 174.424 161.473 174.424 161.094C174.424 160.714 174.553 160.395 174.81 160.138C175.067 159.881 175.386 159.752 175.766 159.752C176.133 159.752 176.446 159.881 176.703 160.138C176.96 160.395 177.089 160.714 177.089 161.094C177.089 161.473 176.96 161.792 176.703 162.049C176.446 162.307 176.133 162.435 175.766 162.435ZM176.795 163.777V173.903H174.7V163.777H176.795ZM183.791 165.486H181.916V173.903H179.803V165.486H178.608V163.777H179.803V163.06C179.803 161.896 180.109 161.051 180.722 160.524C181.347 159.985 182.321 159.715 183.644 159.715V161.461C183.007 161.461 182.559 161.584 182.302 161.829C182.045 162.061 181.916 162.472 181.916 163.06V163.777H183.791V165.486ZM186.714 162.435C186.334 162.435 186.015 162.307 185.758 162.049C185.501 161.792 185.372 161.473 185.372 161.094C185.372 160.714 185.501 160.395 185.758 160.138C186.015 159.881 186.334 159.752 186.714 159.752C187.081 159.752 187.394 159.881 187.651 160.138C187.908 160.395 188.037 160.714 188.037 161.094C188.037 161.473 187.908 161.792 187.651 162.049C187.394 162.307 187.081 162.435 186.714 162.435ZM187.743 163.777V173.903H185.648V163.777H187.743ZM189.795 168.831C189.795 167.789 190.003 166.877 190.42 166.092C190.849 165.296 191.437 164.683 192.184 164.255C192.932 163.826 193.789 163.611 194.757 163.611C195.982 163.611 196.993 163.905 197.79 164.494C198.598 165.069 199.144 165.896 199.425 166.975H197.165C196.981 166.472 196.687 166.08 196.283 165.798C195.878 165.517 195.37 165.376 194.757 165.376C193.9 165.376 193.213 165.682 192.699 166.295C192.197 166.895 191.945 167.74 191.945 168.831C191.945 169.921 192.197 170.773 192.699 171.385C193.213 171.998 193.9 172.304 194.757 172.304C195.97 172.304 196.773 171.771 197.165 170.705H199.425C199.131 171.735 198.58 172.556 197.771 173.168C196.963 173.768 195.958 174.069 194.757 174.069C193.789 174.069 192.932 173.854 192.184 173.425C191.437 172.984 190.849 172.372 190.42 171.588C190.003 170.791 189.795 169.872 189.795 168.831ZM200.815 168.794C200.815 167.777 201.023 166.877 201.44 166.092C201.869 165.308 202.444 164.702 203.167 164.273C203.902 163.832 204.711 163.611 205.593 163.611C206.39 163.611 207.082 163.771 207.67 164.089C208.27 164.396 208.748 164.781 209.104 165.247V163.777H211.217V173.903H209.104V172.396C208.748 172.874 208.264 173.272 207.652 173.591C207.039 173.909 206.341 174.069 205.557 174.069C204.687 174.069 203.89 173.848 203.167 173.407C202.444 172.954 201.869 172.329 201.44 171.532C201.023 170.724 200.815 169.811 200.815 168.794ZM209.104 168.831C209.104 168.132 208.957 167.526 208.662 167.011C208.381 166.497 208.007 166.105 207.541 165.835C207.076 165.566 206.573 165.431 206.034 165.431C205.495 165.431 204.993 165.566 204.527 165.835C204.062 166.092 203.682 166.478 203.388 166.993C203.106 167.495 202.965 168.096 202.965 168.794C202.965 169.492 203.106 170.105 203.388 170.632C203.682 171.159 204.062 171.563 204.527 171.845C205.005 172.114 205.508 172.249 206.034 172.249C206.573 172.249 207.076 172.114 207.541 171.845C208.007 171.575 208.381 171.183 208.662 170.669C208.957 170.142 209.104 169.529 209.104 168.831ZM216.413 165.486V171.091C216.413 171.471 216.499 171.747 216.671 171.918C216.854 172.078 217.161 172.157 217.589 172.157H218.876V173.903H217.222C216.278 173.903 215.556 173.683 215.053 173.242C214.551 172.801 214.3 172.084 214.3 171.091V165.486H213.105V163.777H214.3V161.259H216.413V163.777H218.876V165.486H216.413ZM221.873 162.435C221.493 162.435 221.175 162.307 220.917 162.049C220.66 161.792 220.531 161.473 220.531 161.094C220.531 160.714 220.66 160.395 220.917 160.138C221.175 159.881 221.493 159.752 221.873 159.752C222.24 159.752 222.553 159.881 222.81 160.138C223.068 160.395 223.196 160.714 223.196 161.094C223.196 161.473 223.068 161.792 222.81 162.049C222.553 162.307 222.24 162.435 221.873 162.435ZM222.902 163.777V173.903H220.807V163.777H222.902ZM230.045 174.069C229.09 174.069 228.226 173.854 227.454 173.425C226.682 172.984 226.076 172.372 225.634 171.588C225.193 170.791 224.973 169.872 224.973 168.831C224.973 167.802 225.199 166.889 225.653 166.092C226.106 165.296 226.725 164.683 227.509 164.255C228.293 163.826 229.169 163.611 230.137 163.611C231.105 163.611 231.981 163.826 232.765 164.255C233.549 164.683 234.168 165.296 234.621 166.092C235.075 166.889 235.301 167.802 235.301 168.831C235.301 169.86 235.069 170.773 234.603 171.569C234.137 172.366 233.5 172.984 232.692 173.425C231.895 173.854 231.013 174.069 230.045 174.069ZM230.045 172.249C230.584 172.249 231.087 172.121 231.552 171.863C232.03 171.606 232.416 171.22 232.71 170.705C233.004 170.191 233.151 169.566 233.151 168.831C233.151 168.096 233.01 167.477 232.728 166.975C232.447 166.46 232.073 166.074 231.607 165.817C231.142 165.559 230.639 165.431 230.1 165.431C229.561 165.431 229.059 165.559 228.593 165.817C228.14 166.074 227.779 166.46 227.509 166.975C227.239 167.477 227.105 168.096 227.105 168.831C227.105 169.921 227.38 170.767 227.932 171.367C228.495 171.955 229.2 172.249 230.045 172.249ZM242.482 163.611C243.278 163.611 243.989 163.777 244.614 164.108C245.251 164.438 245.747 164.929 246.102 165.578C246.458 166.227 246.635 167.011 246.635 167.93V173.903H244.559V168.243C244.559 167.336 244.332 166.644 243.879 166.166C243.425 165.676 242.806 165.431 242.022 165.431C241.238 165.431 240.613 165.676 240.148 166.166C239.694 166.644 239.468 167.336 239.468 168.243V173.903H237.373V163.777H239.468V164.935C239.811 164.518 240.246 164.193 240.773 163.961C241.312 163.728 241.881 163.611 242.482 163.611Z" fill="#5A5A5A"/>
<path d="M364.793 234.766V247.539H362.698V234.766H364.793ZM372.653 237.247C373.45 237.247 374.16 237.413 374.785 237.744C375.422 238.074 375.918 238.564 376.274 239.214C376.629 239.863 376.807 240.647 376.807 241.566V247.539H374.73V241.879C374.73 240.972 374.503 240.28 374.05 239.802C373.597 239.312 372.978 239.067 372.194 239.067C371.41 239.067 370.785 239.312 370.319 239.802C369.866 240.28 369.639 240.972 369.639 241.879V247.539H367.544V237.413H369.639V238.571C369.982 238.154 370.417 237.829 370.944 237.597C371.483 237.364 372.053 237.247 372.653 237.247ZM381.924 239.122V244.727C381.924 245.107 382.009 245.383 382.181 245.554C382.365 245.714 382.671 245.793 383.1 245.793H384.386V247.539H382.732C381.789 247.539 381.066 247.319 380.564 246.878C380.061 246.436 379.81 245.72 379.81 244.727V239.122H378.615V237.413H379.81V234.895H381.924V237.413H384.386V239.122H381.924ZM395.598 242.228C395.598 242.608 395.574 242.951 395.525 243.257H387.788C387.849 244.066 388.149 244.715 388.688 245.205C389.227 245.695 389.889 245.94 390.673 245.94C391.8 245.94 392.597 245.469 393.062 244.525H395.323C395.016 245.456 394.459 246.222 393.65 246.822C392.854 247.411 391.861 247.705 390.673 247.705C389.705 247.705 388.835 247.49 388.063 247.061C387.304 246.62 386.703 246.008 386.262 245.224C385.833 244.427 385.619 243.508 385.619 242.467C385.619 241.425 385.827 240.513 386.244 239.728C386.673 238.932 387.267 238.319 388.026 237.891C388.798 237.462 389.68 237.247 390.673 237.247C391.629 237.247 392.48 237.456 393.228 237.872C393.975 238.289 394.557 238.877 394.973 239.636C395.39 240.384 395.598 241.248 395.598 242.228ZM393.411 241.566C393.399 240.794 393.123 240.176 392.584 239.71C392.045 239.244 391.377 239.012 390.581 239.012C389.858 239.012 389.239 239.244 388.725 239.71C388.21 240.163 387.904 240.782 387.806 241.566H393.411ZM401.74 237.247C402.524 237.247 403.217 237.407 403.817 237.725C404.429 238.031 404.907 238.417 405.25 238.883V237.413H407.364V247.705C407.364 248.636 407.168 249.463 406.776 250.186C406.384 250.921 405.814 251.497 405.067 251.913C404.331 252.33 403.449 252.538 402.42 252.538C401.048 252.538 399.908 252.213 399.002 251.564C398.095 250.927 397.58 250.057 397.458 248.954H399.535C399.694 249.481 400.031 249.904 400.546 250.222C401.072 250.553 401.697 250.719 402.42 250.719C403.266 250.719 403.946 250.461 404.46 249.947C404.987 249.432 405.25 248.685 405.25 247.705V246.014C404.895 246.492 404.411 246.896 403.798 247.227C403.198 247.545 402.512 247.705 401.74 247.705C400.858 247.705 400.049 247.484 399.314 247.043C398.591 246.59 398.015 245.965 397.587 245.168C397.17 244.36 396.962 243.447 396.962 242.43C396.962 241.413 397.17 240.513 397.587 239.728C398.015 238.944 398.591 238.338 399.314 237.909C400.049 237.468 400.858 237.247 401.74 237.247ZM405.25 242.467C405.25 241.768 405.103 241.162 404.809 240.647C404.528 240.133 404.154 239.741 403.688 239.471C403.223 239.202 402.72 239.067 402.181 239.067C401.642 239.067 401.14 239.202 400.674 239.471C400.209 239.728 399.829 240.114 399.535 240.629C399.253 241.131 399.112 241.732 399.112 242.43C399.112 243.128 399.253 243.741 399.535 244.268C399.829 244.795 400.209 245.199 400.674 245.481C401.152 245.75 401.654 245.885 402.181 245.885C402.72 245.885 403.223 245.75 403.688 245.481C404.154 245.211 404.528 244.819 404.809 244.305C405.103 243.778 405.25 243.165 405.25 242.467ZM412.211 238.883C412.517 238.368 412.922 237.97 413.424 237.688C413.938 237.394 414.545 237.247 415.243 237.247V239.416H414.71C413.889 239.416 413.265 239.624 412.836 240.041C412.419 240.457 412.211 241.18 412.211 242.209V247.539H410.116V237.413H412.211V238.883ZM416.471 242.43C416.471 241.413 416.679 240.513 417.096 239.728C417.524 238.944 418.1 238.338 418.823 237.909C419.558 237.468 420.367 237.247 421.249 237.247C422.046 237.247 422.738 237.407 423.326 237.725C423.926 238.031 424.404 238.417 424.759 238.883V237.413H426.873V247.539H424.759V246.032C424.404 246.51 423.92 246.908 423.308 247.227C422.695 247.545 421.997 247.705 421.212 247.705C420.342 247.705 419.546 247.484 418.823 247.043C418.1 246.59 417.524 245.965 417.096 245.168C416.679 244.36 416.471 243.447 416.471 242.43ZM424.759 242.467C424.759 241.768 424.612 241.162 424.318 240.647C424.037 240.133 423.663 239.741 423.197 239.471C422.732 239.202 422.229 239.067 421.69 239.067C421.151 239.067 420.649 239.202 420.183 239.471C419.718 239.728 419.338 240.114 419.044 240.629C418.762 241.131 418.621 241.732 418.621 242.43C418.621 243.128 418.762 243.741 419.044 244.268C419.338 244.795 419.718 245.199 420.183 245.481C420.661 245.75 421.163 245.885 421.69 245.885C422.229 245.885 422.732 245.75 423.197 245.481C423.663 245.211 424.037 244.819 424.318 244.305C424.612 243.778 424.759 243.165 424.759 242.467ZM432.069 239.122V244.727C432.069 245.107 432.155 245.383 432.326 245.554C432.51 245.714 432.817 245.793 433.245 245.793H434.532V247.539H432.878C431.934 247.539 431.211 247.319 430.709 246.878C430.207 246.436 429.956 245.72 429.956 244.727V239.122H428.761V237.413H429.956V234.895H432.069V237.413H434.532V239.122H432.069ZM445.744 242.228C445.744 242.608 445.719 242.951 445.67 243.257H437.933C437.994 244.066 438.295 244.715 438.834 245.205C439.373 245.695 440.034 245.94 440.819 245.94C441.946 245.94 442.742 245.469 443.208 244.525H445.468C445.162 245.456 444.604 246.222 443.796 246.822C442.999 247.411 442.007 247.705 440.819 247.705C439.851 247.705 438.981 247.49 438.209 247.061C437.449 246.62 436.849 246.008 436.408 245.224C435.979 244.427 435.764 243.508 435.764 242.467C435.764 241.425 435.973 240.513 436.389 239.728C436.818 238.932 437.412 238.319 438.172 237.891C438.944 237.462 439.826 237.247 440.819 237.247C441.774 237.247 442.626 237.456 443.373 237.872C444.12 238.289 444.702 238.877 445.119 239.636C445.536 240.384 445.744 241.248 445.744 242.228ZM443.557 241.566C443.545 240.794 443.269 240.176 442.73 239.71C442.191 239.244 441.523 239.012 440.727 239.012C440.004 239.012 439.385 239.244 438.87 239.71C438.356 240.163 438.05 240.782 437.951 241.566H443.557ZM459.417 240.978C460.103 241.101 460.685 241.462 461.162 242.062C461.64 242.663 461.879 243.343 461.879 244.102C461.879 244.752 461.708 245.34 461.365 245.867C461.034 246.381 460.55 246.792 459.913 247.098C459.276 247.392 458.534 247.539 457.689 247.539H452.58V234.766H457.45C458.32 234.766 459.067 234.913 459.692 235.207C460.317 235.501 460.789 235.9 461.107 236.402C461.426 236.892 461.585 237.443 461.585 238.056C461.585 238.791 461.389 239.404 460.997 239.894C460.605 240.384 460.078 240.745 459.417 240.978ZM454.675 240.133H457.266C457.952 240.133 458.485 239.98 458.865 239.673C459.257 239.355 459.453 238.901 459.453 238.313C459.453 237.737 459.257 237.29 458.865 236.972C458.485 236.641 457.952 236.475 457.266 236.475H454.675V240.133ZM457.505 245.83C458.216 245.83 458.773 245.658 459.178 245.315C459.582 244.972 459.784 244.495 459.784 243.882C459.784 243.257 459.57 242.761 459.141 242.393C458.712 242.026 458.142 241.842 457.432 241.842H454.675V245.83H457.505ZM463.458 242.43C463.458 241.413 463.666 240.513 464.082 239.728C464.511 238.944 465.087 238.338 465.81 237.909C466.545 237.468 467.354 237.247 468.236 237.247C469.032 237.247 469.725 237.407 470.313 237.725C470.913 238.031 471.391 238.417 471.746 238.883V237.413H473.86V247.539H471.746V246.032C471.391 246.51 470.907 246.908 470.294 247.227C469.682 247.545 468.983 247.705 468.199 247.705C467.329 247.705 466.533 247.484 465.81 247.043C465.087 246.59 464.511 245.965 464.082 245.168C463.666 244.36 463.458 243.447 463.458 242.43ZM471.746 242.467C471.746 241.768 471.599 241.162 471.305 240.647C471.023 240.133 470.65 239.741 470.184 239.471C469.718 239.202 469.216 239.067 468.677 239.067C468.138 239.067 467.636 239.202 467.17 239.471C466.704 239.728 466.325 240.114 466.031 240.629C465.749 241.131 465.608 241.732 465.608 242.43C465.608 243.128 465.749 243.741 466.031 244.268C466.325 244.795 466.704 245.199 467.17 245.481C467.648 245.75 468.15 245.885 468.677 245.885C469.216 245.885 469.718 245.75 470.184 245.481C470.65 245.211 471.023 244.819 471.305 244.305C471.599 243.778 471.746 243.165 471.746 242.467ZM481.721 237.247C482.517 237.247 483.228 237.413 483.853 237.744C484.49 238.074 484.986 238.564 485.341 239.214C485.697 239.863 485.874 240.647 485.874 241.566V247.539H483.798V241.879C483.798 240.972 483.571 240.28 483.118 239.802C482.664 239.312 482.045 239.067 481.261 239.067C480.477 239.067 479.852 239.312 479.387 239.802C478.933 240.28 478.707 240.972 478.707 241.879V247.539H476.612V237.413H478.707V238.571C479.05 238.154 479.485 237.829 480.012 237.597C480.551 237.364 481.12 237.247 481.721 237.247ZM492.553 242.485L497.221 247.539H494.391L490.642 243.184V247.539H488.547V233.939H490.642V241.842L494.318 237.413H497.221L492.553 242.485ZM370.399 272.929H365.051L364.132 275.539H361.945L366.521 262.748H368.947L373.523 275.539H371.318L370.399 272.929ZM369.811 271.22L367.734 265.284L365.639 271.22H369.811ZM374.814 270.467C374.814 269.425 375.023 268.513 375.439 267.728C375.868 266.932 376.456 266.319 377.204 265.891C377.951 265.462 378.809 265.247 379.777 265.247C381.002 265.247 382.013 265.541 382.809 266.129C383.618 266.705 384.163 267.532 384.445 268.611H382.184C382 268.108 381.706 267.716 381.302 267.434C380.898 267.153 380.389 267.012 379.777 267.012C378.919 267.012 378.233 267.318 377.718 267.931C377.216 268.531 376.965 269.376 376.965 270.467C376.965 271.557 377.216 272.409 377.718 273.021C378.233 273.634 378.919 273.94 379.777 273.94C380.99 273.94 381.792 273.407 382.184 272.341H384.445C384.151 273.371 383.599 274.191 382.791 274.804C381.982 275.404 380.977 275.705 379.777 275.705C378.809 275.705 377.951 275.49 377.204 275.061C376.456 274.62 375.868 274.008 375.439 273.224C375.023 272.427 374.814 271.508 374.814 270.467ZM385.834 270.467C385.834 269.425 386.043 268.513 386.459 267.728C386.888 266.932 387.476 266.319 388.223 265.891C388.971 265.462 389.828 265.247 390.796 265.247C392.022 265.247 393.032 265.541 393.829 266.129C394.637 266.705 395.183 267.532 395.464 268.611H393.204C393.02 268.108 392.726 267.716 392.322 267.434C391.917 267.153 391.409 267.012 390.796 267.012C389.939 267.012 389.253 267.318 388.738 267.931C388.236 268.531 387.985 269.376 387.985 270.467C387.985 271.557 388.236 272.409 388.738 273.021C389.253 273.634 389.939 273.94 390.796 273.94C392.009 273.94 392.812 273.407 393.204 272.341H395.464C395.17 273.371 394.619 274.191 393.81 274.804C393.002 275.404 391.997 275.705 390.796 275.705C389.828 275.705 388.971 275.49 388.223 275.061C387.476 274.62 386.888 274.008 386.459 273.224C386.043 272.427 385.834 271.508 385.834 270.467ZM401.945 275.705C400.989 275.705 400.125 275.49 399.354 275.061C398.582 274.62 397.975 274.008 397.534 273.224C397.093 272.427 396.872 271.508 396.872 270.467C396.872 269.438 397.099 268.525 397.552 267.728C398.006 266.932 398.625 266.319 399.409 265.891C400.193 265.462 401.069 265.247 402.037 265.247C403.005 265.247 403.881 265.462 404.665 265.891C405.449 266.319 406.068 266.932 406.521 267.728C406.974 268.525 407.201 269.438 407.201 270.467C407.201 271.496 406.968 272.409 406.503 273.205C406.037 274.002 405.4 274.62 404.591 275.061C403.795 275.49 402.913 275.705 401.945 275.705ZM401.945 273.885C402.484 273.885 402.986 273.756 403.452 273.499C403.93 273.242 404.316 272.856 404.61 272.341C404.904 271.827 405.051 271.202 405.051 270.467C405.051 269.732 404.91 269.113 404.628 268.611C404.346 268.096 403.973 267.71 403.507 267.453C403.041 267.195 402.539 267.067 402 267.067C401.461 267.067 400.959 267.195 400.493 267.453C400.04 267.71 399.678 268.096 399.409 268.611C399.139 269.113 399.004 269.732 399.004 270.467C399.004 271.557 399.28 272.403 399.831 273.003C400.395 273.591 401.099 273.885 401.945 273.885ZM418.443 265.413V275.539H416.348V274.345C416.017 274.761 415.582 275.092 415.043 275.337C414.516 275.57 413.953 275.686 413.352 275.686C412.556 275.686 411.839 275.521 411.202 275.19C410.577 274.859 410.081 274.369 409.713 273.72C409.358 273.07 409.18 272.286 409.18 271.367V265.413H411.257V271.055C411.257 271.962 411.484 272.66 411.937 273.15C412.39 273.628 413.009 273.867 413.793 273.867C414.577 273.867 415.196 273.628 415.65 273.15C416.115 272.66 416.348 271.962 416.348 271.055V265.413H418.443ZM426.317 265.247C427.113 265.247 427.824 265.413 428.448 265.744C429.086 266.074 429.582 266.564 429.937 267.214C430.292 267.863 430.47 268.647 430.47 269.566V275.539H428.393V269.879C428.393 268.972 428.167 268.28 427.713 267.802C427.26 267.312 426.641 267.067 425.857 267.067C425.073 267.067 424.448 267.312 423.983 267.802C423.529 268.28 423.303 268.972 423.303 269.879V275.539H421.207V265.413H423.303V266.571C423.646 266.154 424.081 265.829 424.607 265.597C425.146 265.364 425.716 265.247 426.317 265.247ZM435.587 267.122V272.727C435.587 273.107 435.673 273.383 435.844 273.554C436.028 273.714 436.334 273.793 436.763 273.793H438.05V275.539H436.396C435.452 275.539 434.729 275.319 434.227 274.878C433.725 274.436 433.473 273.72 433.473 272.727V267.122H432.279V265.413H433.473V262.895H435.587V265.413H438.05V267.122H435.587Z" fill="#5A5A5A"/>
<path d="M56.9246 312.125C56.9246 310.875 57.2125 309.754 57.7884 308.762C58.3765 307.769 59.1668 306.998 60.1592 306.446C61.1639 305.883 62.2604 305.601 63.4489 305.601C64.8089 305.601 66.0158 305.938 67.0694 306.612C68.1354 307.273 68.9073 308.217 69.3851 309.442H66.8673C66.5365 308.768 66.077 308.266 65.4889 307.935C64.9008 307.604 64.2208 307.439 63.4489 307.439C62.6035 307.439 61.85 307.629 61.1884 308.008C60.5268 308.388 60.006 308.933 59.6262 309.644C59.2586 310.355 59.0749 311.182 59.0749 312.125C59.0749 313.069 59.2586 313.896 59.6262 314.606C60.006 315.317 60.5268 315.868 61.1884 316.26C61.85 316.64 62.6035 316.83 63.4489 316.83C64.2208 316.83 64.9008 316.665 65.4889 316.334C66.077 316.003 66.5365 315.501 66.8673 314.827H69.3851C68.9073 316.052 68.1354 316.995 67.0694 317.657C66.0158 318.319 64.8089 318.649 63.4489 318.649C62.2482 318.649 61.1516 318.374 60.1592 317.822C59.1668 317.259 58.3765 316.481 57.7884 315.488C57.2125 314.496 56.9246 313.375 56.9246 312.125ZM77.0753 308.247C77.8472 308.247 78.5333 308.413 79.1337 308.744C79.7463 309.074 80.2241 309.564 80.5672 310.214C80.9225 310.863 81.1002 311.647 81.1002 312.566V318.539H79.0234V312.879C79.0234 311.972 78.7967 311.28 78.3434 310.802C77.8901 310.312 77.2713 310.067 76.4872 310.067C75.7031 310.067 75.0782 310.312 74.6126 310.802C74.1593 311.28 73.9326 311.972 73.9326 312.879V318.539H71.8375V304.939H73.9326V309.589C74.2879 309.16 74.7351 308.829 75.2742 308.597C75.8256 308.364 76.4259 308.247 77.0753 308.247ZM88.1651 318.705C87.2094 318.705 86.3456 318.49 85.5737 318.061C84.8018 317.62 84.1953 317.008 83.7543 316.224C83.3132 315.427 83.0926 314.508 83.0926 313.467C83.0926 312.438 83.3193 311.525 83.7726 310.728C84.226 309.932 84.8447 309.319 85.6288 308.891C86.413 308.462 87.289 308.247 88.2569 308.247C89.2249 308.247 90.1009 308.462 90.8851 308.891C91.6692 309.319 92.2879 309.932 92.7413 310.728C93.1946 311.525 93.4213 312.438 93.4213 313.467C93.4213 314.496 93.1885 315.409 92.7229 316.205C92.2573 317.002 91.6202 317.62 90.8115 318.061C90.0151 318.49 89.133 318.705 88.1651 318.705ZM88.1651 316.885C88.7042 316.885 89.2065 316.756 89.6721 316.499C90.1499 316.242 90.5359 315.856 90.8299 315.341C91.124 314.827 91.271 314.202 91.271 313.467C91.271 312.732 91.1301 312.113 90.8483 311.611C90.5665 311.096 90.1928 310.71 89.7272 310.453C89.2616 310.195 88.7593 310.067 88.2202 310.067C87.6811 310.067 87.1788 310.195 86.7132 310.453C86.2598 310.71 85.8984 311.096 85.6288 311.611C85.3593 312.113 85.2245 312.732 85.2245 313.467C85.2245 314.557 85.5002 315.403 86.0515 316.003C86.6151 316.591 87.3197 316.885 88.1651 316.885ZM99.8848 318.705C98.9292 318.705 98.0654 318.49 97.2935 318.061C96.5216 317.62 95.9151 317.008 95.474 316.224C95.033 315.427 94.8124 314.508 94.8124 313.467C94.8124 312.438 95.0391 311.525 95.4924 310.728C95.9457 309.932 96.5645 309.319 97.3486 308.891C98.1328 308.462 99.0088 308.247 99.9767 308.247C100.945 308.247 101.821 308.462 102.605 308.891C103.389 309.319 104.008 309.932 104.461 310.728C104.914 311.525 105.141 312.438 105.141 313.467C105.141 314.496 104.908 315.409 104.443 316.205C103.977 317.002 103.34 317.62 102.531 318.061C101.735 318.49 100.853 318.705 99.8848 318.705ZM99.8848 316.885C100.424 316.885 100.926 316.756 101.392 316.499C101.87 316.242 102.256 315.856 102.55 315.341C102.844 314.827 102.991 314.202 102.991 313.467C102.991 312.732 102.85 312.113 102.568 311.611C102.286 311.096 101.913 310.71 101.447 310.453C100.981 310.195 100.479 310.067 99.94 310.067C99.4009 310.067 98.8985 310.195 98.4329 310.453C97.9796 310.71 97.6182 311.096 97.3486 311.611C97.0791 312.113 96.9443 312.732 96.9443 313.467C96.9443 314.557 97.22 315.403 97.7713 316.003C98.3349 316.591 99.0394 316.885 99.8848 316.885ZM110.888 318.705C110.091 318.705 109.375 318.564 108.738 318.282C108.113 317.988 107.617 317.596 107.249 317.106C106.881 316.603 106.685 316.046 106.661 315.433H108.829C108.866 315.862 109.068 316.224 109.436 316.518C109.816 316.799 110.288 316.94 110.851 316.94C111.439 316.94 111.893 316.83 112.211 316.609C112.542 316.377 112.707 316.083 112.707 315.727C112.707 315.347 112.524 315.066 112.156 314.882C111.801 314.698 111.231 314.496 110.447 314.275C109.687 314.067 109.068 313.865 108.591 313.669C108.113 313.473 107.696 313.173 107.341 312.768C106.998 312.364 106.826 311.831 106.826 311.169C106.826 310.63 106.986 310.14 107.304 309.699C107.623 309.246 108.076 308.891 108.664 308.633C109.264 308.376 109.951 308.247 110.722 308.247C111.874 308.247 112.799 308.541 113.498 309.129C114.208 309.705 114.588 310.496 114.637 311.5H112.542C112.505 311.047 112.321 310.686 111.991 310.416C111.66 310.146 111.213 310.012 110.649 310.012C110.098 310.012 109.675 310.116 109.381 310.324C109.087 310.532 108.94 310.808 108.94 311.151C108.94 311.421 109.038 311.647 109.234 311.831C109.43 312.015 109.669 312.162 109.951 312.272C110.232 312.37 110.649 312.499 111.2 312.658C111.935 312.854 112.536 313.056 113.001 313.265C113.479 313.461 113.89 313.755 114.233 314.147C114.576 314.539 114.753 315.06 114.766 315.709C114.766 316.285 114.606 316.799 114.288 317.253C113.969 317.706 113.516 318.061 112.928 318.319C112.352 318.576 111.672 318.705 110.888 318.705ZM126.311 313.228C126.311 313.608 126.286 313.951 126.237 314.257H118.5C118.561 315.066 118.861 315.715 119.4 316.205C119.939 316.695 120.601 316.94 121.385 316.94C122.512 316.94 123.309 316.469 123.774 315.525H126.035C125.729 316.456 125.171 317.222 124.362 317.822C123.566 318.411 122.574 318.705 121.385 318.705C120.417 318.705 119.547 318.49 118.775 318.061C118.016 317.62 117.415 317.008 116.974 316.224C116.546 315.427 116.331 314.508 116.331 313.467C116.331 312.425 116.539 311.513 116.956 310.728C117.385 309.932 117.979 309.319 118.739 308.891C119.511 308.462 120.393 308.247 121.385 308.247C122.341 308.247 123.192 308.456 123.94 308.872C124.687 309.289 125.269 309.877 125.686 310.636C126.102 311.384 126.311 312.248 126.311 313.228ZM124.124 312.566C124.111 311.794 123.836 311.176 123.297 310.71C122.757 310.244 122.09 310.012 121.293 310.012C120.57 310.012 119.952 310.244 119.437 310.71C118.923 311.163 118.616 311.782 118.518 312.566H124.124ZM146.599 305.766V318.539H144.504V309.791L140.608 318.539H139.156L135.242 309.791V318.539H133.146V305.766H135.407L139.891 315.782L144.357 305.766H146.599ZM158.634 313.228C158.634 313.608 158.61 313.951 158.561 314.257H150.823C150.885 315.066 151.185 315.715 151.724 316.205C152.263 316.695 152.925 316.94 153.709 316.94C154.836 316.94 155.632 316.469 156.098 315.525H158.359C158.052 316.456 157.495 317.222 156.686 317.822C155.89 318.411 154.897 318.705 153.709 318.705C152.741 318.705 151.871 318.49 151.099 318.061C150.339 317.62 149.739 317.008 149.298 316.224C148.869 315.427 148.655 314.508 148.655 313.467C148.655 312.425 148.863 311.513 149.28 310.728C149.708 309.932 150.303 309.319 151.062 308.891C151.834 308.462 152.716 308.247 153.709 308.247C154.665 308.247 155.516 308.456 156.263 308.872C157.011 309.289 157.593 309.877 158.009 310.636C158.426 311.384 158.634 312.248 158.634 313.228ZM156.447 312.566C156.435 311.794 156.159 311.176 155.62 310.71C155.081 310.244 154.413 310.012 153.617 310.012C152.894 310.012 152.275 310.244 151.761 310.71C151.246 311.163 150.94 311.782 150.842 312.566H156.447ZM172.954 308.247C173.751 308.247 174.461 308.413 175.086 308.744C175.723 309.074 176.22 309.564 176.575 310.214C176.943 310.863 177.126 311.647 177.126 312.566V318.539H175.05V312.879C175.05 311.972 174.823 311.28 174.37 310.802C173.916 310.312 173.297 310.067 172.513 310.067C171.729 310.067 171.104 310.312 170.639 310.802C170.185 311.28 169.959 311.972 169.959 312.879V318.539H167.882V312.879C167.882 311.972 167.655 311.28 167.202 310.802C166.749 310.312 166.13 310.067 165.346 310.067C164.562 310.067 163.937 310.312 163.471 310.802C163.018 311.28 162.791 311.972 162.791 312.879V318.539H160.696V308.413H162.791V309.571C163.134 309.154 163.569 308.829 164.096 308.597C164.623 308.364 165.186 308.247 165.787 308.247C166.595 308.247 167.318 308.419 167.955 308.762C168.593 309.105 169.083 309.601 169.426 310.251C169.732 309.638 170.21 309.154 170.859 308.799C171.509 308.431 172.207 308.247 172.954 308.247ZM181.887 309.92C182.243 309.43 182.727 309.031 183.339 308.725C183.964 308.407 184.656 308.247 185.416 308.247C186.31 308.247 187.119 308.462 187.842 308.891C188.565 309.319 189.135 309.932 189.551 310.728C189.968 311.513 190.176 312.413 190.176 313.43C190.176 314.447 189.968 315.36 189.551 316.168C189.135 316.965 188.559 317.59 187.824 318.043C187.101 318.484 186.298 318.705 185.416 318.705C184.632 318.705 183.934 318.551 183.321 318.245C182.721 317.939 182.243 317.547 181.887 317.069V318.539H179.792V304.939H181.887V309.92ZM188.044 313.43C188.044 312.732 187.897 312.131 187.603 311.629C187.321 311.114 186.941 310.728 186.464 310.471C185.998 310.202 185.496 310.067 184.957 310.067C184.43 310.067 183.927 310.202 183.45 310.471C182.984 310.741 182.604 311.133 182.31 311.647C182.028 312.162 181.887 312.768 181.887 313.467C181.887 314.165 182.028 314.778 182.31 315.305C182.604 315.819 182.984 316.211 183.45 316.481C183.927 316.75 184.43 316.885 184.957 316.885C185.496 316.885 185.998 316.75 186.464 316.481C186.941 316.199 187.321 315.795 187.603 315.268C187.897 314.741 188.044 314.128 188.044 313.43ZM201.529 313.228C201.529 313.608 201.504 313.951 201.455 314.257H193.718C193.779 315.066 194.08 315.715 194.619 316.205C195.158 316.695 195.819 316.94 196.604 316.94C197.731 316.94 198.527 316.469 198.993 315.525H201.253C200.947 316.456 200.39 317.222 199.581 317.822C198.784 318.411 197.792 318.705 196.604 318.705C195.636 318.705 194.766 318.49 193.994 318.061C193.234 317.62 192.634 317.008 192.193 316.224C191.764 315.427 191.55 314.508 191.55 313.467C191.55 312.425 191.758 311.513 192.174 310.728C192.603 309.932 193.197 309.319 193.957 308.891C194.729 308.462 195.611 308.247 196.604 308.247C197.559 308.247 198.411 308.456 199.158 308.872C199.906 309.289 200.488 309.877 200.904 310.636C201.321 311.384 201.529 312.248 201.529 313.228ZM199.342 312.566C199.33 311.794 199.054 311.176 198.515 310.71C197.976 310.244 197.308 310.012 196.512 310.012C195.789 310.012 195.17 310.244 194.655 310.71C194.141 311.163 193.835 311.782 193.737 312.566H199.342ZM205.686 309.883C205.992 309.368 206.397 308.97 206.899 308.688C207.414 308.394 208.02 308.247 208.718 308.247V310.416H208.185C207.364 310.416 206.74 310.624 206.311 311.041C205.894 311.457 205.686 312.18 205.686 313.209V318.539H203.591V308.413H205.686V309.883ZM214.32 318.705C213.523 318.705 212.807 318.564 212.17 318.282C211.545 317.988 211.049 317.596 210.681 317.106C210.313 316.603 210.117 316.046 210.093 315.433H212.262C212.298 315.862 212.5 316.224 212.868 316.518C213.248 316.799 213.72 316.94 214.283 316.94C214.871 316.94 215.325 316.83 215.643 316.609C215.974 316.377 216.139 316.083 216.139 315.727C216.139 315.347 215.956 315.066 215.588 314.882C215.233 314.698 214.663 314.496 213.879 314.275C213.119 314.067 212.5 313.865 212.023 313.669C211.545 313.473 211.128 313.173 210.773 312.768C210.43 312.364 210.258 311.831 210.258 311.169C210.258 310.63 210.418 310.14 210.736 309.699C211.055 309.246 211.508 308.891 212.096 308.633C212.696 308.376 213.383 308.247 214.154 308.247C215.306 308.247 216.231 308.541 216.93 309.129C217.64 309.705 218.02 310.496 218.069 311.5H215.974C215.937 311.047 215.753 310.686 215.423 310.416C215.092 310.146 214.645 310.012 214.081 310.012C213.53 310.012 213.107 310.116 212.813 310.324C212.519 310.532 212.372 310.808 212.372 311.151C212.372 311.421 212.47 311.647 212.666 311.831C212.862 312.015 213.101 312.162 213.383 312.272C213.664 312.37 214.081 312.499 214.632 312.658C215.367 312.854 215.968 313.056 216.433 313.265C216.911 313.461 217.322 313.755 217.665 314.147C218.008 314.539 218.185 315.06 218.198 315.709C218.198 316.285 218.038 316.799 217.72 317.253C217.401 317.706 216.948 318.061 216.36 318.319C215.784 318.576 215.104 318.705 214.32 318.705ZM225.699 308.247C226.471 308.247 227.157 308.413 227.758 308.744C228.37 309.074 228.848 309.564 229.191 310.214C229.547 310.863 229.724 311.647 229.724 312.566V318.539H227.647V312.879C227.647 311.972 227.421 311.28 226.968 310.802C226.514 310.312 225.895 310.067 225.111 310.067C224.327 310.067 223.702 310.312 223.237 310.802C222.783 311.28 222.557 311.972 222.557 312.879V318.539H220.462V304.939H222.557V309.589C222.912 309.16 223.359 308.829 223.898 308.597C224.45 308.364 225.05 308.247 225.699 308.247ZM233.463 307.071C233.083 307.071 232.764 306.942 232.507 306.685C232.25 306.428 232.121 306.109 232.121 305.729C232.121 305.35 232.25 305.031 232.507 304.774C232.764 304.517 233.083 304.388 233.463 304.388C233.83 304.388 234.143 304.517 234.4 304.774C234.657 305.031 234.786 305.35 234.786 305.729C234.786 306.109 234.657 306.428 234.4 306.685C234.143 306.942 233.83 307.071 233.463 307.071ZM234.492 308.413V318.539H232.397V308.413H234.492ZM239.338 309.901C239.693 309.436 240.177 309.044 240.79 308.725C241.402 308.407 242.094 308.247 242.866 308.247C243.749 308.247 244.551 308.468 245.274 308.909C246.009 309.338 246.585 309.944 247.001 310.728C247.418 311.513 247.626 312.413 247.626 313.43C247.626 314.447 247.418 315.36 247.001 316.168C246.585 316.965 246.009 317.59 245.274 318.043C244.551 318.484 243.749 318.705 242.866 318.705C242.094 318.705 241.408 318.551 240.808 318.245C240.208 317.927 239.718 317.535 239.338 317.069V323.354H237.243V308.413H239.338V309.901ZM245.494 313.43C245.494 312.732 245.347 312.131 245.053 311.629C244.772 311.114 244.392 310.728 243.914 310.471C243.448 310.202 242.946 310.067 242.407 310.067C241.88 310.067 241.378 310.202 240.9 310.471C240.434 310.741 240.054 311.133 239.76 311.647C239.479 312.162 239.338 312.768 239.338 313.467C239.338 314.165 239.479 314.778 239.76 315.305C240.054 315.819 240.434 316.211 240.9 316.481C241.378 316.75 241.88 316.885 242.407 316.885C242.946 316.885 243.448 316.75 243.914 316.481C244.392 316.199 244.772 315.795 245.053 315.268C245.347 314.741 245.494 314.128 245.494 313.43Z" fill="#5A5A5A"/>
<path d="M369.594 386.16C370.28 386.283 370.862 386.644 371.34 387.244C371.817 387.845 372.056 388.525 372.056 389.284C372.056 389.934 371.885 390.522 371.542 391.049C371.211 391.563 370.727 391.974 370.09 392.28C369.453 392.574 368.711 392.721 367.866 392.721H362.757V379.948H367.627C368.497 379.948 369.244 380.095 369.869 380.389C370.494 380.683 370.966 381.081 371.284 381.584C371.603 382.074 371.762 382.625 371.762 383.238C371.762 383.973 371.566 384.586 371.174 385.076C370.782 385.566 370.255 385.927 369.594 386.16ZM364.852 385.315H367.443C368.129 385.315 368.662 385.161 369.042 384.855C369.434 384.537 369.63 384.083 369.63 383.495C369.63 382.919 369.434 382.472 369.042 382.154C368.662 381.823 368.129 381.657 367.443 381.657H364.852V385.315ZM367.682 391.012C368.393 391.012 368.95 390.84 369.355 390.497C369.759 390.154 369.961 389.676 369.961 389.064C369.961 388.439 369.747 387.943 369.318 387.575C368.889 387.208 368.319 387.024 367.609 387.024H364.852V391.012H367.682ZM383.504 382.595V392.721H381.409V391.526C381.078 391.943 380.643 392.274 380.104 392.519C379.577 392.752 379.013 392.868 378.413 392.868C377.617 392.868 376.9 392.703 376.263 392.372C375.638 392.041 375.142 391.551 374.774 390.902C374.419 390.252 374.241 389.468 374.241 388.549V382.595H376.318V388.237C376.318 389.143 376.545 389.842 376.998 390.332C377.451 390.81 378.07 391.049 378.854 391.049C379.638 391.049 380.257 390.81 380.71 390.332C381.176 389.842 381.409 389.143 381.409 388.237V382.595H383.504ZM387.334 381.253C386.954 381.253 386.636 381.124 386.378 380.867C386.121 380.61 385.993 380.291 385.993 379.911C385.993 379.532 386.121 379.213 386.378 378.956C386.636 378.698 386.954 378.57 387.334 378.57C387.702 378.57 388.014 378.698 388.271 378.956C388.529 379.213 388.657 379.532 388.657 379.911C388.657 380.291 388.529 380.61 388.271 380.867C388.014 381.124 387.702 381.253 387.334 381.253ZM388.363 382.595V392.721H386.268V382.595H388.363ZM393.209 379.121V392.721H391.114V379.121H393.209ZM395.262 387.612C395.262 386.595 395.47 385.694 395.886 384.91C396.315 384.126 396.891 383.52 397.614 383.091C398.349 382.65 399.164 382.429 400.058 382.429C400.72 382.429 401.369 382.576 402.006 382.87C402.656 383.152 403.17 383.532 403.55 384.01V379.121H405.664V392.721H403.55V391.196C403.207 391.686 402.729 392.09 402.117 392.409C401.516 392.727 400.824 392.886 400.04 392.886C399.158 392.886 398.349 392.666 397.614 392.225C396.891 391.772 396.315 391.147 395.886 390.35C395.47 389.542 395.262 388.629 395.262 387.612ZM403.55 387.649C403.55 386.95 403.403 386.344 403.109 385.829C402.827 385.315 402.454 384.923 401.988 384.653C401.522 384.383 401.02 384.249 400.481 384.249C399.942 384.249 399.44 384.383 398.974 384.653C398.508 384.91 398.129 385.296 397.834 385.811C397.553 386.313 397.412 386.914 397.412 387.612C397.412 388.31 397.553 388.923 397.834 389.45C398.129 389.977 398.508 390.381 398.974 390.663C399.452 390.932 399.954 391.067 400.481 391.067C401.02 391.067 401.522 390.932 401.988 390.663C402.454 390.393 402.827 390.001 403.109 389.486C403.403 388.96 403.55 388.347 403.55 387.649ZM422.654 379.948L418.427 388.09V392.721H416.332V388.09L412.087 379.948H414.421L417.38 386.215L420.339 379.948H422.654ZM428.71 392.886C427.754 392.886 426.89 392.672 426.118 392.243C425.346 391.802 424.74 391.19 424.299 390.405C423.858 389.609 423.637 388.69 423.637 387.649C423.637 386.619 423.864 385.707 424.317 384.91C424.77 384.114 425.389 383.501 426.173 383.072C426.957 382.644 427.833 382.429 428.801 382.429C429.769 382.429 430.645 382.644 431.43 383.072C432.214 383.501 432.832 384.114 433.286 384.91C433.739 385.707 433.966 386.619 433.966 387.649C433.966 388.678 433.733 389.591 433.267 390.387C432.802 391.183 432.165 391.802 431.356 392.243C430.56 392.672 429.677 392.886 428.71 392.886ZM428.71 391.067C429.249 391.067 429.751 390.938 430.217 390.681C430.694 390.424 431.08 390.038 431.374 389.523C431.668 389.009 431.815 388.384 431.815 387.649C431.815 386.914 431.675 386.295 431.393 385.792C431.111 385.278 430.737 384.892 430.272 384.635C429.806 384.377 429.304 384.249 428.765 384.249C428.226 384.249 427.723 384.377 427.258 384.635C426.804 384.892 426.443 385.278 426.173 385.792C425.904 386.295 425.769 386.914 425.769 387.649C425.769 388.739 426.045 389.584 426.596 390.185C427.16 390.773 427.864 391.067 428.71 391.067ZM445.208 382.595V392.721H443.113V391.526C442.782 391.943 442.347 392.274 441.808 392.519C441.281 392.752 440.717 392.868 440.117 392.868C439.32 392.868 438.604 392.703 437.967 392.372C437.342 392.041 436.846 391.551 436.478 390.902C436.123 390.252 435.945 389.468 435.945 388.549V382.595H438.022V388.237C438.022 389.143 438.248 389.842 438.702 390.332C439.155 390.81 439.774 391.049 440.558 391.049C441.342 391.049 441.961 390.81 442.414 390.332C442.88 389.842 443.113 389.143 443.113 388.237V382.595H445.208ZM450.067 384.065C450.373 383.55 450.778 383.152 451.28 382.87C451.795 382.576 452.401 382.429 453.1 382.429V384.598H452.567C451.746 384.598 451.121 384.806 450.692 385.223C450.275 385.639 450.067 386.362 450.067 387.391V392.721H447.972V382.595H450.067V384.065ZM468.731 383.752C468.731 384.402 468.578 385.014 468.272 385.59C467.966 386.166 467.476 386.638 466.802 387.005C466.128 387.361 465.264 387.538 464.21 387.538H461.895V392.721H459.8V379.948H464.21C465.19 379.948 466.018 380.12 466.691 380.463C467.378 380.794 467.886 381.247 468.217 381.823C468.56 382.399 468.731 383.042 468.731 383.752ZM464.21 385.829C465.007 385.829 465.601 385.652 465.993 385.296C466.385 384.929 466.581 384.414 466.581 383.752C466.581 382.356 465.791 381.657 464.21 381.657H461.895V385.829H464.21ZM472.825 384.065C473.131 383.55 473.535 383.152 474.038 382.87C474.552 382.576 475.159 382.429 475.857 382.429V384.598H475.324C474.503 384.598 473.878 384.806 473.45 385.223C473.033 385.639 472.825 386.362 472.825 387.391V392.721H470.73V382.595H472.825V384.065ZM482.175 392.886C481.22 392.886 480.356 392.672 479.584 392.243C478.812 391.802 478.206 391.19 477.765 390.405C477.324 389.609 477.103 388.69 477.103 387.649C477.103 386.619 477.33 385.707 477.783 384.91C478.236 384.114 478.855 383.501 479.639 383.072C480.423 382.644 481.299 382.429 482.267 382.429C483.235 382.429 484.111 382.644 484.895 383.072C485.68 383.501 486.298 384.114 486.752 384.91C487.205 385.707 487.432 386.619 487.432 387.649C487.432 388.678 487.199 389.591 486.733 390.387C486.268 391.183 485.631 391.802 484.822 392.243C484.026 392.672 483.143 392.886 482.175 392.886ZM482.175 391.067C482.715 391.067 483.217 390.938 483.682 390.681C484.16 390.424 484.546 390.038 484.84 389.523C485.134 389.009 485.281 388.384 485.281 387.649C485.281 386.914 485.14 386.295 484.859 385.792C484.577 385.278 484.203 384.892 483.738 384.635C483.272 384.377 482.77 384.249 482.231 384.249C481.691 384.249 481.189 384.377 480.724 384.635C480.27 384.892 479.909 385.278 479.639 385.792C479.37 386.295 479.235 386.914 479.235 387.649C479.235 388.739 479.511 389.584 480.062 390.185C480.626 390.773 481.33 391.067 482.175 391.067ZM493.748 384.304H491.874V392.721H489.76V384.304H488.565V382.595H489.76V381.878C489.76 380.714 490.066 379.868 490.679 379.342C491.304 378.803 492.278 378.533 493.601 378.533V380.279C492.964 380.279 492.517 380.401 492.26 380.646C492.002 380.879 491.874 381.29 491.874 381.878V382.595H493.748V384.304ZM496.671 381.253C496.291 381.253 495.973 381.124 495.715 380.867C495.458 380.61 495.329 380.291 495.329 379.911C495.329 379.532 495.458 379.213 495.715 378.956C495.973 378.698 496.291 378.57 496.671 378.57C497.038 378.57 497.351 378.698 497.608 378.956C497.866 379.213 497.994 379.532 497.994 379.911C497.994 380.291 497.866 380.61 497.608 380.867C497.351 381.124 497.038 381.253 496.671 381.253ZM497.7 382.595V392.721H495.605V382.595H497.7ZM502.546 379.121V392.721H500.451V379.121H502.546ZM514.578 387.41C514.578 387.79 514.553 388.133 514.504 388.439H506.767C506.828 389.248 507.128 389.897 507.667 390.387C508.207 390.877 508.868 391.122 509.652 391.122C510.78 391.122 511.576 390.65 512.042 389.707H514.302C513.996 390.638 513.438 391.404 512.63 392.004C511.833 392.592 510.841 392.886 509.652 392.886C508.684 392.886 507.815 392.672 507.043 392.243C506.283 391.802 505.683 391.19 505.242 390.405C504.813 389.609 504.598 388.69 504.598 387.649C504.598 386.607 504.807 385.694 505.223 384.91C505.652 384.114 506.246 383.501 507.006 383.072C507.778 382.644 508.66 382.429 509.652 382.429C510.608 382.429 511.46 382.637 512.207 383.054C512.954 383.471 513.536 384.059 513.953 384.818C514.369 385.566 514.578 386.43 514.578 387.41ZM512.391 386.748C512.378 385.976 512.103 385.357 511.564 384.892C511.025 384.426 510.357 384.194 509.56 384.194C508.838 384.194 508.219 384.426 507.704 384.892C507.19 385.345 506.883 385.964 506.785 386.748H512.391Z" fill="#5A5A5A"/>
<path d="M119.918 461.978C120.604 462.101 121.186 462.462 121.664 463.062C122.142 463.663 122.381 464.343 122.381 465.102C122.381 465.752 122.209 466.34 121.866 466.867C121.535 467.381 121.051 467.792 120.414 468.098C119.777 468.392 119.036 468.539 118.19 468.539H113.081V455.766H117.951C118.821 455.766 119.569 455.913 120.193 456.207C120.818 456.501 121.29 456.9 121.609 457.402C121.927 457.892 122.086 458.443 122.086 459.056C122.086 459.791 121.89 460.404 121.498 460.894C121.106 461.384 120.579 461.745 119.918 461.978ZM115.176 461.133H117.768C118.454 461.133 118.987 460.98 119.366 460.673C119.759 460.355 119.955 459.901 119.955 459.313C119.955 458.737 119.759 458.29 119.366 457.972C118.987 457.641 118.454 457.475 117.768 457.475H115.176V461.133ZM118.006 466.83C118.717 466.83 119.275 466.658 119.679 466.315C120.083 465.972 120.285 465.495 120.285 464.882C120.285 464.257 120.071 463.761 119.642 463.393C119.213 463.026 118.644 462.842 117.933 462.842H115.176V466.83H118.006ZM133.828 458.413V468.539H131.733V467.345C131.402 467.761 130.967 468.092 130.428 468.337C129.901 468.57 129.338 468.686 128.737 468.686C127.941 468.686 127.224 468.521 126.587 468.19C125.962 467.859 125.466 467.369 125.098 466.72C124.743 466.07 124.565 465.286 124.565 464.367V458.413H126.642V464.055C126.642 464.962 126.869 465.66 127.322 466.15C127.775 466.628 128.394 466.867 129.178 466.867C129.962 466.867 130.581 466.628 131.035 466.15C131.5 465.66 131.733 464.962 131.733 464.055V458.413H133.828ZM145.708 458.413L139.496 473.299H137.328L139.386 468.374L135.398 458.413H137.732L140.581 466.132L143.539 458.413H145.708ZM161.932 468.539L160.352 466.959C159.739 467.571 159.072 468.031 158.349 468.337C157.626 468.631 156.817 468.778 155.923 468.778C155.016 468.778 154.214 468.619 153.515 468.3C152.817 467.982 152.278 467.528 151.898 466.94C151.518 466.34 151.328 465.648 151.328 464.864C151.328 463.981 151.579 463.197 152.082 462.511C152.584 461.813 153.331 461.261 154.324 460.857C153.968 460.428 153.717 460.03 153.57 459.662C153.423 459.283 153.35 458.866 153.35 458.413C153.35 457.849 153.491 457.347 153.772 456.906C154.066 456.465 154.483 456.115 155.022 455.858C155.561 455.601 156.186 455.472 156.897 455.472C157.62 455.472 158.232 455.613 158.735 455.895C159.249 456.164 159.629 456.538 159.874 457.016C160.131 457.494 160.235 458.027 160.186 458.615H158.091C158.104 458.162 157.993 457.812 157.761 457.567C157.528 457.31 157.209 457.181 156.805 457.181C156.401 457.181 156.07 457.304 155.812 457.549C155.567 457.782 155.445 458.07 155.445 458.413C155.445 458.744 155.537 459.074 155.721 459.405C155.917 459.724 156.254 460.14 156.731 460.655L160.113 464.018L161.418 461.868H163.678L162.024 464.698L161.565 465.452L164.671 468.539H161.932ZM155.923 466.995C157.074 466.995 158.091 466.524 158.974 465.58L155.592 462.18C154.146 462.756 153.423 463.626 153.423 464.79C153.423 465.415 153.656 465.942 154.122 466.371C154.587 466.787 155.188 466.995 155.923 466.995ZM175.027 468.668C174.169 468.668 173.398 468.521 172.711 468.227C172.025 467.92 171.486 467.492 171.094 466.94C170.702 466.389 170.506 465.746 170.506 465.011H172.748C172.797 465.562 173.012 466.015 173.391 466.371C173.784 466.726 174.329 466.904 175.027 466.904C175.75 466.904 176.314 466.732 176.718 466.389C177.122 466.034 177.324 465.58 177.324 465.029C177.324 464.6 177.196 464.251 176.938 463.981C176.693 463.712 176.381 463.504 176.001 463.356C175.634 463.209 175.119 463.05 174.457 462.879C173.624 462.658 172.944 462.438 172.417 462.217C171.903 461.984 171.462 461.629 171.094 461.151C170.727 460.673 170.543 460.036 170.543 459.24C170.543 458.505 170.727 457.861 171.094 457.31C171.462 456.759 171.976 456.336 172.638 456.042C173.3 455.748 174.065 455.601 174.935 455.601C176.173 455.601 177.184 455.913 177.968 456.538C178.764 457.151 179.205 457.996 179.291 459.074H176.975C176.938 458.609 176.718 458.211 176.314 457.88C175.909 457.549 175.376 457.384 174.715 457.384C174.114 457.384 173.624 457.537 173.244 457.843C172.865 458.149 172.675 458.59 172.675 459.166C172.675 459.558 172.791 459.883 173.024 460.14C173.269 460.385 173.575 460.581 173.943 460.728C174.31 460.875 174.813 461.035 175.45 461.206C176.295 461.439 176.981 461.672 177.508 461.905C178.047 462.137 178.501 462.499 178.868 462.989C179.248 463.467 179.438 464.11 179.438 464.919C179.438 465.568 179.26 466.181 178.905 466.756C178.562 467.332 178.053 467.798 177.38 468.153C176.718 468.496 175.934 468.668 175.027 468.668ZM191.191 463.228C191.191 463.608 191.167 463.951 191.118 464.257H183.38C183.442 465.066 183.742 465.715 184.281 466.205C184.82 466.695 185.482 466.94 186.266 466.94C187.393 466.94 188.189 466.469 188.655 465.525H190.915C190.609 466.456 190.052 467.222 189.243 467.822C188.447 468.411 187.454 468.705 186.266 468.705C185.298 468.705 184.428 468.49 183.656 468.061C182.896 467.62 182.296 467.008 181.855 466.224C181.426 465.427 181.212 464.508 181.212 463.467C181.212 462.425 181.42 461.513 181.837 460.728C182.265 459.932 182.86 459.319 183.619 458.891C184.391 458.462 185.273 458.247 186.266 458.247C187.221 458.247 188.073 458.456 188.82 458.872C189.568 459.289 190.15 459.877 190.566 460.636C190.983 461.384 191.191 462.248 191.191 463.228ZM189.004 462.566C188.992 461.794 188.716 461.176 188.177 460.71C187.638 460.244 186.97 460.012 186.174 460.012C185.451 460.012 184.832 460.244 184.318 460.71C183.803 461.163 183.497 461.782 183.399 462.566H189.004ZM195.348 454.939V468.539H193.253V454.939H195.348ZM200.194 454.939V468.539H198.099V454.939H200.194ZM224.351 455.766L220.565 468.539H218.194L215.511 458.872L212.663 468.539L210.31 468.558L206.69 455.766H208.913L211.56 466.168L214.427 455.766H216.779L219.444 466.113L222.109 455.766H224.351ZM227.145 457.071C226.765 457.071 226.447 456.942 226.189 456.685C225.932 456.428 225.803 456.109 225.803 455.729C225.803 455.35 225.932 455.031 226.189 454.774C226.447 454.517 226.765 454.388 227.145 454.388C227.513 454.388 227.825 454.517 228.082 454.774C228.34 455.031 228.468 455.35 228.468 455.729C228.468 456.109 228.34 456.428 228.082 456.685C227.825 456.942 227.513 457.071 227.145 457.071ZM228.174 458.413V468.539H226.079V458.413H228.174ZM233.369 460.122V465.727C233.369 466.107 233.455 466.383 233.627 466.554C233.81 466.714 234.117 466.793 234.546 466.793H235.832V468.539H234.178C233.235 468.539 232.512 468.319 232.009 467.878C231.507 467.436 231.256 466.72 231.256 465.727V460.122H230.061V458.413H231.256V455.895H233.369V458.413H235.832V460.122H233.369ZM243.001 458.247C243.773 458.247 244.459 458.413 245.059 458.744C245.672 459.074 246.15 459.564 246.493 460.214C246.848 460.863 247.026 461.647 247.026 462.566V468.539H244.949V462.879C244.949 461.972 244.722 461.28 244.269 460.802C243.816 460.312 243.197 460.067 242.413 460.067C241.629 460.067 241.004 460.312 240.538 460.802C240.085 461.28 239.858 461.972 239.858 462.879V468.539H237.763V454.939H239.858V459.589C240.213 459.16 240.661 458.829 241.2 458.597C241.751 458.364 242.352 458.247 243.001 458.247ZM142.909 489.978C143.595 490.101 144.177 490.462 144.655 491.062C145.132 491.663 145.371 492.343 145.371 493.102C145.371 493.752 145.2 494.34 144.857 494.867C144.526 495.381 144.042 495.792 143.405 496.098C142.768 496.392 142.027 496.539 141.181 496.539H136.072V483.766H140.942C141.812 483.766 142.559 483.913 143.184 484.207C143.809 484.501 144.281 484.9 144.599 485.402C144.918 485.892 145.077 486.443 145.077 487.056C145.077 487.791 144.881 488.404 144.489 488.894C144.097 489.384 143.57 489.745 142.909 489.978ZM138.167 489.133H140.758C141.445 489.133 141.978 488.98 142.357 488.673C142.749 488.355 142.945 487.901 142.945 487.313C142.945 486.737 142.749 486.29 142.357 485.972C141.978 485.641 141.445 485.475 140.758 485.475H138.167V489.133ZM140.997 494.83C141.708 494.83 142.265 494.658 142.67 494.315C143.074 493.972 143.276 493.495 143.276 492.882C143.276 492.257 143.062 491.761 142.633 491.393C142.204 491.026 141.634 490.842 140.924 490.842H138.167V494.83H140.997ZM146.95 491.43C146.95 490.413 147.158 489.513 147.575 488.728C148.003 487.944 148.579 487.338 149.302 486.909C150.037 486.468 150.846 486.247 151.728 486.247C152.525 486.247 153.217 486.407 153.805 486.725C154.405 487.031 154.883 487.417 155.238 487.883V486.413H157.352V496.539H155.238V495.032C154.883 495.51 154.399 495.908 153.787 496.227C153.174 496.545 152.476 496.705 151.691 496.705C150.821 496.705 150.025 496.484 149.302 496.043C148.579 495.59 148.003 494.965 147.575 494.168C147.158 493.36 146.95 492.447 146.95 491.43ZM155.238 491.467C155.238 490.768 155.091 490.162 154.797 489.647C154.516 489.133 154.142 488.741 153.676 488.471C153.211 488.202 152.708 488.067 152.169 488.067C151.63 488.067 151.128 488.202 150.662 488.471C150.197 488.728 149.817 489.114 149.523 489.629C149.241 490.131 149.1 490.732 149.1 491.43C149.1 492.128 149.241 492.741 149.523 493.268C149.817 493.795 150.197 494.199 150.662 494.481C151.14 494.75 151.642 494.885 152.169 494.885C152.708 494.885 153.211 494.75 153.676 494.481C154.142 494.211 154.516 493.819 154.797 493.305C155.091 492.778 155.238 492.165 155.238 491.467ZM162.199 487.883C162.505 487.368 162.91 486.97 163.412 486.688C163.926 486.394 164.533 486.247 165.231 486.247V488.416H164.698C163.877 488.416 163.253 488.624 162.824 489.041C162.407 489.457 162.199 490.18 162.199 491.209V496.539H160.104V486.413H162.199V487.883ZM169.601 488.122V493.727C169.601 494.107 169.687 494.383 169.859 494.554C170.043 494.714 170.349 494.793 170.778 494.793H172.064V496.539H170.41C169.467 496.539 168.744 496.319 168.241 495.878C167.739 495.436 167.488 494.72 167.488 493.727V488.122H166.293V486.413H167.488V483.895H169.601V486.413H172.064V488.122H169.601ZM183.276 491.228C183.276 491.608 183.252 491.951 183.203 492.257H175.465C175.527 493.066 175.827 493.715 176.366 494.205C176.905 494.695 177.567 494.94 178.351 494.94C179.478 494.94 180.274 494.469 180.74 493.525H183.001C182.694 494.456 182.137 495.222 181.328 495.822C180.532 496.411 179.539 496.705 178.351 496.705C177.383 496.705 176.513 496.49 175.741 496.061C174.982 495.62 174.381 495.008 173.94 494.224C173.511 493.427 173.297 492.508 173.297 491.467C173.297 490.425 173.505 489.513 173.922 488.728C174.351 487.932 174.945 487.319 175.704 486.891C176.476 486.462 177.358 486.247 178.351 486.247C179.307 486.247 180.158 486.456 180.905 486.872C181.653 487.289 182.235 487.877 182.651 488.636C183.068 489.384 183.276 490.248 183.276 491.228ZM181.089 490.566C181.077 489.794 180.801 489.176 180.262 488.71C179.723 488.244 179.055 488.012 178.259 488.012C177.536 488.012 176.917 488.244 176.403 488.71C175.888 489.163 175.582 489.782 175.484 490.566H181.089ZM187.433 487.883C187.74 487.368 188.144 486.97 188.646 486.688C189.161 486.394 189.767 486.247 190.466 486.247V488.416H189.933C189.112 488.416 188.487 488.624 188.058 489.041C187.642 489.457 187.433 490.18 187.433 491.209V496.539H185.338V486.413H187.433V487.883ZM196.467 490.125C196.467 488.875 196.755 487.754 197.331 486.762C197.919 485.769 198.709 484.998 199.702 484.446C200.706 483.883 201.803 483.601 202.992 483.601C204.352 483.601 205.558 483.938 206.612 484.612C207.678 485.273 208.45 486.217 208.928 487.442H206.41C206.079 486.768 205.62 486.266 205.032 485.935C204.443 485.604 203.763 485.439 202.992 485.439C202.146 485.439 201.393 485.629 200.731 486.008C200.069 486.388 199.549 486.933 199.169 487.644C198.801 488.355 198.617 489.182 198.617 490.125C198.617 491.069 198.801 491.896 199.169 492.606C199.549 493.317 200.069 493.868 200.731 494.26C201.393 494.64 202.146 494.83 202.992 494.83C203.763 494.83 204.443 494.665 205.032 494.334C205.62 494.003 206.079 493.501 206.41 492.827H208.928C208.45 494.052 207.678 494.995 206.612 495.657C205.558 496.319 204.352 496.649 202.992 496.649C201.791 496.649 200.694 496.374 199.702 495.822C198.709 495.259 197.919 494.481 197.331 493.488C196.755 492.496 196.467 491.375 196.467 490.125ZM215.772 496.705C214.817 496.705 213.953 496.49 213.181 496.061C212.409 495.62 211.803 495.008 211.362 494.224C210.921 493.427 210.7 492.508 210.7 491.467C210.7 490.438 210.927 489.525 211.38 488.728C211.833 487.932 212.452 487.319 213.236 486.891C214.02 486.462 214.896 486.247 215.864 486.247C216.832 486.247 217.708 486.462 218.492 486.891C219.277 487.319 219.895 487.932 220.349 488.728C220.802 489.525 221.029 490.438 221.029 491.467C221.029 492.496 220.796 493.409 220.33 494.205C219.865 495.002 219.228 495.62 218.419 496.061C217.623 496.49 216.74 496.705 215.772 496.705ZM215.772 494.885C216.312 494.885 216.814 494.756 217.28 494.499C217.757 494.242 218.143 493.856 218.437 493.341C218.731 492.827 218.878 492.202 218.878 491.467C218.878 490.732 218.738 490.113 218.456 489.611C218.174 489.096 217.8 488.71 217.335 488.453C216.869 488.195 216.367 488.067 215.828 488.067C215.289 488.067 214.786 488.195 214.321 488.453C213.867 488.71 213.506 489.096 213.236 489.611C212.967 490.113 212.832 490.732 212.832 491.467C212.832 492.557 213.108 493.403 213.659 494.003C214.223 494.591 214.927 494.885 215.772 494.885ZM224.166 485.071C223.786 485.071 223.467 484.942 223.21 484.685C222.953 484.428 222.824 484.109 222.824 483.729C222.824 483.35 222.953 483.031 223.21 482.774C223.467 482.517 223.786 482.388 224.166 482.388C224.533 482.388 224.846 482.517 225.103 482.774C225.36 483.031 225.489 483.35 225.489 483.729C225.489 484.109 225.36 484.428 225.103 484.685C224.846 484.942 224.533 485.071 224.166 485.071ZM225.195 486.413V496.539H223.1V486.413H225.195ZM233.055 486.247C233.851 486.247 234.562 486.413 235.187 486.744C235.824 487.074 236.32 487.564 236.675 488.214C237.031 488.863 237.208 489.647 237.208 490.566V496.539H235.132V490.879C235.132 489.972 234.905 489.28 234.452 488.802C233.998 488.312 233.38 488.067 232.595 488.067C231.811 488.067 231.186 488.312 230.721 488.802C230.267 489.28 230.041 489.972 230.041 490.879V496.539H227.946V486.413H230.041V487.571C230.384 487.154 230.819 486.829 231.346 486.597C231.885 486.364 232.455 486.247 233.055 486.247ZM243.557 496.705C242.76 496.705 242.043 496.564 241.406 496.282C240.781 495.988 240.285 495.596 239.918 495.106C239.55 494.603 239.354 494.046 239.329 493.433H241.498C241.535 493.862 241.737 494.224 242.105 494.518C242.484 494.799 242.956 494.94 243.52 494.94C244.108 494.94 244.561 494.83 244.88 494.609C245.211 494.377 245.376 494.083 245.376 493.727C245.376 493.347 245.192 493.066 244.825 492.882C244.469 492.698 243.9 492.496 243.115 492.275C242.356 492.067 241.737 491.865 241.259 491.669C240.781 491.473 240.365 491.173 240.009 490.768C239.666 490.364 239.495 489.831 239.495 489.169C239.495 488.63 239.654 488.14 239.973 487.699C240.291 487.246 240.745 486.891 241.333 486.633C241.933 486.376 242.619 486.247 243.391 486.247C244.543 486.247 245.468 486.541 246.166 487.129C246.877 487.705 247.257 488.496 247.306 489.5H245.211C245.174 489.047 244.99 488.686 244.659 488.416C244.328 488.146 243.881 488.012 243.318 488.012C242.766 488.012 242.344 488.116 242.049 488.324C241.755 488.532 241.608 488.808 241.608 489.151C241.608 489.421 241.706 489.647 241.902 489.831C242.099 490.015 242.337 490.162 242.619 490.272C242.901 490.37 243.318 490.499 243.869 490.658C244.604 490.854 245.204 491.056 245.67 491.265C246.148 491.461 246.558 491.755 246.901 492.147C247.244 492.539 247.422 493.06 247.434 493.709C247.434 494.285 247.275 494.799 246.957 495.253C246.638 495.706 246.185 496.061 245.597 496.319C245.021 496.576 244.341 496.705 243.557 496.705Z" fill="#5A5A5A"/>
<line x1="284.693" y1="24.7487" x2="267.781" y2="24.7487" stroke="#00A5DF" stroke-width="0.835379"/>
<ellipse cx="267.036" cy="24.3311" rx="3.60253" ry="3.45765" fill="#00A5DF"/>
<line x1="341.333" y1="95.3105" x2="324.422" y2="95.3104" stroke="#00A5DF" stroke-width="0.835379"/>
<line x1="341.333" y1="240.666" x2="324.422" y2="240.666" stroke="#00A5DF" stroke-width="0.835379"/>
<line x1="341.333" y1="386.022" x2="324.422" y2="386.022" stroke="#00A5DF" stroke-width="0.835379"/>
<ellipse cx="344.428" cy="95.009" rx="3.60253" ry="3.45765" fill="#00A5DF"/>
<ellipse cx="344.428" cy="240.365" rx="3.60253" ry="3.45765" fill="#00A5DF"/>
<ellipse cx="344.428" cy="385.721" rx="3.60253" ry="3.45765" fill="#00A5DF"/>
<line x1="283.322" y1="168.105" x2="266.41" y2="168.105" stroke="#00A5DF" stroke-width="0.835379"/>
<ellipse cx="265.665" cy="167.687" rx="3.60253" ry="3.45765" fill="#00A5DF"/>
<line x1="283.322" y1="314.296" x2="266.41" y2="314.296" stroke="#00A5DF" stroke-width="0.835379"/>
<ellipse cx="265.665" cy="313.878" rx="3.60253" ry="3.45765" fill="#00A5DF"/>
<line x1="285.865" y1="459.652" x2="268.953" y2="459.652" stroke="#00A5DF" stroke-width="0.835379"/>
<ellipse cx="268.208" cy="459.234" rx="3.60253" ry="3.45765" fill="#00A5DF"/>
<defs>
<filter id="filter0_b_831_549" x="276.488" y="70.4608" width="55.6077" height="55.6077" filterUnits="userSpaceOnUse" color-interpolation-filters="sRGB">
<feFlood flood-opacity="0" result="BackgroundImageFix"/>
<feGaussianBlur in="BackgroundImageFix" stdDeviation="2"/>
<feComposite in2="SourceAlpha" operator="in" result="effect1_backgroundBlur_831_549"/>
<feBlend mode="normal" in="SourceGraphic" in2="effect1_backgroundBlur_831_549" result="shape"/>
</filter>
<filter id="filter1_b_831_549" x="280.699" y="74.9402" width="47.1882" height="47.1884" filterUnits="userSpaceOnUse" color-interpolation-filters="sRGB">
<feFlood flood-opacity="0" result="BackgroundImageFix"/>
<feGaussianBlur in="BackgroundImageFix" stdDeviation="2"/>
<feComposite in2="SourceAlpha" operator="in" result="effect1_backgroundBlur_831_549"/>
<feBlend mode="normal" in="SourceGraphic" in2="effect1_backgroundBlur_831_549" result="shape"/>
</filter>
<filter id="filter2_b_831_549" x="276.488" y="142.461" width="55.6077" height="55.6077" filterUnits="userSpaceOnUse" color-interpolation-filters="sRGB">
<feFlood flood-opacity="0" result="BackgroundImageFix"/>
<feGaussianBlur in="BackgroundImageFix" stdDeviation="2"/>
<feComposite in2="SourceAlpha" operator="in" result="effect1_backgroundBlur_831_549"/>
<feBlend mode="normal" in="SourceGraphic" in2="effect1_backgroundBlur_831_549" result="shape"/>
</filter>
<filter id="filter3_b_831_549" x="280.699" y="146.94" width="47.1882" height="47.1883" filterUnits="userSpaceOnUse" color-interpolation-filters="sRGB">
<feFlood flood-opacity="0" result="BackgroundImageFix"/>
<feGaussianBlur in="BackgroundImageFix" stdDeviation="2"/>
<feComposite in2="SourceAlpha" operator="in" result="effect1_backgroundBlur_831_549"/>
<feBlend mode="normal" in="SourceGraphic" in2="effect1_backgroundBlur_831_549" result="shape"/>
</filter>
<filter id="filter4_b_831_549" x="276.488" y="215.461" width="55.6077" height="55.6077" filterUnits="userSpaceOnUse" color-interpolation-filters="sRGB">
<feFlood flood-opacity="0" result="BackgroundImageFix"/>
<feGaussianBlur in="BackgroundImageFix" stdDeviation="2"/>
<feComposite in2="SourceAlpha" operator="in" result="effect1_backgroundBlur_831_549"/>
<feBlend mode="normal" in="SourceGraphic" in2="effect1_backgroundBlur_831_549" result="shape"/>
</filter>
<filter id="filter5_b_831_549" x="280.699" y="219.94" width="47.1882" height="47.1884" filterUnits="userSpaceOnUse" color-interpolation-filters="sRGB">
<feFlood flood-opacity="0" result="BackgroundImageFix"/>
<feGaussianBlur in="BackgroundImageFix" stdDeviation="2"/>
<feComposite in2="SourceAlpha" operator="in" result="effect1_backgroundBlur_831_549"/>
<feBlend mode="normal" in="SourceGraphic" in2="effect1_backgroundBlur_831_549" result="shape"/>
</filter>
<filter id="filter6_b_831_549" x="276.488" y="288.461" width="55.6077" height="55.6077" filterUnits="userSpaceOnUse" color-interpolation-filters="sRGB">
<feFlood flood-opacity="0" result="BackgroundImageFix"/>
<feGaussianBlur in="BackgroundImageFix" stdDeviation="2"/>
<feComposite in2="SourceAlpha" operator="in" result="effect1_backgroundBlur_831_549"/>
<feBlend mode="normal" in="SourceGraphic" in2="effect1_backgroundBlur_831_549" result="shape"/>
</filter>
<filter id="filter7_b_831_549" x="280.699" y="292.94" width="47.1882" height="47.1884" filterUnits="userSpaceOnUse" color-interpolation-filters="sRGB">
<feFlood flood-opacity="0" result="BackgroundImageFix"/>
<feGaussianBlur in="BackgroundImageFix" stdDeviation="2"/>
<feComposite in2="SourceAlpha" operator="in" result="effect1_backgroundBlur_831_549"/>
<feBlend mode="normal" in="SourceGraphic" in2="effect1_backgroundBlur_831_549" result="shape"/>
</filter>
<filter id="filter8_b_831_549" x="276.488" y="361.461" width="55.6077" height="55.6077" filterUnits="userSpaceOnUse" color-interpolation-filters="sRGB">
<feFlood flood-opacity="0" result="BackgroundImageFix"/>
<feGaussianBlur in="BackgroundImageFix" stdDeviation="2"/>
<feComposite in2="SourceAlpha" operator="in" result="effect1_backgroundBlur_831_549"/>
<feBlend mode="normal" in="SourceGraphic" in2="effect1_backgroundBlur_831_549" result="shape"/>
</filter>
<filter id="filter9_b_831_549" x="280.699" y="365.94" width="47.1882" height="47.1884" filterUnits="userSpaceOnUse" color-interpolation-filters="sRGB">
<feFlood flood-opacity="0" result="BackgroundImageFix"/>
<feGaussianBlur in="BackgroundImageFix" stdDeviation="2"/>
<feComposite in2="SourceAlpha" operator="in" result="effect1_backgroundBlur_831_549"/>
<feBlend mode="normal" in="SourceGraphic" in2="effect1_backgroundBlur_831_549" result="shape"/>
</filter>
<filter id="filter10_b_831_549" x="276.488" y="434.461" width="55.6077" height="55.6077" filterUnits="userSpaceOnUse" color-interpolation-filters="sRGB">
<feFlood flood-opacity="0" result="BackgroundImageFix"/>
<feGaussianBlur in="BackgroundImageFix" stdDeviation="2"/>
<feComposite in2="SourceAlpha" operator="in" result="effect1_backgroundBlur_831_549"/>
<feBlend mode="normal" in="SourceGraphic" in2="effect1_backgroundBlur_831_549" result="shape"/>
</filter>
<filter id="filter11_b_831_549" x="280.699" y="438.94" width="47.1882" height="47.1884" filterUnits="userSpaceOnUse" color-interpolation-filters="sRGB">
<feFlood flood-opacity="0" result="BackgroundImageFix"/>
<feGaussianBlur in="BackgroundImageFix" stdDeviation="2"/>
<feComposite in2="SourceAlpha" operator="in" result="effect1_backgroundBlur_831_549"/>
<feBlend mode="normal" in="SourceGraphic" in2="effect1_backgroundBlur_831_549" result="shape"/>
</filter>
<filter id="filter12_b_831_549" x="276.488" y="-3.53918" width="55.6077" height="55.6077" filterUnits="userSpaceOnUse" color-interpolation-filters="sRGB">
<feFlood flood-opacity="0" result="BackgroundImageFix"/>
<feGaussianBlur in="BackgroundImageFix" stdDeviation="2"/>
<feComposite in2="SourceAlpha" operator="in" result="effect1_backgroundBlur_831_549"/>
<feBlend mode="normal" in="SourceGraphic" in2="effect1_backgroundBlur_831_549" result="shape"/>
</filter>
<filter id="filter13_b_831_549" x="280.699" y="0.940247" width="47.1882" height="47.1884" filterUnits="userSpaceOnUse" color-interpolation-filters="sRGB">
<feFlood flood-opacity="0" result="BackgroundImageFix"/>
<feGaussianBlur in="BackgroundImageFix" stdDeviation="2"/>
<feComposite in2="SourceAlpha" operator="in" result="effect1_backgroundBlur_831_549"/>
<feBlend mode="normal" in="SourceGraphic" in2="effect1_backgroundBlur_831_549" result="shape"/>
</filter>
</defs>
</svg>
