<svg width="699" height="720" viewBox="0 0 699 720" fill="none" xmlns="http://www.w3.org/2000/svg">
<path d="M146.923 50.2092V45.9341L154.87 49.1404H161.115L162.818 53.4155L171.333 55.0186H174.739L177.009 61.4313V67.3095L178.712 70.5158L180.983 69.4471L186.092 73.7222V76.9285H188.363L190.633 80.1348L196.31 83.3411L194.039 89.7537H198.581L202.554 91.8913L208.231 97.7695V99.9071L203.122 97.7695L199.716 93.4944L196.878 94.5632H193.472L192.904 96.7008L189.498 97.7695L187.227 99.9071L182.686 103.648L180.415 102.045V112.732H176.442L173.603 115.939H169.062L166.791 118.611L164.521 115.939H154.87L152.032 114.336V107.923H145.787V105.785L142.381 100.441L137.84 96.7008L134.434 92.9601L138.408 89.7537V84.4099L134.434 83.3411V77.9973L138.408 75.8597L140.111 72.6534H132.731L132.163 68.3783L134.434 67.3095V63.5688H129.325V57.6906H134.434L135.569 54.4843H137.84L140.111 50.2092H146.923Z" fill="white" stroke="#375DBB"/>
<path d="M222.99 102.909L224.11 101.282L228.029 102.909L230.828 107.246V109.956H233.627H238.666L243.704 117.546V120.798L244.824 124.593L248.183 127.304L249.862 130.014L248.183 134.351L250.982 138.146L248.183 144.109L251.542 145.735L253.221 147.362H250.982L249.862 149.53H245.943L239.785 147.362L237.546 148.988H233.627L229.708 151.699L226.909 155.493L225.23 159.83L225.789 163.083L226.909 166.336L225.789 167.962L224.11 169.046L222.99 171.214L217.952 170.13H215.712L212.353 166.336L211.234 161.999L204.516 158.204L200.597 155.493V151.156L197.238 146.277H187.721V139.23L184.362 134.351L183.802 131.641L179.883 127.304H177.084V120.798H179.883L182.123 116.461L181.003 113.209V101.825L183.802 103.993L190.52 98.0297L193.319 96.9455L194.439 94.7771H197.238L200.037 93.6929L203.396 98.0297L208.435 100.198L212.353 102.909H222.99Z" fill="white" stroke="#375DBB"/>
<path d="M173.597 116.316L175.864 113.073H180.399L181.532 116.856L179.265 120.64H176.431V127.665H179.265L183.799 131.989V134.691L187.2 139.015V146.041H196.836L200.237 150.905L200.804 155.769L204.204 157.931L201.37 159.552L202.504 164.416L204.771 169.28V171.442H201.37L197.97 176.847L194.002 179.008L191.168 177.927L188.334 181.17V184.413L186.067 186.575L183.233 187.656H170.763L167.362 189.277L165.662 191.979L163.961 188.736L162.261 184.413L159.427 183.872L156.026 182.791H150.358L148.091 183.872L144.69 182.791H137.321L132.787 179.008V170.361L138.455 163.335L149.224 153.607V143.339L146.39 136.313L153.192 128.206L158.86 124.963L165.095 122.261L166.795 119.559L169.063 116.316H173.597Z" fill="white" stroke="#375DBB"/>
<path d="M226.86 172.787L223.459 170.648V168.35L225.726 167.439L226.86 165.834L225.159 162.625V159.416L226.86 155.137L230.26 151.394L234.228 148.719H238.762L239.895 147.115L246.696 148.719H250.097L251.797 147.115H253.498L258.599 142.836L259.732 144.44L260.866 148.719L266.533 153.533L269.934 156.207L278.435 156.742L280.702 157.277L282.403 161.021L284.67 162.625L286.937 166.904L296.005 169.044L298.272 170.648L301.673 174.392V175.997L299.406 179.206L296.005 180.275L294.872 183.484L291.471 185.624L289.204 188.833V191.507V194.181L286.937 197.391V202.204L285.803 204.878L282.403 207.553V211.831L280.702 213.436L277.869 211.831H273.334L269.367 209.157L267.667 210.762L264.833 209.157L260.866 204.878H257.465L253.498 202.204L251.797 199.53L253.498 196.321L250.097 194.181L245.563 190.437L243.296 187.763L241.596 183.484L236.495 181.88V187.763L234.228 190.437H229.127L226.86 187.763L227.993 181.88V180.275L229.127 177.066V174.392L226.86 172.787Z" fill="white" stroke="#375DBB"/>
<path d="M201.796 159.139L204.63 158.063L210.864 161.828L213.131 166.131L215.965 169.896L218.799 169.358L222.767 170.972V173.661L219.933 175.813L218.799 177.964L215.399 181.191L213.698 182.805L213.131 186.57L210.864 188.721L209.731 191.948V195.713L211.998 197.865V205.933L210.864 209.16L213.698 211.849L215.965 214V220.455L218.799 223.144L221.066 229.06V232.287L219.933 236.59L218.232 238.204L215.965 237.666L213.131 239.28L208.597 242.507L205.197 239.28V232.287L203.496 228.522L201.796 229.06L200.663 232.287L198.396 233.901L193.295 228.522V232.287L188.761 233.901L187.06 239.28L183.66 236.59V228.522L179.692 223.682L176.858 219.379L173.458 215.076V210.773L171.191 208.084L170.057 203.781V200.554H162.689L157.022 197.865L154.755 195.713V198.403H150.787L149.087 195.713V191.948L147.387 186.57L144.553 182.805L149.087 183.881L150.787 182.805H156.455L159.855 183.881L162.689 184.418L164.39 189.259L166.09 191.948L167.79 189.259L171.191 187.645H183.66L187.06 186.57L188.761 184.418V181.191L191.594 177.964L194.428 179.04L198.396 176.888L201.796 171.51H205.197V169.358L202.93 164.518L201.796 159.139Z" fill="white" stroke="#375DBB"/>
<path d="M162.759 201.583H170.685V204.274V209.117L173.516 211.807V216.112L176.913 219.341L178.611 223.108L183.706 228.489V237.637L187.669 239.79L189.368 234.408L193.331 233.332V228.489L198.426 234.408L200.691 233.332L201.823 229.565H203.521L204.654 233.332V239.79L208.05 243.018L212.58 240.866L216.543 244.094V247.861L219.939 252.166V255.933L222.204 258.085L218.241 261.314L216.543 265.081L218.241 266.157L228.998 261.314H230.696L235.225 262.929V266.157L230.696 269.924H228.998L226.733 273.153H224.468L219.939 275.305H214.844L212.58 279.61H210.315L208.05 282.301L201.823 284.991L199.558 288.22L196.728 289.834L195.595 294.139L196.728 297.368L198.426 299.52L202.955 301.673L212.58 301.135L214.844 299.52H218.241V308.13H208.05L204.654 308.668V311.359L203.521 314.588L204.654 318.355H210.315L208.617 321.045L206.352 324.812H204.654V332.884L199.558 331.807L196.728 329.655H186.537V331.807V335.036L183.14 336.65V339.341H172.95V336.65L178.611 335.036V323.736H183.14L178.611 318.355L174.648 316.74H168.421L164.458 314.588L165.59 312.435L163.325 310.283L159.929 313.511L157.098 314.588L155.399 322.121V330.731L158.796 333.96V345.26L157.098 347.951L151.436 349.565L149.172 351.718V353.332L151.436 354.946H153.701V357.637L149.172 360.866H142.378V358.713H140.68L137.849 354.946L134.452 353.332L130.489 349.565L123.13 345.26L120.865 340.955V336.65H117.468L114.071 333.96L115.77 330.731V327.503L114.071 324.812H98.7855L94.8225 322.121L92.558 318.355L88.0289 319.969H73.8754L69.3463 318.355L63.6849 319.969V316.74L61.4203 312.435V309.207L54.6266 302.749V294.139H52.9282L46.1345 293.063L41.0393 288.22V271.538L38.2086 269.924H33.1133L28.5842 267.233L26.8858 264.543V257.009L30.2826 254.857L33.1133 249.476L38.2086 245.709L39.3409 243.556L41.0393 237.637L46.1345 235.485L48.9652 231.718L52.9282 233.87L56.8912 237.637L58.0235 241.404H63.6849L67.6478 237.637H82.9336L84.632 231.718L88.0289 227.413H89.7273L94.8225 216.112L98.7855 213.96L103.881 210.193L107.278 209.117L110.108 205.888L112.373 199.431L115.204 195.664L116.902 190.283V187.054L123.696 181.673L128.791 179.521H133.32L137.849 183.825H144.643L147.474 188.13L149.172 192.973V195.664L151.436 199.431H154.833V195.664L157.664 199.431L162.759 201.583Z" fill="white" stroke="#375DBB"/>
<path d="M63.2486 323.505V319.724L70.0092 318.644L73.3895 319.724H88.6009L91.9812 318.644L94.2347 321.344L97.615 324.585H113.39L115.08 327.826V331.067L113.953 333.768L117.333 337.008H120.15V340.789L122.967 346.191L130.291 349.432L134.235 353.213L137.615 355.373L140.432 359.154H142.122V361.855L146.629 366.716L144.939 369.957H142.122L138.742 372.118V374.818V388.322H134.798L129.164 392.103V395.344L133.108 396.964H138.742L134.798 399.125L133.108 402.906L129.164 406.146H125.221L122.967 407.767L130.855 410.468V418.03L129.164 420.73H125.221L121.277 419.65L120.15 423.971V431.533H113.953L110.009 428.832L106.066 429.913V434.234H102.122L104.376 427.752L106.066 420.73L108.883 418.03L106.066 413.168V410.468L102.122 407.767V399.125L106.025 396.942L100.995 394.263L102.122 388.322H97.615V384.001L99.8685 381.84H94.2347V388.322H90.8544V392.103L94.2347 395.344V399.125L90.8544 406.146L83.5304 410.468L77.8966 411.548L70.0092 415.869L63.2486 418.03H57.6147L54.2344 415.869L49.164 411.548L45.2203 410.468L42.4034 406.146L36.2062 402.906L30.5723 396.964L27.192 395.344L25.5019 390.482H22.1216L19.3046 385.621L15.361 381.84V376.979L19.3046 374.278L22.1216 376.979H25.5019L28.8822 374.278L32.2625 374.818L38.4597 374.278L45.2203 369.957L46.9105 364.015L50.2908 361.855L52.5443 359.154L46.9105 360.234L45.2203 361.855H40.7132L33.3892 364.015L30.5723 366.716H27.192L22.1216 364.015H19.3046L13.6708 361.855L10.8539 358.074L5.78344 354.293L2.40313 350.512L1.27637 346.191V342.41L5.78344 340.789L7.47359 335.388V332.147L9.16374 327.826L27.192 328.366L30.5723 332.147H33.3892H38.4597L40.7132 329.987L45.2203 328.366H49.164L50.2908 326.206H51.4175V329.987H57.6147L60.4317 327.826L63.2486 323.505Z" fill="white"/>
<path d="M63.2486 319.724V323.505L60.4317 327.826L57.6147 329.987H51.4175V326.206H50.2908L49.164 328.366H45.2203L40.7132 329.987L38.4597 332.147H33.3892H30.5723L27.192 328.366L9.16374 327.826L7.47359 332.147V335.388L5.78344 340.789L1.27637 342.41V346.191L2.40313 350.512L5.78344 354.293L10.8539 358.074L13.6708 361.855L19.3046 364.015H22.1216L27.192 366.716H30.5723L33.3892 364.015L40.7132 361.855H45.2203L46.9105 360.234L52.5443 359.154L50.2908 361.855L46.9105 364.015L45.2203 369.957L38.4597 374.278L32.2625 374.818L28.8822 374.278L25.5019 376.979H22.1216L19.3046 374.278L15.361 376.979V381.84L19.3046 385.621L22.1216 390.482H25.5019L27.192 395.344L30.5723 396.964L36.2062 402.906L42.4034 406.146L45.2203 410.468L49.164 411.548L54.2344 415.869L57.6147 418.03H63.2486L70.0092 415.869L77.8966 411.548L83.5304 410.468L90.8544 406.146L94.2347 399.125V395.344L90.8544 392.103V388.322H94.2347V381.84H99.8685L97.615 384.001V388.322H102.122L100.995 394.263L106.066 396.964L108.883 395.344L102.122 399.125V407.767L106.066 410.468V413.168L108.883 418.03L106.066 420.73L104.376 427.752L102.122 434.234H106.066V429.913L110.009 428.832L113.953 431.533H120.15V423.971L121.277 419.65L125.221 420.73H129.164L130.855 418.03V410.468L122.967 407.767L125.221 406.146H129.164L133.108 402.906L134.798 399.125L138.742 396.964H133.108L129.164 395.344V392.103L134.798 388.322H138.742V374.818V372.118L142.122 369.957H144.939L146.629 366.716L142.122 361.855V359.154H140.432L137.615 355.373L134.235 353.213L130.291 349.432L122.967 346.191L120.15 340.789V337.008H117.333L113.953 333.768L115.08 331.067V327.826L113.39 324.585H97.615L94.2347 321.344L91.9812 318.644L88.6009 319.724H73.3895L70.0092 318.644L63.2486 319.724Z" stroke="#375DBB"/>
<path d="M228.786 174.991L222.543 171.214L221.976 173.912L219.138 176.071L218.003 178.229L212.896 183.085L212.329 186.862L210.059 189.02L208.924 192.258V196.035L211.194 198.193V206.287L210.059 209.524L215.166 214.38V220.855L218.003 223.553L220.273 229.488V232.726L219.138 237.042L217.436 238.661L215.166 238.121L211.194 240.28L215.733 244.057L216.301 247.834L219.138 252.15V255.927L221.408 258.086L217.436 261.323L215.733 265.1L218.003 266.179L227.651 261.323H229.921L233.893 262.942H235.595L243.54 266.179L246.378 265.64L252.052 267.258L256.592 272.115V278.589L254.322 279.669V283.985L250.917 289.381L248.647 294.237H245.81L244.108 298.014H239.568L237.298 299.633V303.41L239.568 305.028L240.135 309.345L237.865 311.503H236.163V314.741L237.298 316.899V324.453L240.703 325.532L242.973 327.691L246.378 330.388L249.215 330.928L251.485 329.309H254.322V324.993L252.052 320.676H250.35L248.647 316.36L248.08 313.662L245.243 309.345V303.41L248.647 301.791L252.052 300.172H254.322V305.568L256.592 306.647L262.835 306.108L266.807 309.345H273.617L275.887 306.108L278.724 305.028L279.859 303.41H287.236V309.345H290.074L294.046 307.726H300.288L299.153 311.503L300.288 313.662H304.828L305.963 312.583L309.936 307.726L316.745 308.266L319.583 309.345L322.42 312.043L326.393 313.662L330.365 314.741L335.472 319.057H343.417L346.255 321.216L346.822 340.101H356.469L358.739 336.324L361.009 333.086L362.144 329.309L363.846 327.151L362.144 324.453V323.374H364.981L365.549 319.057L363.279 316.36L360.442 314.741L359.874 311.503V308.266L362.712 304.489L364.414 302.87L368.386 301.791L370.089 300.172L373.494 298.554L376.331 296.395L378.601 294.237L380.871 293.697L384.276 294.777L389.383 293.697L391.653 291.539L388.248 288.841L384.843 287.762L380.871 285.064L378.601 282.906V281.287L377.466 279.129H380.303V276.971L377.466 274.273L375.196 272.654L378.601 269.417H384.276V264.561L377.466 259.165L372.926 251.611V249.992H368.386L366.116 248.373L361.009 247.834V249.452L359.307 251.611L357.604 248.373L346.822 247.834L346.255 244.057L345.12 241.898H335.472L332.635 237.042H326.393L319.015 234.884L315.043 232.726L308.233 227.33L302.558 224.093L299.153 220.316L295.181 218.157H290.641L286.669 216.538L282.129 212.761L280.426 214.38L277.589 212.761H273.049L269.077 210.064L267.374 211.682L263.969 209.524L261.132 205.747H257.16L253.187 203.049L251.485 200.351L253.187 197.114L250.35 195.495L245.243 191.179L242.973 188.481L241.27 184.164L236.163 182.545V188.481L233.893 191.179H228.786L226.516 188.481L227.651 183.085V180.927L228.786 177.689V174.991Z" fill="white" stroke="#375DBB"/>
<path d="M143.184 387.86H140.365H139.801V372.157L143.184 369.992H146.004L147.696 366.743L143.184 361.87V360.787H149.387L153.899 357.538V354.83H151.643L149.387 353.206V351.582L151.643 349.416L157.282 347.791L158.974 345.084V333.713L155.59 330.464V321.801L157.282 314.221L160.102 313.138L163.485 309.889L165.741 312.055L164.613 314.221L168.56 316.386H175.327L178.711 318.011L183.222 323.425H178.711V334.796L173.071 336.421V338.586L183.222 339.128L183.786 336.421L186.605 334.796V329.382H196.756L199.575 331.547L204.65 332.63V324.508H206.342L210.29 318.011H204.65L203.523 314.221L204.65 310.972V308.264L208.034 307.723H218.184V299.059H214.801L212.545 300.684L202.959 301.225L198.447 299.059L196.756 296.894L195.628 293.645L196.756 289.313L199.575 287.689L201.831 284.44L208.034 281.733L210.29 279.025H212.545L214.801 274.693H219.876L224.387 272.528H226.643L228.899 269.279H230.59L235.102 265.489V262.24H236.229L244.124 265.489L246.944 264.947L252.583 266.571L257.094 271.445V277.942L254.838 279.025V283.357L251.455 288.772L249.199 293.645H246.38L244.688 297.435H240.177L237.921 299.059V302.85L240.177 304.474L240.741 308.806L238.485 310.972H236.793V314.221L237.921 316.386V323.967L241.305 325.05L243.56 327.216L246.944 329.923L249.763 330.464L252.019 328.84H254.838V324.508L252.583 320.177H250.891L249.199 315.845L248.635 313.138L245.816 308.806V302.85L252.583 299.601H254.838V305.016L257.094 306.099L263.297 305.557L267.244 308.806H274.011L276.267 305.557L279.087 304.474L280.214 302.85H287.545V308.806H290.365L294.312 307.181H300.515L299.387 310.972L300.515 313.138H305.026L310.102 307.181L316.869 307.723L319.688 308.806L322.508 311.513L326.455 313.138L330.402 314.221L335.478 318.552H343.372L346.192 320.718L346.756 340.752L342.808 342.377H329.275L327.583 341.294L325.327 339.669H320.252L319.124 345.626V349.416H325.327L328.711 352.123H330.402L333.222 354.289V356.996L328.711 360.787L325.327 364.577L322.508 364.035L321.944 369.992L319.124 371.074L316.305 373.24L315.741 375.406H310.102L308.41 376.489L306.718 379.738V381.362L304.463 385.153H302.207L300.515 387.318V392.192L298.26 393.816V401.397L294.312 403.021L293.748 401.397L290.365 399.772L286.981 395.44H281.906V398.148L276.831 397.065L275.703 394.899L272.884 396.523H270.064L267.808 393.275L266.681 393.816H262.733L259.914 394.899L253.147 397.065L248.635 398.148H246.38L244.688 396.523H240.741L237.357 398.148L235.666 401.397L230.59 402.48H226.643L221.004 400.855L217.62 399.772L221.004 396.523V393.816H211.981L205.214 394.899L204.65 398.148L201.267 401.397L200.139 406.27L192.244 406.811L189.989 408.977L186.605 406.27L184.914 401.397L183.222 402.48H172.508L166.868 399.772H163.485L160.665 396.523L154.462 394.899L149.387 393.816L146.004 390.026V385.694L143.184 387.86Z" fill="white" stroke="#375DBB"/>
<path d="M376.194 249.505H372.805V251.12L377.324 258.657L384.102 264.041V268.886H378.454L375.065 272.116L377.324 273.731L380.148 275.884V278.576H377.324L378.454 280.729V282.344L380.713 284.498L384.667 287.19L388.621 288.266L391.445 290.958L389.185 293.111L384.102 294.188L380.713 293.111L378.454 293.65L376.194 295.803L373.37 297.956L369.981 299.571L368.287 301.187L364.333 302.263L362.639 303.878L359.814 307.647V311.415L360.379 314.107L363.203 315.722L365.463 318.952L364.898 322.72H374.5L376.759 320.567L378.454 321.644L381.843 324.335L386.361 325.95L387.491 329.719H391.445L394.269 324.874L396.528 322.72L398.787 327.027H401.047L406.13 324.335H413.473L416.862 322.182V316.798H423.075L427.029 319.49L428.723 322.72L431.547 324.874L433.807 328.104L436.066 327.565L437.196 325.95V324.874L438.89 320.567L443.409 321.105H447.363L449.622 318.952V311.953L458.094 306.032L459.789 303.878H467.131V299.033L472.215 297.956L474.474 295.265L473.909 293.65L469.391 290.42L467.131 287.728V286.113L475.604 280.729L476.734 275.884H478.428L479.558 273.193L476.734 268.886L472.215 273.193L469.391 274.269H459.224L456.965 275.884L450.187 274.269L447.927 270.501H445.668L443.409 274.269H441.714L436.066 270.501H434.936L424.77 267.809L421.381 270.501L417.427 268.886V265.117L414.603 262.964L412.343 265.117L409.519 265.656H405.001V265.117L401.047 262.964L399.352 260.811L397.093 261.349L392.01 258.119L390.315 255.427L390.88 251.659H388.621L381.278 247.352L378.454 247.89L376.194 249.505Z" fill="white" stroke="#375DBB"/>
<path d="M103.023 441.99V434.424H106.972V430.1L110.921 429.019L114.87 431.722H121.075V424.155L122.204 419.832L126.153 420.913H130.101L131.794 418.21V410.644L123.896 407.942L126.153 406.32H130.101L134.05 403.078L135.743 399.294L139.692 397.133H134.05L130.101 395.511V392.269L135.743 388.485H139.692V387.945H143.64L145.897 385.783V390.107L149.282 393.89L160.564 396.592L163.385 399.835H166.77L172.411 402.537H183.129L184.822 401.456L186.514 406.32L189.899 409.023L192.156 406.861L200.053 406.32L201.182 401.456L204.566 398.214L205.13 394.971L211.9 393.89H220.926V396.592L217.541 399.835L226.567 402.537H230.516L235.593 401.456L237.286 398.214L240.671 396.592H244.619L246.312 398.214H248.568L262.672 393.89H266.62L267.749 393.35L270.005 396.592H272.826L275.646 394.971L276.775 397.133L281.852 398.214V395.511H286.929L290.314 399.835L293.699 401.456L294.827 404.699L288.621 410.104L291.442 414.427L292.006 417.67L290.314 420.913L294.827 423.615V428.479H290.314V431.722H293.134V433.883L290.314 436.045V439.288L293.699 441.45L298.212 446.854V452.259H293.699L292.006 450.097H290.314L289.186 453.34V458.744L286.929 460.366V468.472L284.108 467.932H281.288L279.031 465.77V461.987L277.903 459.285V452.799L279.031 451.718L277.903 449.016L275.082 445.233H272.826V447.935H268.877L266.62 446.854L262.672 445.773L262.107 444.152H258.159L257.03 445.233H254.21L252.517 442.531L250.261 439.828H244.055L240.106 438.747V444.692L237.85 450.097V452.259L235.029 453.88L229.952 452.259L228.824 453.34L226.003 459.285L229.952 464.149V465.77L227.131 467.932L226.003 469.553L223.747 471.715L221.49 472.796L220.926 476.039H217.541L216.977 474.958L215.849 473.877L214.157 474.417L211.336 478.2L208.515 480.362H205.13L204.002 482.524V486.848H201.746L200.053 491.171H193.284L191.591 495.495V499.278H189.335L184.822 498.197L182.565 499.278L175.796 497.116H174.103L172.411 500.359L174.103 503.061V508.466H165.641L163.949 511.168H161.128L159.436 509.547L156.051 511.168L154.923 514.411L150.974 515.492V519.275L148.154 517.653H144.769L142.512 519.275V523.058L144.769 526.301H148.154L147.589 532.246L145.897 533.867L141.384 540.352H134.05L132.358 542.514L130.666 543.595L128.409 539.812L125.024 535.488V530.084L122.768 527.922L121.075 524.139V518.734L119.383 514.411V511.708L118.255 506.304V503.061L116.562 499.278V496.035L114.306 492.252V489.009L112.049 485.226L112.613 482.524L109.793 477.12V470.634L106.972 468.472V449.016L103.023 441.99Z" fill="white" stroke="#375DBB"/>
<path d="M131.59 542.32L129.891 543.413L129.325 546.692H131.59V548.331L133.289 552.156L134.988 554.342V558.167L137.253 560.899L138.952 558.713H140.651L141.784 557.62V542.32L140.651 540.134H133.289L131.59 542.32Z" fill="white" stroke="#375DBB"/>
<path d="M137.632 561.77V560.69L139.319 558.528H141.006L142.131 556.907V542.316L141.568 539.614L145.505 533.67L147.192 532.049L147.755 526.105H144.38L142.131 522.862V519.08L144.38 517.458H147.755L150.567 519.08V515.297L154.503 514.216L155.628 510.974L159.002 509.353L160.689 510.974H163.501L165.188 508.272H173.624V502.868L171.937 500.166L173.624 496.924H175.311L182.06 499.085L184.309 498.004L188.808 499.085H191.058V495.303L192.745 490.979H199.493L201.181 486.656H203.43V482.333L204.555 480.172H207.929L210.741 478.01L213.553 474.227L215.24 473.687L216.365 474.768L216.927 475.849H219.739L220.301 478.01V486.656L219.739 488.278L219.177 492.601L221.988 495.303L220.864 496.924L220.301 498.545L216.927 500.166L216.365 502.328L216.927 505.03V513.676L216.365 519.08H214.115V522.322H216.365L220.301 523.943V528.266L219.177 531.509L216.365 532.589H210.741L209.616 533.67V541.236L207.929 544.478V547.72L210.179 550.422L210.741 553.665L207.367 555.286L201.181 554.745L202.305 557.988L203.43 560.149L201.181 562.851V566.093L202.305 567.715L203.43 570.417L204.555 570.957V576.361L205.68 573.659L209.616 573.119H212.99L216.365 573.659V579.603H210.741L209.616 576.361H207.367L205.68 577.982L205.117 580.144L206.804 581.765V585.007L207.367 586.628L211.303 586.088L214.678 582.846L219.177 586.088L225.363 583.386L227.612 582.846L229.862 583.386H232.111L232.674 585.547L233.798 588.249L236.048 589.33H239.422L241.109 592.573V596.896H245.608V597.976L242.234 601.759V606.623L238.86 607.163L236.048 609.325L232.674 607.163H229.862L226.488 606.623L225.363 608.244L223.676 611.486H220.301L220.864 616.89L219.177 619.052V622.294L224.238 623.915V626.617V629.319L218.614 629.859L217.489 631.48H209.054L205.117 633.102L202.868 636.344H199.493L196.681 633.102H192.745L190.495 631.48H187.121L184.309 629.859L179.248 628.238L177.561 625.536L173.062 623.375L170.25 620.132L166.875 617.43L164.626 614.188L156.753 609.865L155.066 605.542H153.941V597.436L152.816 593.653V589.33L151.129 586.088V584.467L147.755 581.765V574.74L144.38 573.119V568.795L140.444 563.392L137.632 561.77Z" fill="white" stroke="#375DBB"/>
<path d="M158.268 613.794L157.704 610.042L165.036 614.33L167.292 617.546L170.675 620.226L173.495 623.442L178.007 625.586L180.263 628.266L184.775 629.874L187.595 631.482H190.979L193.235 633.09L194.363 636.841L190.979 638.985L192.671 643.273H196.055L197.183 647.025L200.566 647.561L202.258 651.313L201.694 655.065L203.95 659.888V663.64L205.642 666.856L208.462 668.464L211.282 666.856H212.974L213.538 670.608V681.328L214.666 685.615L218.614 686.151L217.486 689.903L213.538 691.511V694.191L211.282 698.479L212.974 702.231V704.375L213.538 706.519V710.806L211.282 714.558L206.77 710.806L203.95 706.519H201.694L200.566 702.231L197.183 697.407L194.363 694.191V689.367L192.671 686.151V684.543H194.363L192.671 677.04V674.896L190.979 673.288L189.287 667.928L186.467 663.64V662.032L184.775 657.209L181.391 655.065L180.263 650.777V647.561L175.187 640.057L172.367 633.09H170.112L166.728 628.802L164.472 623.978L158.268 613.794Z" fill="white" stroke="#375DBB"/>
<path d="M475.941 257.042L471.943 254.367L473.085 251.693V245.275L474.799 243.136V240.461L475.941 236.183L478.796 236.717L481.08 235.113L485.648 233.508H492.5V239.392L494.785 240.996L493.642 245.275V252.228L492.5 253.833L490.787 254.902L485.077 255.437L482.793 257.042H475.941Z" fill="white" stroke="#375DBB"/>
<path d="M569.368 247.629V263.378L573.907 260.662L580.148 261.205L582.985 258.49H588.658L593.197 261.205H607.948L609.082 259.576L613.621 259.033L614.756 254.689L617.025 253.059L617.592 249.801L623.833 245.456L627.805 245.999L630.641 241.655H634.045L635.18 240.025L641.421 239.482L644.258 237.31H648.796L652.2 236.767L654.47 233.509H661.278L663.547 235.681L661.278 241.655V245.999L662.98 249.801V253.059L659.008 252.516L653.902 253.602L651.066 256.861L648.796 257.404L646.527 260.662L647.094 268.809L653.902 265.55L659.008 261.749L666.384 254.689L671.49 253.059H675.461L680 251.973L682.837 253.059L684.539 254.689L686.808 255.232L689.078 257.947H691.347V253.059L688.51 250.887L687.376 248.172L686.808 243.827L688.51 241.112L691.347 238.396L694.184 237.853L697.588 235.681V228.621L696.453 225.905L693.049 224.276L690.78 224.819H687.376L686.808 221.561L684.539 221.018L682.837 218.845L681.135 218.302L676.596 219.932L677.163 217.759L678.865 215.587V212.872L676.596 207.984L673.192 205.269L672.057 204.182L673.192 200.381L672.057 199.295H669.788L669.221 198.208H660.71L660.143 199.295L657.306 200.381L655.604 202.553L651.633 203.639L648.796 205.812L644.258 205.269L641.421 203.639H638.017L635.747 201.467L629.507 200.381L626.103 201.467L625.535 206.898L621.564 210.156L618.16 213.415L613.621 213.958L612.486 215.587L606.813 217.216L603.409 216.673L601.707 218.302L596.033 221.561V223.733H592.629L592.062 226.449L588.091 230.25L585.821 230.793V234.595L582.417 237.853L575.042 238.939H573.34L569.368 240.569H564.83L561.426 238.939L559.156 244.37L561.426 247.629H569.368Z" fill="white" stroke="#375DBB"/>
<path d="M644.239 260.503H646.495L647.059 268.66L644.239 270.292V272.467L641.983 275.73L644.239 282.256L646.495 284.976L643.111 288.782L641.419 289.87L640.855 293.677L638.599 294.221L636.908 296.94L635.216 299.115L634.088 299.659L632.396 300.747V297.484L630.704 295.852H628.448L626.192 296.94L623.372 298.572H621.116L616.604 296.94H613.22L610.964 298.572V302.922L607.581 306.185H602.505L604.761 302.378V300.203L601.377 298.572L602.505 294.221L605.889 292.046L609.272 288.239L612.656 289.326L616.604 285.519L618.86 281.713L619.988 279.537L623.372 274.643L627.32 271.924H628.448L635.216 265.941L644.239 260.503Z" fill="white" stroke="#375DBB"/>
<path d="M601.619 307.068L602.742 305.995H607.793L611.16 302.776V298.485L613.405 296.876H616.772L621.262 298.485H624.068L628.557 295.803H630.802L632.486 297.412V300.094L630.802 305.995L634.731 308.677L635.292 309.75L633.608 314.578L631.925 316.723L630.802 318.869L628.557 321.015L626.313 324.77L625.19 329.061L622.945 332.279V334.962L621.823 338.716H616.211L613.966 337.644H610.038L606.109 337.107H603.864L601.619 336.034V334.425H593.763V323.697L597.13 319.942V314.578L598.813 312.432L600.497 309.75L601.619 307.068Z" fill="white" stroke="#375DBB"/>
<path d="M591.099 325.565L593.345 326.646V334.211H601.207V335.832L603.453 336.913L602.33 338.534V346.64L603.453 350.963V358.528L602.33 360.149L598.961 361.23L597.276 363.391L596.153 365.553V373.118L597.276 376.112V380.683L592.222 384.466L591.66 387.167L586.606 384.466H584.922L584.36 385.546H582.675V380.143V375.82L581.552 375.279V369.876L578.744 363.932L577.621 360.149V353.124L576.498 350.963L574.813 346.64L573.69 345.019L577.06 339.615V335.832L578.183 332.59L580.429 330.429L586.045 328.808L587.729 326.646L591.099 325.565Z" fill="white" stroke="#375DBB"/>
<path d="M361.646 329.519L360.506 333.28H363.357L365.068 334.892V338.653L371.91 345.639V347.788H374.761V353.161L376.472 356.385L378.753 360.147L382.745 362.296H385.025V366.595L380.464 368.744L376.472 370.893V375.729L377.613 376.267L387.306 379.491L391.298 377.341L399.281 375.729L403.273 376.267V379.491L400.992 383.252L403.273 385.401H406.124L408.405 384.326L415.247 383.252L416.958 385.401L423.23 386.476L425.511 383.252V376.267L426.652 374.655H430.643L432.924 377.341L439.767 379.491L442.618 381.103L444.329 378.953V376.267L440.907 370.893L436.345 368.744L434.635 366.595V365.52L436.345 364.445V362.296H430.643L426.652 360.147L423.23 357.997V349.937L425.511 347.788H426.652L428.362 349.937L431.784 349.4L434.065 347.788L436.345 345.639H440.907L442.618 342.952L444.329 340.265L448.89 338.116L450.031 340.265L454.022 342.415L455.733 341.34V335.967H460.295L462.006 332.743H463.146L464.857 330.593V328.444H467.138V324.683L468.278 322.533L470.559 321.996V315.548L467.708 310.175V304.801H460.295L458.584 306.951L450.031 312.861V320.384L447.75 321.996L443.758 321.459H439.767L437.486 325.757V326.832L436.345 328.444H434.065L431.784 325.757L428.933 323.608L427.222 320.384L423.23 317.697H416.958V323.608L412.966 325.757H406.124L400.992 328.444H398.711L396.43 323.608L393.579 325.757L391.298 330.593H387.306L386.166 327.369L380.464 324.683L376.472 321.459L374.191 323.608H361.646V324.683L363.357 327.369L361.646 329.519Z" fill="white" stroke="#375DBB"/>
<path d="M564.208 263.256H569.86L574.381 260.552L580.597 261.092L583.423 258.388H589.074L593.595 261.092H608.289L609.419 259.47L613.94 258.929L615.07 254.602L617.331 252.979L617.896 249.734L624.112 245.407L628.068 245.948L630.894 241.621H634.285L635.415 239.999L641.631 239.458L644.457 237.294H648.978L652.369 236.753L654.629 233.508H661.411L663.672 235.672L661.411 241.621V245.948L663.106 249.734V252.979L659.716 252.439L654.064 253.52L651.239 256.766L648.978 257.306L646.718 260.552H644.457L635.415 265.96L629.198 271.369H628.068L624.112 274.073L620.156 280.564L616.766 285.431L612.81 289.217L609.419 288.136L606.028 291.922L602.637 294.085L602.072 298.412L604.898 300.035V302.198L602.072 307.066L600.377 309.77L599.246 312.475L596.986 314.638V320.047L593.595 323.833V327.078L591.335 325.996L587.944 327.078L586.814 329.242L580.032 330.864L578.337 332.487L576.076 326.537L572.12 323.833L573.816 318.965V315.72L575.511 314.638H577.771H580.032V312.475L577.771 311.393V310.852L587.379 304.362V302.198L585.683 301.657L582.293 295.708L576.076 291.922L573.816 291.381V287.054L577.771 284.35H564.208L560.817 286.513L559.122 289.217L556.296 289.758L554.601 291.381H551.21L549.515 289.758L544.429 287.595H541.603L537.082 286.513H526.344L523.519 287.054L522.388 288.136L519.563 291.381V294.626L517.867 294.085L516.737 291.922V288.136L514.477 284.35L512.781 281.645L514.477 280.023H516.172V274.614L518.433 272.992V269.746L516.172 267.583L515.607 265.96L522.388 266.501L525.779 263.256H529.735L533.691 264.879L560.252 265.419L564.208 263.256Z" fill="white" stroke="#375DBB"/>
<path d="M518.356 295.913L519.478 294.293V291.054L523.408 286.735L526.215 286.195H536.88L541.371 287.275H544.178L549.23 289.434L550.353 291.054H554.282L555.966 289.434L558.773 288.895L560.457 286.195L563.825 284.036H577.298L573.368 286.735V291.054L575.614 291.594L581.789 295.373L585.157 301.312L586.841 301.852V304.011L577.298 311.03L573.368 309.95L571.123 306.171H564.948L559.335 307.79H554.282L551.476 305.631H546.423L543.617 306.711L540.248 306.171L536.319 307.251H527.899L524.531 305.091L522.846 305.631L518.356 304.551L516.672 303.471L515.549 300.772L518.356 298.073V295.913Z" fill="white" stroke="#375DBB"/>
<path d="M234.866 40.8615H222.445V38.1644L220.186 34.3884L214.541 32.7701L210.024 30.0729L208.33 26.2969L204.378 22.521L198.732 20.3632L194.215 16.0478L190.263 15.5084L186.311 9.57469L181.23 6.33812V0.943848L178.971 0.943848L173.89 2.56213H171.067L167.115 0.943848H163.163L159.21 2.56213H143.966V6.33812H129.852L130.981 9.57469L127.029 16.0478L123.077 15.5084L119.124 19.8238L116.866 26.2969L123.077 30.0729L130.981 30.6124L133.239 36.0066L141.144 38.1644V40.8615L144.531 41.4009L147.354 45.1769L155.823 48.9529H162.033L163.163 53.2683L171.067 54.8866H175.019L177.842 60.8203V66.2146L178.971 69.9906L181.23 68.9117L186.311 72.6877V75.9243H188.569L190.828 79.7003L196.474 82.3974L194.215 89.41H198.732L202.119 91.0283L208.33 97.5014V99.6591L212.282 102.356H219.057H222.445L224.139 100.738L227.526 102.356L230.914 106.132V108.829L233.737 109.908L239.383 108.829V109.908L243.899 112.066L247.287 114.763L250.674 109.908V115.842H258.579L260.837 114.763H263.095L265.918 109.908V92.6466H259.708L254.062 89.41L255.191 85.0946L256.32 82.3974L255.191 79.7003L254.062 74.8454H265.918L267.612 68.9117V64.5963H272.129V62.978V59.7415H278.339L280.598 56.5049V50.5712L282.292 44.0981V40.8615L278.339 38.1644V36.5461H273.823L271 35.4672L265.918 31.1518L263.095 26.2969H255.191L249.545 32.7701L234.866 40.8615Z" fill="white" stroke="#375DBB"/>
<path d="M472.471 258.444L471.342 254.121L475.293 256.823H482.067L484.324 255.202L489.404 254.662L491.098 253.581L492.791 258.444L495.613 261.146V263.307H506.902L510.288 266.009H514.804L515.368 267.63L517.626 269.791V273.034L515.368 274.655V280.058H513.675L511.982 281.679L510.288 282.219L509.16 286.542H508.595L505.209 285.461L501.257 282.76L498.435 280.598V277.356L496.178 275.195H494.484V278.437H492.791L489.404 276.816L483.76 277.356L475.293 285.461V288.163L478.68 290.865L480.938 291.946L482.631 296.268L486.582 300.051L489.969 299.51L492.791 301.672L495.613 304.914L495.049 306.535H489.969L484.889 307.616L482.067 309.777L481.502 311.938L474.164 316.802V321.124L475.293 323.286L477.551 325.447L479.809 326.528L482.067 328.149H488.84V333.552L489.969 335.714V337.875L487.711 340.036L484.889 341.657V343.819L486.582 347.061L487.146 348.142L489.969 349.763L490.533 354.085L495.049 359.489L493.355 364.352V367.594L495.613 371.376V379.482L497.871 383.804V385.966L494.484 387.046L497.871 390.289V398.934L494.484 396.773H487.711V390.829H487.146L484.889 396.773H480.938L477.551 394.071L475.293 390.829V386.506L477.551 383.804L474.164 381.643L471.342 375.699L470.778 377.32V379.482L473.036 382.724L473.6 384.345V386.506L471.907 389.208L470.213 391.369L462.876 395.152L461.182 395.692L460.053 394.611L458.925 392.45L457.796 391.369H454.409L451.587 387.046L446.507 384.345L441.991 381.103L443.685 378.941V376.24L440.298 370.836L435.783 368.675L434.089 366.513V365.433L435.783 363.812V362.191H430.138L422.801 357.868V349.763L425.058 347.601H426.187L427.881 349.763L431.267 349.222L433.525 347.601L435.783 345.44H440.298L443.685 340.036L448.2 337.875L449.329 340.036L453.28 342.198L454.974 341.117V335.714H459.489L461.182 332.472H462.311L464.005 330.31V328.149H466.262V324.907L467.391 322.205L469.649 321.665V315.18L466.827 309.777V299.51L472.471 298.43L474.164 295.188L473.6 293.567L469.084 290.865L466.827 287.623V286.542L475.293 281.139L476.422 276.276H478.115L479.244 273.574L476.422 269.251L473.6 271.412L475.293 265.469V261.686L472.471 258.444Z" fill="white" stroke="#375DBB"/>
<path d="M291.565 470.593L286.445 468.437V460.354L288.72 458.737V453.349L289.858 450.115H291.565L293.271 452.271H297.822V451.732V446.882L293.271 441.493L289.858 439.338V436.105L292.702 433.949V431.794H289.858V428.56H294.409V423.71L289.858 421.016L291.565 417.783L290.996 415.088L288.152 410.239L294.409 404.85L293.84 403.233L297.822 401.617V394.072L300.097 392.456V387.606L301.804 385.45H304.079L306.355 381.678V380.061L308.061 376.828L309.768 375.75H315.456L316.025 373.595L318.869 371.439L321.713 370.362L322.282 363.895L325.126 364.973L328.539 361.74L333.09 357.429V354.734L330.246 352.579H328.539L325.126 349.884H318.869V345.573L320.007 340.185H325.126L329.108 342.879H342.76L346.742 341.262V340.185H356.413L358.688 336.412L361.532 333.179H363.808L365.514 335.335V338.568L372.34 345.573V347.729H375.184V353.118L379.166 360.123L383.148 362.279H385.424V366.59L376.891 370.901V375.75L374.616 376.828L368.358 382.756L365.514 383.834V391.378L363.808 394.611L362.101 397.306L360.963 400.539L356.982 406.466L355.275 407.005V408.083H343.329L339.347 412.394H337.641V433.949H345.036L346.742 438.799L343.329 441.493L334.228 436.105L327.402 433.949L323.989 436.105V438.799L325.695 441.493L329.108 445.804V448.499L331.384 453.349V465.204L329.108 468.437L322.282 475.982L317.731 478.676L316.025 481.909V488.915L313.181 488.376H305.217L303.51 487.298L301.804 483.526L300.097 480.831H297.822L295.547 476.52V473.826L294.409 472.748L291.565 470.593Z" fill="white" stroke="#375DBB"/>
<path d="M321.966 488.372L316.9 488.914V481.869L318.026 478.617L323.092 475.907L329.847 468.861L332.098 465.067V452.602L329.847 448.266V444.472L325.344 439.053V435.801L328.721 433.633L335.476 436.343L343.919 441.221L347.296 437.969L345.607 433.633H338.29V411.954H339.979L343.919 407.618H355.739V406.534L357.428 405.992L361.368 400.031L362.494 396.779L365.871 390.817V383.23L368.686 382.146L374.877 376.184L377.129 375.1L387.824 378.894L391.764 376.726L399.644 375.1L403.584 375.642V378.894L401.333 382.688L403.584 384.856H406.962L408.65 383.772L415.405 382.688L417.094 384.856L423.285 385.94L425.537 382.688V375.642L426.663 374.016L431.166 374.558L432.291 376.726L439.609 378.894L442.423 380.52L447.489 383.772L452.555 386.481L454.807 390.275H457.621L459.31 391.901L460.436 394.069L461.561 395.153L454.807 396.237L450.866 398.405L448.615 400.031V402.199L445.801 404.909V410.87L447.489 414.122L448.615 417.916L447.489 422.252L444.675 423.878V427.671L439.609 429.297L437.357 432.007L435.669 435.801L433.98 436.885L433.417 435.801L431.166 435.259L428.914 432.549L429.477 437.969V439.053H426.663L423.848 440.137L417.094 439.595L413.716 437.969H409.776L405.273 442.305L405.836 444.472L404.147 446.64L403.584 450.434L400.77 453.144L397.393 456.938L392.327 456.396L388.949 459.106H385.572V463.983H377.692L372.626 463.442L368.123 459.106L366.997 456.938L361.368 456.396L359.679 459.106V465.609H355.739L355.176 474.281L348.985 474.823L349.548 475.907L341.667 476.991L341.104 474.281H339.416V471.571H337.164L336.038 473.739V483.494L332.661 482.411L328.721 485.12L326.469 484.578L321.966 486.746V488.372Z" fill="white" stroke="#375DBB"/>
<path d="M311.209 493.408V488.566H306.656L304.38 487.491L302.672 484.263L300.965 481.036H298.689L296.412 476.732V474.043L292.428 470.816L287.306 468.664L284.461 468.126H281.615L279.339 465.974V462.209L278.201 459.271V453.065L279.339 451.989L278.201 449.299L275.355 445.534H273.079V448.223H269.664L266.819 447.148L262.835 446.072L262.266 444.458H258.282L257.144 445.534H254.298L252.591 442.844L250.314 440.155H244.623L240.071 439.079V444.996L237.794 450.375V452.527L234.949 454.14L229.827 452.527L228.688 454.14L225.843 459.519L229.827 464.361V465.974L226.981 468.126L226.412 469.202L223.566 471.891L221.29 472.967L220.721 476.195H220.152L220.721 478.346V486.953L220.152 488.566L219.583 492.87L222.428 495.559L221.29 497.173L220.721 498.787L217.306 500.4L216.737 502.552L217.306 505.241V513.848L216.737 519.227L214.461 519.765V522.454H216.737L220.721 524.068V528.371L219.583 531.599L221.859 533.212L229.257 527.833L234.379 525.682L241.778 527.833L249.745 524.606L253.729 527.833L261.697 524.606V521.379L267.388 517.075H270.802L274.217 518.151L277.632 514.924L279.908 512.234L284.461 507.931L288.445 505.779L290.152 507.931H294.136L295.274 503.09L299.827 500.4H302.672L307.794 503.09L309.502 498.249H316.9V494.483L313.485 493.408H311.209Z" fill="white" stroke="#375DBB"/>
<path d="M284.324 593.512L287.138 591.354V601.067L285.45 606.464V611.32L284.324 613.479L283.199 618.336L281.511 619.415L279.823 622.113L277.573 623.732L274.76 627.51H271.947V631.287L273.634 632.906V641.541L271.947 642.62L274.76 645.318V665.825L273.072 666.904H265.758L263.507 668.523L262.382 670.682V676.078L259.006 677.158L256.193 681.475L254.505 684.713L255.63 688.49L259.006 689.569L265.758 690.109L266.883 693.347L263.507 691.728H252.817L247.753 692.807L246.066 694.426L242.69 696.045H239.877L236.501 700.902V707.917L234.25 711.155L226.373 716.012L224.123 717.092L220.747 718.71H214.558L211.182 714.933L213.433 711.155V706.299L212.87 704.68V702.521L211.182 698.743L213.433 694.426V691.728L217.371 690.109L218.497 686.332L214.558 685.792L213.433 681.475V670.682L212.87 666.904H211.182L208.369 668.523L205.556 666.904L203.868 663.666V659.889L201.618 655.032L202.18 651.254L200.492 647.477L197.117 646.937L195.991 643.16L192.616 642.62L190.928 638.843L194.304 636.684L193.178 632.906H197.117L199.93 636.144H203.306L205.556 632.906L209.495 631.287H217.934L219.059 629.669L224.686 629.129V623.732L219.622 621.574V618.876L221.31 616.717L220.747 611.32H224.123L225.248 608.083L226.936 606.464L230.312 607.003H233.125L239.314 611.32L244.378 610.781L246.066 608.083L247.753 604.845L251.129 602.686H256.756L261.257 601.607L264.07 597.829H274.76L279.823 592.433L284.324 593.512Z" fill="white" stroke="#375DBB"/>
<path d="M394.934 459.765L397.19 457.613L392.113 457.076L388.728 459.227H385.344V464.605H376.318L372.369 464.067L367.856 459.765L366.727 457.613L361.086 457.076L359.394 459.765V466.218L355.445 466.756L354.881 474.823L348.675 475.361L349.239 476.437L341.342 477.512L340.778 474.823H339.085V472.134H336.829L335.7 474.823V483.966L332.316 482.89L328.367 486.117L326.11 484.504L321.597 487.193V488.806H317.084H314.263L310.879 488.269V493.647H313.135L316.52 494.722V498.487H309.186L307.494 503.327L302.417 500.638H299.596L295.083 503.327L293.955 508.167H290.006L288.314 506.016L283.801 508.167L279.852 512.47L278.159 514.621L274.21 518.386L271.39 517.31H267.441L261.8 521.613V524.84L253.902 528.066L249.953 524.84L242.055 528.066L234.721 525.915L229.08 528.066L222.311 533.445L220.054 531.831L217.233 532.907H211.592L210.464 533.982V541.512L208.772 545.276V547.965L211.028 550.654L211.592 553.881L207.643 555.495L202.002 554.419L203.13 558.184L204.258 560.335L202.002 563.024V566.251L203.13 567.864L204.258 570.553L205.387 571.091V575.931L206.515 573.78L210.464 573.242H214.413L217.233 573.78V579.696H211.592L210.464 576.469H208.207L206.515 578.083L205.951 580.234L207.643 581.847V585.074L208.207 586.688L212.156 586.15L215.541 582.923L220.054 586.15L226.259 583.461L228.516 582.923L230.773 583.461H233.029L234.721 588.301L236.978 588.839L240.363 589.377L242.055 592.603V596.906H246.568V597.982L243.183 601.746V606.586L239.799 607.124L236.978 609.276L239.799 611.427L244.876 610.889L247.132 607.662L248.26 604.973L251.645 602.822H257.287L261.8 601.746L264.62 597.982H275.339L280.416 592.603L284.929 593.679L287.749 592.066V588.301L284.929 581.847L283.801 575.931L284.929 572.705V569.478L282.672 564.1L282.108 551.73L284.365 547.965V546.352L290.57 538.285L294.519 536.671H299.032L300.16 538.285H301.853L304.109 537.209L307.494 534.52V531.831L309.186 529.142V524.302H324.418L335.7 519.461L336.829 517.848V505.478L340.778 503.327L348.675 500.638L355.445 497.411L359.394 493.109L361.086 490.42L363.907 488.806L366.727 485.58L368.42 482.89L372.369 480.201L374.625 478.05H376.882L379.138 475.899L382.523 474.286L388.728 468.37L392.113 464.605L394.934 459.765Z" fill="white" stroke="#375DBB"/>
<path d="M571.667 325.625L572.812 323.489L576.246 326.159L578.535 332.032L577.39 335.77V339.508L573.956 344.847H570.522L569.377 345.915L567.088 349.119V352.323H565.371L564.226 356.06V360.866H557.93L555.068 356.594H553.351L552.779 352.323L549.917 350.187L548.772 345.915V340.576L551.062 338.44L559.647 332.566H562.509L567.088 329.897V328.829L568.233 326.693L571.667 325.625Z" fill="white" stroke="#375DBB"/>
<path d="M265.032 362.783C265.582 362.783 266.053 362.587 266.445 362.195C266.837 361.803 267.033 361.333 267.032 360.783C267.032 360.233 266.836 359.762 266.444 359.37C266.052 358.978 265.582 358.783 265.032 358.783C264.482 358.783 264.011 358.979 263.619 359.371C263.227 359.763 263.032 360.234 263.032 360.783C263.032 361.333 263.228 361.804 263.62 362.196C264.012 362.588 264.483 362.784 265.032 362.783ZM265.032 372.408C264.899 372.408 264.766 372.383 264.632 372.333C264.499 372.283 264.382 372.217 264.282 372.133C261.849 369.983 260.032 367.987 258.832 366.145C257.632 364.303 257.032 362.583 257.032 360.983C257.032 358.483 257.837 356.492 259.445 355.008C261.054 353.525 262.916 352.783 265.032 352.783C267.149 352.783 269.012 353.525 270.62 355.008C272.229 356.492 273.033 358.483 273.032 360.983C273.032 362.583 272.432 364.304 271.232 366.146C270.032 367.988 268.216 369.984 265.782 372.133C265.682 372.217 265.566 372.283 265.432 372.333C265.299 372.383 265.166 372.408 265.032 372.408Z" fill="url(#paint0_linear_1009_222)"/>
<path d="M176.032 156.783C176.582 156.783 177.053 156.587 177.445 156.195C177.837 155.803 178.033 155.333 178.032 154.783C178.032 154.233 177.836 153.762 177.444 153.37C177.052 152.978 176.582 152.783 176.032 152.783C175.482 152.783 175.011 152.979 174.619 153.371C174.227 153.763 174.032 154.234 174.032 154.783C174.032 155.333 174.228 155.804 174.62 156.196C175.012 156.588 175.483 156.784 176.032 156.783ZM176.032 166.408C175.899 166.408 175.766 166.383 175.632 166.333C175.499 166.283 175.382 166.217 175.282 166.133C172.849 163.983 171.032 161.987 169.832 160.145C168.632 158.303 168.032 156.583 168.032 154.983C168.032 152.483 168.837 150.492 170.445 149.008C172.054 147.525 173.916 146.783 176.032 146.783C178.149 146.783 180.012 147.525 181.62 149.008C183.229 150.492 184.033 152.483 184.032 154.983C184.032 156.583 183.432 158.304 182.232 160.146C181.032 161.988 179.216 163.984 176.782 166.133C176.682 166.217 176.566 166.283 176.432 166.333C176.299 166.383 176.166 166.408 176.032 166.408Z" fill="url(#paint1_linear_1009_222)"/>
<path d="M79.0322 277.783C79.5822 277.783 80.0532 277.587 80.4452 277.195C80.8372 276.803 81.0329 276.333 81.0322 275.783C81.0322 275.233 80.8362 274.762 80.4442 274.37C80.0522 273.978 79.5816 273.783 79.0322 273.783C78.4822 273.783 78.0112 273.979 77.6192 274.371C77.2272 274.763 77.0316 275.234 77.0322 275.783C77.0322 276.333 77.2282 276.804 77.6202 277.196C78.0122 277.588 78.4829 277.784 79.0322 277.783ZM79.0322 287.408C78.8989 287.408 78.7656 287.383 78.6322 287.333C78.4989 287.283 78.3822 287.217 78.2822 287.133C75.8489 284.983 74.0322 282.987 72.8322 281.145C71.6322 279.303 71.0322 277.583 71.0322 275.983C71.0322 273.483 71.8366 271.492 73.4452 270.008C75.0539 268.525 76.9162 267.783 79.0322 267.783C81.1489 267.783 83.0116 268.525 84.6202 270.008C86.2289 271.492 87.0329 273.483 87.0322 275.983C87.0322 277.583 86.4322 279.304 85.2322 281.146C84.0322 282.988 82.2156 284.984 79.7822 287.133C79.6822 287.217 79.5656 287.283 79.4322 287.333C79.2989 287.383 79.1656 287.408 79.0322 287.408Z" fill="url(#paint2_linear_1009_222)"/>
<path d="M125.032 448.783C125.582 448.783 126.053 448.587 126.445 448.195C126.837 447.803 127.033 447.333 127.032 446.783C127.032 446.233 126.836 445.762 126.444 445.37C126.052 444.978 125.582 444.783 125.032 444.783C124.482 444.783 124.011 444.979 123.619 445.371C123.227 445.763 123.032 446.234 123.032 446.783C123.032 447.333 123.228 447.804 123.62 448.196C124.012 448.588 124.483 448.784 125.032 448.783ZM125.032 458.408C124.899 458.408 124.766 458.383 124.632 458.333C124.499 458.283 124.382 458.217 124.282 458.133C121.849 455.983 120.032 453.987 118.832 452.145C117.632 450.303 117.032 448.583 117.032 446.983C117.032 444.483 117.837 442.492 119.445 441.008C121.054 439.525 122.916 438.783 125.032 438.783C127.149 438.783 129.012 439.525 130.62 441.008C132.229 442.492 133.033 444.483 133.032 446.983C133.032 448.583 132.432 450.304 131.232 452.146C130.032 453.988 128.216 455.984 125.782 458.133C125.682 458.217 125.566 458.283 125.432 458.333C125.299 458.383 125.166 458.408 125.032 458.408Z" fill="url(#paint3_linear_1009_222)"/>
<path d="M131.032 464.783C131.582 464.783 132.053 464.587 132.445 464.195C132.837 463.803 133.033 463.333 133.032 462.783C133.032 462.233 132.836 461.762 132.444 461.37C132.052 460.978 131.582 460.783 131.032 460.783C130.482 460.783 130.011 460.979 129.619 461.371C129.227 461.763 129.032 462.234 129.032 462.783C129.032 463.333 129.228 463.804 129.62 464.196C130.012 464.588 130.483 464.784 131.032 464.783ZM131.032 474.408C130.899 474.408 130.766 474.383 130.632 474.333C130.499 474.283 130.382 474.217 130.282 474.133C127.849 471.983 126.032 469.987 124.832 468.145C123.632 466.303 123.032 464.583 123.032 462.983C123.032 460.483 123.837 458.492 125.445 457.008C127.054 455.525 128.916 454.783 131.032 454.783C133.149 454.783 135.012 455.525 136.62 457.008C138.229 458.492 139.033 460.483 139.032 462.983C139.032 464.583 138.432 466.304 137.232 468.146C136.032 469.988 134.216 471.984 131.782 474.133C131.682 474.217 131.566 474.283 131.432 474.333C131.299 474.383 131.166 474.408 131.032 474.408Z" fill="url(#paint4_linear_1009_222)"/>
<path d="M62.0322 387.783C62.5822 387.783 63.0532 387.587 63.4452 387.195C63.8372 386.803 64.0329 386.333 64.0322 385.783C64.0322 385.233 63.8362 384.762 63.4442 384.37C63.0522 383.978 62.5816 383.783 62.0322 383.783C61.4822 383.783 61.0112 383.979 60.6192 384.371C60.2272 384.763 60.0316 385.234 60.0322 385.783C60.0322 386.333 60.2282 386.804 60.6202 387.196C61.0122 387.588 61.4829 387.784 62.0322 387.783ZM62.0322 397.408C61.8989 397.408 61.7656 397.383 61.6322 397.333C61.4989 397.283 61.3822 397.217 61.2822 397.133C58.8489 394.983 57.0322 392.987 55.8322 391.145C54.6322 389.303 54.0322 387.583 54.0322 385.983C54.0322 383.483 54.8366 381.492 56.4452 380.008C58.0539 378.525 59.9162 377.783 62.0322 377.783C64.1489 377.783 66.0116 378.525 67.6202 380.008C69.2289 381.492 70.0329 383.483 70.0322 385.983C70.0322 387.583 69.4322 389.304 68.2322 391.146C67.0322 392.988 65.2156 394.984 62.7822 397.133C62.6822 397.217 62.5656 397.283 62.4322 397.333C62.2989 397.383 62.1656 397.408 62.0322 397.408Z" fill="url(#paint5_linear_1009_222)"/>
<path d="M71.0322 370.783C71.5822 370.783 72.0532 370.587 72.4452 370.195C72.8372 369.803 73.0329 369.333 73.0322 368.783C73.0322 368.233 72.8362 367.762 72.4442 367.37C72.0522 366.978 71.5816 366.783 71.0322 366.783C70.4822 366.783 70.0112 366.979 69.6192 367.371C69.2272 367.763 69.0316 368.234 69.0322 368.783C69.0322 369.333 69.2282 369.804 69.6202 370.196C70.0122 370.588 70.4829 370.784 71.0322 370.783ZM71.0322 380.408C70.8989 380.408 70.7656 380.383 70.6322 380.333C70.4989 380.283 70.3822 380.217 70.2822 380.133C67.8489 377.983 66.0322 375.987 64.8322 374.145C63.6322 372.303 63.0322 370.583 63.0322 368.983C63.0322 366.483 63.8366 364.492 65.4452 363.008C67.0539 361.525 68.9162 360.783 71.0322 360.783C73.1489 360.783 75.0116 361.525 76.6202 363.008C78.2289 364.492 79.0329 366.483 79.0322 368.983C79.0322 370.583 78.4322 372.304 77.2322 374.146C76.0322 375.988 74.2156 377.984 71.7822 380.133C71.6822 380.217 71.5656 380.283 71.4322 380.333C71.2989 380.383 71.1656 380.408 71.0322 380.408Z" fill="url(#paint6_linear_1009_222)"/>
<path d="M79.0322 391.783C79.5822 391.783 80.0532 391.587 80.4452 391.195C80.8372 390.803 81.0329 390.333 81.0322 389.783C81.0322 389.233 80.8362 388.762 80.4442 388.37C80.0522 387.978 79.5816 387.783 79.0322 387.783C78.4822 387.783 78.0112 387.979 77.6192 388.371C77.2272 388.763 77.0316 389.234 77.0322 389.783C77.0322 390.333 77.2282 390.804 77.6202 391.196C78.0122 391.588 78.4829 391.784 79.0322 391.783ZM79.0322 401.408C78.8989 401.408 78.7656 401.383 78.6322 401.333C78.4989 401.283 78.3822 401.217 78.2822 401.133C75.8489 398.983 74.0322 396.987 72.8322 395.145C71.6322 393.303 71.0322 391.583 71.0322 389.983C71.0322 387.483 71.8366 385.492 73.4452 384.008C75.0539 382.525 76.9162 381.783 79.0322 381.783C81.1489 381.783 83.0116 382.525 84.6202 384.008C86.2289 385.492 87.0329 387.483 87.0322 389.983C87.0322 391.583 86.4322 393.304 85.2322 395.146C84.0322 396.988 82.2156 398.984 79.7822 401.133C79.6822 401.217 79.5656 401.283 79.4322 401.333C79.2989 401.383 79.1656 401.408 79.0322 401.408Z" fill="url(#paint7_linear_1009_222)"/>
<path d="M220.032 349.783C220.582 349.783 221.053 349.587 221.445 349.195C221.837 348.803 222.033 348.333 222.032 347.783C222.032 347.233 221.836 346.762 221.444 346.37C221.052 345.978 220.582 345.783 220.032 345.783C219.482 345.783 219.011 345.979 218.619 346.371C218.227 346.763 218.032 347.234 218.032 347.783C218.032 348.333 218.228 348.804 218.62 349.196C219.012 349.588 219.483 349.784 220.032 349.783ZM220.032 359.408C219.899 359.408 219.766 359.383 219.632 359.333C219.499 359.283 219.382 359.217 219.282 359.133C216.849 356.983 215.032 354.987 213.832 353.145C212.632 351.303 212.032 349.583 212.032 347.983C212.032 345.483 212.837 343.492 214.445 342.008C216.054 340.525 217.916 339.783 220.032 339.783C222.149 339.783 224.012 340.525 225.62 342.008C227.229 343.492 228.033 345.483 228.032 347.983C228.032 349.583 227.432 351.304 226.232 353.146C225.032 354.988 223.216 356.984 220.782 359.133C220.682 359.217 220.566 359.283 220.432 359.333C220.299 359.383 220.166 359.408 220.032 359.408Z" fill="url(#paint8_linear_1009_222)"/>
<path d="M329.032 291.783C329.582 291.783 330.053 291.587 330.445 291.195C330.837 290.803 331.033 290.333 331.032 289.783C331.032 289.233 330.836 288.762 330.444 288.37C330.052 287.978 329.582 287.783 329.032 287.783C328.482 287.783 328.011 287.979 327.619 288.371C327.227 288.763 327.032 289.234 327.032 289.783C327.032 290.333 327.228 290.804 327.62 291.196C328.012 291.588 328.483 291.784 329.032 291.783ZM329.032 301.408C328.899 301.408 328.766 301.383 328.632 301.333C328.499 301.283 328.382 301.217 328.282 301.133C325.849 298.983 324.032 296.987 322.832 295.145C321.632 293.303 321.032 291.583 321.032 289.983C321.032 287.483 321.837 285.492 323.445 284.008C325.054 282.525 326.916 281.783 329.032 281.783C331.149 281.783 333.012 282.525 334.62 284.008C336.229 285.492 337.033 287.483 337.032 289.983C337.032 291.583 336.432 293.304 335.232 295.146C334.032 296.988 332.216 298.984 329.782 301.133C329.682 301.217 329.566 301.283 329.432 301.333C329.299 301.383 329.166 301.408 329.032 301.408Z" fill="url(#paint9_linear_1009_222)"/>
<path d="M310.032 285.783C310.582 285.783 311.053 285.587 311.445 285.195C311.837 284.803 312.033 284.333 312.032 283.783C312.032 283.233 311.836 282.762 311.444 282.37C311.052 281.978 310.582 281.783 310.032 281.783C309.482 281.783 309.011 281.979 308.619 282.371C308.227 282.763 308.032 283.234 308.032 283.783C308.032 284.333 308.228 284.804 308.62 285.196C309.012 285.588 309.483 285.784 310.032 285.783ZM310.032 295.408C309.899 295.408 309.766 295.383 309.632 295.333C309.499 295.283 309.382 295.217 309.282 295.133C306.849 292.983 305.032 290.987 303.832 289.145C302.632 287.303 302.032 285.583 302.032 283.983C302.032 281.483 302.837 279.492 304.445 278.008C306.054 276.525 307.916 275.783 310.032 275.783C312.149 275.783 314.012 276.525 315.62 278.008C317.229 279.492 318.033 281.483 318.032 283.983C318.032 285.583 317.432 287.304 316.232 289.146C315.032 290.988 313.216 292.984 310.782 295.133C310.682 295.217 310.566 295.283 310.432 295.333C310.299 295.383 310.166 295.408 310.032 295.408Z" fill="url(#paint10_linear_1009_222)"/>
<path d="M240.032 209.783C240.582 209.783 241.053 209.587 241.445 209.195C241.837 208.803 242.033 208.333 242.032 207.783C242.032 207.233 241.836 206.762 241.444 206.37C241.052 205.978 240.582 205.783 240.032 205.783C239.482 205.783 239.011 205.979 238.619 206.371C238.227 206.763 238.032 207.234 238.032 207.783C238.032 208.333 238.228 208.804 238.62 209.196C239.012 209.588 239.483 209.784 240.032 209.783ZM240.032 219.408C239.899 219.408 239.766 219.383 239.632 219.333C239.499 219.283 239.382 219.217 239.282 219.133C236.849 216.983 235.032 214.987 233.832 213.145C232.632 211.303 232.032 209.583 232.032 207.983C232.032 205.483 232.837 203.492 234.445 202.008C236.054 200.525 237.916 199.783 240.032 199.783C242.149 199.783 244.012 200.525 245.62 202.008C247.229 203.492 248.033 205.483 248.032 207.983C248.032 209.583 247.432 211.304 246.232 213.146C245.032 214.988 243.216 216.984 240.782 219.133C240.682 219.217 240.566 219.283 240.432 219.333C240.299 219.383 240.166 219.408 240.032 219.408Z" fill="url(#paint11_linear_1009_222)"/>
<path d="M397.032 307.783C397.582 307.783 398.053 307.587 398.445 307.195C398.837 306.803 399.033 306.333 399.032 305.783C399.032 305.233 398.836 304.762 398.444 304.37C398.052 303.978 397.582 303.783 397.032 303.783C396.482 303.783 396.011 303.979 395.619 304.371C395.227 304.763 395.032 305.234 395.032 305.783C395.032 306.333 395.228 306.804 395.62 307.196C396.012 307.588 396.483 307.784 397.032 307.783ZM397.032 317.408C396.899 317.408 396.766 317.383 396.632 317.333C396.499 317.283 396.382 317.217 396.282 317.133C393.849 314.983 392.032 312.987 390.832 311.145C389.632 309.303 389.032 307.583 389.032 305.983C389.032 303.483 389.837 301.492 391.445 300.008C393.054 298.525 394.916 297.783 397.032 297.783C399.149 297.783 401.012 298.525 402.62 300.008C404.229 301.492 405.033 303.483 405.032 305.983C405.032 307.583 404.432 309.304 403.232 311.146C402.032 312.988 400.216 314.984 397.782 317.133C397.682 317.217 397.566 317.283 397.432 317.333C397.299 317.383 397.166 317.408 397.032 317.408Z" fill="url(#paint12_linear_1009_222)"/>
<path d="M454.032 359.783C454.582 359.783 455.053 359.587 455.445 359.195C455.837 358.803 456.033 358.333 456.032 357.783C456.032 357.233 455.836 356.762 455.444 356.37C455.052 355.978 454.582 355.783 454.032 355.783C453.482 355.783 453.011 355.979 452.619 356.371C452.227 356.763 452.032 357.234 452.032 357.783C452.032 358.333 452.228 358.804 452.62 359.196C453.012 359.588 453.483 359.784 454.032 359.783ZM454.032 369.408C453.899 369.408 453.766 369.383 453.632 369.333C453.499 369.283 453.382 369.217 453.282 369.133C450.849 366.983 449.032 364.987 447.832 363.145C446.632 361.303 446.032 359.583 446.032 357.983C446.032 355.483 446.837 353.492 448.445 352.008C450.054 350.525 451.916 349.783 454.032 349.783C456.149 349.783 458.012 350.525 459.62 352.008C461.229 353.492 462.033 355.483 462.032 357.983C462.032 359.583 461.432 361.304 460.232 363.146C459.032 364.988 457.216 366.984 454.782 369.133C454.682 369.217 454.566 369.283 454.432 369.333C454.299 369.383 454.166 369.408 454.032 369.408Z" fill="url(#paint13_linear_1009_222)"/>
<path d="M368.032 435.783C368.582 435.783 369.053 435.587 369.445 435.195C369.837 434.803 370.033 434.333 370.032 433.783C370.032 433.233 369.836 432.762 369.444 432.37C369.052 431.978 368.582 431.783 368.032 431.783C367.482 431.783 367.011 431.979 366.619 432.371C366.227 432.763 366.032 433.234 366.032 433.783C366.032 434.333 366.228 434.804 366.62 435.196C367.012 435.588 367.483 435.784 368.032 435.783ZM368.032 445.408C367.899 445.408 367.766 445.383 367.632 445.333C367.499 445.283 367.382 445.217 367.282 445.133C364.849 442.983 363.032 440.987 361.832 439.145C360.632 437.303 360.032 435.583 360.032 433.983C360.032 431.483 360.837 429.492 362.445 428.008C364.054 426.525 365.916 425.783 368.032 425.783C370.149 425.783 372.012 426.525 373.62 428.008C375.229 429.492 376.033 431.483 376.032 433.983C376.032 435.583 375.432 437.304 374.232 439.146C373.032 440.988 371.216 442.984 368.782 445.133C368.682 445.217 368.566 445.283 368.432 445.333C368.299 445.383 368.166 445.408 368.032 445.408Z" fill="url(#paint14_linear_1009_222)"/>
<path d="M251.032 477.783C251.582 477.783 252.053 477.587 252.445 477.195C252.837 476.803 253.033 476.333 253.032 475.783C253.032 475.233 252.836 474.762 252.444 474.37C252.052 473.978 251.582 473.783 251.032 473.783C250.482 473.783 250.011 473.979 249.619 474.371C249.227 474.763 249.032 475.234 249.032 475.783C249.032 476.333 249.228 476.804 249.62 477.196C250.012 477.588 250.483 477.784 251.032 477.783ZM251.032 487.408C250.899 487.408 250.766 487.383 250.632 487.333C250.499 487.283 250.382 487.217 250.282 487.133C247.849 484.983 246.032 482.987 244.832 481.145C243.632 479.303 243.032 477.583 243.032 475.983C243.032 473.483 243.837 471.492 245.445 470.008C247.054 468.525 248.916 467.783 251.032 467.783C253.149 467.783 255.012 468.525 256.62 470.008C258.229 471.492 259.033 473.483 259.032 475.983C259.032 477.583 258.432 479.304 257.232 481.146C256.032 482.988 254.216 484.984 251.782 487.133C251.682 487.217 251.566 487.283 251.432 487.333C251.299 487.383 251.166 487.408 251.032 487.408Z" fill="url(#paint15_linear_1009_222)"/>
<path d="M255.032 570.783C255.582 570.783 256.053 570.587 256.445 570.195C256.837 569.803 257.033 569.333 257.032 568.783C257.032 568.233 256.836 567.762 256.444 567.37C256.052 566.978 255.582 566.783 255.032 566.783C254.482 566.783 254.011 566.979 253.619 567.371C253.227 567.763 253.032 568.234 253.032 568.783C253.032 569.333 253.228 569.804 253.62 570.196C254.012 570.588 254.483 570.784 255.032 570.783ZM255.032 580.408C254.899 580.408 254.766 580.383 254.632 580.333C254.499 580.283 254.382 580.217 254.282 580.133C251.849 577.983 250.032 575.987 248.832 574.145C247.632 572.303 247.032 570.583 247.032 568.983C247.032 566.483 247.837 564.492 249.445 563.008C251.054 561.525 252.916 560.783 255.032 560.783C257.149 560.783 259.012 561.525 260.62 563.008C262.229 564.492 263.033 566.483 263.032 568.983C263.032 570.583 262.432 572.304 261.232 574.146C260.032 575.988 258.216 577.984 255.782 580.133C255.682 580.217 255.566 580.283 255.432 580.333C255.299 580.383 255.166 580.408 255.032 580.408Z" fill="url(#paint16_linear_1009_222)"/>
<path d="M168.032 556.783C168.582 556.783 169.053 556.587 169.445 556.195C169.837 555.803 170.033 555.333 170.032 554.783C170.032 554.233 169.836 553.762 169.444 553.37C169.052 552.978 168.582 552.783 168.032 552.783C167.482 552.783 167.011 552.979 166.619 553.371C166.227 553.763 166.032 554.234 166.032 554.783C166.032 555.333 166.228 555.804 166.62 556.196C167.012 556.588 167.483 556.784 168.032 556.783ZM168.032 566.408C167.899 566.408 167.766 566.383 167.632 566.333C167.499 566.283 167.382 566.217 167.282 566.133C164.849 563.983 163.032 561.987 161.832 560.145C160.632 558.303 160.032 556.583 160.032 554.983C160.032 552.483 160.837 550.492 162.445 549.008C164.054 547.525 165.916 546.783 168.032 546.783C170.149 546.783 172.012 547.525 173.62 549.008C175.229 550.492 176.033 552.483 176.032 554.983C176.032 556.583 175.432 558.304 174.232 560.146C173.032 561.988 171.216 563.984 168.782 566.133C168.682 566.217 168.566 566.283 168.432 566.333C168.299 566.383 168.166 566.408 168.032 566.408Z" fill="url(#paint17_linear_1009_222)"/>
<path d="M233.032 664.783C233.582 664.783 234.053 664.587 234.445 664.195C234.837 663.803 235.033 663.333 235.032 662.783C235.032 662.233 234.836 661.762 234.444 661.37C234.052 660.978 233.582 660.783 233.032 660.783C232.482 660.783 232.011 660.979 231.619 661.371C231.227 661.763 231.032 662.234 231.032 662.783C231.032 663.333 231.228 663.804 231.62 664.196C232.012 664.588 232.483 664.784 233.032 664.783ZM233.032 674.408C232.899 674.408 232.766 674.383 232.632 674.333C232.499 674.283 232.382 674.217 232.282 674.133C229.849 671.983 228.032 669.987 226.832 668.145C225.632 666.303 225.032 664.583 225.032 662.983C225.032 660.483 225.837 658.492 227.445 657.008C229.054 655.525 230.916 654.783 233.032 654.783C235.149 654.783 237.012 655.525 238.62 657.008C240.229 658.492 241.033 660.483 241.032 662.983C241.032 664.583 240.432 666.304 239.232 668.146C238.032 669.988 236.216 671.984 233.782 674.133C233.682 674.217 233.566 674.283 233.432 674.333C233.299 674.383 233.166 674.408 233.032 674.408Z" fill="url(#paint18_linear_1009_222)"/>
<path d="M326.032 391.783C326.582 391.783 327.053 391.587 327.445 391.195C327.837 390.803 328.033 390.333 328.032 389.783C328.032 389.233 327.836 388.762 327.444 388.37C327.052 387.978 326.582 387.783 326.032 387.783C325.482 387.783 325.011 387.979 324.619 388.371C324.227 388.763 324.032 389.234 324.032 389.783C324.032 390.333 324.228 390.804 324.62 391.196C325.012 391.588 325.483 391.784 326.032 391.783ZM326.032 401.408C325.899 401.408 325.766 401.383 325.632 401.333C325.499 401.283 325.382 401.217 325.282 401.133C322.849 398.983 321.032 396.987 319.832 395.145C318.632 393.303 318.032 391.583 318.032 389.983C318.032 387.483 318.837 385.492 320.445 384.008C322.054 382.525 323.916 381.783 326.032 381.783C328.149 381.783 330.012 382.525 331.62 384.008C333.229 385.492 334.033 387.483 334.032 389.983C334.032 391.583 333.432 393.304 332.232 395.146C331.032 396.988 329.216 398.984 326.782 401.133C326.682 401.217 326.566 401.283 326.432 401.333C326.299 401.383 326.166 401.408 326.032 401.408Z" fill="url(#paint19_linear_1009_222)"/>
<path d="M611.032 227.783C611.582 227.783 612.053 227.587 612.445 227.195C612.837 226.803 613.033 226.333 613.032 225.783C613.032 225.233 612.836 224.762 612.444 224.37C612.052 223.978 611.582 223.783 611.032 223.783C610.482 223.783 610.011 223.979 609.619 224.371C609.227 224.763 609.032 225.234 609.032 225.783C609.032 226.333 609.228 226.804 609.62 227.196C610.012 227.588 610.483 227.784 611.032 227.783ZM611.032 237.408C610.899 237.408 610.766 237.383 610.632 237.333C610.499 237.283 610.382 237.217 610.282 237.133C607.849 234.983 606.032 232.987 604.832 231.145C603.632 229.303 603.032 227.583 603.032 225.983C603.032 223.483 603.837 221.492 605.445 220.008C607.054 218.525 608.916 217.783 611.032 217.783C613.149 217.783 615.012 218.525 616.62 220.008C618.229 221.492 619.033 223.483 619.032 225.983C619.032 227.583 618.432 229.304 617.232 231.146C616.032 232.988 614.216 234.984 611.782 237.133C611.682 237.217 611.566 237.283 611.432 237.333C611.299 237.383 611.166 237.408 611.032 237.408Z" fill="url(#paint20_linear_1009_222)"/>
<path d="M124.743 304.923C125.293 304.923 125.764 304.727 126.156 304.335C126.548 303.943 126.744 303.473 126.743 302.923C126.743 302.373 126.547 301.902 126.155 301.51C125.763 301.118 125.292 300.923 124.743 300.923C124.193 300.923 123.722 301.119 123.33 301.511C122.938 301.903 122.742 302.374 122.743 302.923C122.743 303.473 122.939 303.944 123.331 304.336C123.723 304.728 124.194 304.924 124.743 304.923ZM124.743 314.548C124.61 314.548 124.476 314.523 124.343 314.473C124.21 314.423 124.093 314.357 123.993 314.273C121.56 312.123 119.743 310.127 118.543 308.285C117.343 306.443 116.743 304.723 116.743 303.123C116.743 300.623 117.547 298.632 119.156 297.148C120.765 295.665 122.627 294.923 124.743 294.923C126.86 294.923 128.722 295.665 130.331 297.148C131.94 298.632 132.744 300.623 132.743 303.123C132.743 304.723 132.143 306.444 130.943 308.286C129.743 310.128 127.926 312.124 125.493 314.273C125.393 314.357 125.276 314.423 125.143 314.473C125.01 314.523 124.876 314.548 124.743 314.548Z" fill="url(#paint21_linear_1009_222)"/>
<defs>
<linearGradient id="paint0_linear_1009_222" x1="265.032" y1="352.783" x2="265.032" y2="372.408" gradientUnits="userSpaceOnUse">
<stop stop-color="#2464A1"/>
<stop offset="0.229167" stop-color="#445C9B"/>
<stop offset="0.510417" stop-color="#6B5294"/>
<stop offset="1" stop-color="#AA4289"/>
</linearGradient>
<linearGradient id="paint1_linear_1009_222" x1="176.032" y1="146.783" x2="176.032" y2="166.408" gradientUnits="userSpaceOnUse">
<stop stop-color="#2464A1"/>
<stop offset="0.229167" stop-color="#445C9B"/>
<stop offset="0.510417" stop-color="#6B5294"/>
<stop offset="1" stop-color="#AA4289"/>
</linearGradient>
<linearGradient id="paint2_linear_1009_222" x1="79.0322" y1="267.783" x2="79.0322" y2="287.408" gradientUnits="userSpaceOnUse">
<stop stop-color="#2464A1"/>
<stop offset="0.229167" stop-color="#445C9B"/>
<stop offset="0.510417" stop-color="#6B5294"/>
<stop offset="1" stop-color="#AA4289"/>
</linearGradient>
<linearGradient id="paint3_linear_1009_222" x1="125.032" y1="438.783" x2="125.032" y2="458.408" gradientUnits="userSpaceOnUse">
<stop stop-color="#2464A1"/>
<stop offset="0.229167" stop-color="#445C9B"/>
<stop offset="0.510417" stop-color="#6B5294"/>
<stop offset="1" stop-color="#AA4289"/>
</linearGradient>
<linearGradient id="paint4_linear_1009_222" x1="131.032" y1="454.783" x2="131.032" y2="474.408" gradientUnits="userSpaceOnUse">
<stop stop-color="#2464A1"/>
<stop offset="0.229167" stop-color="#445C9B"/>
<stop offset="0.510417" stop-color="#6B5294"/>
<stop offset="1" stop-color="#AA4289"/>
</linearGradient>
<linearGradient id="paint5_linear_1009_222" x1="62.0322" y1="377.783" x2="62.0322" y2="397.408" gradientUnits="userSpaceOnUse">
<stop stop-color="#2464A1"/>
<stop offset="0.229167" stop-color="#445C9B"/>
<stop offset="0.510417" stop-color="#6B5294"/>
<stop offset="1" stop-color="#AA4289"/>
</linearGradient>
<linearGradient id="paint6_linear_1009_222" x1="71.0322" y1="360.783" x2="71.0322" y2="380.408" gradientUnits="userSpaceOnUse">
<stop stop-color="#2464A1"/>
<stop offset="0.229167" stop-color="#445C9B"/>
<stop offset="0.510417" stop-color="#6B5294"/>
<stop offset="1" stop-color="#AA4289"/>
</linearGradient>
<linearGradient id="paint7_linear_1009_222" x1="79.0322" y1="381.783" x2="79.0322" y2="401.408" gradientUnits="userSpaceOnUse">
<stop stop-color="#2464A1"/>
<stop offset="0.229167" stop-color="#445C9B"/>
<stop offset="0.510417" stop-color="#6B5294"/>
<stop offset="1" stop-color="#AA4289"/>
</linearGradient>
<linearGradient id="paint8_linear_1009_222" x1="220.032" y1="339.783" x2="220.032" y2="359.408" gradientUnits="userSpaceOnUse">
<stop stop-color="#2464A1"/>
<stop offset="0.229167" stop-color="#445C9B"/>
<stop offset="0.510417" stop-color="#6B5294"/>
<stop offset="1" stop-color="#AA4289"/>
</linearGradient>
<linearGradient id="paint9_linear_1009_222" x1="329.032" y1="281.783" x2="329.032" y2="301.408" gradientUnits="userSpaceOnUse">
<stop stop-color="#2464A1"/>
<stop offset="0.229167" stop-color="#445C9B"/>
<stop offset="0.510417" stop-color="#6B5294"/>
<stop offset="1" stop-color="#AA4289"/>
</linearGradient>
<linearGradient id="paint10_linear_1009_222" x1="310.032" y1="275.783" x2="310.032" y2="295.408" gradientUnits="userSpaceOnUse">
<stop stop-color="#2464A1"/>
<stop offset="0.229167" stop-color="#445C9B"/>
<stop offset="0.510417" stop-color="#6B5294"/>
<stop offset="1" stop-color="#AA4289"/>
</linearGradient>
<linearGradient id="paint11_linear_1009_222" x1="240.032" y1="199.783" x2="240.032" y2="219.408" gradientUnits="userSpaceOnUse">
<stop stop-color="#2464A1"/>
<stop offset="0.229167" stop-color="#445C9B"/>
<stop offset="0.510417" stop-color="#6B5294"/>
<stop offset="1" stop-color="#AA4289"/>
</linearGradient>
<linearGradient id="paint12_linear_1009_222" x1="397.032" y1="297.783" x2="397.032" y2="317.408" gradientUnits="userSpaceOnUse">
<stop stop-color="#2464A1"/>
<stop offset="0.229167" stop-color="#445C9B"/>
<stop offset="0.510417" stop-color="#6B5294"/>
<stop offset="1" stop-color="#AA4289"/>
</linearGradient>
<linearGradient id="paint13_linear_1009_222" x1="454.032" y1="349.783" x2="454.032" y2="369.408" gradientUnits="userSpaceOnUse">
<stop stop-color="#2464A1"/>
<stop offset="0.229167" stop-color="#445C9B"/>
<stop offset="0.510417" stop-color="#6B5294"/>
<stop offset="1" stop-color="#AA4289"/>
</linearGradient>
<linearGradient id="paint14_linear_1009_222" x1="368.032" y1="425.783" x2="368.032" y2="445.408" gradientUnits="userSpaceOnUse">
<stop stop-color="#2464A1"/>
<stop offset="0.229167" stop-color="#445C9B"/>
<stop offset="0.510417" stop-color="#6B5294"/>
<stop offset="1" stop-color="#AA4289"/>
</linearGradient>
<linearGradient id="paint15_linear_1009_222" x1="251.032" y1="467.783" x2="251.032" y2="487.408" gradientUnits="userSpaceOnUse">
<stop stop-color="#2464A1"/>
<stop offset="0.229167" stop-color="#445C9B"/>
<stop offset="0.510417" stop-color="#6B5294"/>
<stop offset="1" stop-color="#AA4289"/>
</linearGradient>
<linearGradient id="paint16_linear_1009_222" x1="255.032" y1="560.783" x2="255.032" y2="580.408" gradientUnits="userSpaceOnUse">
<stop stop-color="#2464A1"/>
<stop offset="0.229167" stop-color="#445C9B"/>
<stop offset="0.510417" stop-color="#6B5294"/>
<stop offset="1" stop-color="#AA4289"/>
</linearGradient>
<linearGradient id="paint17_linear_1009_222" x1="168.032" y1="546.783" x2="168.032" y2="566.408" gradientUnits="userSpaceOnUse">
<stop stop-color="#2464A1"/>
<stop offset="0.229167" stop-color="#445C9B"/>
<stop offset="0.510417" stop-color="#6B5294"/>
<stop offset="1" stop-color="#AA4289"/>
</linearGradient>
<linearGradient id="paint18_linear_1009_222" x1="233.032" y1="654.783" x2="233.032" y2="674.408" gradientUnits="userSpaceOnUse">
<stop stop-color="#2464A1"/>
<stop offset="0.229167" stop-color="#445C9B"/>
<stop offset="0.510417" stop-color="#6B5294"/>
<stop offset="1" stop-color="#AA4289"/>
</linearGradient>
<linearGradient id="paint19_linear_1009_222" x1="326.032" y1="381.783" x2="326.032" y2="401.408" gradientUnits="userSpaceOnUse">
<stop stop-color="#2464A1"/>
<stop offset="0.229167" stop-color="#445C9B"/>
<stop offset="0.510417" stop-color="#6B5294"/>
<stop offset="1" stop-color="#AA4289"/>
</linearGradient>
<linearGradient id="paint20_linear_1009_222" x1="611.032" y1="217.783" x2="611.032" y2="237.408" gradientUnits="userSpaceOnUse">
<stop stop-color="#2464A1"/>
<stop offset="0.229167" stop-color="#445C9B"/>
<stop offset="0.510417" stop-color="#6B5294"/>
<stop offset="1" stop-color="#AA4289"/>
</linearGradient>
<linearGradient id="paint21_linear_1009_222" x1="124.743" y1="294.923" x2="124.743" y2="314.548" gradientUnits="userSpaceOnUse">
<stop stop-color="#2464A1"/>
<stop offset="0.229167" stop-color="#445C9B"/>
<stop offset="0.510417" stop-color="#6B5294"/>
<stop offset="1" stop-color="#AA4289"/>
</linearGradient>
</defs>
</svg>
