<svg width="40" height="40" viewBox="0 0 40 40" fill="none" xmlns="http://www.w3.org/2000/svg">
<rect x="0.05" y="0.0932739" width="39.9" height="38.9" rx="1.95" fill="#6B7A99" fill-opacity="0.29" stroke="black" stroke-width="0.1"/>
<path d="M14.3969 18.0032C14.4336 17.7394 14.4477 17.7027 14.4418 17.6693C14.3114 16.908 14.1377 16.1506 14.0656 15.3841C14.0355 15.062 14.1148 14.5976 14.3294 14.414C14.683 14.1112 14.6552 13.8563 14.5526 13.4899C14.1941 12.2082 14.435 12.2396 13.1418 12.9134C12.8822 13.0488 12.7698 13.2012 12.8524 13.5105C13.2093 14.847 13.538 16.1909 13.905 17.5248C13.9476 17.6795 14.1659 17.7856 14.3969 18.0032ZM18.6993 14.7126C18.6357 13.7645 18.5849 12.8702 18.5131 11.9774C18.4122 10.719 18.401 10.7082 17.2039 11.1778C17.043 11.2411 16.8476 11.4901 16.8503 11.6501C16.8621 12.3488 16.9004 13.0527 17.0072 13.7425C17.1183 14.4593 17.3192 15.1626 17.4811 15.8717C17.5988 15.1852 17.9911 14.8283 18.6993 14.7126ZM17.8577 20.0059C18.3506 20.0659 18.7399 20.1361 19.1312 20.1475C19.257 20.1515 19.4868 20.0145 19.5005 19.9178C19.6975 18.5532 19.8732 17.1853 20.0246 15.8151C20.0364 15.7079 19.8358 15.4785 19.7231 15.4709C18.5947 15.3956 18.4223 15.5371 18.2729 16.6504C18.1254 17.7457 18.0006 18.8438 17.8577 20.0059ZM17.117 19.7018C17.1586 17.8715 16.6045 16.1572 16.3495 14.3121C15.9166 14.4924 15.6141 14.6454 15.2949 14.7441C14.879 14.8729 14.8013 15.1239 14.882 15.5211C15.0642 16.4167 15.2123 17.3193 15.3791 18.2179C15.5545 19.1614 15.9828 19.5439 17.117 19.7018ZM20.2979 20.2108C20.7583 20.1747 21.1293 20.141 21.5013 20.1184C21.806 20.1 21.8772 19.9476 21.8536 19.655C21.6841 17.5628 21.5163 15.47 21.3764 13.3752C21.2902 12.0826 21.3718 12.2236 20.1976 12.5991C20.019 12.6562 19.7473 12.8233 19.7421 12.9488C19.7211 13.4476 19.7811 13.9507 19.8332 14.4498C19.8407 14.5206 19.9613 14.6002 20.0462 14.6392C20.7931 14.9836 20.9156 15.1767 20.8173 16.0163C20.6571 17.3848 20.4794 18.7514 20.2979 20.2108ZM24.9122 18.7776C24.9751 18.6954 25.0518 18.62 25.0993 18.5296C25.3189 18.115 25.5758 17.7873 26.1234 17.804C26.2244 17.8069 26.382 17.5415 26.4325 17.3753C26.8333 16.0536 27.2249 14.7287 27.5985 13.3991C27.9305 12.2164 28.135 12.2924 26.7376 12.2327C26.3276 12.2154 26.1687 12.3583 26.0779 12.7387C25.9242 13.3834 25.741 14.0237 25.5273 14.651C25.0787 15.9681 24.8165 17.3137 24.9122 18.7776ZM22.6965 19.7942C23.677 19.7389 23.8638 19.5606 23.9536 18.6187C23.9998 18.137 24.0614 17.6565 24.1129 17.1751C24.2331 16.052 24.3426 14.9273 24.4747 13.8055C24.5229 13.3958 24.3996 13.268 23.9762 13.3103C22.8593 13.4217 22.8577 13.405 22.741 14.551C22.7319 14.6402 22.7165 14.7287 22.703 14.8175C22.4553 16.4761 22.4274 18.135 22.6965 19.7942ZM14.0519 25.1086C14.2691 25.1086 14.4618 25.1086 14.6545 25.1086C15.7868 25.1079 16.9188 25.1174 18.0507 25.101C18.3702 25.0961 18.5665 25.159 18.716 25.4838C18.9739 26.0432 19.3793 26.4961 20.0593 26.4889C20.7131 26.4817 21.108 26.0455 21.3558 25.5002C21.4993 25.1846 21.6809 25.0954 22.0112 25.1004C23.2149 25.1187 24.419 25.1138 25.6227 25.0991C25.7734 25.0971 26.0363 25.0086 26.0549 24.9198C26.189 24.2817 26.2735 23.6332 26.381 22.943C24.8516 22.943 23.4168 22.9358 21.9817 22.9489C21.6776 22.9518 21.4921 22.881 21.3617 22.5782C21.1218 22.0201 20.7092 21.5862 20.0744 21.5731C19.4134 21.5593 18.9759 21.9903 18.7281 22.5704C18.5865 22.902 18.3758 22.9528 18.0582 22.9492C16.8008 22.9348 15.5427 22.9426 14.2849 22.9456C14.0994 22.9459 13.9139 22.9636 13.6969 22.9751C13.8195 23.7125 13.9306 24.3807 14.0519 25.1086ZM13.0962 17.6968C12.7672 16.4115 12.4532 15.1789 12.136 13.9474C11.8512 12.8423 11.9662 12.6568 12.9396 12.0885C14.3619 11.2584 14.9901 11.5216 15.2978 13.134C15.3346 13.326 15.3991 13.5125 15.4686 13.7678C15.7062 13.6819 15.9169 13.6062 16.1571 13.5197C16.1162 12.8826 16.0706 12.2573 16.0372 11.6314C16.0008 10.9484 16.2142 10.6394 16.8588 10.4221C17.1649 10.3189 17.4719 10.2182 17.781 10.1235C18.6121 9.86922 19.1466 10.2199 19.2557 11.0962C19.2911 11.379 19.3046 11.6648 19.3331 12.0115C19.7562 11.8798 20.1448 11.7605 20.5325 11.6373C21.5363 11.3177 22.0328 11.6478 22.1325 12.7024C22.139 12.7732 22.1534 12.843 22.1642 12.9141C23.1635 12.6208 24.145 12.1466 25.1668 12.8072C25.8013 11.4092 25.8013 11.4092 27.4284 11.4705C28.4614 11.5098 28.8438 12.0322 28.5568 13.0294C28.1589 14.4101 27.7529 15.7885 27.3517 17.1682C27.3075 17.3199 27.2731 17.4746 27.2334 17.631C28.0698 17.7466 28.1478 17.8427 28.0223 18.6033C27.4927 21.812 26.9536 25.0191 26.4387 28.2301C26.366 28.6817 26.149 28.798 25.7272 28.8511C24.6792 28.9839 23.7622 28.486 22.7797 28.3137C20.4024 27.8968 18.0664 27.966 15.7517 28.7282C15.2457 28.895 14.6476 28.8416 14.1013 28.7908C13.9372 28.7757 13.7091 28.4438 13.6714 28.2285C13.2617 25.8928 12.8848 23.5509 12.4981 21.211C12.3661 20.4133 12.234 19.6156 12.0977 18.8186C11.9168 17.7597 11.9718 17.689 13.0962 17.6968Z" fill="white"/>
</svg>
