<svg width="40" height="40" viewBox="0 0 40 40" fill="none" xmlns="http://www.w3.org/2000/svg">
<rect x="0.05" y="0.0932739" width="39.9" height="38.9" rx="1.95" fill="#6B7A99" fill-opacity="0.29" stroke="black" stroke-width="0.1"/>
<path d="M15.1669 26.9284C14.772 26.9336 14.4928 27.0968 14.4758 27.4593C14.4581 27.8316 14.7402 28.0131 15.0912 28.0256C15.4452 28.0384 15.7267 27.8689 15.7431 27.498C15.7598 27.1204 15.4815 26.9628 15.1669 26.9284ZM12.1522 27.4842C12.1165 27.109 11.9012 26.9326 11.5322 26.932C11.1684 26.9317 10.9118 27.0929 10.9043 27.4717C10.8964 27.8552 11.1579 28.0239 11.5158 28.0276C11.8733 28.0312 12.1109 27.8666 12.1522 27.4842ZM18.7129 28.0348C19.0727 27.9994 19.3323 27.846 19.3159 27.4563C19.2995 27.0696 19.036 26.9212 18.6765 26.9317C18.314 26.9425 18.0686 27.1116 18.0807 27.4999C18.0931 27.8945 18.371 28.0161 18.7129 28.0348ZM18.6981 23.4565C18.3717 23.528 18.0807 23.6476 18.0823 24.0428C18.084 24.4318 18.3442 24.6029 18.6958 24.6081C19.055 24.6134 19.3077 24.422 19.3152 24.0467C19.3231 23.6577 19.0298 23.528 18.6981 23.4565ZM12.1506 24.0684C12.1316 23.6744 11.8809 23.4824 11.5427 23.4745C11.2064 23.4663 10.9223 23.64 10.9102 24.0277C10.8984 24.4151 11.1517 24.5957 11.5073 24.6071C11.8668 24.6193 12.0975 24.4357 12.1506 24.0684ZM10.3661 20.507C10.2862 20.2701 10.1053 20.0558 9.72545 20.0603C9.3512 20.0649 9.09754 20.2632 9.09492 20.6158C9.0923 20.9809 9.38364 21.1831 9.73299 21.1746C10.0666 21.1664 10.3455 21.0156 10.3661 20.507ZM17.0552 20.0708C16.5512 20.0384 16.2858 20.2432 16.2648 20.5853C16.2428 20.939 16.5214 21.1707 16.8757 21.1736C17.204 21.1759 17.5164 21.0524 17.5285 20.6453C17.5406 20.2537 17.285 20.097 17.0552 20.0708ZM15.0627 22.8807C15.4448 22.8899 15.7181 22.7231 15.7467 22.36C15.7762 21.9808 15.493 21.7904 15.1437 21.772C14.7917 21.7537 14.5 21.9306 14.4758 22.2974C14.4512 22.6693 14.716 22.8496 15.0627 22.8807ZM12.1506 22.3259C12.1273 21.9418 11.873 21.7776 11.5289 21.7756C11.1864 21.7737 10.9079 21.9264 10.9085 22.3236C10.9092 22.7123 11.154 22.8728 11.5197 22.8781C11.8894 22.883 12.1099 22.7132 12.1506 22.3259ZM12.1571 25.7466C12.1083 25.3871 11.8864 25.196 11.523 25.2026C11.1674 25.2092 10.9092 25.3763 10.9079 25.7676C10.9066 26.1654 11.1946 26.329 11.5286 26.3326C11.8746 26.3365 12.1178 26.1379 12.1571 25.7466ZM19.3257 25.7561C19.2883 25.3969 19.0711 25.2056 18.707 25.2026C18.3468 25.2 18.0902 25.3724 18.0797 25.7545C18.0686 26.1468 18.354 26.3234 18.6889 26.3313C19.0294 26.3391 19.2864 26.1576 19.3257 25.7561ZM12.1503 20.5863C12.1018 20.2019 11.8596 20.0489 11.4978 20.0636C11.1324 20.0784 10.8951 20.2534 10.9075 20.645C10.9206 21.0497 11.2284 21.1923 11.5512 21.1785C11.8766 21.1644 12.1581 20.9943 12.1503 20.5863ZM19.3205 22.3449C19.2952 21.9172 19.0291 21.7714 18.6843 21.7756C18.336 21.7799 18.0653 21.948 18.0787 22.3406C18.0918 22.7234 18.3422 22.8859 18.7096 22.8794C19.0773 22.8728 19.2978 22.7018 19.3205 22.3449ZM13.3517 20.0577C12.9915 20.0669 12.7159 20.2072 12.6907 20.5893C12.6648 20.9858 12.9515 21.1569 13.2927 21.1739C13.6434 21.1916 13.935 20.9999 13.9537 20.6381C13.9727 20.2753 13.7154 20.0807 13.3517 20.0577ZM13.976 22.3482C13.9183 21.9811 13.6794 21.7724 13.3359 21.7681C13.0053 21.7638 12.6959 21.909 12.6913 22.3092C12.6871 22.6936 12.9381 22.8646 13.3019 22.8787C13.6738 22.8932 13.8839 22.6939 13.976 22.3482ZM15.7611 20.5876C15.6887 20.2353 15.4602 20.0518 15.0974 20.0617C14.7389 20.0712 14.4659 20.2501 14.4741 20.627C14.4823 21.0061 14.7904 21.1831 15.1246 21.1775C15.4606 21.1723 15.7214 20.9855 15.7611 20.5876ZM18.6578 20.058C18.3494 20.0823 18.083 20.2216 18.0787 20.6145C18.0741 21.0134 18.3655 21.1736 18.6978 21.1759C19.0337 21.1782 19.3244 21.0166 19.3188 20.6165C19.3132 20.2308 19.0701 20.0659 18.6578 20.058ZM13.9743 27.4727C13.8967 27.1198 13.6837 26.9182 13.3166 26.9284C12.9637 26.9382 12.6907 27.0883 12.692 27.4839C12.693 27.8817 12.9745 28.0285 13.3232 28.0318C13.6846 28.0357 13.9049 27.8345 13.9743 27.4727ZM9.74479 26.3503C10.0555 26.2756 10.3609 26.1723 10.3543 25.7748C10.3478 25.3527 10.0637 25.1898 9.68449 25.2C9.32367 25.2098 9.07984 25.432 9.09721 25.7853C9.11425 26.1376 9.39118 26.3083 9.74479 26.3503ZM10.3622 27.4514C10.3153 27.0873 10.0778 26.9297 9.71759 26.9294C9.34562 26.929 9.09328 27.1303 9.09819 27.4894C9.10311 27.8545 9.37872 28.042 9.74053 28.0308C10.0909 28.0203 10.3442 27.8673 10.3622 27.4514ZM17.538 22.3744C17.5278 21.9428 17.2561 21.7799 16.9206 21.7687C16.5774 21.7573 16.2792 21.9411 16.272 22.3134C16.2651 22.6746 16.508 22.8794 16.8852 22.8797C17.247 22.88 17.4826 22.7221 17.538 22.3744ZM9.75003 21.7589C9.38528 21.7986 9.09361 21.9572 9.09656 22.3278C9.09885 22.6867 9.35054 22.8846 9.72676 22.8778C10.0889 22.8712 10.3442 22.7234 10.3534 22.3301C10.3629 21.9218 10.063 21.8166 9.75003 21.7589ZM16.9104 26.3483C17.2358 26.2752 17.5409 26.1638 17.5281 25.7597C17.516 25.3733 17.2548 25.2059 16.8976 25.2026C16.5293 25.1997 16.2697 25.41 16.2704 25.7686C16.271 26.1346 16.5679 26.2923 16.9104 26.3483ZM16.9153 28.0361C17.2693 28.0066 17.538 27.863 17.5295 27.4665C17.5209 27.0686 17.2414 26.9277 16.8894 26.9277C16.5247 26.9274 16.2615 27.1198 16.2694 27.4914C16.2772 27.8647 16.5545 28.0256 16.9153 28.0361ZM17.5399 24.0716C17.518 23.6682 17.2647 23.4883 16.9301 23.4752C16.5499 23.4608 16.255 23.6839 16.2674 24.0733C16.2786 24.4161 16.5456 24.6232 16.9104 24.6127C17.265 24.6022 17.4901 24.423 17.5399 24.0716ZM9.77953 23.4604C9.41412 23.4824 9.12605 23.6505 9.09754 23.9946C9.06509 24.3833 9.33448 24.6134 9.72709 24.6117C10.0738 24.6101 10.3367 24.4416 10.355 24.0621C10.374 23.6702 10.0866 23.5414 9.77953 23.4604ZM13.9747 24.0408C13.9003 23.6902 13.6696 23.4696 13.331 23.4726C12.9696 23.4762 12.6595 23.659 12.691 24.0854C12.7185 24.4561 12.9925 24.6176 13.3422 24.6134C13.7066 24.6091 13.9 24.3846 13.9747 24.0408ZM13.9809 25.746C13.8944 25.4405 13.7217 25.2036 13.3494 25.1983C12.9964 25.1934 12.7225 25.3475 12.6907 25.7168C12.654 26.1428 12.9643 26.3273 13.3258 26.3355C13.6676 26.3434 13.8947 26.1199 13.9809 25.746ZM15.1102 23.4559C14.7789 23.5207 14.4715 23.6607 14.4725 24.0294C14.4735 24.4266 14.7563 24.6297 15.1482 24.6094C15.5009 24.5911 15.7591 24.3961 15.7476 24.0248C15.7358 23.6505 15.4432 23.5135 15.1102 23.4559ZM15.123 26.3604C15.4124 26.2854 15.7254 26.1792 15.747 25.801C15.7683 25.4287 15.5215 25.2295 15.1659 25.2042C14.776 25.1764 14.4869 25.3632 14.4725 25.7627C14.4587 26.1379 14.771 26.2729 15.123 26.3604ZM14.3719 19.011C15.9082 19.011 17.4449 19.0185 18.9809 19.007C19.5046 19.0031 20.2387 19.086 20.2302 18.3657C20.2227 17.7322 19.5282 17.7538 19.0124 17.7535C15.9397 17.7512 12.867 17.7519 9.79427 17.7535C9.60026 17.7538 9.39675 17.7401 9.21388 17.7912C8.90353 17.8774 8.58105 18.019 8.59514 18.407C8.60924 18.7927 8.93696 18.914 9.25321 18.9831C9.44066 19.0241 9.64156 19.0097 9.83622 19.01C11.348 19.0116 12.8601 19.011 14.3719 19.011ZM20.2846 23.4637C20.2649 25.2763 21.7246 26.7363 23.5775 26.757C25.3875 26.7773 26.8908 25.3501 26.9164 23.5873C26.9426 21.7651 25.4986 20.3248 23.6264 20.3055C21.8003 20.2865 20.3039 21.7009 20.2846 23.4637ZM13.1488 16.6642C13.7882 16.6642 14.4318 16.6645 15.0758 16.6642C18.1747 16.6638 21.2746 16.7133 24.3719 16.6448C26.3396 16.6013 27.9156 17.9213 27.792 20.0846C27.6855 21.9572 27.7724 23.8409 27.7691 25.7197C27.7655 27.4885 26.566 28.8233 24.7881 28.8387C19.8596 28.8813 14.9303 28.8832 10.0017 28.839C8.2317 28.8233 7.01717 27.4763 7.00832 25.7148C6.99882 23.7141 6.99587 21.7134 7.00799 19.7126C7.01848 18.0032 8.21335 16.6317 9.91455 16.7137C11.4935 16.7897 12.7103 16.2355 13.9324 15.3674C15.6578 14.1411 17.4511 13.0101 19.2189 11.8431C19.5046 11.6543 19.7412 11.4983 19.7494 11.069C19.7573 10.6449 20.128 10.4729 20.5429 10.5125C20.926 10.5492 21.1839 10.7495 21.1973 11.1608C21.2111 11.5783 20.9302 11.8382 20.5779 11.8405C20.1122 11.8431 19.8084 12.0964 19.4696 12.3206C17.44 13.6645 15.4114 15.0098 13.3845 16.3581C13.2927 16.4194 13.1364 16.4279 13.1488 16.6642Z" fill="white"/>
<path d="M34.6453 18.9845C34.6453 19.2037 34.643 19.423 34.6459 19.6422C34.6502 19.9588 34.5266 20.0355 34.195 20.0063C32.8346 19.8857 32.8929 19.8949 32.7356 18.5234C32.381 15.4297 30.5435 13.4876 27.7497 12.3413C27.459 12.222 27.1539 12.1315 26.8488 12.0532C25.6952 11.7573 25.7382 11.7645 25.8253 10.625C25.8699 10.0446 26.0288 9.98429 26.5706 10.08C30.8349 10.8341 33.9226 13.8753 34.5879 18.039C34.6377 18.35 34.6466 18.6679 34.6748 18.9828L34.6453 18.9845Z" fill="white"/>
<path d="M30.5886 18.7763C30.5309 19.027 30.7187 19.5497 30.4535 19.5906C29.9479 19.6686 29.3986 19.5317 28.8811 19.4202C28.7307 19.3878 28.8185 19.1109 28.8136 18.946C28.7563 17.0525 27.701 15.6547 25.8579 15.1825C25.3401 15.0498 25.2946 14.8793 25.3775 14.4117C25.5885 13.2211 25.5613 13.2162 26.7202 13.6009C29.0129 14.3619 30.5345 16.3793 30.5886 18.7763Z" fill="white"/>
<path d="M23.5673 24.918C22.7637 24.9033 22.0775 24.2619 22.0762 23.5242C22.0752 22.7639 22.8109 22.1039 23.6387 22.1222C24.4387 22.1399 25.125 22.7852 25.1292 23.5232C25.1338 24.2835 24.4063 24.9331 23.5673 24.918Z" fill="white"/>
</svg>
