<svg width="40" height="40" viewBox="0 0 40 40" fill="none" xmlns="http://www.w3.org/2000/svg">
<rect x="0.05" y="0.0932739" width="39.9" height="38.9" rx="1.95" fill="#6B7A99" fill-opacity="0.29" stroke="black" stroke-width="0.1"/>
<path d="M18.5123 10.1065H21.7105C21.3933 9.66539 19.0357 9.63917 18.5123 10.1065ZM14.4945 26.5338C14.7173 23.7485 14.2287 15.3576 13.7266 13.7563C12.8582 18.1334 12.7566 22.4442 12.7382 26.8094C13.3602 26.7118 13.918 26.6243 14.4945 26.5338ZM19.424 17.3606C19.4132 17.374 19.4018 17.3865 19.39 17.3989C19.2644 17.588 19.1393 17.7771 18.9597 18.0485C17.5842 15.9219 16.1232 14.1053 15.4304 11.8123C15.1037 11.9437 14.7471 12.0872 14.3703 12.239C14.5931 14.244 14.8651 16.2188 15.0182 18.2028C15.1712 20.1865 15.2053 22.1794 15.2944 24.2378C15.5655 24.2378 15.8715 24.2375 16.1776 24.2381C16.4287 24.2385 16.7141 24.225 16.7138 24.577C16.7131 24.9463 16.4244 24.9516 16.1488 24.948C15.847 24.944 15.5451 24.947 15.2269 24.947C15.2269 25.5556 15.2187 26.0783 15.2299 26.6007C15.2371 26.9274 15.1968 27.185 14.7888 27.2263C14.7029 27.2351 14.5761 27.3836 14.5643 27.4793C14.5227 27.8191 14.4974 28.1662 14.5217 28.5064C14.5292 28.6139 14.695 28.7689 14.815 28.8C15.4612 28.9678 16.1101 29.1539 16.7698 29.2297C17.1143 29.269 17.5901 29.211 17.8235 28.997C18.9479 27.9679 19.7655 26.7406 19.7809 25.1413C19.7986 23.3091 19.7839 21.4768 19.7868 19.6445C19.7872 19.4108 19.8081 19.1772 19.8206 18.9248C20.3813 19.1136 20.5373 19.4311 20.5245 19.9588C20.4849 21.5774 20.5534 23.1993 20.497 24.8169C20.44 26.4545 21.2065 27.6877 22.2421 28.8295C22.5711 29.1923 22.9828 29.3037 23.4403 29.2473C23.8925 29.1916 24.3451 29.1153 24.7878 29.0068C25.7864 28.7623 25.7838 28.7522 25.7323 27.7624C25.7291 27.6969 25.7517 27.6163 25.7212 27.5691C25.6383 27.4416 25.5534 27.2561 25.4338 27.2237C25.109 27.1355 25.0359 26.9359 25.0412 26.6413C25.0503 26.0907 25.0438 25.5395 25.0438 24.948C24.8495 24.948 24.7017 24.9699 24.5634 24.9434C24.2376 24.8808 23.6752 25.1662 23.6762 24.5793C23.6772 24.0222 24.2238 24.302 24.5362 24.2408C24.6885 24.2106 24.8517 24.2355 25.1487 24.2355V18.7632C25.204 18.755 25.2598 18.7465 25.3151 18.7383C25.3056 19.0795 25.3577 19.3499 25.8244 19.1319C25.8244 19.3731 25.8257 19.5501 25.8241 19.7271C25.8041 21.8373 25.7785 23.9475 25.7736 26.0576C25.7733 26.229 25.8841 26.5237 25.9955 26.5512C26.492 26.6741 27.0075 26.7206 27.5145 26.7947C27.8425 24.6855 27.117 15.4395 26.4989 13.8376C26.2482 14.6415 26.4615 15.5234 26.0371 16.2408C25.4341 15.9245 25.5436 15.4618 25.6104 14.9856C25.7238 14.1771 25.8054 13.3637 25.8834 12.5506C25.8949 12.432 25.848 12.2341 25.7667 12.1924C25.4577 12.0338 25.1234 11.9244 24.8111 11.8011C24.7259 12.123 24.7023 12.4133 24.5771 12.6499C24.0423 13.6587 23.4812 14.6536 22.9175 15.6469C22.8599 15.7489 22.7321 15.837 22.6177 15.8767C22.1825 16.0281 22.0478 16.3686 21.9934 16.7789C21.9737 16.9293 21.9219 17.0755 21.8849 17.2239C21.7142 16.6278 21.7486 16.1139 22.091 15.5821C22.7438 14.5681 23.3069 13.4958 23.8932 12.4399C24.1052 12.0581 24.1632 11.6252 23.8348 11.2981C23.4265 10.8911 22.9513 10.5509 22.4528 10.1389C22.3991 10.3549 22.3742 10.4467 22.3539 10.5394C22.0691 11.8464 21.7892 13.1543 21.4962 14.4596C21.448 14.6736 21.373 14.8938 21.256 15.0767C21.1383 15.2599 20.8991 17.1066 21.0161 17.2951C21.2898 17.7365 21.1459 18.3841 20.7677 18.659C20.6635 17.7968 20.5527 16.8959 20.4482 15.994C20.439 15.9167 20.4685 15.8337 20.4855 15.7548C20.652 14.9895 20.8218 14.225 20.9866 13.4594C21.1672 12.6208 21.3438 11.7812 21.5369 10.8724H18.747C19.0944 12.4917 19.4211 14.006 19.7423 15.5214C19.7911 15.7508 19.8258 16.0432 19.4971 16.0327C19.3434 16.0281 19.1029 15.8079 19.0626 15.6453C18.8037 14.6005 18.59 13.5443 18.3593 12.4923C18.1948 11.7418 18.0266 10.9917 17.8464 10.1806C17.4712 10.4444 17.1674 10.6361 16.8875 10.8586C16.1685 11.4311 16.0482 11.8169 16.4824 12.6336C17.0563 13.7127 17.6871 14.7631 18.3258 15.8062C18.6329 16.3076 19.0144 16.7638 19.3621 17.2403C19.3827 17.2803 19.4034 17.3206 19.424 17.3606ZM26.4438 27.3774C26.4717 27.925 26.5244 28.3815 26.5021 28.8341C26.494 29.0002 26.3357 29.267 26.1987 29.3017C25.2234 29.5475 24.2425 29.7828 23.2505 29.9434C22.6586 30.0394 22.1038 29.8022 21.7266 29.3234C21.1583 28.6017 20.6337 27.846 20.1283 27.1568C19.7147 27.7556 19.271 28.4339 18.7902 29.0851C18.2279 29.8467 17.4302 30.0955 16.5309 29.93C15.7323 29.7832 14.9487 29.5525 14.1599 29.3519C13.842 29.2709 13.7165 29.0599 13.7519 28.7299C13.7968 28.3104 13.8197 27.8883 13.8587 27.3833C13.4153 27.4436 13.0168 27.476 12.6288 27.5566C12.2021 27.6451 11.9881 27.4967 12.0005 27.0667C12.0697 24.6652 12.0739 22.2587 12.2417 19.8641C12.3794 17.8977 12.714 15.9455 12.9614 13.9874C12.9634 13.971 12.965 13.9546 12.9683 13.9385C13.3868 11.8903 13.4051 11.885 15.3157 11.0631C15.6759 10.9084 16.0197 10.6656 16.3051 10.3942C17.675 9.09188 19.3369 8.9503 21.101 9.08205C22.1127 9.15775 22.9919 9.53168 23.6946 10.2084C24.37 10.8589 25.1805 11.1936 26.0214 11.4918C26.4651 11.6488 26.7561 11.9021 26.8633 12.3511C27.113 13.3958 27.4417 14.4331 27.5656 15.4936C27.6606 16.3073 28.2204 24.9041 28.2728 27.028C28.2849 27.5163 28.1257 27.6284 27.6456 27.5494C27.2634 27.4868 26.879 27.439 26.4438 27.3774Z" fill="white"/>
<path d="M19.5729 17.36C19.6846 17.4285 19.8783 17.4823 19.8937 17.5678C19.9573 17.9217 19.9668 18.2855 19.9976 18.6663C19.4139 18.5749 19.335 18.3796 19.3894 17.398C19.4015 17.3859 19.413 17.3731 19.4238 17.36C19.4736 17.36 19.5231 17.36 19.5729 17.36Z" fill="white"/>
<path d="M19.5724 17.3597C19.5226 17.3597 19.4731 17.3597 19.4233 17.3597C19.4026 17.3194 19.382 17.2794 19.3613 17.2394C19.3925 17.0677 19.3898 16.8792 19.4655 16.7305C19.5222 16.619 19.6792 16.5587 19.7916 16.4758C19.846 16.6095 19.9765 16.7727 19.9388 16.871C19.8683 17.0539 19.6999 17.1988 19.5724 17.3597Z" fill="white"/>
<path d="M24.9001 17.1937V15.9025C24.6602 15.8717 24.4718 15.8478 24.2636 15.8212C24.1529 16.0624 24.0457 16.2954 23.9385 16.5288L24.0585 16.5124C24.1034 16.7143 24.1775 16.9158 24.1804 17.1183C24.1817 17.2131 24.0451 17.3094 23.953 17.428C23.4797 16.6041 23.5348 15.8573 24.1044 15.2326C24.1752 15.1546 24.4773 15.1445 24.5196 15.2067C24.8103 15.6351 25.0852 16.0791 25.3143 16.5432C25.4566 16.8316 25.2566 17.139 24.9001 17.1937Z" fill="white"/>
<path d="M21.8194 21.0321C21.5474 21.3132 21.3409 21.7334 20.9375 21.3457C20.8333 21.2454 20.83 20.8554 20.9323 20.7591C21.3114 20.4005 21.5526 20.746 21.8194 21.0321Z" fill="white"/>
<path d="M21.8064 24.3383C21.5708 24.6509 21.3404 24.9809 20.9484 24.6601C20.8419 24.5729 20.8236 24.1777 20.9219 24.0768C21.2915 23.6969 21.5409 24.0315 21.8064 24.3383Z" fill="white"/>
</svg>
