<svg width="40" height="40" viewBox="0 0 40 40" fill="none" xmlns="http://www.w3.org/2000/svg">
<rect x="0.05" y="0.0932739" width="39.9" height="38.9" rx="1.95" fill="#6B7A99" fill-opacity="0.29" stroke="black" stroke-width="0.1"/>
<path d="M25.8994 17.0559C25.8752 17.166 25.8519 17.2761 25.8224 17.3849C25.8172 17.4033 25.7801 17.4295 25.7638 17.4259C25.3541 17.3335 24.9451 17.2378 24.524 17.1395C24.5587 16.9956 24.5863 16.8567 24.6272 16.7213C24.6502 16.644 24.7219 16.6594 24.7819 16.6731C24.9802 16.7184 25.1781 16.7652 25.3761 16.8118C25.5206 16.8455 25.6651 16.8783 25.8093 16.914C25.8971 16.9356 25.9181 16.9704 25.8994 17.0559ZM25.6228 18.2377C25.6186 18.2528 25.5648 18.2672 25.5383 18.2609C25.2007 18.1852 24.8642 18.1063 24.5273 18.0266C24.3306 17.9801 24.3303 17.9788 24.3746 17.7795C24.39 17.7107 24.4077 17.6422 24.4267 17.5629C24.8579 17.6635 25.2817 17.7622 25.7123 17.8621C25.6822 17.9935 25.6569 18.1167 25.6228 18.2377ZM25.4511 18.9882C25.3567 19.3945 25.2601 19.8009 25.168 20.2079C25.1529 20.2745 25.1319 20.3066 25.0562 20.3017C24.9386 20.2941 24.8196 20.3023 24.7016 20.2971C24.6718 20.2961 24.6312 20.2774 24.6151 20.2535C24.2526 19.7127 24.5197 18.8528 25.1214 18.6155C25.2551 18.5628 25.3915 18.552 25.5432 18.5828C25.5114 18.7224 25.4819 18.8554 25.4511 18.9882ZM25.3718 20.536C25.4773 20.536 25.479 20.5363 25.4793 20.6451C25.4813 21.2363 25.4826 21.8275 25.4842 22.4187V22.6327H15.6182V20.536H25.3718ZM15.2429 16.8973C15.2413 16.8901 15.2407 16.8829 15.2407 16.8812C15.241 16.8816 15.241 16.8822 15.241 16.8832C15.3934 16.8311 15.5389 16.781 15.6932 16.7279C15.9485 17.9018 16.2071 19.0924 16.4696 20.2997C16.3467 20.2997 16.2323 20.3007 16.1183 20.2997C15.9629 20.2981 15.9869 20.3207 15.9541 20.1709C15.7165 19.0799 15.4799 17.9886 15.2429 16.8973ZM15.3694 15.8237C15.3727 15.806 15.3983 15.7837 15.4173 15.7791C15.5264 15.7519 15.6365 15.7267 15.7476 15.7077C15.7722 15.7037 15.8125 15.7201 15.8273 15.7404C15.9826 15.9571 16.1343 16.1766 16.2864 16.3949C16.1901 16.4877 15.9856 16.4873 15.8509 16.3956C15.7237 16.3087 15.6991 16.3136 15.6208 16.4418C15.5356 16.582 15.3783 16.6594 15.2223 16.6309C15.2715 16.3585 15.3187 16.0908 15.3694 15.8237ZM17.1735 20.2977C17.0126 20.2977 16.8648 20.3004 16.7174 20.2945C16.7006 20.2938 16.6771 20.2486 16.6712 20.221C16.5892 19.856 16.5096 19.4902 16.4303 19.1245C16.2589 18.337 16.0881 17.5491 15.9174 16.7613C15.9108 16.7298 15.9063 16.698 15.903 16.681C16.0583 16.6672 16.2091 16.6541 16.3782 16.6391C16.6397 17.8421 16.9051 19.0635 17.1735 20.2977ZM17.7081 17.1188C18.0473 17.1644 18.0473 17.1644 18.2599 17.0687C18.2944 17.3515 18.3284 17.6307 18.3638 17.9201C18.1413 17.9411 17.9293 17.9611 17.7081 17.9817V17.1188ZM18.8498 12.4714C18.8485 12.4337 18.8459 12.3964 18.8433 12.3512C19.1045 12.3407 19.3572 12.3308 19.6098 12.321C19.8654 12.3109 20.1214 12.304 20.3767 12.2899C20.4478 12.2863 20.4688 12.3076 20.4652 12.3761C20.4603 12.4659 20.4639 12.5563 20.4639 12.6566C20.3501 12.6615 20.2328 12.6668 20.1155 12.6717C20.0575 12.674 19.9998 12.6766 19.9421 12.6772C19.8828 12.6779 19.8563 12.7103 19.8566 12.7654C19.8569 12.8208 19.8841 12.8509 19.9438 12.8506C20.1194 12.8493 20.2954 12.8503 20.4802 12.8503C20.4825 12.8916 20.4901 12.946 20.4858 12.9994C20.4845 13.0158 20.453 13.0397 20.4327 13.0423C20.3813 13.0492 20.3285 13.0456 20.2764 13.0479C20.2204 13.0505 20.1997 13.0866 20.2014 13.1367C20.2027 13.1868 20.2236 13.2203 20.2817 13.219C20.3501 13.2173 20.4183 13.2186 20.5025 13.2186C20.5025 13.2766 20.5058 13.3307 20.5002 13.3841C20.4986 13.3995 20.4707 13.4212 20.453 13.4235C20.4013 13.4297 20.3485 13.4284 20.2964 13.4287C20.241 13.4287 20.2151 13.4595 20.2138 13.5106C20.2122 13.5647 20.2354 13.6011 20.2964 13.5998C20.3403 13.5988 20.3849 13.6011 20.4285 13.5962C20.4989 13.589 20.5232 13.6198 20.5163 13.687C20.5127 13.7217 20.5156 13.7571 20.5156 13.8098C20.4468 13.8098 20.3819 13.8105 20.3167 13.8095C20.2538 13.8089 20.2259 13.842 20.2279 13.9019C20.2299 13.9603 20.2636 13.9848 20.32 13.9829C20.3338 13.9822 20.3478 13.9832 20.3613 13.9829C20.5428 13.9806 20.5451 13.9832 20.5219 14.1818C20.4658 14.1841 20.4088 14.1893 20.3518 14.1887C20.2872 14.1877 20.24 14.2067 20.2413 14.2788C20.2427 14.3522 20.2944 14.3657 20.3564 14.3637C20.4134 14.3621 20.4704 14.3634 20.5356 14.3634C20.5415 14.4928 20.5501 14.6213 20.5504 14.7494C20.5504 14.7668 20.5114 14.7976 20.4891 14.7989C20.3406 14.8084 20.1922 14.8137 20.0437 14.8156C19.9785 14.8166 19.9352 14.8333 19.9366 14.9074C19.9379 14.9792 19.9824 14.9913 20.0427 14.988C20.1692 14.9818 20.2957 14.9775 20.4222 14.9736C20.4655 14.9723 20.5091 14.9733 20.551 14.9733C20.5822 15.1745 20.5822 15.1764 20.3901 15.183C20.3262 15.1853 20.2771 15.2023 20.2777 15.2725C20.2787 15.3482 20.3315 15.3649 20.3983 15.3609C20.453 15.3573 20.5081 15.36 20.5714 15.36C20.5743 15.4222 20.5769 15.4865 20.5802 15.5582C20.5091 15.5615 20.4468 15.5664 20.3849 15.5668C20.3229 15.5671 20.2905 15.5972 20.2921 15.6569C20.2938 15.7159 20.3265 15.745 20.3891 15.7424C20.4517 15.7391 20.5147 15.7418 20.5858 15.7418V15.9387C20.5255 15.942 20.4632 15.9472 20.4009 15.9479C20.341 15.9489 20.3066 15.9738 20.3069 16.0361C20.3072 16.0986 20.3416 16.1252 20.4019 16.1226C20.4157 16.1222 20.4295 16.1226 20.4432 16.1226C20.6225 16.1193 20.6225 16.1193 20.6015 16.3185C20.5409 16.3222 20.4786 16.3267 20.4163 16.3287C20.358 16.3307 20.321 16.3523 20.322 16.4169C20.3226 16.4795 20.3547 16.5067 20.416 16.5027C20.4272 16.5021 20.438 16.5027 20.4491 16.5024C20.6156 16.5017 20.6169 16.5014 20.6228 16.6646C20.6258 16.7495 20.6235 16.8347 20.6235 16.9363C20.4635 16.9419 20.302 16.9478 20.1404 16.9537C20.1184 16.9543 20.088 16.9471 20.0762 16.9586C20.0503 16.9845 20.0195 17.0182 20.0155 17.0517C20.0103 17.1002 20.0431 17.1326 20.0988 17.1303C20.2279 17.1251 20.3574 17.1205 20.4868 17.1162C20.533 17.1149 20.5795 17.1162 20.6359 17.1162C20.6389 17.1801 20.6418 17.2417 20.6454 17.3145C20.5753 17.3188 20.5107 17.3246 20.4462 17.326C20.3829 17.3269 20.3544 17.36 20.3567 17.419C20.3587 17.4761 20.3924 17.5003 20.4498 17.4983C20.5147 17.496 20.5802 17.4977 20.651 17.4977V17.7002C20.5877 17.7028 20.5251 17.7084 20.4632 17.7078C20.3996 17.7071 20.3695 17.7389 20.3711 17.7976C20.3728 17.8523 20.4032 17.8814 20.4626 17.8792C20.5278 17.8765 20.5933 17.8785 20.6651 17.8785V18.0791C20.6041 18.0823 20.5419 18.0879 20.4796 18.0879C20.4183 18.0882 20.3852 18.1154 20.3859 18.1764C20.3865 18.2387 20.4232 18.2629 20.4832 18.2609C20.5458 18.2593 20.6081 18.2606 20.6792 18.2606V18.4582C20.6199 18.4615 20.5602 18.4674 20.5006 18.4677C20.4373 18.4681 20.4 18.492 20.4006 18.5592C20.4013 18.6241 20.4393 18.6434 20.4986 18.6411C20.5609 18.6388 20.6235 18.6408 20.709 18.6408C20.709 18.7742 20.711 18.903 20.7064 19.0314C20.7057 19.0481 20.6703 19.0763 20.6497 19.0776C20.5042 19.0871 20.3583 19.092 20.2125 19.0953C20.1509 19.097 20.0926 19.0976 20.0912 19.1812C20.0899 19.2648 20.1453 19.268 20.2092 19.2674C20.3741 19.2648 20.5386 19.2664 20.7156 19.2664C20.7182 19.3192 20.7211 19.3834 20.7251 19.4643C20.6582 19.4643 20.5989 19.4656 20.5396 19.464C20.4773 19.462 20.4373 19.482 20.437 19.5515C20.4367 19.6285 20.4852 19.6407 20.5474 19.6387C20.6048 19.637 20.6618 19.6384 20.7277 19.6384V19.8448C20.669 19.8448 20.609 19.8471 20.5494 19.8445C20.4842 19.8415 20.4471 19.8714 20.4488 19.9346C20.4501 19.9985 20.4904 20.027 20.5543 20.0208C20.5622 20.0202 20.5707 20.0208 20.5789 20.0205C20.7673 20.0146 20.7673 20.0146 20.7447 20.2165C20.7008 20.2197 20.6553 20.2243 20.6097 20.226C20.5523 20.2279 20.4934 20.2187 20.4583 20.2846C20.4521 20.2967 20.4193 20.299 20.3986 20.299C19.9992 20.3 19.6 20.2994 19.2005 20.3004C19.152 20.3007 19.1343 20.2863 19.1327 20.2348C19.1173 19.7616 19.0989 19.2887 19.0815 18.8155C19.0534 18.0509 19.0255 17.2866 18.9973 16.5221C18.9806 16.0626 18.9632 15.6035 18.9465 15.144C18.9144 14.2533 18.8823 13.3622 18.8498 12.4714ZM22.9522 18.8102C22.928 18.9472 22.9057 19.0763 22.8824 19.2054C22.8218 19.544 22.7605 19.8822 22.7002 20.2207C22.6927 20.262 22.6907 20.3007 22.6294 20.3004C22.3571 20.2981 22.0844 20.2994 21.8118 20.299C21.8016 20.299 21.7911 20.2941 21.7708 20.2892C21.835 19.7504 21.8993 19.2133 21.9652 18.6601C22.2955 18.7106 22.6193 18.7597 22.9522 18.8102ZM21.566 17.5488C22.2634 17.6586 22.9568 17.7677 23.6585 17.8782C23.6395 18.0047 23.6201 18.1158 23.6074 18.2272C23.6015 18.2796 23.5805 18.2908 23.532 18.2826C23.1466 18.2193 22.7609 18.1574 22.3751 18.0964C22.1116 18.0545 21.8478 18.0148 21.5843 17.9739C21.5604 17.9703 21.5371 17.9627 21.505 17.9552C21.525 17.8218 21.5447 17.6924 21.566 17.5488ZM22.4515 16.2022C22.7045 16.2422 22.9506 16.2812 23.2066 16.3218C23.1702 16.7662 23.2495 17.1886 23.4238 17.6088C22.9001 17.5259 22.3938 17.4462 21.8701 17.3636C22.1579 17.015 22.3578 16.6377 22.4515 16.2022ZM22.5269 15.7234C22.7782 15.7631 23.022 15.8014 23.278 15.8417C23.2649 15.9263 23.2524 16.0056 23.2387 16.0944C22.9844 16.0534 22.7389 16.0144 22.4875 15.9741C22.5016 15.885 22.5138 15.8076 22.5269 15.7234ZM25.1942 16.1039C25.2925 15.9135 25.3895 15.7224 25.4924 15.5346C25.5104 15.5022 25.5563 15.4848 25.5897 15.4606C25.6127 15.4976 25.6543 15.5337 25.6556 15.5713C25.6668 15.9282 25.6713 16.2851 25.6776 16.642C25.6776 16.6499 25.674 16.6574 25.6687 16.68C25.4396 16.6269 25.2168 16.5752 24.9818 16.5208C25.0556 16.3756 25.1244 16.2392 25.1942 16.1039ZM25.9368 16.7531C25.8781 16.7282 25.8696 16.6958 25.869 16.641C25.8647 16.2835 25.8575 15.9256 25.8503 15.5677C25.847 15.414 25.7641 15.301 25.6366 15.2705C25.5131 15.2413 25.3866 15.3108 25.3154 15.4475C25.1519 15.7627 24.9867 16.077 24.8268 16.3939C24.7976 16.4513 24.7685 16.4736 24.7029 16.4716C24.5732 16.4677 24.4719 16.5496 24.4352 16.6748C24.426 16.7062 24.4181 16.7387 24.4109 16.7708C24.1442 17.9145 23.8774 19.0583 23.611 20.202C23.5854 20.3118 23.5628 20.3223 23.4363 20.283C23.5087 19.8812 23.5831 19.4788 23.6529 19.0753C23.7237 18.6634 23.7909 18.2508 23.8574 17.8379C23.8784 17.71 23.8558 17.6851 23.7319 17.656C23.7027 17.6494 23.6644 17.633 23.6532 17.6098C23.452 17.1981 23.3553 16.7649 23.4048 16.3058C23.4235 16.1308 23.4553 15.9574 23.4799 15.7831C23.494 15.6847 23.47 15.6438 23.3878 15.6307C23.0892 15.5822 22.79 15.535 22.4911 15.4888C22.4076 15.476 22.3669 15.5055 22.3528 15.5894C22.3368 15.6818 22.3197 15.7739 22.3102 15.8669C22.2588 16.3949 22.0468 16.8511 21.6977 17.2467C21.6591 17.2906 21.625 17.3299 21.5532 17.3161C21.4408 17.2948 21.4041 17.3263 21.3871 17.44C21.3612 17.6114 21.3333 17.7825 21.312 17.9545C21.2245 18.665 21.1393 19.3755 21.0534 20.086C21.0466 20.1434 21.0423 20.2014 21.0311 20.2581C21.0282 20.2738 21.0046 20.2856 20.9905 20.2994C20.9774 20.2849 20.96 20.2732 20.9528 20.2564C20.9456 20.2397 20.9479 20.2184 20.9473 20.1991C20.9227 19.5391 20.8984 18.879 20.8742 18.219C20.8506 17.578 20.828 16.9373 20.8047 16.2963C20.7785 15.5838 20.7516 14.8713 20.7257 14.1589C20.7021 13.5178 20.6792 12.8768 20.6559 12.2358C20.6513 12.1034 20.5838 12.0388 20.4504 12.0434C19.9002 12.0628 19.3499 12.0831 18.8 12.1037C18.7161 12.1067 18.644 12.1939 18.6476 12.2833C18.6594 12.6022 18.6719 12.9214 18.683 13.2403C18.7033 13.8266 18.7217 14.4125 18.743 14.9985C18.7777 15.9446 18.8148 16.8907 18.8502 17.8369C18.8764 18.5356 18.9019 19.2343 18.9262 19.933C18.9305 20.0526 18.9269 20.1722 18.9269 20.2941H18.7191C18.7561 19.1055 18.5139 17.9486 18.4048 16.7534C18.1194 17.0058 17.8372 17.0304 17.5242 16.7983C17.5809 17.9804 17.4492 19.1373 17.6314 20.2994C17.5655 20.2994 17.5111 20.2961 17.4574 20.3004C17.4043 20.3046 17.3849 20.2807 17.3758 20.2322C17.3567 20.1293 17.3328 20.0277 17.3109 19.9254C17.0736 18.8341 16.8376 17.7425 16.5987 16.6515C16.5755 16.545 16.5601 16.4264 16.502 16.3398C16.1838 15.8669 15.8548 15.4016 15.5251 14.9362C15.4996 14.8998 15.4435 14.8661 15.4009 14.8648C15.3367 14.8631 15.3193 14.9251 15.3088 14.9831C15.2131 15.5081 15.1148 16.0328 15.0204 16.5581C15.0063 16.6377 14.9906 16.7249 15.007 16.8016C15.2315 17.851 15.4612 18.899 15.6896 19.9474C15.7142 20.0611 15.7368 20.1755 15.7634 20.3033H15.375V22.6422H15.3642V22.8831H25.7225V22.6416C25.7225 22.5672 25.7228 22.5069 25.7225 22.4466C25.7225 22.4374 25.7221 22.4279 25.7221 22.4187C25.7185 21.7449 25.7136 21.0712 25.713 20.3974C25.713 20.3171 25.6894 20.2918 25.6107 20.2977C25.5252 20.3043 25.4387 20.2994 25.3479 20.2994C25.3554 20.2597 25.3587 20.2384 25.3636 20.2171C25.5262 19.5178 25.6884 18.8181 25.8516 18.1187C25.9296 17.7838 26.0089 17.4492 26.0872 17.1146C26.1269 16.9455 26.0761 16.8131 25.9368 16.7531Z" fill="white"/>
<path d="M15.3643 25.8812H15.6025V25.6347H15.3643V25.8812ZM25.4846 25.8812H25.7228V25.6347H25.4846V25.8812Z" fill="white"/>
<path d="M25.4843 25.8812H15.6025V25.6354H25.4843V25.8812Z" fill="white"/>
<path d="M25.7366 25.8702C25.7333 25.9 25.7301 25.9233 25.7301 25.9432C25.7232 26.4181 25.7166 26.8966 25.7134 27.3715C25.7134 27.5442 25.6603 27.6969 25.5639 27.8332C25.328 28.1688 24.9894 28.3681 24.6207 28.5208C24.2088 28.6935 23.7769 28.7698 23.3318 28.7698H17.7648C17.1536 28.7666 16.5791 28.6302 16.0577 28.3081C15.9381 28.235 15.8283 28.1455 15.7221 28.0525C15.6756 28.0125 15.6356 27.9695 15.6025 27.9263C15.4331 27.7201 15.3702 27.4744 15.3767 27.1889C15.3865 26.777 15.3734 26.3617 15.3666 25.9498C15.3666 25.9298 15.3666 25.9065 15.3633 25.8767L15.3666 25.6342V25.88H15.6025V25.9796C15.6091 26.4381 15.616 26.8933 15.616 27.3515C15.6192 27.4645 15.6491 27.5674 15.7054 27.6638C15.8119 27.8332 15.9581 27.9627 16.1239 28.0692C16.6289 28.4012 17.1903 28.5342 17.7848 28.5342C19.6315 28.5375 21.4782 28.5375 23.322 28.5342C23.7536 28.5342 24.1721 28.4611 24.5706 28.2884C24.8665 28.1586 25.1389 27.9961 25.3414 27.7369C25.4177 27.6372 25.4774 27.5278 25.4774 27.398C25.4843 26.9199 25.4876 26.4447 25.4941 25.9698V25.88H25.7232V25.6342L25.7366 25.8702Z" fill="white"/>
<path d="M17.8065 14.1599C17.9058 14.1933 17.9539 14.2687 17.9946 14.3503C18.1466 14.6551 18.2515 14.9763 18.321 15.3086C18.3603 15.497 18.3931 15.6871 18.417 15.8781C18.4485 16.1302 18.4003 16.3671 18.2407 16.5716C18.0827 16.7741 17.8324 16.7872 17.6528 16.6024C17.4709 16.4156 17.4139 16.1796 17.4043 15.9289C17.3945 15.6736 17.4545 15.4396 17.6164 15.2345C17.7789 15.0287 17.8114 14.7849 17.8068 14.5322C17.8045 14.4113 17.8065 14.2907 17.8065 14.1599Z" fill="white"/>
<path d="M23.4136 14.4956C23.3625 14.8377 23.3143 15.1592 23.2648 15.4905C23.1213 15.4689 22.9862 15.4486 22.8515 15.4279C22.7893 15.4184 22.7273 15.405 22.6647 15.3988C22.6198 15.3942 22.6021 15.3804 22.6103 15.3313C22.6379 15.1635 22.6605 14.9947 22.688 14.8269C22.6926 14.8004 22.708 14.7617 22.728 14.7538C22.9495 14.667 23.173 14.5854 23.4136 14.4956Z" fill="white"/>
<path d="M25.7236 25.8812H25.4854V22.4208H25.7236V25.8812Z" fill="white"/>
<path d="M15.6025 25.8812H15.3643V22.5138H15.6025V25.8812Z" fill="white"/>
<path d="M25.563 20.4693V27.8332C25.327 28.1688 24.9885 28.3681 24.6198 28.5208C24.2078 28.6935 23.7759 28.7698 23.3309 28.7698H17.7639C17.1527 28.7666 16.5782 28.6306 16.0568 28.3081C15.9371 28.235 15.8274 28.1455 15.7212 28.0525C15.6746 28.0125 15.6347 27.9695 15.6016 27.9263V20.4693H25.563Z" fill="white"/>
</svg>
