<svg width="40" height="40" viewBox="0 0 40 40" fill="none" xmlns="http://www.w3.org/2000/svg">
<rect x="0.05" y="0.0932739" width="39.9" height="38.9" rx="1.95" fill="#6B7A99" fill-opacity="0.29" stroke="black" stroke-width="0.1"/>
<path d="M23.5932 21.2605C23.6142 21.3634 23.6712 21.4319 23.7816 21.4185C23.8714 21.408 23.9304 21.349 23.9268 21.2526C23.9226 21.1356 23.8468 21.0989 23.7403 21.1012C23.6338 21.1032 23.6043 21.1723 23.5932 21.2605ZM23.9311 24.7419C23.9239 24.6386 23.8799 24.5649 23.7643 24.5616C23.6653 24.559 23.606 24.6167 23.5961 24.7091C23.586 24.8002 23.6233 24.8723 23.7276 24.8831C23.8331 24.8939 23.9111 24.8615 23.9311 24.7419ZM23.7816 24.3103C23.8665 24.3027 23.9245 24.2486 23.9258 24.1562C23.9275 24.0471 23.8632 23.9917 23.7515 23.992C23.6492 23.9927 23.5965 24.055 23.5968 24.1434C23.5975 24.2457 23.6568 24.3132 23.7816 24.3103ZM23.7774 19.1031C23.8731 19.0926 23.9278 19.0349 23.9271 18.9432C23.9262 18.8321 23.8554 18.7829 23.7466 18.7839C23.6417 18.7846 23.5984 18.8514 23.5991 18.9406C23.6001 19.049 23.6643 19.1067 23.7774 19.1031ZM23.9294 19.5298C23.9226 19.4226 23.8665 19.3613 23.7574 19.3584C23.6578 19.3558 23.604 19.4154 23.6001 19.5082C23.5965 19.5947 23.6243 19.6701 23.7331 19.6753C23.839 19.6809 23.9111 19.6438 23.9294 19.5298ZM23.5945 22.3957C23.5988 22.5088 23.6423 22.5701 23.7456 22.572C23.855 22.574 23.9291 22.5261 23.9298 22.4098C23.9304 22.3138 23.8714 22.2499 23.7774 22.2456C23.6705 22.2407 23.602 22.2974 23.5945 22.3957ZM23.5896 21.8373C23.6079 21.9251 23.6427 21.9956 23.7492 21.9952C23.8606 21.9952 23.934 21.9454 23.9294 21.8307C23.9252 21.7203 23.856 21.6646 23.742 21.6718C23.6378 21.6787 23.603 21.7481 23.5896 21.8373ZM22.1456 15.5142C22.0323 15.5182 21.9693 15.5703 21.9651 15.6656C21.9605 15.7741 22.0234 15.8465 22.1339 15.8416C22.2384 15.837 22.3095 15.7748 22.2987 15.6597C22.2895 15.5631 22.225 15.5178 22.1456 15.5142ZM23.9314 17.1964C23.9137 17.0968 23.855 17.0293 23.7446 17.0388C23.6522 17.047 23.5929 17.1115 23.5932 17.2046C23.5932 17.3193 23.6666 17.3727 23.777 17.3639C23.8704 17.3564 23.9278 17.3026 23.9314 17.1964ZM22.0414 15.161C22.0132 15.0603 21.9579 14.9922 21.8484 15.0017C21.7576 15.0095 21.6868 15.0692 21.6872 15.1567C21.6875 15.253 21.7471 15.3369 21.8563 15.334C21.9592 15.331 22.0139 15.255 22.0414 15.161ZM23.7767 23.7423C23.8786 23.7161 23.9448 23.6558 23.9278 23.544C23.913 23.4474 23.8419 23.4067 23.7469 23.4113C23.6479 23.4166 23.5899 23.47 23.5945 23.5696C23.5994 23.6791 23.6643 23.7371 23.7767 23.7423ZM27.2584 14.2296C27.245 14.2043 27.2315 14.1788 27.2178 14.1532C26.9209 14.3072 26.6236 14.4613 26.3264 14.615C26.6859 14.5871 26.9569 14.3764 27.2584 14.2296ZM21.4863 14.0883C21.4738 14.032 21.4184 13.9671 21.3247 13.9713C21.2185 13.9759 21.1543 14.0415 21.1582 14.1562C21.1618 14.2604 21.2323 14.3141 21.3208 14.3066C21.4165 14.2987 21.502 14.2486 21.4863 14.0883ZM23.7741 25.4756C23.8488 25.4494 23.9399 25.4206 23.9301 25.3013C23.9216 25.1944 23.8534 25.1332 23.7489 25.1368C23.6571 25.1397 23.602 25.2033 23.5945 25.2947C23.5857 25.4084 23.6541 25.4589 23.7741 25.4756ZM23.7705 18.1976C23.6771 18.2015 23.604 18.2379 23.5948 18.3389C23.5847 18.4493 23.642 18.5217 23.7528 18.5309C23.8468 18.5384 23.9144 18.485 23.9284 18.3906C23.9461 18.2743 23.874 18.2206 23.7705 18.1976ZM23.7643 20.2616C23.8619 20.2472 23.9393 20.2023 23.9294 20.083C23.9212 19.9853 23.8527 19.9299 23.7623 19.9293C23.6528 19.9286 23.5889 19.9971 23.5935 20.1092C23.5978 20.2085 23.66 20.257 23.7643 20.2616ZM21.5911 14.479C21.501 14.5042 21.4194 14.5429 21.4211 14.6566C21.4227 14.7523 21.4882 14.8162 21.5712 14.8221C21.6685 14.829 21.7507 14.77 21.7593 14.6625C21.7675 14.554 21.697 14.4986 21.5911 14.479ZM23.759 22.8126C23.6879 22.8349 23.6096 22.8627 23.5965 22.9633C23.5814 23.077 23.641 23.1491 23.7485 23.1567C23.836 23.1629 23.9121 23.1131 23.9284 23.0174C23.9491 22.8994 23.8652 22.8529 23.759 22.8126ZM23.9343 17.7706C23.9265 17.6837 23.8609 17.6189 23.7613 17.6156C23.6564 17.6123 23.5932 17.6824 23.5938 17.7909C23.5942 17.8869 23.6578 17.9472 23.7449 17.9505C23.8419 17.9538 23.9209 17.9066 23.9343 17.7706ZM23.9307 20.6984C23.934 20.5664 23.8583 20.5139 23.76 20.509C23.6725 20.5048 23.603 20.5552 23.5955 20.6545C23.5873 20.763 23.6417 20.8381 23.7479 20.8449C23.8498 20.8518 23.9199 20.7938 23.9307 20.6984ZM25.958 23.6873C25.958 23.6994 25.958 23.7115 25.958 23.7236H28.9642C28.9642 23.7115 28.9642 23.6994 28.9642 23.6873H25.958ZM28.9573 23.0367C28.9596 23.0233 28.9622 23.0102 28.9645 22.9971H25.9561C25.9561 23.0102 25.9561 23.0233 25.9561 23.0367H28.9573ZM25.9593 20.8735C25.9593 20.8849 25.9593 20.8964 25.9593 20.9082H28.9694C28.9694 20.8964 28.9694 20.8849 28.9698 20.8735H25.9593ZM28.9652 24.8992C28.9652 24.8815 28.9655 24.8638 28.9655 24.8461H25.9502C25.9505 24.8638 25.9508 24.8815 25.9511 24.8992H28.9652ZM28.9691 23.9448L28.9681 23.9045H25.9564L25.957 23.9448H28.9691ZM28.9835 18.7597C28.9839 18.7423 28.9845 18.7246 28.9848 18.7072H25.9397C25.9393 18.7246 25.9387 18.7423 25.9384 18.7597H28.9835ZM25.9393 22.3846C25.9397 22.4065 25.94 22.4282 25.9403 22.4501H28.9878C28.9875 22.4282 28.9871 22.4065 28.9868 22.3846H25.9393ZM25.9538 19.9712C25.9534 19.9889 25.9534 20.0066 25.9531 20.0243H28.9629C28.9626 20.0066 28.9626 19.9889 28.9626 19.9712H25.9538ZM29.0009 22.7398C28.9616 22.7169 28.937 22.6897 28.9121 22.6897C27.962 22.6857 27.0116 22.6841 26.0616 22.6835C26.0131 22.6835 25.9429 22.6677 25.9384 22.7405C25.9305 22.868 26.038 22.8227 26.0966 22.8227C27.0156 22.826 27.9345 22.825 28.8534 22.824C28.9036 22.824 28.957 22.8254 29.0009 22.7398ZM24.0281 14.5219C24.0736 14.4976 24.11 14.478 24.147 14.4586C24.9293 14.048 25.7122 13.639 26.4922 13.2241C26.5581 13.1891 26.7203 13.1891 26.6456 13.058C26.5872 12.9557 26.4965 13.0701 26.4332 13.1029C25.667 13.4981 24.9041 13.8992 24.1405 14.299C24.0851 14.3282 24.0307 14.3587 23.9766 14.3895C23.933 14.4147 23.9216 14.4534 23.9543 14.4901C23.972 14.5098 24.0068 14.5134 24.0281 14.5219ZM26.4358 15.9911C27.0107 16.0468 27.478 16.0324 27.8958 15.7371C27.9935 15.6679 28.0407 15.6152 27.9515 15.5277C27.8781 15.4552 27.9181 15.2265 27.7244 15.3209C27.3118 15.5214 26.9094 15.743 26.4358 15.9911ZM27.4514 20.7925C27.9001 20.7925 28.3491 20.7928 28.798 20.7922C28.8806 20.7918 28.9907 20.8033 28.9927 20.6909C28.995 20.5611 28.8731 20.6037 28.8013 20.6034C27.9139 20.5998 27.0264 20.5991 26.1389 20.6031C26.0688 20.6034 25.9495 20.5487 25.9367 20.6758C25.9216 20.8282 26.0501 20.7902 26.1356 20.7909C26.5741 20.7928 27.013 20.7918 27.4514 20.7925ZM12.2845 18.9704C12.2855 19.0199 12.2868 19.069 12.2881 19.1185C13.5391 19.1185 14.79 19.1192 16.0409 19.1172C16.1333 19.1169 16.266 19.1736 16.2657 18.994C16.2654 18.7934 16.1153 18.8603 16.0173 18.8629C14.8496 18.8921 13.6819 18.9258 12.5143 18.9589C12.4376 18.9609 12.3612 18.9664 12.2845 18.9704ZM12.1702 23.4949C12.1698 23.5142 12.1695 23.5336 12.1692 23.5529C13.4512 23.5808 14.7333 23.6093 16.015 23.6342C16.114 23.6361 16.269 23.7059 16.2647 23.5064C16.2604 23.3114 16.1054 23.3792 16.0071 23.3815C15.0475 23.4012 14.0883 23.4257 13.1287 23.4526C12.8092 23.4615 12.4897 23.4805 12.1702 23.4949ZM27.4744 22.1175C27.9135 22.1175 28.3527 22.1191 28.7918 22.1158C28.876 22.1152 28.9875 22.1565 28.9973 21.9998C29.0075 21.8353 28.9023 21.8445 28.7948 21.8445C27.906 21.8445 27.0172 21.8445 26.1284 21.8425C26.019 21.8425 25.9223 21.8311 25.9292 21.9959C25.9354 22.1548 26.0413 22.1158 26.1255 22.1165C26.5751 22.1191 27.0248 22.1178 27.4744 22.1175ZM26.5056 12.7987C26.4611 12.6362 26.4155 12.5648 26.2438 12.6575C25.4569 13.0819 24.6616 13.4902 23.8691 13.9048C23.7767 13.953 23.6777 13.9897 23.7603 14.1319C23.8321 14.2558 23.8999 14.2073 23.9887 14.1608C24.7799 13.7442 25.5726 13.3313 26.3644 12.9164C26.4247 12.8846 26.5099 12.8728 26.5056 12.7987ZM27.418 20.551C27.8772 20.551 28.3363 20.5503 28.7951 20.5516C28.9052 20.552 29.0062 20.5556 29.0029 20.3966C28.9996 20.236 28.8928 20.2495 28.7866 20.2495C27.8998 20.2495 27.013 20.2495 26.1261 20.2472C26.0118 20.2469 25.9249 20.2491 25.9253 20.4071C25.9256 20.5772 26.0324 20.551 26.1347 20.551C26.5623 20.5513 26.9903 20.551 27.418 20.551ZM27.4747 18.4703V18.4713C27.9132 18.4713 28.3517 18.4709 28.7902 18.4716C28.8967 18.4719 29.0022 18.4854 29.0032 18.3231C29.0042 18.1645 28.9042 18.1688 28.7941 18.1691C27.9066 18.1701 27.0192 18.1701 26.132 18.1691C26.0249 18.1691 25.9256 18.1547 25.9243 18.3189C25.9233 18.4814 26.018 18.4716 26.1278 18.4713C26.5768 18.469 27.0257 18.4703 27.4747 18.4703ZM27.4455 23.5598C27.8939 23.5598 28.3419 23.5611 28.7899 23.5588C28.8862 23.5585 29.0055 23.5955 29.0029 23.4198C29.0003 23.2586 28.9016 23.2704 28.7925 23.2704C27.907 23.2717 27.0215 23.2707 26.136 23.2701C26.0298 23.2697 25.9285 23.254 25.9253 23.4182C25.9216 23.5916 26.0337 23.5594 26.1327 23.5598C26.5705 23.5604 27.008 23.5601 27.4455 23.5598ZM27.4744 21.6665V21.6656C27.9125 21.6656 28.3504 21.658 28.7882 21.6692C28.9586 21.6737 29.0032 21.6112 28.9999 21.4529C28.9966 21.3123 28.9944 21.2199 28.8062 21.2218C27.9096 21.23 27.013 21.232 26.1163 21.2192C25.9157 21.2162 25.9351 21.3178 25.9295 21.4479C25.923 21.5971 25.9498 21.6757 26.1297 21.6708C26.5777 21.6583 27.0261 21.6665 27.4744 21.6665ZM27.4475 18.0383C27.8857 18.0383 28.3238 18.0318 28.7617 18.0416C28.9285 18.0452 29.0048 18.0138 29.0025 17.8227C29.0006 17.6454 28.9504 17.593 28.7722 17.5946C27.8962 17.6031 27.0198 17.6048 26.1435 17.594C25.9515 17.5917 25.9321 17.666 25.9256 17.8289C25.9177 18.0246 26.0039 18.0452 26.1648 18.0419C26.5922 18.0331 27.0198 18.039 27.4475 18.0383ZM27.4986 24.2572C27.0402 24.2572 26.5813 24.2657 26.1232 24.2529C25.9351 24.2477 25.9311 24.3398 25.9285 24.481C25.9259 24.6275 25.9426 24.7048 26.1245 24.7032C27.01 24.6937 27.8958 24.6966 28.7817 24.7009C28.9314 24.7016 29.0098 24.6763 29.0006 24.4971C28.9927 24.3378 28.9763 24.2473 28.7804 24.2536C28.3533 24.267 27.926 24.2578 27.4986 24.2572ZM23.6735 13.8497C23.723 13.8255 23.7512 13.8124 23.7784 13.798C24.5872 13.3739 25.3934 12.9446 26.2068 12.5294C26.3864 12.4376 26.2825 12.3458 26.2386 12.2567C26.1937 12.1666 26.175 12.0374 25.9987 12.1322C25.1853 12.569 24.364 12.9905 23.5463 13.4191C23.4877 13.4499 23.3992 13.4768 23.4746 13.5758C23.5437 13.6665 23.5496 13.8098 23.6735 13.8497ZM27.4285 19.8362C27.7936 19.8362 28.1587 19.8362 28.5237 19.8362C29.0016 19.8362 28.9914 19.8359 28.9999 19.3532C29.0035 19.1516 28.9534 19.0861 28.7417 19.0897C27.9702 19.1031 27.1984 19.0959 26.4267 19.0949C25.9171 19.0943 25.9279 19.0933 25.9262 19.6006C25.9256 19.7998 25.9908 19.8457 26.1773 19.8401C26.5941 19.827 27.0116 19.8359 27.4285 19.8362ZM18.407 22.7801C18.6807 22.1194 19.0631 21.6816 19.8392 21.8658C19.9581 21.894 20.0899 21.8779 20.2147 21.8691C20.5962 21.8428 20.9527 21.7291 21.2667 21.5102C21.4955 21.3506 21.4905 21.1786 21.2723 21.0045C21.1061 20.8725 20.9072 20.8069 20.7106 20.7368C20.2527 20.5736 19.7802 20.625 19.3132 20.6532C19.0657 20.668 18.9071 20.6034 18.7888 20.3806C18.6774 20.1705 18.5299 19.9798 18.3775 19.7487C18.6204 19.7487 18.7151 19.6294 18.697 19.419C18.683 19.2529 18.5791 19.1529 18.4273 19.1877C18.0351 19.2775 17.8663 19.033 17.7014 18.7551C17.6166 18.6119 17.5061 18.4837 17.4216 18.3402C17.2606 18.0665 17.0201 17.9456 16.713 17.8853C16.4053 17.8247 16.4164 17.9364 16.4853 18.1675C16.7314 18.9933 16.9647 19.8228 17.2112 20.6798C17.0247 20.6798 16.8651 20.6588 16.7127 20.683C15.9983 20.7974 15.4116 20.6362 15.0069 19.983C14.8791 19.7762 14.65 19.7133 14.3741 19.7631C14.497 20.0984 14.6005 20.4238 14.7352 20.7361C14.8352 20.9678 14.8804 21.1278 14.536 21.1212C14.4626 21.1199 14.3515 21.1484 14.341 21.2444C14.3289 21.3552 14.4495 21.3454 14.5163 21.3854C14.6136 21.4437 14.7438 21.3844 14.8417 21.4801C14.7215 21.8035 14.5973 22.1227 14.4858 22.4462C14.4544 22.5376 14.3436 22.6549 14.4242 22.7244C14.5166 22.8037 14.6677 22.7651 14.7811 22.7097C14.8627 22.6697 14.9368 22.6048 15.0004 22.5379C15.1872 22.341 15.3687 22.1388 15.5496 21.9362C15.6207 21.8563 15.6899 21.7986 15.8121 21.8039C16.209 21.8202 16.6068 21.8314 17.0037 21.8271C17.1974 21.8252 17.2013 21.9031 17.1532 22.0519C17.0732 22.2994 17.004 22.5504 16.9326 22.8008C16.7605 23.4031 16.5901 24.0058 16.4158 24.6196C16.8946 24.6635 17.2279 24.5085 17.4547 24.1235C17.5658 23.935 17.7119 23.7669 17.8191 23.5768C17.9341 23.373 18.0777 23.2763 18.3211 23.3101C18.4794 23.332 18.6741 23.3559 18.6951 23.1016C18.7121 22.8952 18.641 22.7598 18.407 22.7801ZM25.4317 15.0217C25.2724 15.2639 24.9437 15.2596 24.7923 15.5244C25.1938 15.3133 25.5956 15.1026 26.0655 14.8555C25.767 14.8185 25.6473 15.0741 25.4317 15.0217C25.4301 14.8801 25.5648 14.8886 25.6408 14.8463C25.9951 14.65 26.3569 14.4678 26.7157 14.28C27.1857 14.0343 27.1755 14.0392 26.9379 13.5768C26.8442 13.3942 26.7675 13.4103 26.6115 13.4948C25.9357 13.8612 25.2524 14.2135 24.5708 14.5694C24.1166 14.8067 24.1267 14.8001 24.3528 15.2586C24.4397 15.4346 24.5039 15.4359 24.6694 15.3569C24.9191 15.238 25.1361 15.0364 25.4317 15.0217ZM27.1906 15.2655C27.2286 15.2747 27.2496 15.2583 27.2571 15.2216C27.2768 15.2147 27.2964 15.2081 27.3161 15.2013C27.4721 15.1292 27.6287 15.0571 27.5698 14.8355C27.5622 14.8162 27.5543 14.7969 27.5468 14.7775C27.4492 14.7474 27.5157 14.6291 27.4439 14.5851C27.4056 14.3961 27.3056 14.4573 27.1932 14.5163C26.4109 14.9283 25.6264 15.3356 24.8448 15.7486C24.7825 15.7817 24.6534 15.7826 24.6999 15.9068C24.7396 16.0127 24.8405 16.0173 24.9395 16.0002C25.0001 15.9898 25.0607 15.9783 25.1214 15.9671C25.2472 16.0651 25.3727 16.0209 25.4986 15.9668C25.5818 15.9429 25.6647 15.919 25.748 15.895C25.8561 15.9318 25.9066 15.8659 25.9475 15.7833C26.0816 15.8023 26.1166 15.6198 26.249 15.6355C26.271 15.6371 26.2933 15.6388 26.3152 15.6404C26.3352 15.6404 26.3549 15.6404 26.3749 15.6404C26.5296 15.5316 26.7387 15.547 26.8835 15.4159C26.9051 15.4172 26.9241 15.41 26.9402 15.3953C26.9766 15.4022 27.0012 15.3907 27.0077 15.3517C27.0687 15.3228 27.1296 15.2943 27.1906 15.2655ZM27.3217 26.508C26.4119 26.5076 25.5025 26.505 24.5931 26.5096C24.3492 26.5106 24.1405 26.4401 23.9737 26.2635C23.9065 26.192 23.8124 26.1219 23.9032 25.9964C23.9612 25.9167 23.9301 25.8351 23.8514 25.7798C23.796 25.7408 23.7295 25.7398 23.6735 25.7748C23.6047 25.8178 23.5712 25.8931 23.6096 25.9646C23.6889 26.1124 23.5794 26.1753 23.4952 26.2464C23.2701 26.4359 23.0082 26.5102 22.7142 26.5096C21.1566 26.5057 19.5989 26.5093 18.0409 26.5057C17.86 26.5053 17.7004 26.5365 17.5359 26.6236C16.2565 27.301 14.9715 27.9676 13.6891 28.6394C12.8515 29.0783 12.2924 28.9052 11.8608 28.0731C11.6261 27.6202 11.38 27.1732 11.1529 26.7164C11.0733 26.5561 10.976 26.4903 10.7954 26.504C10.5771 26.5201 10.3566 26.5083 10.137 26.5073C9.36487 26.5047 8.91655 26.0593 8.91295 25.2813C8.90869 24.4453 8.90541 23.6089 8.91491 22.7729C8.91754 22.5448 8.86576 22.3469 8.75597 22.1496C8.54361 21.7675 8.34206 21.3791 8.14575 20.9885C7.8354 20.3714 8.02909 19.7402 8.64651 19.4243C8.85658 19.3171 8.92311 19.1932 8.9159 18.9655C8.89853 18.4119 8.91197 17.8574 8.90869 17.3036C8.90345 16.4469 9.33571 16.0081 10.1891 16.0078C11.7467 16.0071 13.3047 16.0039 14.8624 16.0091C15.0679 16.0098 15.2471 15.9649 15.4287 15.8692C16.8848 15.1026 18.3457 14.3443 19.8028 13.5787C20.0299 13.4594 20.2636 13.3614 20.5179 13.4076C20.686 13.4381 20.9373 13.3926 20.9229 13.7108C20.9187 13.8009 21.0275 13.8583 21.1389 13.795C21.2411 13.737 21.2628 13.6564 21.2048 13.56C20.9957 13.2127 21.0606 12.9449 21.4391 12.726C21.7724 12.5333 22.1201 12.3648 22.4616 12.1862C23.7348 11.5197 25.0083 10.8531 26.2818 10.1871C26.8163 9.90759 27.2175 10.0318 27.5006 10.5706C28.4058 12.2944 29.3083 14.0192 30.2125 15.7433C30.299 15.9082 30.3803 16.0674 30.5668 16.1605C30.7532 16.2536 30.8807 16.4499 30.8712 16.6436C30.8499 17.0853 31.1026 17.4101 31.2773 17.7696C31.368 17.9567 31.4755 18.1363 31.5689 18.3225C31.8055 18.7941 31.6895 19.2299 31.2199 19.4531C30.9515 19.5809 30.883 19.7402 30.885 20.024C30.8984 21.874 30.8922 23.7243 30.8915 25.5743C30.8912 26.2179 30.6005 26.5073 29.9562 26.508C29.0779 26.5086 28.1996 26.508 27.3217 26.508Z" fill="white"/>
</svg>
