<svg width="40" height="40" viewBox="0 0 40 40" fill="none" xmlns="http://www.w3.org/2000/svg">
<rect x="0.05" y="0.0932739" width="39.9" height="38.9" rx="1.95" fill="#6B7A99" fill-opacity="0.29" stroke="black" stroke-width="0.1"/>
<path d="M16.5815 21.2325C17.0787 20.6082 17.489 20.0924 17.9144 19.5582C18.3951 20.1435 18.8117 20.6502 19.2708 21.2089C19.7398 20.6036 20.1288 20.1016 20.5578 19.548C21.0251 20.1252 21.438 20.6348 21.9155 21.2243C22.489 20.4643 22.9944 19.7945 23.4997 19.1246C23.4011 19.0404 23.3027 18.9562 23.2041 18.872C22.7699 19.3924 22.3353 19.9128 21.8854 20.4522C21.4501 19.9131 21.0366 19.4006 20.5656 18.8172C20.0819 19.4189 19.6719 19.9292 19.2462 20.4591C18.7792 19.8826 18.3801 19.3898 17.915 18.8159C17.4408 19.412 17.0354 19.9213 16.6238 20.4385C16.1335 19.8846 15.6944 19.3878 15.2549 18.8913C15.1694 18.9713 15.0838 19.0509 14.9983 19.1305C15.4955 19.7909 15.9929 20.4509 16.5815 21.2325ZM16.6071 14.6326C16.1319 14.0528 15.7196 13.5494 15.3073 13.0464C15.2323 13.1031 15.1569 13.1598 15.0819 13.2165C15.3722 14.0381 16.0355 14.6136 16.6015 15.387C17.0918 14.7738 17.5018 14.2606 17.9229 13.7336C18.3964 14.313 18.8087 14.8177 19.261 15.3712C19.7509 14.7574 20.1445 14.2642 20.5659 13.7359C21.0257 14.2937 21.4423 14.7987 21.8611 15.3067C22.9865 14.235 23.4011 13.5327 23.1723 13.031C22.7433 13.5707 22.3337 14.0863 21.8968 14.6358C21.4229 14.0522 21.01 13.5435 20.5594 12.9884C20.0862 13.5832 19.69 14.0813 19.2508 14.6332C18.7966 14.0728 18.3837 13.5632 17.9173 12.9877C17.4608 13.5606 17.0636 14.0594 16.6071 14.6326ZM21.9014 18.3315C22.4952 17.5467 23.0035 16.8752 23.5115 16.2037C23.4024 16.1175 23.2932 16.0309 23.1838 15.9448C22.7663 16.4635 22.3484 16.982 21.9004 17.5378C21.4511 16.9928 21.0333 16.4858 20.5545 15.9048C20.0868 16.4957 19.6821 17.0072 19.2505 17.5529C18.7815 16.9692 18.3863 16.4766 17.9327 15.912C17.4461 16.5012 17.0315 17.0033 16.5861 17.543C16.3121 17.1944 16.0985 16.9014 15.8622 16.6284C15.6682 16.4039 15.4466 16.203 15.2375 15.9916C15.1586 16.0706 15.0793 16.1496 15.0003 16.2289C15.5109 16.8984 16.0211 17.568 16.5894 18.3135C17.08 17.6994 17.4752 17.2048 17.9121 16.6582C18.3712 17.2058 18.7894 17.7046 19.2619 18.2683C19.7326 17.6859 20.1304 17.1934 20.5823 16.634C21.0038 17.1767 21.3934 17.6781 21.9014 18.3315ZM14.6372 27.5477C13.8454 24.9502 13.6717 22.3389 13.7431 19.7358C13.8241 16.7926 14.1226 13.8549 14.3714 10.9185C14.3907 10.6901 14.7388 10.3476 14.9773 10.3057C15.8317 10.1562 16.7047 10.0448 17.5706 10.0441C19.3114 10.0432 21.0533 10.1015 22.7925 10.1795C24.0434 10.2355 24.0729 10.2752 24.1869 11.5195C24.532 15.2939 25.0151 19.0669 24.6425 22.8669C24.5088 24.2315 24.2374 25.5824 24.0345 26.9404C23.9726 27.3557 23.8074 27.5628 23.326 27.5588C20.4594 27.5362 17.5929 27.5477 14.6372 27.5477Z" fill="white"/>
<path d="M10.9865 27.3636C10.0083 27.1296 9.09164 26.9103 8 26.6492C8.46307 24.2322 8.7826 21.8366 9.40527 19.5222C10.0138 17.2606 10.8387 15.0433 11.7468 12.8816C12.3479 11.4514 13.0443 11.0064 14.1179 10.7305C13.838 16.4079 13.2884 22.0054 10.9865 27.3636Z" fill="white"/>
<path d="M30.3986 26.6787C29.3823 26.9173 28.4627 27.1333 27.514 27.3558C25.1905 22.0362 24.6933 16.4138 24.3623 10.7164C25.3619 10.8524 25.9816 11.5003 26.3755 12.2646C27.0791 13.6285 27.7549 15.0259 28.2491 16.4755C29.3646 19.7491 29.9709 23.1429 30.3986 26.6787Z" fill="white"/>
<path d="M23.5993 27.7936C23.8198 28.5621 23.6206 28.8862 22.8177 28.875C20.4312 28.8416 18.0434 28.8416 15.657 28.8737C14.8305 28.8849 14.6859 28.5237 14.8882 27.7936H23.5993Z" fill="white"/>
<path d="M8.24555 26.9764C9.08746 27.1665 9.88645 27.3467 10.7919 27.5509C10.5091 28.0408 10.8742 28.8572 9.87563 28.6756C7.91652 28.3194 7.91422 28.3207 8.24555 26.9764Z" fill="white"/>
<path d="M27.6533 27.5975C28.6093 27.3743 29.4066 27.1878 30.3878 26.9588C30.3649 27.4667 30.4612 28.1156 30.3115 28.1785C29.6596 28.4519 28.9409 28.62 28.2357 28.6681C28.082 28.6786 27.884 28.0393 27.6533 27.5975Z" fill="white"/>
</svg>
