<svg width="40" height="40" viewBox="0 0 40 40" fill="none" xmlns="http://www.w3.org/2000/svg">
<rect x="0.05" y="0.0932739" width="39.9" height="38.9" rx="1.95" fill="#6B7A99" fill-opacity="0.29" stroke="black" stroke-width="0.1"/>
<path d="M18.1611 23.2648C18.0953 21.9097 18.0304 20.5726 17.9648 19.2266H26.5505C26.5505 19.4586 26.559 19.6874 26.5488 19.9155C26.5154 20.6548 26.4741 21.3938 26.4371 22.1332C26.3771 23.3346 26.3178 24.536 26.2591 25.7374C26.2149 26.641 26.1716 27.5445 26.1287 28.4483C26.1166 28.7072 25.956 28.8741 25.7004 28.8744C24.1008 28.876 22.5015 28.875 20.9019 28.8747C20.8816 28.8747 20.8616 28.8718 20.817 28.8682C20.817 28.624 20.8108 28.3795 20.8193 28.1354C20.8242 27.9967 20.7826 27.8975 20.6823 27.7972C20.3117 27.4268 20.0318 26.9992 19.9571 26.4686C19.8745 25.8843 20.1013 25.3927 20.448 24.9437C20.5014 24.8746 20.5519 24.7982 20.6197 24.7464C20.7885 24.6173 20.835 24.4541 20.8206 24.248C20.8045 24.0127 20.8173 23.7751 20.817 23.5384C20.8167 23.3156 20.7682 23.2651 20.5476 23.2651C19.8276 23.2641 19.1076 23.2648 18.3876 23.2648H18.1611Z" fill="white"/>
<path d="M17.5477 26.5476C17.5477 26.9999 17.547 27.4521 17.548 27.9044C17.5483 28.0849 17.5968 28.1384 17.7715 28.139C18.229 28.1413 18.6862 28.1413 19.1437 28.139C19.3085 28.1384 19.3655 28.0803 19.3659 27.9162C19.3668 27.0221 19.3711 26.1278 19.3645 25.2338C19.3609 24.7287 18.9398 24.3296 18.4384 24.3371C17.9458 24.3443 17.5496 24.7504 17.548 25.2524C17.5463 25.6844 17.5477 26.116 17.5477 26.5476ZM16.4347 23.6079H20.4768C20.4768 23.8708 20.4808 24.13 20.4726 24.3892C20.4713 24.4292 20.4152 24.4695 20.3808 24.5062C20.0308 24.8798 19.7637 25.3026 19.6503 25.8063C19.5146 26.4067 19.6621 26.9576 19.9895 27.4636C20.1114 27.6523 20.2681 27.8188 20.4014 28.0007C20.4404 28.0535 20.4732 28.1243 20.4758 28.1882C20.485 28.4084 20.4794 28.6293 20.4794 28.8616H16.4367C16.4367 28.609 16.4328 28.354 16.4406 28.0997C16.4419 28.0581 16.4911 28.0141 16.5252 27.9778C16.7733 27.7136 16.9778 27.4206 17.1233 27.0874C17.4143 26.4218 17.3612 25.7735 17.0017 25.1541C16.866 24.9208 16.6795 24.7176 16.5235 24.4954C16.4803 24.4338 16.4426 24.3548 16.439 24.2821C16.4278 24.0625 16.4347 23.8423 16.4347 23.6079Z" fill="white"/>
<path d="M23.2061 14.9595H25.5529C25.5529 15.277 25.5443 15.5887 25.5552 15.8994C25.5696 16.3162 25.3589 16.6688 25.2474 17.0493C25.2189 17.1476 25.1776 17.242 25.1455 17.3394C25.1327 17.3774 25.1085 17.4315 25.1242 17.456C25.2274 17.6169 25.1232 17.7513 25.0757 17.8903C24.9748 18.1862 24.864 18.4785 24.7627 18.7745C24.7352 18.8544 24.6962 18.8859 24.6087 18.8829C24.4045 18.876 24.2 18.8806 23.9516 18.8806C23.9516 18.4169 23.9572 17.9706 23.9503 17.5242C23.9411 16.9389 23.9198 16.3536 23.9084 15.7683C23.9057 15.6408 23.8785 15.5261 23.7353 15.5274C23.5931 15.5287 23.5629 15.6437 23.5665 15.7709C23.5944 16.798 23.62 17.825 23.6468 18.8662H23.288C23.2608 17.5681 23.2336 16.271 23.2061 14.9595Z" fill="white"/>
<path d="M18.035 17.0013C18.0373 17.2251 18.2143 17.3998 18.4375 17.3985C18.6574 17.3972 18.8393 17.2163 18.8412 16.9971C18.8432 16.7729 18.6534 16.5884 18.4257 16.5926C18.2028 16.5969 18.0327 16.7749 18.035 17.0013ZM20.5155 18.8805C20.1803 18.8805 19.8676 18.8834 19.555 18.8772C19.5058 18.8762 19.4495 18.8411 19.4101 18.8064C18.0108 17.5735 16.6121 16.3396 15.2173 15.1018C15.1734 15.0632 15.1494 14.9829 15.1468 14.9206C15.1432 14.8361 15.1691 14.7502 15.1917 14.6034C15.2671 14.6958 15.314 14.7669 15.3739 14.8249C15.7534 15.1923 16.1641 15.5099 16.6901 15.6465C16.9785 15.7212 17.26 15.7127 17.5346 15.6016C17.6201 15.5672 17.6735 15.5793 17.7394 15.638C18.6354 16.4317 19.534 17.2232 20.4297 18.0173C20.468 18.0513 20.51 18.1061 20.5116 18.1529C20.5201 18.3882 20.5155 18.6239 20.5155 18.8805Z" fill="white"/>
<path d="M25.502 17.3423C25.9719 16.0056 26.4383 14.6786 26.9085 13.3415C27.2844 13.4844 27.6472 13.6221 28.032 13.7686C27.4965 15.0785 26.9649 16.3792 26.4278 17.6937C26.1135 17.5744 25.8139 17.4607 25.502 17.3423Z" fill="white"/>
<path d="M22.1462 11.3664C22.3733 12.1428 22.5929 12.8933 22.8164 13.6566H20.9229C20.9533 13.5425 20.9805 13.4321 21.0123 13.3229C21.1224 12.9444 21.2306 12.5656 21.3482 12.1894C21.3725 12.111 21.4207 12.0311 21.4796 11.9744C21.6904 11.7722 21.9106 11.5798 22.1462 11.3664Z" fill="white"/>
<path d="M18.9265 12.5522C19.536 12.5535 20.0266 12.0711 20.0319 11.4655C20.0374 10.8661 19.5396 10.3617 18.9409 10.3607C18.3379 10.3597 17.8427 10.8467 17.8325 11.451C17.8224 12.0449 18.3251 12.5509 18.9265 12.5522ZM18.9389 10.0438C19.7245 10.0458 20.3579 10.6829 20.354 11.4671C20.3501 12.2438 19.7146 12.8743 18.937 12.8734C18.1386 12.8724 17.514 12.2425 17.5176 11.4422C17.5212 10.6662 18.1557 10.0418 18.9389 10.0438Z" fill="white"/>
<path d="M13.4299 13.504C12.8151 13.5027 12.3294 13.9808 12.3284 14.5884C12.3274 15.2003 12.8089 15.6915 13.4138 15.6955C14.0185 15.6994 14.5235 15.1947 14.5212 14.5888C14.5189 13.9913 14.0299 13.5053 13.4299 13.504ZM14.8338 14.6042C14.8332 15.3946 14.2092 16.0094 13.4092 16.0081C12.6335 16.0071 12.0063 15.3782 12 14.5953C11.9941 13.8255 12.6522 13.1694 13.4256 13.1743C14.2082 13.1789 14.8345 13.815 14.8338 14.6042Z" fill="white"/>
<path d="M21.3276 18.8714H20.8643V14.0182H21.3276V18.8714Z" fill="white"/>
<path d="M22.4072 18.8675V14.0084C22.5416 14.0084 22.6684 14.0035 22.7946 14.0123C22.8244 14.0143 22.8526 14.0621 22.8775 14.0923C22.8854 14.1015 22.8795 14.1221 22.8795 14.1375C22.8791 15.6902 22.8791 17.243 22.8785 18.7957C22.8785 18.8157 22.8746 18.8357 22.871 18.8675H22.4072Z" fill="white"/>
<path d="M22.0503 18.8734H21.6895V14.0159H22.0503V18.8734Z" fill="white"/>
<path d="M18.0751 13.0179C18.3789 13.0424 18.4589 13.2332 18.5047 13.4973C18.6643 14.4221 18.8479 15.3427 19.0222 16.2649C19.0238 16.2748 19.0209 16.2852 19.0186 16.3187C18.6368 15.9818 18.2655 15.6544 17.8965 15.3289C18.4274 14.5854 18.2691 13.8005 18.0751 13.0179Z" fill="white"/>
<path d="M23.2266 14.0464H25.5688V14.6058H23.2266V14.0464Z" fill="white"/>
<path d="M24.216 12.2236H24.5533C24.6329 12.7689 24.8164 13.267 25.2257 13.6859H23.5547C23.9443 13.2703 24.1439 12.7807 24.216 12.2236Z" fill="white"/>
<path d="M25.0801 18.8805C25.223 18.4824 25.3593 18.1025 25.5019 17.7057C25.7303 17.7922 25.9525 17.8764 26.1865 17.9649C26.0711 18.2543 25.9613 18.5345 25.8456 18.8127C25.8332 18.8422 25.7889 18.8769 25.7585 18.8776C25.5389 18.8832 25.319 18.8805 25.0801 18.8805Z" fill="white"/>
<path d="M27.4297 16.5726C27.5968 15.6209 27.9714 14.7904 28.325 13.9511C28.4902 14.098 28.5538 14.3156 28.4535 14.5214C28.1248 15.1971 27.7833 15.8667 27.4297 16.5726Z" fill="white"/>
<path d="M18.9741 18.8694H18.2276C18.1807 18.6217 18.1329 18.3707 18.0771 18.0767C18.3911 18.3543 18.6713 18.602 18.9741 18.8694Z" fill="white"/>
<path d="M21.585 11.3823C21.6741 11.0782 21.7636 10.7741 21.8527 10.4696C21.8625 10.4696 21.8724 10.4696 21.8822 10.4693C21.9291 10.6273 21.9799 10.7846 22.0195 10.9445C22.028 10.9796 22.0084 11.0369 21.9812 11.0631C21.8609 11.1798 21.7334 11.2889 21.6082 11.4007C21.6004 11.3945 21.5928 11.3886 21.585 11.3823Z" fill="white"/>
<path d="M27.9932 13.147C27.9637 13.2227 27.9391 13.2869 27.9109 13.3597C27.6936 13.2771 27.4898 13.1994 27.2656 13.1142C27.2922 13.0457 27.3167 12.9828 27.3476 12.9032C27.5645 12.9851 27.7723 13.0634 27.9932 13.147Z" fill="white"/>
<path d="M24.5387 11.3559V11.8655H24.2513C24.168 11.4844 24.2188 11.3923 24.5387 11.3559Z" fill="white"/>
<path d="M18.9385 26.7419C18.9391 26.4791 18.7255 26.2599 18.4643 26.2546C18.1968 26.2497 17.9747 26.4696 17.974 26.74C17.973 27.012 18.1929 27.2309 18.4623 27.2266C18.7268 27.2227 18.9378 27.0077 18.9385 26.7419ZM19.0135 27.7952H17.896C17.8921 27.7654 17.8858 27.7412 17.8855 27.7169C17.8852 26.8947 17.8835 26.0727 17.8865 25.2508C17.8872 24.9808 18.0441 24.7789 18.2978 24.7025C18.536 24.6308 18.7953 24.7186 18.9277 24.9365C18.9814 25.0247 19.022 25.1368 19.023 25.2384C19.0302 26.0757 19.027 26.9133 19.0263 27.7507C19.0263 27.7602 19.0211 27.7697 19.0135 27.7952Z" fill="white"/>
<path d="M18.29 26.711C18.3438 26.6714 18.4008 26.5963 18.45 26.6012C18.5034 26.6068 18.5879 26.6864 18.5879 26.7336C18.5879 26.7851 18.5122 26.8683 18.4585 26.8785C18.411 26.8873 18.3484 26.8146 18.2923 26.7775C18.2917 26.7556 18.2907 26.7333 18.29 26.711Z" fill="white"/>
</svg>
