<svg width="40" height="40" viewBox="0 0 40 40" fill="none" xmlns="http://www.w3.org/2000/svg">
<rect x="0.05" y="0.0932739" width="39.9" height="38.9" rx="1.95" fill="#6B7A99" fill-opacity="0.29" stroke="black" stroke-width="0.1"/>
<path d="M14.4651 16.2361H16.1073V14.2907C15.1504 14.3989 14.4061 15.29 14.4651 16.2361ZM16.0991 19.1233V18.053C15.5895 18.053 15.1183 18.053 14.647 18.053C13.6514 18.053 13.6409 18.0644 13.7926 19.0348C13.7966 19.0594 13.8244 19.08 13.8565 19.1233H16.0991ZM16.8919 18.0553V22.8934C16.9374 22.9032 16.9827 22.9134 17.0282 22.9232C17.0708 22.7535 17.1478 22.584 17.1501 22.4136C17.1626 21.4973 17.1849 20.5794 17.1446 19.6647C17.1246 19.2082 17.2717 19.0997 17.6978 19.1351C18.1782 19.1744 18.6642 19.1439 19.1745 19.1439C19.2108 18.889 19.2538 18.6799 19.2672 18.4692C19.2833 18.2119 19.1525 18.0585 18.8871 18.0569C18.231 18.0523 17.5749 18.0553 16.8919 18.0553ZM13.4656 17.117C13.3109 16.9505 13.1565 16.7837 13.0022 16.6172C13.189 16.4639 13.3758 16.3108 13.5626 16.1574L13.6583 16.2489C13.7081 15.9995 13.7346 15.7429 13.812 15.5026C14.123 14.5339 14.7633 13.8745 15.7481 13.6058C16.0628 13.5199 16.1752 13.3931 16.1408 13.0837C16.1201 12.8999 16.1381 12.7115 16.1398 12.5253C16.1424 12.2818 16.1702 12.0442 16.4894 12.0439C16.7985 12.0432 16.8562 12.2677 16.8571 12.5171C16.8594 13.3771 16.8588 14.2367 16.8591 15.0966C16.8594 15.4666 16.8591 15.8369 16.8591 16.2381H18.5672C18.5361 15.4679 18.2116 14.8724 17.569 14.5277C17.1449 14.3002 17.0951 14.0246 17.1924 13.6317C18.2801 13.7811 19.0755 14.7495 19.3193 16.2325C19.5579 16.3242 20.017 16.1987 19.9502 16.6484C19.9243 16.8227 19.6097 16.9541 19.4265 17.1052C19.3701 17.0891 19.3134 17.0731 19.257 17.057C19.3239 17.196 19.3541 17.388 19.4645 17.4647C19.8954 17.7639 20.0269 18.1664 19.9669 18.6602C19.7512 20.4375 19.5363 22.2147 19.3193 23.9916C19.2259 24.7588 19.1335 25.5266 19.0299 26.2925C18.9411 26.9496 18.5646 27.2773 17.9009 27.2809C16.9551 27.2862 16.0093 27.2875 15.0635 27.2816C14.4169 27.2776 14.0237 26.9191 13.9444 26.2729C13.6334 23.7429 13.3246 21.2128 13.0136 18.6828C12.9599 18.2437 13.0605 17.8694 13.3948 17.5522C13.5147 17.4385 13.558 17.2438 13.6363 17.0862C13.5793 17.0964 13.5223 17.1068 13.4656 17.117Z" fill="white"/>
<path d="M26.9995 17.59C26.9995 17.103 27.0086 16.6153 26.9968 16.1287C26.9844 15.6004 27.0159 15.06 26.9149 14.5474C26.7157 13.5328 25.7869 12.8076 24.7582 12.7731C23.7452 12.7394 22.8256 13.402 22.5199 14.3868C22.5028 14.4416 22.4596 14.5081 22.4766 14.5497C22.5431 14.7162 22.6287 14.8751 22.7073 15.037C22.8522 14.9325 23.0835 14.8552 23.1265 14.7188C23.3297 14.0735 23.7173 13.6344 24.3839 13.5023C25.4402 13.2936 26.3024 14.0542 26.3099 15.1986C26.3208 16.8605 26.3129 18.5223 26.3132 20.1845C26.3136 20.4323 26.2978 20.722 26.6409 20.7279C27.0096 20.7341 27.0001 20.4353 26.9998 20.1688C26.9988 19.3092 26.9995 18.4496 26.9995 17.59ZM25.4038 21.8218C25.4038 22.0132 25.4041 22.1525 25.4038 22.2918C25.4035 23.6679 25.4054 25.0443 25.4018 26.4204C25.4005 26.9834 25.1695 27.2679 24.7218 27.2774C24.2594 27.2876 24.0048 26.9857 24.0041 26.4129C24.0018 24.9096 24.0031 23.406 24.0031 21.8205C23.6407 21.8205 23.3047 21.8228 22.9692 21.8202C22.1033 21.8136 21.6979 21.4161 21.697 20.564C21.695 18.7291 21.6884 16.8942 21.7002 15.0593C21.7097 13.5341 22.762 12.3386 24.2856 12.0882C25.6814 11.8588 27.0791 12.7125 27.5445 14.1053C27.647 14.4124 27.7011 14.7493 27.7037 15.0731C27.7188 16.908 27.7142 18.7429 27.711 20.5778C27.7093 21.4099 27.302 21.8133 26.4702 21.8215C26.1304 21.8245 25.7908 21.8218 25.4038 21.8218Z" fill="white"/>
</svg>
