<svg width="40" height="40" viewBox="0 0 40 40" fill="none" xmlns="http://www.w3.org/2000/svg">
<rect x="0.05" y="0.0932739" width="39.9" height="38.9" rx="1.95" fill="#6B7A99" fill-opacity="0.29" stroke="black" stroke-width="0.1"/>
<path d="M19.7943 10.2948C20.4782 9.53513 21.2228 9.8658 21.9667 10.2056V8.433C21.9395 8.43104 21.9127 8.42907 21.8854 8.4271C21.8104 8.82037 21.7354 9.21331 21.6479 9.67277C20.7489 9.03339 20.2852 9.69309 19.7943 10.2948ZM16.3824 10.2879C17.1954 9.69571 17.904 9.73602 18.5902 10.2836C17.7182 9.36012 17.7182 9.36012 16.6898 9.57183C16.6223 9.18938 16.5544 8.80628 16.4869 8.42317C16.4518 8.42907 16.4171 8.4353 16.3824 8.44119V10.2879ZM20.9016 6.33395H17.4661C17.512 6.97792 17.768 7.2673 18.41 7.20372C18.9252 7.1526 19.4531 7.15588 19.9693 7.2034C20.5572 7.25747 20.8476 7.02544 20.9016 6.33395ZM19.1798 10.6146C19.6746 9.4568 20.0872 8.49068 20.5329 7.44755H17.8365C18.2786 8.49003 18.683 9.44337 19.1798 10.6146ZM19.9132 11.4251C20.139 16.5428 20.3661 21.6981 20.6024 27.0524C21.0812 26.4022 20.2744 11.9937 19.9132 11.4251ZM23.9101 27.0921H14.689C14.689 25.25 14.6435 23.4498 14.6989 21.6526C14.8018 18.3216 15.022 14.993 15.0636 11.6617C15.0754 10.728 14.6759 9.77567 14.3859 8.85707C14.2109 8.30257 14.2538 7.97518 14.8522 7.78903C15.1993 7.68088 15.5424 7.52161 15.8439 7.32006C16.0697 7.16931 16.191 6.85634 16.4204 6.7187C16.8454 6.46406 17.3006 6.15633 17.7699 6.10225C18.625 6.00361 19.5006 6.04949 20.3658 6.08194C21.0517 6.10782 21.8022 6.06653 22.0057 7.00939C22.0323 7.13294 22.2849 7.22142 22.4455 7.29975C22.9859 7.56225 23.5322 7.81328 24.1566 8.10626C24.0428 8.54049 23.9714 8.97473 23.8161 9.37717C23.2039 10.9646 23.2684 12.596 23.3559 14.2569C23.5788 18.5006 23.7276 22.7482 23.9101 27.0921Z" fill="white"/>
<path d="M24.3288 8.33095C25.1472 9.68476 25.3923 10.8836 25.3595 12.2174C25.2832 15.3343 25.3353 18.4542 25.3353 21.6361C24.7814 21.6928 24.4045 21.7314 23.9572 21.7776C23.8995 20.9796 23.8291 20.2292 23.7943 19.4771C23.6803 17.0146 23.4784 14.5498 23.5164 12.0892C23.5351 10.8986 24.0136 9.71524 24.3288 8.33095Z" fill="white"/>
<path d="M13.9866 8.35462C14.3461 9.98831 14.9979 11.3349 14.858 12.9329C14.6253 15.595 14.5955 18.2751 14.4778 20.9473C14.4667 21.2026 14.4401 21.4572 14.4165 21.7659C13.9987 21.7351 13.6395 21.7086 13.0781 21.6673C13.0781 20.2456 13.084 18.84 13.0765 17.4348C13.0663 15.5196 13.1106 13.6011 13.006 11.6908C12.9402 10.493 13.4242 9.53442 13.9866 8.35462Z" fill="white"/>
<path d="M19.7943 17.2948C20.4782 16.5351 21.2228 16.8658 21.9667 17.2056V15.433C21.9395 15.431 21.9127 15.4291 21.8854 15.4271C21.8104 15.8204 21.7354 16.2133 21.6479 16.6728C20.7489 16.0334 20.2852 16.6931 19.7943 17.2948ZM16.3824 17.2879C17.1954 16.6957 17.904 16.736 18.5902 17.2836C17.7182 16.3601 17.7182 16.3601 16.6898 16.5718C16.6223 16.1894 16.5544 15.8063 16.4869 15.4232C16.4518 15.4291 16.4171 15.4353 16.3824 15.4412V17.2879ZM20.9016 13.334H17.4661C17.512 13.9779 17.768 14.2673 18.41 14.2037C18.9252 14.1526 19.4531 14.1559 19.9693 14.2034C20.5572 14.2575 20.8476 14.0254 20.9016 13.334ZM19.1798 17.6146C19.6746 16.4568 20.0872 15.4907 20.5329 14.4475H17.8365C18.2786 15.49 18.683 16.4434 19.1798 17.6146ZM19.9132 18.4251C20.139 23.5428 20.3661 28.6981 20.6024 34.0524C21.0812 33.4022 20.2744 18.9937 19.9132 18.4251ZM23.9101 34.0921H14.689C14.689 32.25 14.6435 30.4498 14.6989 28.6526C14.8018 25.3216 15.022 21.993 15.0636 18.6617C15.0754 17.728 14.6759 16.7757 14.3859 15.8571C14.2109 15.3026 14.2538 14.9752 14.8522 14.789C15.1993 14.6809 15.5424 14.5216 15.8439 14.3201C16.0697 14.1693 16.191 13.8563 16.4204 13.7187C16.8454 13.4641 17.3006 13.1563 17.7699 13.1023C18.625 13.0036 19.5006 13.0495 20.3658 13.0819C21.0517 13.1078 21.8022 13.0665 22.0057 14.0094C22.0323 14.1329 22.2849 14.2214 22.4455 14.2997C22.9859 14.5622 23.5322 14.8133 24.1566 15.1063C24.0428 15.5405 23.9714 15.9747 23.8161 16.3772C23.2039 17.9646 23.2684 19.596 23.3559 21.2569C23.5788 25.5006 23.7276 29.7482 23.9101 34.0921Z" fill="white"/>
<path d="M24.3288 15.3309C25.1472 16.6848 25.3923 17.8836 25.3595 19.2174C25.2832 22.3343 25.3353 25.4542 25.3353 28.6361C24.7814 28.6928 24.4045 28.7314 23.9572 28.7776C23.8995 27.9796 23.8291 27.2292 23.7943 26.4771C23.6803 24.0146 23.4784 21.5498 23.5164 19.0892C23.5351 17.8986 24.0136 16.7152 24.3288 15.3309Z" fill="white"/>
<path d="M13.9866 15.3546C14.3461 16.9883 14.9979 18.3349 14.858 19.9329C14.6253 22.595 14.5955 25.2751 14.4778 27.9473C14.4667 28.2026 14.4401 28.4572 14.4165 28.7659C13.9987 28.7351 13.6395 28.7086 13.0781 28.6673C13.0781 27.2456 13.084 25.84 13.0765 24.4348C13.0663 22.5196 13.1106 20.6011 13.006 18.6908C12.9402 17.493 13.4242 16.5344 13.9866 15.3546Z" fill="white"/>
</svg>
