<svg width="40" height="40" viewBox="0 0 40 40" fill="none" xmlns="http://www.w3.org/2000/svg">
<rect x="0.05" y="0.0932739" width="39.9" height="38.9" rx="1.95" fill="#6B7A99" fill-opacity="0.29" stroke="black" stroke-width="0.1"/>
<path d="M28.1398 21.3015C27.9707 21.2225 27.7787 21.2402 27.6994 21.0233C27.6375 20.8532 27.3845 20.8561 27.3369 20.9698C27.1629 21.3838 26.826 21.2101 26.5481 21.2386C26.1663 21.2776 25.7744 21.1806 25.2608 21.3297C25.466 21.3566 25.5361 21.3608 25.6039 21.3752C26.2076 21.503 26.9037 21.0741 27.4336 21.6856C27.4883 21.7485 27.6771 21.7092 27.705 21.583C27.7574 21.3438 27.9914 21.4126 28.1398 21.3015ZM28.0832 22.4872C27.5971 22.1991 26.9676 22.635 26.5802 22.0399C26.5609 22.01 26.3901 22.0235 26.3797 22.051C26.1912 22.5472 25.6957 22.2437 25.3591 22.4216C25.6567 22.5799 26.0277 22.3328 26.2119 22.5796C26.435 22.8785 26.5697 22.9263 26.7608 22.5917C26.8594 22.4184 27.0236 22.496 27.159 22.4908C27.4667 22.4793 27.7751 22.4872 28.0832 22.4872ZM25.3165 20.3219C25.4742 20.4887 25.72 20.4311 25.815 20.6559C25.874 20.7955 26.1352 20.7814 26.1902 20.65C26.3167 20.3485 26.5497 20.4648 26.7477 20.4468C27.2032 20.4045 27.6725 20.5205 28.2198 20.3436C28.0753 20.2898 28.032 20.2669 27.9861 20.2577C27.3441 20.1289 26.6137 20.5484 26.0437 19.9395C25.9897 19.8818 25.835 19.9316 25.8084 20.0204C25.7386 20.2528 25.5161 20.2367 25.3165 20.3219ZM18.3643 19.6803C17.1625 19.6803 15.9608 19.6803 14.7593 19.6803C14.7223 19.6803 14.6853 19.6799 14.6482 19.6809C12.986 19.7209 11.8436 20.8745 11.8338 22.5282C11.8292 23.3412 11.8321 24.1546 11.8331 24.968C11.8344 26.7643 12.9356 27.9562 14.7197 27.9834C17.1409 28.0204 19.5637 28.023 21.9849 27.9814C23.7238 27.9516 24.9308 26.6391 24.8141 25.0346C24.7542 24.2071 24.8053 23.3714 24.804 22.5396C24.801 20.8424 23.6724 19.6983 21.9692 19.6826C20.7678 19.6717 19.566 19.6806 18.3643 19.6803ZM27.5948 26.4497C27.0145 26.0528 26.3974 26.1052 25.9966 26.586C25.6187 27.0392 25.659 27.5475 26.1126 28.0434C26.6762 28.4979 27.333 28.474 27.7649 27.9837C28.1772 27.5157 28.112 26.9288 27.5948 26.4497ZM26.2443 23.3609C26.2237 23.2226 26.1444 23.2609 26.0647 23.3012C26.0093 23.2878 25.954 23.2747 25.8989 23.2613C25.8661 23.2668 25.833 23.2721 25.8003 23.2773C25.6524 23.3511 25.3532 23.1154 25.3647 23.5225C25.3837 24.2192 25.3667 24.9169 25.37 25.614C25.3706 25.7378 25.3749 25.884 25.5754 25.8067C25.6259 25.7919 25.6764 25.7772 25.7265 25.7621C25.7835 25.7877 25.8235 25.8834 25.9048 25.804C25.9566 25.79 26.0084 25.7762 26.0601 25.7621C26.1165 25.7883 26.1568 25.8834 26.2381 25.804C26.2928 25.7703 26.4069 25.8332 26.4029 25.7034C26.4341 25.7782 26.4691 25.8476 26.571 25.8044C26.631 25.7791 26.7346 25.8316 26.7395 25.7093C26.7742 25.7768 26.8057 25.8506 26.9057 25.8057C26.9794 25.807 27.0528 25.808 27.1265 25.809C27.1642 25.8083 27.2022 25.8077 27.2403 25.807C27.314 25.807 27.3881 25.807 27.4618 25.807L27.5726 25.8063C27.647 25.8063 27.7217 25.8063 27.7961 25.806L27.9068 25.8077C27.9793 25.8083 28.0517 25.8093 28.1238 25.8099C28.3329 25.8725 28.3198 25.7136 28.3204 25.5976C28.324 24.8815 28.3211 24.1654 28.3191 23.4494C28.3188 23.3268 28.285 23.2314 28.131 23.2557C28.0537 23.2567 27.9763 23.2577 27.899 23.259C27.8669 23.2272 27.8344 23.2272 27.8023 23.2586C27.7236 23.2586 27.6447 23.2586 27.566 23.2586C27.5339 23.2259 27.5014 23.2255 27.469 23.2583C27.39 23.2586 27.3114 23.259 27.2324 23.2593C27.2006 23.2295 27.1682 23.2291 27.1357 23.2583C27.0567 23.259 26.9777 23.2596 26.8988 23.26C26.8165 23.236 26.7746 23.2839 26.7411 23.3478C26.7195 23.2432 26.63 23.2763 26.5648 23.2609C26.435 23.2203 26.3833 23.4307 26.2443 23.3609ZM17.1052 18.3677C18.2332 18.3681 19.3615 18.3684 20.4899 18.3674C20.6888 18.3674 20.9215 18.4159 21.025 18.1862C21.1099 17.9977 20.9172 17.8932 20.8258 17.7657C19.6312 16.1016 18.4341 14.439 17.2372 12.7765C17.1078 12.5966 16.9715 12.4566 16.7247 12.4032C16.4707 12.3482 16.3245 12.1371 16.4176 11.8517C16.4864 11.6406 16.6434 11.4935 16.8708 11.5181C17.1465 11.5475 17.3277 11.7373 17.2703 12.0123C17.2156 12.2757 17.3421 12.4301 17.4758 12.6044C18.7238 14.2309 19.9757 15.8545 21.2138 17.4881C21.414 17.752 21.571 17.8798 21.9348 17.7333C22.3838 17.5524 22.8894 17.5452 23.3489 17.7185C23.6881 17.8467 23.7858 17.7074 23.91 17.438C25.1753 14.6976 26.4511 11.9618 27.7272 9.22631C27.8128 9.04278 27.8993 8.89564 27.7571 8.67836C27.5903 8.42339 27.7495 8.21791 27.9878 8.09632C28.2257 7.97474 28.4263 8.07306 28.5593 8.27756C28.7206 8.52597 28.6436 8.7865 28.3961 8.87925C28.1261 8.98051 28.0494 9.17846 27.9553 9.39311C26.7542 12.142 25.5531 14.8906 24.353 17.6399C24.0922 18.237 24.1807 18.352 24.862 18.3704C25.4329 18.3854 26.0074 18.3045 26.5747 18.4362C27.8813 18.7394 28.7442 19.7379 28.7635 21.0705C28.7907 22.9378 28.7956 24.8065 28.7638 26.6738C28.7392 28.1138 27.7404 29.1711 26.3135 29.3657C26.2063 29.3801 26.0575 29.371 26.0008 29.4362C25.2189 30.3381 24.2174 29.72 23.3246 29.8357C22.5696 29.0023 21.5822 29.4372 20.7016 29.3965C19.2252 29.328 17.7432 29.3778 16.2636 29.3775C16.0106 29.3775 15.7966 29.3552 15.6222 29.6577C15.4246 30.0005 12.9998 30.028 12.8999 29.6885C12.7291 29.1094 12.209 28.9865 11.8607 28.649C11.2878 28.0938 10.9951 27.4318 11.0001 26.6256C11.0115 24.7763 10.9955 22.9267 11.0086 21.0773C11.0197 19.5593 12.1903 18.4031 13.7205 18.3684C13.7575 18.3674 13.7945 18.3674 13.8312 18.3674C14.9225 18.3674 16.0139 18.3674 17.1052 18.3677Z" fill="white"/>
<path d="M28.1305 23.2566C28.1282 24.108 28.1259 24.9594 28.1236 25.8109C28.0512 25.8102 27.9787 25.8092 27.9063 25.8086C27.9037 24.9588 27.9011 24.1093 27.8984 23.2599C27.9758 23.2586 28.0531 23.2576 28.1305 23.2566Z" fill="white"/>
<path d="M27.1262 25.8089C27.0528 25.8079 26.9791 25.8069 26.9056 25.8056C26.903 24.9572 26.9007 24.1087 26.8984 23.2599C26.9774 23.2592 27.0564 23.2589 27.1354 23.2582C27.1324 24.1084 27.1292 24.9588 27.1262 25.8089Z" fill="white"/>
<path d="M27.2314 23.2609C27.3104 23.2605 27.3891 23.2602 27.4681 23.2599C27.4654 24.1097 27.4631 24.9591 27.4608 25.8089C27.3868 25.8089 27.313 25.8089 27.2393 25.8089C27.2367 24.9594 27.2341 24.1103 27.2314 23.2609Z" fill="white"/>
<path d="M27.5654 23.2609C27.6441 23.2609 27.7231 23.2609 27.8017 23.2609C27.7997 24.11 27.7975 24.9591 27.7955 25.8086C27.7211 25.8086 27.6464 25.8086 27.572 25.8089L27.5654 23.2609Z" fill="white"/>
<path d="M26.7382 25.7119C26.7332 25.8341 26.6297 25.7817 26.5697 25.8069C26.5677 24.9591 26.5658 24.1113 26.5635 23.2635C26.629 23.2792 26.7182 23.2458 26.7398 23.3504C26.8165 24.1375 26.8201 24.9247 26.7382 25.7119Z" fill="white"/>
<path d="M26.0587 25.7614C26.0069 25.7752 25.9551 25.7893 25.9034 25.803C25.9014 24.9556 25.8994 24.1081 25.8975 23.2606C25.9528 23.2737 26.0079 23.2871 26.0633 23.3006C26.1433 24.1208 26.1485 24.9411 26.0587 25.7614Z" fill="white"/>
<path d="M25.5747 25.8089C25.5747 25.1308 25.5684 24.4525 25.5799 23.7744C25.5822 23.6541 25.4757 23.3979 25.7919 23.4834C25.729 24.2427 25.8516 25.0073 25.7257 25.7647C25.6756 25.7794 25.6251 25.7942 25.5747 25.8089Z" fill="white"/>
<path d="M26.4031 25.7024C26.4071 25.8322 26.293 25.7693 26.2383 25.803C26.2412 24.9854 26.2442 24.1674 26.2471 23.3494C26.4503 23.331 26.4421 23.4916 26.4415 23.6086C26.4375 24.3067 26.5096 25.0064 26.4031 25.7024Z" fill="white"/>
<path d="M19.5856 23.8188C19.5856 24.1691 19.5856 24.5194 19.5856 24.8698C19.5859 25.5186 19.7298 25.6324 20.3583 25.4511C20.7113 25.3495 20.9826 25.126 21.1255 24.7862C21.3697 24.2058 21.4097 23.6074 21.1832 23.0116C20.9843 22.4876 20.5851 22.2529 20.0277 22.2401C19.7196 22.2329 19.5443 22.2853 19.578 22.658C19.6128 23.0421 19.5859 23.4317 19.5856 23.8188ZM18.6719 23.8817C18.6722 23.1974 18.6811 22.5128 18.6673 21.8285C18.6624 21.5857 18.7145 21.4785 18.9852 21.4431C19.4099 21.3881 19.8333 21.35 20.2571 21.3881C21.4886 21.4982 22.1411 22.1575 22.2778 23.4042C22.5111 25.5298 20.9921 26.8498 18.9072 26.3494C18.6322 26.2835 18.6732 26.1138 18.6725 25.9352C18.6709 25.2506 18.6719 24.5663 18.6719 23.8817Z" fill="white"/>
<path d="M16.1879 22.3094C16.0677 22.8429 15.9654 23.2827 15.87 23.7241C15.834 23.8913 15.6718 24.1194 15.8789 24.2134C16.0624 24.2967 16.3384 24.298 16.5255 24.22C16.7441 24.1285 16.5694 23.8985 16.5363 23.7402C16.4426 23.2925 16.322 22.8508 16.1879 22.3094ZM17.6027 26.3164C17.1911 26.4105 17.0806 26.2246 16.9827 25.875C16.8932 25.5551 17.0357 25.0452 16.3701 25.0285C15.7786 25.0137 15.5079 25.173 15.446 25.7688C15.4234 25.987 15.4758 26.337 15.0262 26.3449C14.3596 26.3567 14.3383 26.3593 14.5028 25.72C14.8322 24.4392 15.1681 23.1601 15.4807 21.8751C15.5662 21.5238 15.6868 21.3098 16.0991 21.3829C16.4399 21.4432 16.8349 21.222 16.9692 21.8388C17.2589 23.1654 17.6476 24.471 18.0101 25.7809C18.1254 26.1971 18.1464 26.4904 17.6027 26.3164Z" fill="white"/>
<path d="M26.209 27.9452C26.4338 27.2897 26.9129 26.8689 27.4992 26.5471C27.5913 26.633 27.6241 26.7572 27.5477 26.8411C27.1912 27.2311 26.8225 27.6102 26.4508 27.9858C26.3735 28.0641 26.2821 28.0064 26.209 27.9452Z" fill="white"/>
</svg>
