<svg width="40" height="40" viewBox="0 0 40 40" fill="none" xmlns="http://www.w3.org/2000/svg">
<rect x="0.05" y="0.0932739" width="39.9" height="38.9" rx="1.95" fill="#6B7A99" fill-opacity="0.29" stroke="black" stroke-width="0.1"/>
<path d="M14.5952 28.8753C14.5749 23.1035 13.884 17.3753 14.9085 11.5851C15.5725 11.5055 16.2856 11.4196 16.9823 11.336C17.0285 11.4343 17.077 11.4881 17.0652 11.5196C16.7267 12.4309 17.2117 12.8894 17.9635 13.2506C18.4164 13.4679 18.8205 13.7838 19.2616 14.0283C19.454 14.1348 19.684 14.1731 19.9875 14.2718V28.6384C20.076 28.6413 20.1641 28.6443 20.2526 28.6475C20.3303 27.0817 20.2769 25.509 20.2851 23.9402C20.2939 22.296 20.2861 20.6518 20.2857 19.008C20.2854 17.392 20.2857 15.7763 20.2857 14.2514C20.5577 14.1672 20.779 14.1305 20.9684 14.0328C21.2817 13.8713 21.5815 13.6805 21.8745 13.4836C22.6194 12.9832 23.7832 12.7485 23.0746 11.3229C23.9287 11.4176 24.6241 11.495 25.3251 11.573C26.3502 17.3271 25.6738 23.0763 25.6318 28.8753H14.5952Z" fill="white"/>
<path d="M25.7148 11.6554C27.1335 11.9438 27.8139 12.6071 28.0413 13.9786C28.7433 18.2124 29.4322 22.4485 30.1217 26.6846C30.161 26.9255 30.1594 27.1733 30.1823 27.4964C29.5066 27.4495 28.8888 27.4069 28.2396 27.362C27.242 22.1133 25.8177 16.9952 25.7148 11.6554Z" fill="white"/>
<path d="M10 27.5003C10.4241 24.8523 10.8245 22.3351 11.2309 19.8189C11.557 17.7991 11.8765 15.7781 12.2252 13.7623C12.4268 12.5959 13.2877 11.8405 14.6838 11.6786C14.3099 14.3682 14.0011 17.0214 13.5568 19.6517C13.1576 22.0156 12.588 24.3499 12.142 26.7066C12.042 27.2358 11.8529 27.4452 11.3217 27.42C10.9255 27.4013 10.5253 27.4649 10 27.5003Z" fill="white"/>
<path d="M21.3199 11.7515C21.7941 11.3172 22.2687 10.8827 22.7144 10.4747C22.7904 10.9105 22.9218 11.5145 22.986 12.1254C23.0041 12.2988 22.8753 12.5652 22.7291 12.6642C22.0651 13.1141 21.371 13.5195 20.6645 13.9554C20.4796 13.568 20.323 13.2393 20.1178 12.8093C19.9078 13.2416 19.7495 13.5667 19.5623 13.9515C18.8443 13.5074 18.1469 13.1063 17.4902 12.6468C17.3374 12.54 17.2414 12.2267 17.2614 12.0222C17.3178 11.4477 17.4485 10.8804 17.5193 10.4825C17.964 10.8722 18.4569 11.3041 18.9498 11.7357C20.1322 12.5606 20.1322 12.5606 21.3199 11.7515Z" fill="white"/>
<path d="M22.3503 10.0436C22.3365 10.9317 21.9275 11.2198 21.1043 11.127C20.4302 11.051 19.7325 11.0461 19.0596 11.1283C18.2223 11.2306 17.9162 10.8563 17.8848 10.0436H22.3503Z" fill="white"/>
<path d="M21.3213 11.7489C20.1337 12.5581 20.1337 12.5581 18.9512 11.7332C18.8818 11.6362 18.812 11.5388 18.6982 11.3802H21.4439C21.3944 11.529 21.3577 11.6391 21.3213 11.7489Z" fill="white"/>
</svg>
