<svg width="40" height="40" viewBox="0 0 40 40" fill="none" xmlns="http://www.w3.org/2000/svg">
<rect x="0.05" y="0.0932739" width="39.9" height="38.9" rx="1.95" fill="#6B7A99" fill-opacity="0.29" stroke="black" stroke-width="0.1"/>
<path d="M17.43 10.6132C17.4297 10.5703 17.4297 10.5274 17.4294 10.4841H15.2543C15.2569 10.5274 15.2595 10.5703 15.2618 10.6132H17.43ZM13.5465 20.1764C14.1974 21.1311 14.5051 21.117 14.9839 20.1764H13.5465ZM16.3934 20.1797C17.0535 21.1249 17.3835 21.1121 17.823 20.1797H16.3934ZM23.563 20.2122H22.1059C22.7837 21.1367 22.9521 21.1347 23.563 20.2122ZM24.887 20.1902L24.8073 20.3183C25.0564 20.511 25.3124 20.8637 25.5526 20.8535C25.8154 20.842 26.0635 20.495 26.4495 20.1902H24.887ZM10.8369 20.1882C10.8078 20.2387 10.7786 20.2895 10.7494 20.3403C11.0267 20.5225 11.3003 20.8375 11.5825 20.8453C11.808 20.8515 12.0439 20.4845 12.3844 20.1882H10.8369ZM30.4025 10.53C30.3973 10.4723 30.392 10.4146 30.3868 10.3573H28.1652C28.1661 10.4146 28.1671 10.4723 28.1681 10.53H30.4025ZM9.2937 10.3543L9.30124 10.5064H11.591C11.5874 10.4556 11.5838 10.4051 11.5802 10.3543H9.2937ZM27.6985 20.1856C27.668 20.2708 27.6375 20.356 27.6074 20.4409C27.9557 20.5936 28.3061 20.8653 28.6525 20.8604C28.9156 20.8565 29.1736 20.5006 29.4338 20.3013C29.4 20.2626 29.3663 20.2243 29.3322 20.1856H27.6985ZM18.7127 20.8991C19.4321 20.8991 20.1177 20.8794 20.8019 20.9053C21.3594 20.9266 21.4082 20.6595 21.265 20.1968H18.7127V20.8991ZM30.6185 12.6589H9.38415V19.7953H30.6185V12.6589ZM18.8484 22.0746C18.4945 21.0141 17.705 21.2274 16.9512 21.2271C14.8404 21.2265 12.7295 21.2304 10.6187 21.2176C10.2605 21.2153 10.2339 20.708 9.98421 20.2331C9.00137 20.0588 9.00137 20.0588 9.00137 19.0324C9.00105 17.1296 9.00236 15.2269 9.00006 13.3241C8.99908 12.2931 8.99646 12.2931 10.1251 12.1614C9.78725 12.0909 9.58996 12.0496 9.39267 12.0083C9.39562 11.9851 9.39857 11.9618 9.40152 11.9385C9.78364 11.9166 10.1661 11.8946 10.5407 11.8733C10.6334 10.608 9.70433 10.9111 9.00727 10.8594V10.044H11.8329V10.8321C11.4626 10.8567 11.0808 10.8823 10.6986 10.9075C10.7976 11.9064 10.7976 11.9077 11.7644 11.9087C13.3138 11.91 14.8636 11.909 16.4056 11.909C16.5212 10.5929 15.5351 11.057 14.8915 10.9062C14.8751 10.6788 14.8591 10.4572 14.8391 10.177H17.7266C17.7368 10.4032 17.7466 10.6254 17.759 10.9062C17.3389 10.9331 16.9558 10.9573 16.5753 10.9816C16.5586 11.7068 16.8657 11.9628 17.5906 11.9251C18.794 11.8628 20.0056 11.8582 21.2083 11.9261C21.9503 11.968 22.22 11.6728 22.2272 10.9262C21.8372 10.8938 21.4384 10.8607 21.0104 10.8253V10.0587H23.8445V10.7964C22.4772 11.0111 22.4772 11.0111 22.3599 11.9077C22.9157 11.9077 23.4624 11.9077 24.0087 11.9077C25.3543 11.9081 26.7019 11.8671 28.0449 11.9251C28.7905 11.9572 29.0228 11.6272 29.0385 10.9151C28.6423 10.8875 28.2605 10.861 27.8388 10.8315V10.0453H30.6585V10.8233C30.0656 10.9727 29.0785 10.5634 29.1913 11.8632C29.613 11.8861 30.06 11.9103 30.5074 11.9346C30.5126 11.9562 30.5179 11.9779 30.5231 11.9995C30.3386 12.0401 30.1541 12.0811 29.8841 12.1404C30.9796 12.3311 30.9806 12.3311 30.9813 13.3864C30.9819 15.3586 30.9655 17.3312 30.9911 19.3031C30.9983 19.8769 30.92 20.281 30.0643 20.1512C30.1833 20.5055 29.578 21.2163 29.1319 21.2193C26.8353 21.2333 24.5383 21.2333 22.2416 21.2156C21.7815 21.212 21.5993 21.4067 21.3014 21.7682C20.7207 22.4721 20.8436 23.2108 20.8383 23.9633C20.8245 26.0479 19.0093 22.557 18.8484 22.0746Z" fill="white"/>
<path d="M21.0525 28.8753H18.9492V21.3079H21.0525V28.8753Z" fill="white"/>
</svg>
