<svg width="40" height="40" viewBox="0 0 40 40" fill="none" xmlns="http://www.w3.org/2000/svg">
<rect x="0.05" y="0.0932739" width="39.9" height="38.9" rx="1.95" fill="#6B7A99" fill-opacity="0.29" stroke="black" stroke-width="0.1"/>
<path d="M28.2703 17.8883C27.2324 16.8875 25.973 16.762 24.8679 17.578C24.0843 18.1567 23.4715 18.9629 22.7013 19.5636C21.788 20.2764 20.871 21.1469 19.8089 21.4759C16.7775 22.4141 13.7749 22.5066 11.2124 20.1175C11.0709 19.9857 10.7795 20.0143 10.5583 19.968C10.9227 20.4331 11.2387 20.7241 11.5896 20.9637C12.2372 21.4058 12.853 21.9786 13.5743 22.2146C17.0216 23.3413 20.2647 23.0866 22.995 20.4187C24.4363 19.0095 25.9857 17.8765 28.2703 17.8883ZM11.119 21.7721C10.5082 20.9777 9.92744 20.1548 10.0074 18.9167C10.2824 19.0609 10.4875 19.1173 10.6216 19.2471C13.0218 21.5719 15.9074 21.5198 18.8955 20.941C20.2769 20.6736 21.4235 19.9602 22.4185 18.9849C23.0422 18.3734 23.6432 17.7369 24.2924 17.1539C25.6456 15.9384 27.4067 15.9541 28.8182 17.1598C30.1134 18.2659 30.3523 19.9107 29.239 21.4041C28.6364 22.2129 27.8292 22.9536 26.961 23.4642C24.395 24.9733 14.9629 26.118 11.119 21.7721Z" fill="white"/>
<path d="M29.5926 13.0441C30.19 13.8168 30.2274 14.6522 29.9105 15.405C29.6424 16.0417 29.7001 16.5199 30.0324 17.059C30.1261 17.211 30.117 17.4263 30.1586 17.6312C29.2347 16.9715 28.3863 16.3655 27.3867 15.6517C27.759 15.6517 28.0451 15.6239 28.3237 15.6566C29.2803 15.7691 29.7063 15.2637 29.4215 14.3094C29.3616 14.1095 29.2256 13.9322 29.0683 13.6392C29.2003 13.4894 29.3845 13.2803 29.5926 13.0441Z" fill="white"/>
</svg>
