<svg width="40" height="40" viewBox="0 0 40 40" fill="none" xmlns="http://www.w3.org/2000/svg">
<rect x="0.05" y="0.0932739" width="39.9" height="38.9" rx="1.95" fill="#6B7A99" fill-opacity="0.29" stroke="black" stroke-width="0.1"/>
<path d="M25.7947 20.0044C26.342 19.8953 26.1401 19.5105 26.1526 19.2503C26.1578 19.1405 25.9995 19.0232 25.9153 18.9091C25.875 18.9341 25.835 18.959 25.7947 18.9839V20.0044ZM23.536 14.7212C23.422 14.4335 23.3188 14.1261 23.1759 13.838C23.1284 13.7417 22.9819 13.6394 22.877 13.6358C22.3087 13.6161 21.7395 13.6266 21.206 13.6266C21.9663 13.9838 22.742 14.3483 23.536 14.7212ZM18.5753 13.6243C18.0431 13.6243 17.4867 13.6181 16.9308 13.6302C16.8253 13.6325 16.6634 13.681 16.6274 13.7561C16.4747 14.074 16.3596 14.4099 16.242 14.7101C17.0423 14.3378 17.816 13.9776 18.5753 13.6243ZM21.1771 25.2964C21.7464 25.2964 22.3143 25.3046 22.8816 25.2882C22.9789 25.2853 23.1195 25.1978 23.1605 25.1116C23.3089 24.7996 23.423 24.4712 23.5354 24.1864C22.7459 24.5581 21.9686 24.9238 21.1771 25.2964ZM16.241 24.1995C16.3455 24.466 16.4481 24.7885 16.6012 25.0847C16.6549 25.1886 16.8296 25.2843 16.9525 25.2892C17.508 25.3108 18.0644 25.2987 18.6147 25.2987C17.8222 24.9317 17.0328 24.5663 16.241 24.1995ZM17.4077 25.7831C17.3818 25.8411 17.3562 25.8991 17.3303 25.9571C17.4893 26.0417 17.6469 26.1967 17.8072 26.199C19.1888 26.2183 20.5712 26.2042 21.9532 26.2144C22.2534 26.2167 22.3776 26.0925 22.3772 25.7831H17.4077ZM17.389 13.1282H22.392C22.3622 12.7916 22.2134 12.6857 21.9004 12.6897C20.5472 12.7064 19.1938 12.7041 17.8406 12.6916C17.5217 12.6887 17.3828 12.8076 17.389 13.1282ZM19.8754 24.8717C22.8491 24.8858 25.2975 22.4682 25.3179 19.4977C25.3382 16.4975 22.8744 14.0173 19.8698 14.014C16.9312 14.0107 14.4883 16.4398 14.467 19.3863C14.4451 22.4371 16.8312 24.8573 19.8754 24.8717ZM25.8878 20.4448C25.2785 21.6489 24.7113 22.7432 24.1715 23.8505C23.9611 24.2821 23.8113 24.7436 23.6353 25.1922C23.5229 25.4793 23.3873 25.6635 23.0504 25.8165C22.7744 25.942 22.6306 26.4602 22.5247 26.8318C22.3762 27.3522 22.3084 27.8969 22.2242 28.434C22.1754 28.7457 22.0459 28.8791 21.7038 28.8732C20.4896 28.8528 19.2747 28.8568 18.0602 28.8722C17.7302 28.8761 17.6148 28.7617 17.546 28.4343C17.3772 27.6341 17.1521 26.8456 16.9371 26.0558C16.9082 25.9496 16.8027 25.7805 16.7365 25.7821C16.2836 25.7936 16.2331 25.4419 16.1132 25.146C15.7288 24.1989 15.348 23.2623 14.8 22.3787C13.5789 20.4104 13.809 17.8411 15.1277 15.9511C15.6052 15.2665 15.8343 14.4073 16.1673 13.6237C16.2725 13.3753 16.3406 13.1268 16.7001 13.1439C16.7758 13.1475 16.903 12.9689 16.9348 12.8542C17.1527 12.066 17.3792 11.2778 17.5443 10.4776C17.6141 10.1403 17.7485 10.0453 18.0664 10.0482C19.2652 10.0594 20.4647 10.0669 21.6631 10.0427C22.0462 10.0351 22.1658 10.1944 22.2406 10.5359C22.412 11.3191 22.6207 12.0945 22.8278 12.8693C22.856 12.9745 22.9678 13.1439 23.0307 13.1396C23.4967 13.1069 23.5184 13.4795 23.653 13.7633C24.0765 14.657 24.5228 15.5399 24.9334 16.4391C25.1842 16.9874 25.3988 17.5527 25.6027 18.1203C25.682 18.3419 25.739 18.488 26.0264 18.5008C26.4003 18.5175 26.597 18.7741 26.632 19.15C26.7199 20.0929 26.5386 20.3662 25.8878 20.4448Z" fill="white"/>
<path d="M17.7942 23.293C18.7685 24.1972 21.3188 24.0871 21.9651 23.2622C20.5752 23.9075 19.1873 23.8859 17.7942 23.293ZM21.9497 15.6332C21.1441 14.7336 18.446 14.7706 17.708 15.7325C19.186 15.0377 20.5644 15.0138 21.9497 15.6332ZM17.5847 23.2045C14.8634 20.704 14.8958 18.2065 17.6614 15.6535C16.384 16.1104 15.3825 17.8774 15.3933 19.4895C15.4038 21.0711 16.4344 22.8539 17.5847 23.2045ZM22.1715 15.7276C24.8824 18.2166 24.868 20.7017 22.1692 23.1855C23.1177 23.1279 24.3391 21.1583 24.383 19.6294C24.4318 17.9469 23.2494 15.8495 22.1715 15.7276ZM19.3394 19.0431C19.0605 19.4112 19.0939 19.772 19.4315 20.0443C19.7261 20.2816 20.2285 20.2767 20.433 19.9503C20.663 19.5829 20.9806 19.5534 21.3358 19.5246C21.5839 19.5042 21.8363 19.4902 22.0752 19.4295C22.1741 19.4043 22.2436 19.2637 22.3265 19.1755C22.2194 19.1123 22.1106 18.992 22.006 18.996C21.6652 19.0091 21.3257 19.0648 20.9865 19.11C20.6096 19.1601 19.9266 18.7246 19.8257 18.3553C19.6618 17.7562 19.5163 17.1519 19.3374 16.5574C19.302 16.4407 19.1499 16.3594 19.0516 16.2618C19.0018 16.4034 18.8865 16.5593 18.914 16.6839C19.0447 17.2751 19.2299 17.8545 19.3607 18.4457C19.4033 18.6378 19.339 18.8534 19.3236 19.0582L19.3394 19.0431ZM19.8696 24.404C16.9781 24.3578 14.8892 22.1558 14.9404 19.2086C14.9849 16.6452 17.3314 14.4305 19.9443 14.4865C22.7047 14.5455 24.8896 16.8081 24.8444 19.5609C24.8005 22.2427 22.5366 24.4466 19.8696 24.404Z" fill="white"/>
<path d="M19.3225 19.0557C19.4012 19.1137 19.5411 19.1638 19.5496 19.2307C19.6302 19.8658 19.6689 19.8943 20.2365 19.658C20.2893 19.6361 20.3522 19.6394 20.421 19.6295C20.2958 19.9949 20.0536 20.1555 19.7466 20.0621C19.4303 19.9658 19.2576 19.7406 19.2724 19.4011C19.2773 19.2802 19.3153 19.1609 19.3382 19.0409L19.3225 19.0557Z" fill="white"/>
</svg>
