<svg width="40" height="40" viewBox="0 0 40 40" fill="none" xmlns="http://www.w3.org/2000/svg">
<rect x="0.05" y="0.0932739" width="39.9" height="38.9" rx="1.95" fill="#6B7A99" fill-opacity="0.29" stroke="black" stroke-width="0.1"/>
<path d="M28.6204 15.9578C28.9792 16.098 29.1431 16.0266 29.2089 15.6415C29.3253 14.9582 29.4708 14.2766 29.6596 13.6096C29.7743 13.2039 29.6743 13.0394 29.2299 13.0207C29.0264 14.0019 28.8242 14.9766 28.6204 15.9578ZM10.7262 13.1689C10.9117 14.0072 11.1106 14.8147 11.2626 15.6307C11.337 16.0315 11.5137 16.1059 11.9017 15.9424C11.6952 14.9562 11.4898 13.9734 11.2761 12.9526C11.0552 13.0394 10.9028 13.0994 10.7262 13.1689ZM13.9198 11.9429C13.2227 12.2086 12.5856 12.4423 11.959 12.7009C11.8683 12.7382 11.7565 12.908 11.7729 12.9945C11.9607 13.9918 12.1711 14.9848 12.3664 15.9332H14.2098C14.1118 14.5817 14.0178 13.2895 13.9198 11.9429ZM28.8072 12.7982C28.0439 12.5078 27.3046 12.2267 26.5111 11.9252C26.4158 13.3036 26.326 14.6023 26.2329 15.9479H28.1537C28.3677 14.9166 28.5833 13.8774 28.8072 12.7982ZM23.1248 10.9315C23.0861 10.881 23.0475 10.8309 23.0085 10.7804C22.9138 10.8604 22.7889 10.922 22.7283 11.0226C21.4439 13.1521 18.9729 13.1603 17.72 11.0393C17.6633 10.9436 17.5342 10.8909 17.4389 10.8181C17.4362 10.9384 17.3946 11.0754 17.4372 11.1766C18.1186 12.7828 19.9889 13.4795 21.5573 12.7268C21.7284 12.6445 21.9444 12.3856 22.0833 12.711C22.1181 12.7923 21.8867 13.0666 21.7268 13.1381C20.5938 13.6431 19.4756 13.6169 18.3968 12.964C17.6339 12.5023 17.2013 11.7731 16.827 10.9826C16.1863 11.174 15.5682 11.3697 14.9433 11.5394C14.645 11.6207 14.5893 11.7659 14.6093 12.0716C14.7319 13.9577 14.8758 15.845 14.9112 17.734C14.9616 20.4007 14.9305 23.069 14.9167 25.7366C14.9151 26.0525 15.0068 26.24 15.3031 26.3226C16.1794 26.5674 17.0564 26.8106 17.934 27.0511C18.1621 27.1137 18.5213 26.9672 18.5102 27.3723C18.5089 27.4188 18.0468 27.527 17.8252 27.4801C16.8621 27.2762 15.9084 27.0252 14.9593 26.7935C14.9154 27.114 14.9128 27.1189 15.2343 27.2808C15.4273 27.3782 15.6256 27.4683 15.8291 27.541C17.7371 28.2247 19.7126 28.2778 21.7018 28.13C22.9092 28.0402 24.0926 27.8183 25.1973 27.2818C25.4497 27.1592 25.6191 27.0232 25.5155 26.7791C24.5468 27.017 23.6013 27.3025 22.6355 27.4689C21.8769 27.6 21.0933 27.5918 20.3199 27.624C20.2179 27.6282 20.1104 27.5034 20.0056 27.4381C20.0983 27.3549 20.1812 27.2192 20.2861 27.1992C20.5119 27.1566 20.7488 27.1737 20.9812 27.1661C22.4153 27.1196 23.8127 26.9043 25.14 26.3213C25.4369 26.1908 25.5424 26.0253 25.5408 25.695C25.5263 22.9654 25.526 20.2358 25.5365 17.5059C25.5398 16.6853 25.5785 15.864 25.623 15.0444C25.6778 14.0386 25.7617 13.0342 25.8177 12.0284C25.8252 11.8963 25.7764 11.6656 25.6991 11.6387C25.0066 11.3992 24.3023 11.195 23.6121 10.9836C23.4702 11.2615 23.389 11.4854 23.2516 11.6672C23.1579 11.7921 22.9865 11.8586 22.8499 11.951C22.8505 11.7888 22.8168 11.6164 22.8603 11.4667C22.9154 11.2786 23.034 11.1091 23.1248 10.9315ZM26.1982 16.7246C26.1982 16.8613 26.1982 17.0291 26.1982 17.1965C26.1982 20.438 26.1897 23.6795 26.209 26.921C26.2116 27.3585 26.0602 27.6069 25.6882 27.7986C24.5399 28.3912 23.308 28.6766 22.0358 28.7821C19.9564 28.9548 17.8865 28.9306 15.8717 28.2797C14.2823 27.7662 14.2403 27.7079 14.24 26.0548C14.2393 23.0772 14.2383 20.0992 14.2374 17.1215C14.2374 16.9701 14.2374 16.8184 14.2374 16.7223C13.264 16.7223 12.3366 16.6987 11.4111 16.7325C10.9674 16.7485 10.7681 16.5991 10.6822 16.1678C10.483 15.167 10.2533 14.1717 10.0232 13.1771C9.95045 12.8624 10.0461 12.6786 10.348 12.5672C12.7115 11.6948 15.0288 10.6929 17.4867 10.0883C17.8891 9.98964 18.0645 10.0726 18.2192 10.4606C18.5656 11.33 19.1751 11.8924 20.1747 11.9111C21.1958 11.9297 21.8362 11.3834 22.1961 10.494C22.3678 10.0696 22.5667 9.95457 22.9993 10.1063C25.3753 10.94 27.7571 11.7574 30.138 12.578C30.4202 12.6753 30.527 12.8536 30.4592 13.1485C30.2173 14.2035 29.9709 15.2574 29.748 16.3166C29.6782 16.6489 29.498 16.7322 29.1909 16.7289C28.2163 16.7177 27.2416 16.7246 26.1982 16.7246Z" fill="white"/>
<path d="M23.385 23.4262C23.2959 23.4891 23.207 23.6071 23.1176 23.6074C21.108 23.6179 19.0981 23.6152 17.0469 23.6152C17.1023 23.453 17.1475 23.32 17.193 23.1872C18.1136 21.9527 19.0345 20.7182 19.9554 19.4837C20.0206 19.389 20.0858 19.2943 20.1622 19.1835C20.3542 19.3854 20.4847 19.5223 20.6148 19.6593C20.7268 19.7871 20.8501 19.9068 20.9494 20.0438C21.7638 21.1695 22.5736 22.2985 23.385 23.4262Z" fill="white"/>
<path d="M19.9557 19.4856C19.0348 20.7202 18.1142 21.9547 17.1933 23.1892C17.1121 23.2511 17.0305 23.3134 16.8935 23.4183C16.8935 23.2534 16.8935 23.1525 16.8935 23.0512C16.8935 20.4275 16.8905 17.8038 16.901 15.18C16.9017 15.0447 16.7394 14.7206 17.1409 14.8192C17.9546 15.9482 18.7684 17.0772 19.5821 18.2062C19.4405 18.7102 19.646 19.1133 19.9557 19.4856Z" fill="white"/>
<path d="M23.3845 23.428C22.573 22.3004 21.7632 21.1714 20.9489 20.0456C20.8496 19.9086 20.7263 19.789 20.6143 19.6612C20.6211 19.5111 20.6034 19.3548 20.6395 19.2119C20.7427 18.7993 20.8679 18.392 20.9843 17.9826L23.2908 14.9165C23.3497 14.8709 23.4084 14.825 23.5342 14.7271C23.5342 15.0295 23.5339 15.2796 23.5342 15.53C23.5375 17.9921 23.5441 20.454 23.5372 22.9161C23.5369 23.0869 23.4379 23.2573 23.3845 23.428Z" fill="white"/>
<path d="M20.4454 17.4579C19.9486 17.1301 19.8515 17.1501 19.6972 17.4579H20.4454ZM23.2913 14.9141C22.5225 15.9363 21.7536 16.9584 20.9848 17.9803C20.9006 18.0481 20.8167 18.1159 20.7157 18.1972C20.6728 17.9914 20.64 17.8347 20.6076 17.6781C20.5581 17.666 20.5086 17.6538 20.4591 17.6414C20.3825 17.8095 20.3054 17.9776 20.2288 18.1458L20.2301 18.1199C20.0138 18.1477 19.7975 18.1756 19.5815 18.2034C18.7678 17.0748 17.954 15.9458 17.1403 14.8168C16.9243 14.5044 17.2127 14.5716 17.3432 14.57C18.0376 14.5608 18.7321 14.5667 19.4268 14.567C20.7367 14.567 22.0469 14.567 23.3749 14.567C23.3401 14.7109 23.3159 14.8125 23.2913 14.9141Z" fill="white"/>
<path d="M20.2295 18.1448C20.237 18.1348 20.2441 18.1244 20.2515 18.1144C20.2447 18.116 20.2379 18.1176 20.2308 18.1192L20.2295 18.1448Z" fill="white"/>
</svg>
