<svg width="40" height="40" viewBox="0 0 40 40" fill="none" xmlns="http://www.w3.org/2000/svg">
<rect x="0.05" y="0.0932739" width="39.9" height="38.9" rx="1.95" fill="#6B7A99" fill-opacity="0.29" stroke="black" stroke-width="0.1"/>
<path d="M17.7695 17.4492C19.785 21.2599 21.7743 25.0208 23.7956 28.8424C22.7558 28.8424 21.7346 28.7726 20.7282 28.8637C19.8486 28.9433 19.4117 28.6153 19.0319 27.8418C18.0114 25.7628 16.845 23.7552 16.0988 21.5473C16.0595 21.4306 15.8753 21.3625 15.7586 21.272C15.7239 21.4211 15.6216 21.5955 15.6659 21.7154C15.9671 22.5292 16.2548 23.3531 16.6304 24.1334C17.3107 25.5455 18.0497 26.9298 18.7642 28.3259C18.8395 28.473 18.9129 28.6215 19.0224 28.8394C17.8534 28.8394 16.7516 28.8509 15.6505 28.8227C15.5315 28.8198 15.3686 28.6061 15.31 28.457C14.4228 26.1908 13.5436 23.9213 12.6764 21.6473C12.4342 21.0128 12.2366 20.3619 12 19.6639C13.9676 18.9085 15.8976 18.1679 17.7695 17.4492Z" fill="white"/>
<path d="M21.0349 12.0949C22.3477 12.0024 23.6045 11.9163 24.861 11.8245C25.116 11.8058 25.3752 11.7898 25.6203 11.7265C25.7377 11.6964 25.8271 11.5584 25.9291 11.4689C25.8127 11.3968 25.6993 11.2703 25.5794 11.2638C25.3319 11.25 25.0812 11.3005 24.8027 11.3273V10.3019C25.4709 10.2219 26.1532 10.1403 26.9633 10.0437C26.8437 11.1966 26.7379 12.2748 26.6091 13.35C26.5989 13.4356 26.439 13.5381 26.3302 13.5699C26.1198 13.6315 25.8855 13.6204 25.6816 13.6951C25.5682 13.7364 25.4958 13.8901 25.4047 13.9934C25.5125 14.0559 25.621 14.1713 25.7282 14.1703C25.9756 14.168 26.2224 14.109 26.5458 14.0618C25.9943 18.6811 25.4234 23.2334 24.4373 27.8812C23.8113 26.025 23.2319 24.3182 22.66 22.6091C22.1573 21.1072 21.6612 19.6033 21.1666 18.0987C21.1083 17.9221 21.0414 17.7362 21.0404 17.5544C21.0313 15.7467 21.0349 13.9386 21.0349 12.0949Z" fill="white"/>
<path d="M12.7744 10.0571C13.5675 10.1564 14.2033 10.236 14.8712 10.3199V11.3322C14.5851 11.3116 14.3314 11.2674 14.0823 11.2854C13.9493 11.2952 13.8244 11.4129 13.696 11.4817C13.7985 11.5685 13.891 11.7127 14.0047 11.7321C14.475 11.812 14.9524 11.8471 15.4247 11.9146C15.5473 11.932 15.7239 11.9746 15.7701 12.0614C16.342 13.1413 16.8942 14.2313 17.4726 15.3599C16.1955 15.7591 14.9846 16.1376 13.712 16.5355C13.3971 14.3607 13.0913 12.2479 12.7744 10.0571Z" fill="white"/>
<path d="M13.2182 18.3997C13.1461 18.1031 13.0835 17.8449 13.0078 17.5329C15.1835 16.8519 17.3321 16.1791 19.5144 15.4961C20.5654 18.6426 21.6033 21.751 22.6412 24.8591C22.6205 24.8725 22.6002 24.8856 22.5795 24.8987C22.5278 24.8345 22.4629 24.7765 22.4262 24.7044C21.1176 22.142 19.8024 19.5828 18.5155 17.0095C18.3071 16.5927 18.098 16.5202 17.6801 16.6857C16.2126 17.2681 14.7333 17.8206 13.2182 18.3997Z" fill="white"/>
<path d="M18.1358 15.1778C18.0447 15.1332 17.9071 15.1132 17.869 15.0408C17.3506 14.0511 16.8456 13.0545 16.3311 12.0471H20.5252V15.9116C20.502 15.9208 20.479 15.9303 20.4557 15.9398C20.3653 15.6809 20.2512 15.4275 20.1896 15.1621C20.0812 14.6954 19.8085 14.5689 19.4018 14.7685C18.8634 15.0323 18.5848 14.855 18.3737 14.3211C18.162 13.786 17.8713 13.28 17.5856 12.7782C17.522 12.6671 17.3326 12.6281 17.2012 12.556C17.1907 12.7038 17.1235 12.8782 17.1785 12.9952C17.5043 13.687 17.8582 14.3654 18.2027 15.0484C18.1804 15.0916 18.1581 15.1345 18.1358 15.1778Z" fill="white"/>
<path d="M20.5898 11.4889V10.5021H23.3093C23.3093 10.7148 23.3316 10.9966 23.2958 11.2709C23.285 11.3542 23.1159 11.4771 23.0169 11.4794C22.2239 11.4964 21.4298 11.4889 20.5898 11.4889Z" fill="white"/>
<path d="M16.3945 10.4958H18.994C19.0517 10.5859 19.0825 10.6124 19.0854 10.6419C19.1841 11.6031 19.1841 11.6012 18.234 11.5556C17.6576 11.5278 17.0808 11.5084 16.5043 11.4819C16.4755 11.4806 16.4476 11.4491 16.3945 11.416V10.4958Z" fill="white"/>
<path d="M20.0668 10.4044C20.0668 10.8484 20.0747 11.1175 20.0612 11.3856C20.058 11.4524 19.9967 11.5573 19.9429 11.5714C19.8544 11.5943 19.6686 11.5691 19.665 11.5442C19.6254 11.2646 19.5821 10.9782 19.6109 10.701C19.6198 10.6128 19.839 10.5459 20.0668 10.4044Z" fill="white"/>
<path d="M23.8415 11.3637C23.6993 10.4782 23.7426 10.3727 24.2322 10.4143C24.3433 11.3706 24.3279 11.408 23.8415 11.3637Z" fill="white"/>
<path d="M15.8356 11.3982C15.167 11.5014 15.4075 11.0177 15.3921 10.7431C15.3728 10.4009 15.3997 10.3993 15.8356 10.4157V11.3982Z" fill="white"/>
</svg>
