<svg width="40" height="40" viewBox="0 0 40 40" fill="none" xmlns="http://www.w3.org/2000/svg">
<rect x="0.05" y="0.0932739" width="39.9" height="38.9" rx="1.95" fill="#6B7A99" fill-opacity="0.29" stroke="black" stroke-width="0.1"/>
<path d="M10 13.3639C10.4939 12.6626 10.8413 12.6547 11.3764 13.3226C12.0564 14.1714 12.742 15.0159 13.426 15.8615C13.4899 15.9404 13.5568 16.0171 13.6275 16.0899C13.8238 16.2908 14.05 16.3589 14.282 16.1679C14.5255 15.9676 14.5275 15.7117 14.341 15.4757C13.7655 14.7475 13.1789 14.0285 12.5962 13.3059C12.3776 13.0352 12.1554 12.7671 11.9395 12.4941C11.6507 12.1294 11.6661 11.8357 11.9794 11.5936C12.2921 11.352 12.5798 11.4002 12.8754 11.762C13.5453 12.5816 14.2092 13.4065 14.8762 14.2288C14.9859 14.3641 15.0957 14.4991 15.2091 14.6312C15.4451 14.9062 15.7213 14.9655 16.0058 14.7253C16.286 14.4883 16.289 14.194 16.0671 13.9158C15.5522 13.2692 15.0253 12.6324 14.5042 11.9911C14.2663 11.6984 14.0257 11.4077 13.7947 11.1098C13.5417 10.7838 13.5862 10.4482 13.9045 10.2017C14.2092 9.96544 14.5379 9.991 14.7841 10.2859C15.8895 11.6116 17.0031 12.9303 18.0895 14.2714C18.6718 14.9907 19.0608 15.7995 18.7941 16.7604C18.6961 17.114 18.504 17.4411 18.3369 17.8212C20.0541 19.7944 21.8153 21.8194 23.5778 23.8434C24.3876 24.7735 25.203 25.699 26.0085 26.6323C26.3854 27.0692 26.463 27.6591 26.1904 28.1307C25.9112 28.6134 25.4904 28.9552 24.9155 28.8562C24.6068 28.8031 24.2499 28.6055 24.0579 28.3607C21.7222 25.384 19.4134 22.386 17.0965 19.3943C17.0001 19.2698 16.8959 19.1518 16.7999 19.0364C15.3317 19.6103 14.3551 19.3658 13.3536 18.1129C12.2164 16.6906 11.1162 15.2388 10 13.7994L10 13.3639Z" fill="white"/>
<path d="M30.1286 14.0613C29.906 15.1005 29.5488 16.0833 28.9065 16.9439C28.0456 18.0975 27.026 19.0607 25.5526 19.313C24.9919 19.4094 24.3941 19.2871 23.7115 19.2603C23.3438 19.724 22.8853 20.3018 22.3888 20.928C21.8598 20.3283 21.3473 19.7473 20.8193 19.1488C21.1634 18.7281 21.5092 18.3187 21.8359 17.8947C21.9106 17.798 21.9804 17.6318 21.9493 17.5286C21.4767 15.9634 21.9198 14.5804 22.8066 13.3043C23.7423 11.9583 24.9394 10.9417 26.5833 10.5662C28.2674 10.1814 29.7402 11.1675 30.0463 12.8648C30.0611 12.9464 30.1007 13.0234 30.1286 13.1027V14.0613Z" fill="white"/>
<path d="M18.1595 22.3694C18.6963 23.053 19.1945 23.6868 19.7093 24.3426C18.6694 25.6564 17.6627 26.9624 16.6166 28.2359C16.1188 28.8422 15.3018 28.8878 14.7614 28.4162C14.2406 27.9623 14.1984 27.2059 14.6958 26.5796C15.3624 25.7406 16.0536 24.921 16.7352 24.0935C17.195 23.5351 17.6568 22.978 18.1595 22.3694Z" fill="white"/>
</svg>
