<svg width="40" height="40" viewBox="0 0 40 40" fill="none" xmlns="http://www.w3.org/2000/svg">
<rect x="0.05" y="0.0932739" width="39.9" height="38.9" rx="1.95" fill="#6B7A99" fill-opacity="0.29" stroke="black" stroke-width="0.1"/>
<path d="M19.5954 15.5639C17.5583 15.5623 15.8633 17.2484 15.8908 19.2488C15.918 21.2328 17.5937 22.9019 19.5695 22.9134C21.5929 22.9248 23.2888 21.2531 23.2967 19.239C23.3045 17.2065 21.6518 15.5656 19.5954 15.5639ZM25.5281 19.2665C25.5186 22.529 22.8326 25.1963 19.579 25.174C16.3005 25.1517 13.6705 22.4946 13.6807 19.2147C13.6915 15.8821 16.3339 13.2614 19.6642 13.2804C22.9319 13.2994 25.5376 15.9591 25.5281 19.2665Z" fill="white"/>
<path d="M27.7758 13.0743C27.8354 13.4299 27.9423 13.7848 27.9465 14.1411C27.9652 15.742 27.918 17.3445 27.9646 18.9445C28.0239 20.9731 28.1478 23 28.2507 25.0273C28.2713 25.4373 28.2569 25.8358 27.7457 25.8961C27.1735 25.9633 26.9935 25.6277 27.0289 25.1004C27.1213 23.718 27.1918 22.3344 27.2901 20.9527C27.3222 20.5024 27.3491 20.1013 26.8385 19.8686C26.6983 19.8044 26.5495 19.572 26.5488 19.4164C26.5423 17.5107 26.4276 15.5906 27.0817 13.7494C27.1718 13.4958 27.3642 13.2785 27.5094 13.0442C27.5982 13.0543 27.687 13.0642 27.7758 13.0743Z" fill="white"/>
<path d="M12.9632 13.3046C13.0166 14.4975 13.092 15.69 13.1067 16.8836C13.1103 17.1595 12.9855 17.5741 12.7849 17.6888C12.2884 17.9726 12.2586 18.358 12.2914 18.8313C12.4284 20.8113 12.5549 22.7924 12.685 24.7728C12.6945 24.916 12.7046 25.0596 12.7095 25.2028C12.7253 25.6682 12.5172 25.9352 12.0335 25.9238C11.5819 25.9136 11.3905 25.6413 11.4167 25.2189C11.4744 24.2881 11.5589 23.3594 11.615 22.4286C11.6926 21.1391 11.768 19.8491 11.8093 18.5586C11.8165 18.3377 11.7133 18.009 11.5504 17.9074C11.0939 17.6226 10.9798 17.2369 11.0028 16.7512C11.0588 15.558 11.1086 14.3644 11.1607 13.1709C11.2191 13.1679 11.2771 13.165 11.3354 13.162V16.3281C11.4167 16.3278 11.4983 16.3275 11.5796 16.3275C11.6281 15.2725 11.6766 14.2176 11.7251 13.1627C11.7906 13.1614 11.8562 13.16 11.9217 13.1587V16.3389L12.2101 16.3334V13.1519C12.272 13.1509 12.334 13.1502 12.3959 13.1492C12.4457 14.2035 12.4955 15.2578 12.5454 16.3121C12.6165 16.3101 12.6876 16.3081 12.7587 16.3062V13.3003C12.8269 13.3016 12.895 13.3033 12.9632 13.3046Z" fill="white"/>
</svg>
