<svg width="40" height="40" viewBox="0 0 40 40" fill="none" xmlns="http://www.w3.org/2000/svg">
<rect x="0.05" y="0.0932739" width="39.9" height="38.9" rx="1.95" fill="#6B7A99" fill-opacity="0.29" stroke="black" stroke-width="0.1"/>
<path d="M15.002 15.8956C14.8224 16.0595 14.6464 16.1447 14.6202 16.2633C14.5881 16.4072 14.6294 16.6477 14.7313 16.727C15.0921 17.0079 15.4808 17.2593 15.8849 17.4733C16.0032 17.5359 16.2444 17.4857 16.3594 17.3969C16.4486 17.3281 16.501 17.0305 16.4456 16.9846C15.9924 16.61 15.5096 16.2709 15.002 15.8956ZM26.7016 16.011C26.5938 15.7832 26.5715 15.6334 26.4866 15.5745C26.0803 15.2933 25.668 15.016 25.2318 14.7869C25.1348 14.7361 24.872 14.8446 24.7966 14.9554C24.7238 15.0629 24.7291 15.3513 24.812 15.4149C25.2157 15.7259 25.6405 16.0215 26.0953 16.2463C26.2192 16.3079 26.4735 16.106 26.7016 16.011ZM24.3817 18.7107C24.3587 18.6583 24.3443 18.5262 24.2729 18.4771C23.855 18.19 23.4359 17.8993 22.9882 17.666C22.8922 17.6158 22.5976 17.759 22.5363 17.8829C22.4766 18.0038 22.5419 18.2863 22.6513 18.3725C23.0066 18.6537 23.3949 18.8998 23.7944 19.1155C24.0854 19.2728 24.3807 19.0706 24.3817 18.7107ZM15.117 12.4218C14.942 12.5758 14.7775 12.6554 14.7336 12.778C14.689 12.9019 14.711 13.1405 14.7968 13.2044C15.2022 13.5078 15.6302 13.7851 16.073 14.0312C16.1667 14.0833 16.4017 14.0086 16.4862 13.9149C16.5705 13.8218 16.6177 13.5452 16.5597 13.4977C16.1054 13.1264 15.622 12.7908 15.117 12.4218ZM26.6626 19.9525C26.5571 19.8414 26.4385 19.6143 26.3143 19.611C26.1474 19.6067 25.8817 19.7372 25.8246 19.8774C25.6598 20.2822 25.5431 20.7161 25.4828 21.149C25.4628 21.2948 25.6369 21.5429 25.7833 21.6104C25.8889 21.6592 26.1946 21.5236 26.2408 21.4043C26.4119 20.9628 26.5125 20.4942 26.6626 19.9525ZM13.1736 15.3739C13.0698 15.2605 12.9652 15.0485 12.825 15.0209C12.6847 14.9937 12.4104 15.1133 12.3652 15.233C12.197 15.6767 12.0705 16.1424 11.9935 16.6107C11.9719 16.7405 12.1498 16.9938 12.2826 17.0325C12.4127 17.0702 12.7001 16.946 12.747 16.8257C12.9203 16.3839 13.0222 15.9146 13.1736 15.3739ZM18.9881 12.857C19.4456 12.4369 19.889 12.0485 20.2996 11.628C20.3511 11.5753 20.2704 11.2882 20.1747 11.2246C20.0551 11.1453 19.808 11.1135 19.7009 11.1859C19.322 11.4429 18.9628 11.7359 18.6341 12.0541C18.5391 12.1462 18.5168 12.3874 18.5624 12.5273C18.5997 12.6427 18.7865 12.7095 18.9881 12.857ZM21.4004 13.5927C21.6167 14.1095 21.7937 14.591 22.026 15.0435C22.0775 15.1438 22.3518 15.2156 22.475 15.17C22.5995 15.1238 22.768 14.8843 22.7378 14.7833C22.5917 14.2957 22.4052 13.8166 22.1843 13.3578C22.1358 13.2575 21.8687 13.1867 21.7367 13.224C21.6066 13.2611 21.5204 13.4521 21.4004 13.5927ZM18.7954 14.2138C18.5293 14.238 18.2182 14.2206 17.9407 14.3088C17.7683 14.3635 17.647 14.5788 17.5028 14.7217C17.6572 14.8597 17.804 15.1038 17.9669 15.115C18.4001 15.1442 18.8471 15.1081 19.2738 15.0229C19.4171 14.9944 19.5943 14.7463 19.6075 14.5864C19.6166 14.4727 19.3941 14.3052 19.2417 14.2252C19.1319 14.1672 18.9671 14.2138 18.7954 14.2138ZM19.4321 22.1462C20.9072 22.1289 22.1345 20.8743 22.1053 19.414C22.0755 17.939 20.8253 16.7405 19.3476 16.7713C17.9115 16.8008 16.7012 18.0609 16.7265 19.4999C16.7517 20.9451 17.9974 22.1633 19.4321 22.1462ZM27.5662 22.0305C26.2018 22.666 24.911 22.7922 23.5617 22.606C22.6844 22.4844 22.2679 22.7712 21.9012 23.5912C21.7573 23.913 21.6603 24.2558 21.5187 24.5789C21.4135 24.8194 21.326 25.1246 21.1323 25.257C20.8187 25.4713 20.4287 25.6709 20.0627 25.6866C19.6219 25.7056 19.4357 25.2835 19.3345 24.8915C19.224 24.4645 19.1414 24.0303 19.0395 23.601C18.913 23.0671 18.5571 22.819 18.0265 22.8931C17.7014 22.9387 17.3796 23.0524 17.0725 23.1766C16.7137 23.3218 16.3853 23.5479 16.0215 23.675C15.0692 24.0083 14.3384 23.4679 14.3859 22.4572C14.4033 22.0931 14.5317 21.7336 14.6195 21.3745C14.7077 21.0149 14.8424 20.6636 14.8965 20.2995C14.9797 19.7401 14.8608 19.2367 14.3112 18.9375C13.8222 18.6714 13.3208 18.7517 12.804 19.2115C12.0601 19.8741 11.6586 20.7341 11.5055 21.7002C11.4502 22.0496 11.4279 22.4622 11.5593 22.7748C13.5984 27.6182 19.4413 29.4819 23.9085 26.7192C25.6523 25.6407 26.8488 24.1119 27.5662 22.0305ZM28.8315 19.4694C28.8348 24.6376 24.6419 28.874 19.5242 28.8734C14.1932 28.8727 10 24.7339 10 19.4733C10.0003 14.2852 14.1778 10.0402 19.2807 10.0425C24.6491 10.0448 28.8282 14.1695 28.8315 19.4694Z" fill="white"/>
</svg>
