<svg width="40" height="40" viewBox="0 0 40 40" fill="none" xmlns="http://www.w3.org/2000/svg">
<rect x="0.05" y="0.0932739" width="39.9" height="38.9" rx="1.95" fill="#6B7A99" fill-opacity="0.29" stroke="black" stroke-width="0.1"/>
<path d="M20.0489 23.2394C19.6268 23.2457 19.3132 23.5606 19.3128 23.9791C19.3125 24.4137 19.6383 24.7306 20.0761 24.7217C20.491 24.7132 20.8017 24.3874 20.7961 23.9666C20.7902 23.5449 20.47 23.2332 20.0489 23.2394ZM16.9883 17.0062C16.5859 17.0114 16.246 17.3477 16.2421 17.7452C16.2382 18.1548 16.5921 18.5085 17.0027 18.5048C17.396 18.5016 17.7463 18.1519 17.7483 17.7606C17.7506 17.3441 17.4048 17.0009 16.9883 17.0062ZM18.9199 21.1033C18.9182 21.5153 19.2679 21.862 19.6815 21.8587C20.0781 21.8558 20.4097 21.513 20.4104 21.1053C20.411 20.6862 20.0712 20.3493 19.6517 20.3535C19.2542 20.3578 18.9219 20.6986 18.9199 21.1033ZM16.327 20.4738C15.7049 20.4744 15.2006 20.9795 15.2071 21.5943C15.214 22.2202 15.7072 22.7252 16.3184 22.7331C16.9414 22.7406 17.4569 22.2196 17.453 21.5861C17.4491 20.9628 16.9532 20.4731 16.327 20.4738ZM21.3935 21.939C21.3837 22.5404 21.873 23.0526 22.4724 23.0687C23.1157 23.0854 23.6335 22.5948 23.6387 21.963C23.6437 21.3403 23.1508 20.8208 22.5425 20.8081C21.913 20.7946 21.4043 21.2954 21.3935 21.939ZM20.6257 14.4228C20.6158 14.5129 20.5972 14.6043 20.5972 14.6961C20.5972 14.9812 20.5483 15.1644 20.1839 15.2185C19.7166 15.2883 19.4161 15.7091 19.3679 16.1813C19.3207 16.6483 19.5557 17.0789 19.9784 17.2975C20.0525 17.3359 20.1282 17.37 20.2295 17.4188C20.1305 18.1824 20.0312 18.9496 19.9214 19.7974C20.7895 19.2222 21.5957 18.6884 22.4013 18.1545C22.8103 18.7392 23.2055 18.8752 23.6214 18.5861C24.0182 18.3102 24.0317 17.8851 23.6446 17.326C23.9127 17.1487 24.1801 16.9718 24.4462 16.7961C26.0331 18.8624 25.7968 22.0718 23.9317 24.04C22.0132 26.0644 18.834 26.4354 16.5826 24.897C14.1457 23.2322 13.2969 20.2067 14.5569 17.5862C15.8174 14.9638 18.5771 14.018 20.6257 14.4228Z" fill="white"/>
<path d="M20.8994 12.4468C20.8584 12.7407 20.8168 13.0367 20.7745 13.3391C20.1856 13.3391 19.6147 13.2828 19.0579 13.3486C16.4683 13.6551 14.5957 15.0026 13.5319 17.3812C11.8087 21.2346 14.0697 25.7486 18.1885 26.6783C18.9144 26.8422 19.1969 27.8791 18.4215 27.7274C15.8554 27.225 13.9514 25.824 12.7749 23.4768C12.2341 22.398 11.9546 21.2441 12.006 20.0361C12.084 18.196 12.5845 16.4987 13.8196 15.0741C14.9732 13.7432 16.4031 12.8807 18.1256 12.5054C19.0396 12.3065 20.163 12.2799 20.8994 12.4468Z" fill="white"/>
<path d="M25.3247 16.2076C25.5983 16.0253 25.8503 15.8579 26.1299 15.6721C27.546 17.8799 27.914 20.2231 27.0314 22.6859C26.1138 25.2461 24.2694 26.8513 21.6191 27.6194V26.6199C23.7798 25.9389 25.3365 24.5415 26.1197 22.3792C26.9017 20.2208 26.5746 18.1644 25.3247 16.2076Z" fill="white"/>
<path d="M20.9179 15.9607C21.8057 16.0764 22.3625 15.747 22.4808 15.0595C22.5994 14.3693 22.159 13.8852 21.2233 13.703C21.2525 13.4703 21.282 13.2354 21.3167 12.9555C23.0812 13.2154 24.4435 14.0638 25.4568 15.5412C25.1878 15.7192 24.9276 15.8912 24.7857 15.9849C24.4052 15.9266 24.1279 15.8194 23.8743 15.8598C23.4689 15.9243 23.2778 16.3009 23.3309 16.7197C23.3427 16.8115 23.3063 16.9586 23.2401 17.0035C22.3727 17.5944 21.496 18.1715 20.6207 18.7506C20.6059 18.7607 20.5807 18.7548 20.54 18.7581C20.6665 17.8225 20.7921 16.8914 20.9179 15.9607Z" fill="white"/>
<path d="M21.4502 11.9295C21.5154 11.6093 21.5728 11.3268 21.6304 11.043C23.3402 11.0656 25.9124 12.4532 27.0965 14.449C26.8484 14.6145 26.599 14.7806 26.3195 14.9671C25.1364 13.2685 23.5401 12.2434 21.4502 11.9295Z" fill="white"/>
<path d="M18.1367 26.7343C18.1367 26.7343 21.0206 26.7743 21.6203 26.6176C22.2204 26.4607 21.6203 27.6172 21.6203 27.6172C21.6203 27.6172 19.6117 28.2067 18.0977 27.6172C16.5833 27.0273 18.1367 26.7343 18.1367 26.7343Z" fill="white"/>
</svg>
