<svg width="40" height="40" viewBox="0 0 40 40" fill="none" xmlns="http://www.w3.org/2000/svg">
<rect x="0.05" y="0.0932739" width="39.9" height="38.9" rx="1.95" fill="#6B7A99" fill-opacity="0.29" stroke="black" stroke-width="0.1"/>
<path d="M18.9016 27.6704C19.0334 28.1616 19.1582 28.6322 19.2883 29.1019C19.2969 29.1327 19.345 29.1736 19.3732 29.1723C19.4017 29.171 19.443 29.1278 19.4532 29.095C19.4987 28.9518 19.5361 28.8059 19.5748 28.6608C19.6331 28.4402 19.6905 28.2193 19.7485 27.9971C19.4633 27.887 19.1936 27.7831 18.9016 27.6704ZM21.3022 22.2148C21.4074 21.8206 21.5083 21.4421 21.6106 21.0583H18.9714C19.7314 21.5233 20.4927 21.8963 21.3022 22.2148ZM20.2102 26.2861C19.5754 26.0069 18.9544 25.7332 18.3127 25.4507C18.3222 25.4953 18.3255 25.5166 18.3311 25.5376C18.4356 25.9276 18.5366 26.3185 18.6486 26.7062C18.6663 26.7672 18.724 26.8376 18.781 26.8622C19.1301 27.0126 19.4843 27.1516 19.8369 27.2932C19.8651 27.3043 19.8966 27.3063 19.934 27.3145C20.0264 26.9704 20.1162 26.6361 20.2102 26.2861ZM20.3908 25.611C20.4862 25.2551 20.5773 24.9136 20.6694 24.5692C19.6229 24.1729 18.6418 23.6876 17.6743 23.097C17.8057 23.5844 17.924 24.0333 18.0512 24.48C18.0646 24.5279 18.123 24.5757 18.1721 24.5983C18.7604 24.8716 19.3509 25.1404 19.9412 25.4098C20.0857 25.476 20.2312 25.5399 20.3908 25.611ZM17.126 21.0494C17.2135 21.3762 17.2902 21.6813 17.3797 21.9828C17.4003 22.0516 17.4534 22.1257 17.5124 22.1663C18.2124 22.6464 18.9495 23.063 19.7186 23.4208C20.0844 23.5909 20.4586 23.7433 20.8457 23.9111C20.9299 23.5988 21.002 23.3078 21.0882 23.0213C21.1216 22.9106 21.0967 22.8709 20.9902 22.829C19.856 22.3823 18.7886 21.8094 17.7907 21.1078C17.754 21.0819 17.7087 21.0537 17.6668 21.0521C17.4931 21.0458 17.3191 21.0494 17.126 21.0494ZM16.0459 19.3558C15.9685 19.9647 16.314 20.3629 16.9088 20.3632C18.5454 20.3639 20.1817 20.3635 21.8183 20.3629C21.8793 20.3625 21.9409 20.3593 22.0015 20.3517C22.4908 20.2914 22.7995 19.8424 22.6829 19.3558H16.0459ZM19.3454 11.7786C19.3817 12.0139 19.4512 12.2524 19.4493 12.4904C19.445 12.9466 19.1828 13.2838 18.8561 13.5722C18.3986 13.9762 17.8542 14.2358 17.3053 14.4875C17.1608 14.5537 17.0169 14.6287 16.8871 14.7198C16.5961 14.9247 16.4591 15.2062 16.5316 15.5644C16.5574 15.6919 16.603 15.8184 16.6581 15.937C16.8291 16.3054 17.0998 16.6019 17.3709 16.8972C17.5049 17.0434 17.5101 17.2476 17.382 17.3816C17.248 17.5212 17.0359 17.5251 16.8884 17.3836C16.8006 17.2987 16.7256 17.2004 16.6371 17.1161C16.605 17.0853 16.5463 17.0549 16.5083 17.063C16.1799 17.1345 15.8719 17.2626 15.7447 17.5989C15.6208 17.9269 15.6955 18.2478 15.8935 18.5371C15.9564 18.6292 16.037 18.6663 16.1547 18.6659C18.3042 18.6623 20.454 18.6643 22.6039 18.659C22.6822 18.659 22.7779 18.6158 22.8356 18.5611C23.0601 18.3484 23.102 18.0737 23.0653 17.7798C23.0162 17.3855 22.848 17.0788 22.4417 16.9585C22.325 16.9241 22.2018 16.913 22.0818 16.89C21.9852 16.8717 21.9163 16.9067 21.8472 16.9785C21.7168 17.1142 21.5791 17.2443 21.4336 17.3632C21.275 17.4927 21.0636 17.4622 20.944 17.3088C20.8306 17.1637 20.8621 16.9651 21.004 16.8268C21.2196 16.6167 21.4293 16.4001 21.6368 16.1818C21.8708 15.935 21.935 15.6319 21.9016 15.3048C21.8632 14.9253 21.6905 14.7313 21.3133 14.6743C21.0862 14.6399 20.8529 14.6392 20.6225 14.6376C20.5586 14.6369 20.4783 14.6704 20.4331 14.7159C20.2328 14.9178 20.0277 15.1118 19.7609 15.2229C19.5938 15.2924 19.4083 15.2173 19.3296 15.059C19.2507 14.8991 19.2985 14.6992 19.4581 14.615C19.7953 14.4367 20.031 14.1581 20.2322 13.8478C20.4252 13.5496 20.5284 13.2172 20.535 12.861C20.5465 12.2413 19.9792 11.7448 19.3454 11.7786ZM16.1029 16.4555C16.0141 16.1726 15.9014 15.9105 15.8522 15.6368C15.7391 15.0053 15.9895 14.5081 16.5053 14.1509C16.72 14.0021 16.9641 13.8943 17.2008 13.7796C17.6294 13.5715 18.0597 13.366 18.4173 13.0439C18.5208 12.9505 18.6159 12.8394 18.6853 12.7191C18.858 12.4219 18.7692 12.0899 18.4782 11.9083C18.391 11.8543 18.2914 11.8208 18.198 11.7769C18.0492 11.7071 17.9581 11.5508 17.9771 11.4C17.9981 11.2316 18.1289 11.0821 18.2957 11.0674C18.897 11.0133 19.4938 11.0359 20.0677 11.2447C20.9564 11.5685 21.3743 12.3219 21.1819 13.2523C21.1337 13.4857 21.0544 13.7124 20.9876 13.9494C21.545 13.9795 22.0933 14.0713 22.3961 14.6284C22.6773 15.1459 22.6534 15.687 22.4331 16.2379C22.5128 16.2618 22.5885 16.2824 22.6629 16.3073C23.3209 16.5269 23.6516 17.0047 23.745 17.6742C23.8112 18.1511 23.7165 18.5814 23.4104 18.9609C23.3835 18.994 23.3849 19.0543 23.3829 19.1025C23.3721 19.3692 23.3996 19.6435 23.3478 19.9018C23.2482 20.4022 22.9329 20.7483 22.459 20.9393C22.3686 20.9757 22.3296 21.0278 22.3057 21.1166C21.5801 23.8298 20.8522 26.5424 20.1244 29.2552C20.0208 29.6416 19.7318 29.8766 19.3663 29.8733C19.0009 29.87 18.7201 29.6426 18.6175 29.2611C17.8926 26.5624 17.168 23.8633 16.4454 21.1638C16.4149 21.0491 16.3697 20.9793 16.2478 20.9249C15.6683 20.6667 15.3685 20.2065 15.3449 19.5734C15.3387 19.4004 15.3629 19.2263 15.3659 19.0526C15.3668 19.011 15.3475 18.9628 15.3229 18.9275C15.0332 18.5099 14.9408 18.0459 15.0362 17.5546C15.1332 17.0562 15.4707 16.7448 15.9145 16.5348C15.982 16.5026 16.0524 16.4764 16.1029 16.4555Z" fill="white"/>
</svg>
