<svg width="40" height="40" viewBox="0 0 40 40" fill="none" xmlns="http://www.w3.org/2000/svg">
<rect x="0.05" y="0.0932739" width="39.9" height="38.9" rx="1.95" fill="#6B7A99" fill-opacity="0.29" stroke="black" stroke-width="0.1"/>
<path d="M23.5662 15.0747V13.3653H23.289V15.2788H24.5844V15.0747H23.5662ZM20.4004 15.2762H20.6849V13.5783H21.436V13.3656H19.6283V13.5875H20.4004V15.2762ZM21.7018 13.361V15.2801H22.9344V15.0697H21.9866V14.3783H22.84C22.8361 14.295 22.8331 14.2364 22.8292 14.1623H21.9896V13.5839H22.9357V13.361H21.7018ZM15.7111 14.3861H16.807V15.2779H17.0669V13.3692H16.7942V14.1515H15.7153V13.3656H15.4404V15.2788H15.7111V14.3861ZM18.4574 15.33C19.0669 15.3286 19.4858 14.9154 19.4828 14.3193C19.4799 13.732 19.0483 13.3194 18.4394 13.3223C17.8544 13.3253 17.4169 13.7556 17.4156 14.3294C17.4142 14.9092 17.8537 15.3316 18.4574 15.33ZM19.2482 18.6029H21.0936V16.6412H19.2482V18.6029ZM15.2778 18.5973H17.1278V16.6461H15.2778V18.5973ZM24.6965 22.7135H22.8452V24.6716H24.6965V22.7135ZM19.2767 24.6716H21.1283V22.7083H19.2767V24.6716ZM24.7218 25.5968H22.8747V27.568H24.7218V25.5968ZM24.6949 19.6998H22.8439V21.6704H24.6949V19.6998ZM21.1309 19.7014H19.28V21.6684H21.1309V19.7014ZM22.8144 18.5983H24.6733V16.6422H22.8144V18.5983ZM17.1806 25.5991H15.3319V27.5703H17.1806V25.5991ZM17.1567 24.6847V22.7096H15.2893V22.9033C15.2893 23.3657 15.2896 23.8281 15.2893 24.2902C15.2893 24.6847 15.2893 24.6847 15.6888 24.6847C16.1728 24.6847 16.6569 24.6847 17.1567 24.6847ZM17.1544 19.7024H15.3021V21.6714H17.1544V19.7024ZM18.5655 27.5621H21.7195V25.5984H18.5655V27.5621ZM13.6825 27.5556V27.3603C13.6822 23.6813 13.6822 20.0023 13.6815 16.323C13.6812 15.6905 13.9565 15.2746 14.5437 15.0517C14.6401 15.015 14.6394 14.9603 14.6394 14.8852C14.6385 14.3776 14.6385 13.8696 14.6391 13.3617C14.6394 12.8868 14.9193 12.6082 15.3965 12.6079C18.4266 12.6079 21.4567 12.6079 24.4868 12.6079C24.9731 12.6079 25.2419 12.874 25.2425 13.3577C25.2432 13.8932 25.2425 14.4287 25.2425 14.9747C25.3389 14.9947 25.427 15.0088 25.5126 15.0321C26.0844 15.1881 26.4393 15.676 26.4397 16.3118C26.4407 18.5633 26.4403 20.8147 26.4403 23.0661C26.4407 24.5219 26.44 25.9779 26.44 27.4337C26.44 27.4727 26.44 27.5113 26.44 27.5641C26.4967 27.5684 26.5449 27.5733 26.5934 27.5749C26.9437 27.5867 27.2252 27.8679 27.2318 28.2136C27.2387 28.563 26.9735 28.8478 26.618 28.8727C26.5786 28.8753 26.539 28.8753 26.4993 28.8753C22.2389 28.8753 17.9789 28.8753 13.7185 28.8747C13.2384 28.8747 12.9366 28.5417 13.0113 28.0996C13.0598 27.8115 13.2742 27.6342 13.6825 27.5556Z" fill="white"/>
<path d="M20.5662 12.264C20.362 12.1398 20.191 12.0431 20.0281 11.934C19.9291 11.8678 19.8446 11.854 19.7338 11.9113C19.5558 12.0031 19.369 12.0772 19.1527 12.1735C19.2068 11.9448 19.2514 11.7488 19.3002 11.5541C19.3264 11.4499 19.3225 11.3664 19.235 11.2811C19.0908 11.1406 18.9636 10.9826 18.8037 10.8027C19.039 10.7827 19.2422 10.7571 19.446 10.7509C19.5555 10.7476 19.6194 10.7132 19.6702 10.6146C19.7656 10.4307 19.8754 10.2541 19.9956 10.0456C20.0838 10.256 20.166 10.4366 20.2345 10.6224C20.2778 10.7397 20.3433 10.8 20.4718 10.8194C20.6691 10.8486 20.8631 10.9007 21.0837 10.9488C20.9028 11.1055 20.7494 11.2464 20.5865 11.3752C20.5049 11.4401 20.4813 11.5099 20.4938 11.6082C20.5203 11.8143 20.54 12.0211 20.5662 12.264Z" fill="white"/>
<path d="M16.2908 12.1723C16.3432 11.9429 16.3812 11.7334 16.4409 11.5306C16.4733 11.4208 16.4448 11.3536 16.3711 11.2779C16.2298 11.1331 16.0984 10.9794 15.9385 10.8021C16.1741 10.7817 16.3783 10.7549 16.5834 10.7499C16.6945 10.7473 16.7565 10.7087 16.8073 10.613C16.9043 10.4294 17.0127 10.2518 17.1327 10.0437C17.2248 10.2636 17.2972 10.4629 17.3926 10.6506C17.427 10.7185 17.5083 10.7847 17.5813 10.806C17.779 10.863 17.9841 10.8951 18.2217 10.9446C18.0392 11.1026 17.8868 11.2415 17.7265 11.3707C17.6433 11.4375 17.6115 11.5037 17.6302 11.6151C17.6636 11.8144 17.6751 12.0172 17.6996 12.2581C17.4909 12.1323 17.3146 12.0156 17.1278 11.9193C17.0645 11.8865 16.9659 11.8796 16.8994 11.9045C16.7001 11.9786 16.509 12.0743 16.2908 12.1723Z" fill="white"/>
<path d="M23.4568 12.262C23.2346 12.1273 23.056 12.0107 22.8686 11.9104C22.8151 11.8819 22.7286 11.8786 22.6713 11.9005C22.4678 11.9789 22.2705 12.0726 22.0473 12.1709C22.101 11.9369 22.1567 11.7262 22.1938 11.5122C22.2049 11.4473 22.1836 11.3572 22.1427 11.3064C22.0096 11.1406 21.8608 10.9872 21.6943 10.8033C21.9264 10.783 22.1295 10.7558 22.3334 10.7512C22.4514 10.7486 22.5156 10.7073 22.5684 10.6041C22.6608 10.4245 22.7686 10.2528 22.8876 10.0466C22.9777 10.2583 23.0658 10.4422 23.1327 10.6333C23.1743 10.7516 23.2451 10.7971 23.3611 10.8174C23.5581 10.8515 23.7524 10.8997 23.9779 10.9485C23.7908 11.1094 23.6318 11.2517 23.4663 11.3857C23.3919 11.4463 23.371 11.5086 23.3847 11.6036C23.4152 11.8088 23.4309 12.0162 23.4568 12.262Z" fill="white"/>
<path d="M18.4496 13.5507C18.8957 13.5474 19.2077 13.8604 19.2109 14.3153C19.2145 14.7786 18.9012 15.1116 18.4598 15.1136C18.0279 15.1152 17.7011 14.7868 17.6916 14.3418C17.6818 13.8895 18.0036 13.554 18.4496 13.5507Z" fill="white"/>
</svg>
