<svg width="40" height="40" viewBox="0 0 40 40" fill="none" xmlns="http://www.w3.org/2000/svg">
<rect x="0.05" y="0.0932739" width="39.9" height="38.9" rx="1.95" fill="#6B7A99" fill-opacity="0.29" stroke="black" stroke-width="0.1"/>
<path d="M24.4823 21.0532C24.4328 20.6147 24.0972 20.8585 23.9193 20.8654C23.801 20.87 23.6919 21.1106 23.5788 21.2456C23.6093 21.2662 23.6401 21.2869 23.6709 21.3072C23.9452 21.2184 24.2198 21.1292 24.4944 21.0401C24.3512 21.3013 24.208 21.5625 24.0651 21.823C24.7334 21.8869 24.1136 22.6168 24.5567 22.8052C24.7556 22.5221 24.795 21.3249 24.6111 21.0837C24.5905 21.0565 24.5266 21.0624 24.4823 21.0532ZM25.0627 20.6547C25.8977 20.2955 26.1016 19.5218 26.3149 18.713C26.1281 18.654 25.8866 18.632 25.7214 18.5081C25.5874 18.4075 25.5451 18.1847 25.4209 17.9327C25.2921 17.8992 25.0453 17.8225 24.7933 17.7724C23.6332 17.5407 22.8955 17.9137 22.38 18.9827C22.3207 19.1056 22.2899 19.2609 22.1955 19.3435C22.0978 19.429 21.8933 19.5178 21.817 19.4713C21.7111 19.4067 21.5967 19.1895 21.6315 19.0862C22.0467 17.8471 23.0256 16.8299 24.5849 17.0691C25.3183 17.1819 26.0324 17.4158 26.7596 17.5751C27.1703 17.6649 27.5993 17.6793 28.0024 17.7908C28.6126 17.9599 29.2316 18.1362 29.794 18.4157C29.952 18.4944 29.9592 18.945 29.972 19.2281C29.9874 19.5663 29.9126 19.9082 29.9156 20.248C29.9222 20.9723 29.7573 21.6349 29.2874 22.2009C28.4985 23.1503 27.246 23.1303 26.525 22.1236C26.2661 21.7621 26.1147 21.3233 25.8991 20.8887C25.6084 21.0935 25.4589 21.3275 25.5956 21.7588C25.9122 22.7593 25.7726 23.7215 25.1509 24.5772C24.3037 25.7429 22.8732 25.7363 22.0634 24.5497C21.796 24.158 21.6459 23.6861 21.4175 23.1975C20.9829 23.5249 20.4972 23.2745 20.0076 23.149C18.9632 22.8816 17.922 22.5997 16.8753 22.3428C16.5315 22.2586 16.3594 22.1029 16.4902 21.6854C16.0986 21.6146 15.7312 21.5258 15.3583 21.4858C14.6245 21.4065 14.0549 21.7024 13.6469 22.311C13.5542 22.4493 13.4889 22.6056 13.4018 22.7482C13.2563 22.9864 13.212 23.438 12.7876 23.2178C12.412 23.0228 12.6841 22.7013 12.7965 22.4634C13.4493 21.0821 14.5589 20.5482 16.0553 20.9077C17.5464 21.2659 19.0317 21.6474 20.5179 22.0246C21.1294 22.1796 21.4919 22.0072 21.7285 21.4353C21.7924 21.2813 21.8602 21.1263 21.9487 20.986C22.5452 20.0386 23.7957 19.3773 25.0627 20.6547Z" fill="white"/>
<path d="M13.8694 12.8587C14.1968 13.5213 14.925 13.735 15.3071 14.0175C15.9619 14.049 16.461 13.9756 16.8926 14.1139C17.7538 14.3901 18.5745 14.7906 19.4203 15.1193C19.5874 15.1842 19.8027 15.2045 19.9758 15.1629C21.4377 14.8106 22.8941 14.4376 24.3531 14.0742C25.9564 13.675 27.1948 14.3098 27.7687 15.8514C27.824 16.0002 27.7067 16.2132 27.6694 16.3964C27.5058 16.3093 27.3295 16.2388 27.1843 16.1277C27.1099 16.071 27.0949 15.9393 27.0467 15.8442C26.5154 14.7945 25.7564 14.4409 24.6012 14.7061C24.4098 14.75 24.2198 14.8014 23.992 14.8591C24.1575 15.3271 23.858 15.4372 23.4998 15.526C22.4976 15.7744 21.4967 16.0291 20.5008 16.3017C20.3763 16.3355 20.215 16.4751 20.1888 16.5924C19.7631 18.4873 18.2815 19.1837 16.5213 18.3015C15.3454 17.7119 14.7739 16.4852 14.9853 15.0747C15.0161 14.8683 14.9059 14.6408 14.8611 14.4232C14.7958 14.4252 14.7309 14.4275 14.6657 14.4295C14.6179 14.5776 14.5684 14.7254 14.5225 14.8742C14.283 15.6509 13.8615 16.2509 12.9917 16.3745C12.2134 16.4846 11.147 15.9491 10.7872 15.2533C10.425 14.553 10.2533 13.7983 10.3107 13.0065C10.3667 12.2275 10.9218 11.8303 11.6963 11.9624C11.9122 11.9991 12.1505 11.9837 12.3655 11.9352C13.6236 11.6507 14.8653 11.267 16.1365 11.0746C17.6362 10.8478 18.4994 11.9263 18.8989 13.033C18.9418 13.152 18.8045 13.3359 18.7511 13.4899C18.6026 13.4237 18.4539 13.3585 18.3064 13.2906C18.2959 13.2857 18.2923 13.2644 18.2867 13.2503C17.6696 11.6661 16.6176 11.4459 15.117 11.9421C15.1806 12.9423 14.18 12.433 13.8694 12.8587Z" fill="white"/>
<path d="M17.006 26.8475H15.8934C16.1444 27.2391 16.7625 27.2384 17.006 26.8475ZM22.2948 27.3168C22.1656 27.8814 22.105 28.4005 21.9261 28.8744C21.5482 29.8743 20.7974 30.2876 19.7556 30.0883C18.4601 29.8399 17.4789 29.1517 17.0031 27.8857C16.8743 27.5432 16.6655 27.5737 16.4066 27.5606C16.1467 27.5478 16.0061 27.6156 15.9032 27.887C15.4146 29.1736 14.42 29.8628 13.1042 30.0919C12.0132 30.2817 11.2368 29.7704 10.8891 28.6594C10.7593 28.2449 10.7239 27.8008 10.6397 27.3381C10.6531 27.3469 10.6302 27.3276 10.6037 27.3151C10.4028 27.2211 10.2012 27.1283 10 27.0349C10.1239 26.8625 10.2147 26.644 10.3779 26.526C11.1916 25.9374 12.0102 25.3537 12.8548 24.811C13.5135 24.3879 14.0673 24.5669 14.3243 25.2547C14.377 25.396 14.2728 25.5956 14.241 25.7683C14.0804 25.7027 13.9061 25.6582 13.7642 25.5644C13.6711 25.5032 13.6246 25.3714 13.5132 25.2046C13.1032 25.4592 12.7047 25.707 12.3062 25.9544C13.2602 25.8859 14.1716 25.8843 15.0574 26.2441C15.1819 26.2946 15.354 26.2179 15.5041 26.2169C16.1408 26.213 16.7776 26.2137 17.414 26.2156C17.5789 26.2163 17.764 26.2808 17.9046 26.2261C18.7829 25.8827 19.6796 25.8751 20.6273 25.9672C20.2282 25.7149 19.829 25.4625 19.4 25.1915C19.2928 25.3678 19.2476 25.5143 19.1483 25.5874C19.0195 25.6824 18.8478 25.7191 18.6944 25.7811C18.6479 25.6208 18.5315 25.4432 18.5669 25.3036C18.7193 24.6996 19.2837 24.4266 19.847 24.7094C20.3065 24.9398 20.7309 25.2439 21.1589 25.5336C21.6501 25.8659 22.1394 26.2038 22.6051 26.5705C22.7493 26.6843 22.8129 26.8999 22.9132 27.069C22.7336 27.1473 22.555 27.2276 22.3741 27.3027C22.3334 27.3197 22.2853 27.3184 22.2948 27.3168Z" fill="white"/>
</svg>
