<svg width="40" height="40" viewBox="0 0 40 40" fill="none" xmlns="http://www.w3.org/2000/svg">
<rect x="0.05" y="0.0932739" width="39.9" height="38.9" rx="1.95" fill="#6B7A99" fill-opacity="0.29" stroke="black" stroke-width="0.1"/>
<path d="M21.3952 24.5508C21.3952 25.8368 21.3635 27.0598 21.41 28.2796C21.4303 28.8098 21.838 29.0809 22.364 29.0838C24.0137 29.0933 25.6635 29.0933 27.3132 29.0838C27.8477 29.0805 28.2394 28.7741 28.2613 28.2632C28.3141 27.0451 28.2784 25.823 28.2784 24.5491C27.8546 24.5491 27.4892 24.5809 27.1317 24.5413C26.6516 24.4879 26.3769 24.6435 26.1534 25.0971C25.7756 25.8636 25.0162 26.2366 24.4142 25.9148C24.0039 25.6952 23.7158 25.2472 23.3701 24.9044C23.2465 24.7818 23.1213 24.578 22.9844 24.5668C22.4751 24.5265 21.9609 24.5508 21.3952 24.5508ZM28.2902 22.1892C28.2902 20.6054 28.3095 19.1116 28.28 17.6192C28.2689 17.0571 27.8802 16.7245 27.2811 16.7183C25.6314 16.7019 23.981 16.7015 22.3312 16.7206C21.7276 16.7278 21.3972 17.0948 21.3867 17.7234C21.3707 18.6823 21.3805 19.6419 21.3795 20.6014C21.3792 21.1127 21.3795 21.6242 21.3795 22.1889C21.68 22.1889 21.9081 22.1702 22.132 22.1925C22.7933 22.2577 23.2682 22.162 23.6473 21.4519C24.1602 20.491 25.245 20.4825 25.9414 21.3057C26.0879 21.4787 26.1678 21.7081 26.3137 21.8815C26.4215 22.0093 26.5811 22.1646 26.7276 22.1755C27.2215 22.2118 27.7193 22.1892 28.2902 22.1892ZM24.2988 14.342C24.3241 14.1866 24.3654 14.0896 24.35 14.0031C24.1701 12.9858 24.6659 12.3543 25.476 11.8221C26.1793 11.3604 26.8144 10.7937 27.4738 10.2661C27.7399 10.0531 28.0277 9.91773 28.2849 10.2146C28.5818 10.5565 28.3357 10.8075 28.0594 11.0241C27.3647 11.5694 26.7043 12.1672 25.9666 12.6463C25.323 13.0645 25.1971 13.5826 25.3807 14.3393C26.138 14.3393 26.918 14.339 27.6983 14.3393C27.8903 14.3397 28.1109 14.2833 28.2672 14.359C28.4609 14.4527 28.6015 14.6569 28.765 14.8132C28.6015 14.9659 28.4524 15.14 28.2692 15.2629C28.1719 15.3281 28.0152 15.3041 27.7137 15.3418C27.893 15.5935 27.9752 15.8278 28.1371 15.916C28.8896 16.3266 29.2402 16.9444 29.2392 17.7906C29.2363 21.209 29.2432 24.6275 29.2356 28.0459C29.233 29.2621 28.4619 30.0204 27.2513 30.024C25.6379 30.0286 24.0245 30.029 22.4115 30.0244C21.197 30.0204 20.4301 29.2762 20.4252 28.0518C20.4121 24.6334 20.4183 21.2149 20.416 17.7965C20.4154 16.9559 20.7473 16.3204 21.5162 15.9229C21.6551 15.8511 21.7325 15.6594 21.8383 15.5231C21.6948 15.4398 21.5581 15.3038 21.4061 15.2842C21.0878 15.2425 20.8381 15.0993 20.9345 14.788C20.9925 14.6009 21.2845 14.3715 21.4811 14.3619C22.3997 14.317 23.3216 14.342 24.2988 14.342Z" fill="white"/>
<path d="M18.3993 17.8696C18.2472 19.1595 18.0837 20.4477 17.9178 21.793C17.421 21.793 16.9648 21.8055 16.5103 21.7835C16.4054 21.7786 16.2894 21.6705 16.2101 21.5816C16.1364 21.4994 16.1105 21.3762 16.0544 21.2759C15.3531 20.0292 14.0694 20.0148 13.3386 21.2411C13.2252 21.4315 13.1049 21.7393 12.9529 21.7622C12.5039 21.8297 12.0366 21.7989 11.5797 21.7619C11.5066 21.756 11.4126 21.5259 11.3949 21.3909C11.2435 20.2321 11.1065 19.071 10.9679 17.9105C10.9158 17.4743 11.114 17.2639 11.5545 17.2646C13.645 17.2675 15.7355 17.2669 17.8261 17.2672C18.2295 17.2672 18.4481 17.4556 18.3993 17.8696ZM17.4803 25.4301C17.3742 26.3244 17.2526 27.2171 17.1543 28.1125C17.1113 28.5074 16.9235 28.6968 16.5234 28.6955C15.2957 28.6912 14.0671 28.7168 12.8408 28.6742C12.6301 28.6666 12.2758 28.4045 12.2473 28.2196C12.0425 26.8992 11.9048 25.5684 11.7357 24.1562C12.1434 24.1562 12.5039 24.1343 12.8591 24.1683C12.9765 24.1798 13.1017 24.3191 13.1849 24.4289C13.3111 24.5954 13.3858 24.8008 13.5129 24.966C14.2054 25.864 15.2387 25.8279 15.9178 24.89C16.507 24.0759 16.507 24.0759 17.6039 24.2109C17.5632 24.6144 17.5285 25.023 17.4803 25.4301ZM18.8397 16.6222C18.8682 16.6157 18.8977 16.6121 18.9249 16.6023C19.097 16.538 19.3182 16.3089 19.3159 16.1559C19.3139 15.9956 19.0986 15.7574 18.9272 15.6994C18.6847 15.6178 18.3963 15.6568 18.1286 15.6683C17.8425 15.6807 17.634 15.6558 17.5138 15.3179C17.364 14.8965 16.996 14.7284 16.5496 14.7339C16.097 14.7398 15.6448 14.7352 15.2515 14.7352C14.9824 13.9146 15.2567 13.423 15.8758 13.0036C16.5886 12.5202 17.2362 11.9417 17.9185 11.4125C18.1833 11.2073 18.4084 10.9727 18.1676 10.6476C17.909 10.2992 17.6072 10.4408 17.3224 10.6676C16.6473 11.2057 15.9935 11.7776 15.2774 12.2554C14.5063 12.7702 14.0406 13.3785 14.2162 14.3492C14.2349 14.4527 14.1858 14.5691 14.1589 14.7349C13.6886 14.7349 13.2226 14.6785 12.7792 14.7542C12.4701 14.8073 12.0392 14.9735 11.9327 15.2101C11.737 15.6473 11.4703 15.7007 11.0842 15.6686C10.9125 15.6542 10.7109 15.6109 10.5726 15.6801C10.3606 15.7862 10.1918 15.9783 10.0047 16.1339C10.1836 16.2906 10.3583 16.4518 10.5445 16.599C10.1417 16.887 9.94243 17.3675 10.0145 17.9748C10.4248 21.4256 10.8476 24.8752 11.2772 28.3238C11.3808 29.1559 11.9265 29.6246 12.7608 29.6295C14.0481 29.6373 15.3354 29.637 16.6227 29.6278C17.4384 29.6219 17.9565 29.1723 18.0758 28.3668C18.1853 27.6264 18.2737 26.8829 18.3642 26.1396C18.6867 23.4903 19.018 20.8423 19.3211 18.1907C19.408 17.4307 19.2467 16.9215 18.8397 16.6222Z" fill="white"/>
</svg>
