<svg width="40" height="40" viewBox="0 0 40 40" fill="none" xmlns="http://www.w3.org/2000/svg">
<rect x="0.05" y="0.0932739" width="39.9" height="38.9" rx="1.95" fill="#6B7A99" fill-opacity="0.29" stroke="black" stroke-width="0.1"/>
<path d="M17.1195 18.4377C17.3925 15.6842 18.7735 13.7873 21.3606 12.5253C18.2069 12.776 15.2112 15.9512 15.576 18.4377H17.1195ZM13.7627 19.0413C14.5941 14.7783 17.1025 12.3499 21.2642 11.5123C21.2783 10.7641 21.4064 10.008 22.3726 10.0451C23.2112 10.0772 23.4255 10.6959 23.3318 11.4874C27.4867 12.3172 30.0527 14.7331 30.8753 19.0413H13.7627Z" fill="white"/>
<path d="M13.1961 27.98C13.0388 26.1703 12.8884 24.4409 12.7308 22.624C12.2733 22.6843 11.9141 22.7315 11.4353 22.7948C11.5995 24.5887 11.7574 26.3152 11.9206 28.0986C12.3873 28.055 12.7504 28.0213 13.1961 27.98ZM22.9389 22.4248C22.933 22.2894 22.9275 22.1538 22.9216 22.0181C22.5794 21.9755 22.2343 21.8795 21.8958 21.8991C20.2716 21.9945 18.6399 22.0505 17.0295 22.2626C15.9965 22.3989 14.9858 22.7519 13.9889 23.0796C13.785 23.1468 13.5524 23.5413 13.5625 23.775C13.615 24.9574 13.7428 26.1362 13.8444 27.3186C15.8484 27.3186 17.8583 27.6002 19.7522 27.2518C22.5037 26.7458 25.2563 25.9458 26.9411 23.3329C27.2462 22.86 27.6358 22.4418 27.9865 21.9984C27.8937 21.8801 27.8013 21.7615 27.7086 21.6432C27.0957 21.9938 26.4056 22.256 25.8851 22.7119C24.431 23.9861 22.6938 24.5153 20.8527 24.7991C20.2726 24.8886 19.6594 24.9073 19.0843 24.8149C18.8424 24.7759 18.5137 24.377 18.4934 24.1204C18.4747 23.8782 18.7536 23.4912 18.9994 23.3762C19.4412 23.1687 19.9554 23.1143 20.4404 23.0009C21.2728 22.8069 22.1059 22.6168 22.9389 22.4248ZM19.5113 24.1951C21.4023 24.028 23.2696 23.8104 24.8587 22.5605C25.4938 22.0607 26.184 21.6173 26.8942 21.2312C27.4467 20.931 28.0448 20.9091 28.4935 21.4944C28.9228 22.0538 28.6 22.471 28.2365 22.8944C27.5637 23.678 26.9178 24.4855 26.2325 25.2583C25.9677 25.5568 25.6636 25.8606 25.3146 26.0382C22.1344 27.6562 18.8116 28.5551 15.1877 28.191C14.1583 28.0875 13.0883 28.3497 12.0409 28.4781C11.2491 28.5751 10.4639 28.7265 9.55286 28.8734C9.36344 26.6983 9.18549 24.6562 9 22.528C10.4413 22.334 11.7964 22.0928 13.1598 22.5857C13.2535 22.6198 13.4088 22.5582 13.5065 22.4959C15.092 21.4878 16.9092 21.5508 18.6723 21.3859C19.7935 21.2811 20.9199 21.2034 22.0452 21.1827C22.4559 21.1752 22.9445 21.2617 23.267 21.4898C23.9549 21.9765 23.8913 22.6971 23.1044 23.0078C22.2432 23.348 21.3102 23.5069 20.407 23.7403C20.0874 23.8225 19.7643 23.8904 19.4431 23.9651C19.4658 24.0418 19.4887 24.1185 19.5113 24.1951Z" fill="white"/>
<path d="M31.5868 20.1077H12.6642C12.6403 20.0707 12.6167 20.0337 12.5928 19.997C12.8009 19.9088 13.0087 19.7443 13.2171 19.744C19.1996 19.7322 25.1822 19.7361 31.1647 19.7433C31.3112 19.7433 31.4574 19.8095 31.6038 19.8446C31.5983 19.9324 31.5924 20.0199 31.5868 20.1077Z" fill="white"/>
</svg>
