<svg width="40" height="40" viewBox="0 0 40 40" fill="none" xmlns="http://www.w3.org/2000/svg">
<rect x="0.05" y="0.0932739" width="39.9" height="38.9" rx="1.95" fill="#6B7A99" fill-opacity="0.29" stroke="black" stroke-width="0.1"/>
<path d="M19.6388 28.0276C18.4597 28.8866 17.3221 29.0183 16.0804 28.7519C13.1925 28.1315 11.1574 24.9018 12.055 22.3263C12.4817 21.1022 12.8412 20.9217 13.8706 21.6613C14.4919 22.1074 15.0209 22.733 15.4581 23.3694C15.8828 23.9875 16.1338 24.7239 16.4674 25.4052C17.1032 26.703 17.8943 27.8281 19.6388 28.0276Z" fill="white"/>
<path d="M20.2322 16.1139C19.171 18.2425 16.5597 19.0123 14.1424 18.0282C11.7678 17.0611 10.5326 14.942 11.1638 12.8908C12.5415 12.6244 13.7253 13.0566 14.7972 13.91C15.5575 14.5156 16.3051 15.1406 17.0982 15.7C18.0089 16.3427 19.0176 16.5931 20.2322 16.1139Z" fill="white"/>
<path d="M23.0632 23.1585C21.1025 21.63 20.5912 19.454 21.5052 17.2582C22.4245 15.0494 24.32 13.8427 26.3945 14.0757C27.0312 14.1475 27.338 14.4369 27.1332 15.0006C26.8077 15.8949 26.4355 16.7919 25.937 17.5971C25.5781 18.1768 24.9781 18.6061 24.4917 19.1085C23.4516 20.1825 22.5647 21.3207 23.0632 23.1585Z" fill="white"/>
<path d="M11.2725 12.4792C12.1085 10.6578 13.7949 9.8506 16.1152 10.0833C18.6495 10.3379 20.679 12.5402 20.605 14.8677C20.5781 15.7043 20.1711 15.8882 19.5097 15.7011C19.0253 15.5637 18.5482 15.3294 18.13 15.046C17.6558 14.7248 17.2432 14.3096 16.8178 13.9199C15.2431 12.4766 13.5508 11.4679 11.2725 12.4792Z" fill="white"/>
<path d="M13.1074 20.8246C13.9372 20.0679 14.8371 19.8791 15.7924 19.9053C18.6731 19.9853 21.0599 22.5441 20.9304 25.4241C20.8918 26.2827 20.7731 27.3701 19.8962 27.5566C19.0808 27.7296 18.5033 26.8409 18.1419 26.0701C17.7299 25.1921 17.3799 24.2833 16.9372 23.4221C16.073 21.7415 15.1023 21.088 13.1074 20.8246Z" fill="white"/>
<path d="M27.4631 14.3808C29.3104 15.6005 29.7027 17.1664 29.531 18.9715C29.2957 21.4484 27.0914 23.6084 24.8007 23.592C23.342 23.5815 23.1408 23.1398 23.7729 21.7761C23.9335 21.43 24.2291 21.1354 24.5021 20.8552C24.9681 20.3767 25.4604 19.9222 25.951 19.4683C27.39 18.1368 28.1755 16.5906 27.4631 14.3808Z" fill="white"/>
</svg>
