<svg width="28" height="28" viewBox="0 0 28 28" fill="none" xmlns="http://www.w3.org/2000/svg">
<g style="mix-blend-mode:multiply">
<rect x="1.66797" y="2.01074" width="24.0635" height="24.0635" rx="12.0318" fill="#F3F6F9"/>
<g clip-path="url(#clip0_8112_41523)">
<path d="M8.68555 15.2952L13.5194 17.7121C13.5852 17.745 13.6181 17.7614 13.6526 17.7679C13.6831 17.7736 13.7145 17.7736 13.745 17.7679C13.7795 17.7614 13.8124 17.745 13.8781 17.7121L18.712 15.2952M8.68555 12.7886L13.5194 10.3716C13.5852 10.3387 13.6181 10.3223 13.6526 10.3158C13.6831 10.3101 13.7145 10.3101 13.745 10.3158C13.7795 10.3223 13.8124 10.3387 13.8781 10.3716L18.712 12.7886L13.8781 15.2055C13.8124 15.2384 13.7795 15.2548 13.745 15.2613C13.7145 15.267 13.6831 15.267 13.6526 15.2613C13.6181 15.2548 13.5852 15.2384 13.5194 15.2055L8.68555 12.7886Z" stroke="#445FD2" stroke-width="1.00265" stroke-linecap="round" stroke-linejoin="round"/>
</g>
<rect x="1.66797" y="2.01074" width="24.0635" height="24.0635" rx="12.0318" stroke="#F3F6F9" stroke-width="3.00794"/>
</g>
<defs>
<clipPath id="clip0_8112_41523">
<rect width="12.0318" height="12.0318" fill="white" transform="translate(7.68164 8.02734)"/>
</clipPath>
</defs>
</svg>
