<svg width="16" height="15" viewBox="0 0 16 15" fill="none" xmlns="http://www.w3.org/2000/svg">
<path d="M3.08698 6.49167C4.28698 8.85 6.22031 10.7833 8.57865 11.9833L10.412 10.15C10.6453 9.91667 10.9703 9.85 11.262 9.94167C12.1953 10.25 13.1953 10.4167 14.237 10.4167C14.458 10.4167 14.67 10.5045 14.8262 10.6607C14.9825 10.817 15.0703 11.029 15.0703 11.25V14.1667C15.0703 14.3877 14.9825 14.5996 14.8262 14.7559C14.67 14.9122 14.458 15 14.237 15C10.4797 15 6.8764 13.5074 4.21963 10.8507C1.56287 8.19391 0.0703125 4.59057 0.0703125 0.833333C0.0703125 0.61232 0.15811 0.400358 0.31439 0.244078C0.47067 0.0877973 0.682632 0 0.903646 0H3.82031C4.04133 0 4.25329 0.0877973 4.40957 0.244078C4.56585 0.400358 4.65365 0.61232 4.65365 0.833333C4.65365 1.875 4.82031 2.875 5.12865 3.80833C5.22031 4.1 5.15365 4.425 4.92031 4.65833L3.08698 6.49167Z" fill="#6B7A99"/>
</svg>
