<svg width="10" height="15" viewBox="0 0 10 15" fill="none" xmlns="http://www.w3.org/2000/svg">
<path d="M9.91832 3.94886L9.42116 5.70312H0.110085L0.607244 3.94886H9.91832ZM5.38707 15L0.301847 8.82812L0.287642 7.44318H2.80895C3.43868 7.44318 3.97135 7.34612 4.40696 7.15199C4.84257 6.95786 5.17401 6.67614 5.40128 6.30682C5.62855 5.93276 5.74219 5.47822 5.74219 4.94318C5.74219 4.14773 5.50545 3.51562 5.03196 3.04688C4.55848 2.57812 3.81747 2.34375 2.80895 2.34375H0.110085L0.628551 0.454545H2.80895C3.98319 0.454545 4.95147 0.641572 5.71378 1.01562C6.47609 1.38968 7.04427 1.90814 7.41832 2.57102C7.79238 3.2339 7.9794 3.99858 7.9794 4.86506C7.9794 5.63684 7.82552 6.33523 7.51776 6.96023C7.20999 7.58523 6.71993 8.09422 6.04759 8.48722C5.37524 8.88021 4.49219 9.10985 3.39844 9.17614L3.33452 9.19034L7.9794 14.8793V15H5.38707ZM9.92543 0.454545L9.42116 2.22301L1.97798 2.1804L2.48224 0.454545H9.92543Z" fill="#6B7A99"/>
</svg>
