<svg width="311" height="280" viewBox="0 0 311 280" fill="none" xmlns="http://www.w3.org/2000/svg">
<g clip-path="url(#clip0_3604_25778)">
<path d="M159.272 0.61136L149.153 3.22916L24.4797 35.4811L14.3603 38.0989C9.44851 39.3755 5.24203 42.5545 2.66377 46.9384C0.085501 51.3223 -0.653992 56.5531 0.607522 61.4833L44.4874 232.176C45.76 237.103 48.929 241.323 53.2991 243.909C57.6692 246.496 62.8836 247.238 67.7983 245.972L67.8244 245.965L212.684 208.491L212.71 208.484C217.622 207.208 221.828 204.029 224.407 199.645C226.985 195.261 227.724 190.03 226.463 185.1L182.583 14.4076C181.31 9.48028 178.141 5.26053 173.771 2.67412C169.401 0.0877197 164.187 -0.65412 159.272 0.61136Z" fill="#F2F2F2"/>
<path d="M160.65 5.96102L148.664 9.06163L27.7234 40.3481L15.7378 43.4486C12.24 44.3577 9.24445 46.6215 7.4084 49.7434C5.57234 52.8653 5.04573 56.5903 5.94408 60.1012L49.824 230.794C50.7302 234.303 52.9869 237.308 56.099 239.149C59.2111 240.991 62.9244 241.519 66.4242 240.618L66.4504 240.611L211.31 203.137L211.336 203.131C214.834 202.222 217.829 199.958 219.665 196.836C221.501 193.714 222.028 189.989 221.13 186.478L177.25 15.7856C176.344 12.2768 174.087 9.27186 170.975 7.43002C167.863 5.58818 164.15 5.05988 160.65 5.96102Z" fill="white"/>
<path d="M151.6 61.2375L78.3188 80.1947C77.5003 80.4064 76.6315 80.2833 75.9035 79.8524C75.1755 79.4216 74.648 78.7183 74.4369 77.8972C74.2258 77.0762 74.3486 76.2046 74.7781 75.4744C75.2076 74.7441 75.9087 74.2148 76.7271 74.0031L150.008 55.0459C150.826 54.835 151.694 54.9586 152.422 55.3895C153.149 55.8205 153.676 56.5235 153.887 57.344C154.098 58.1646 153.976 59.0356 153.547 59.7657C153.118 60.4958 152.417 61.0251 151.6 61.2375Z" fill="#F2F2F2"/>
<path d="M167.015 68.3905L81.0043 90.6409C80.1859 90.8526 79.3171 90.7295 78.5891 90.2986C77.8611 89.8678 77.3335 89.1645 77.1225 88.3434C76.9114 87.5224 77.0341 86.6508 77.4636 85.9206C77.8931 85.1903 78.5942 84.661 79.4127 84.4493L165.424 62.1989C166.242 61.9872 167.111 62.1103 167.839 62.5412C168.567 62.972 169.094 63.6753 169.305 64.4964C169.517 65.3174 169.394 66.189 168.964 66.9193C168.535 67.6495 167.834 68.1788 167.015 68.3905Z" fill="#F2F2F2"/>
<path d="M163.635 108.062L90.3539 127.02C89.9487 127.124 89.5268 127.148 89.1124 127.089C88.698 127.031 88.2991 126.891 87.9387 126.677C87.5782 126.464 87.2632 126.182 87.0115 125.846C86.7599 125.511 86.5766 125.129 86.4721 124.722C86.3675 124.316 86.3439 123.892 86.4024 123.477C86.461 123.061 86.6005 122.661 86.8132 122.299C87.0259 121.938 87.3075 121.622 87.6419 121.369C87.9763 121.117 88.357 120.933 88.7623 120.828L162.043 101.871C162.448 101.766 162.87 101.742 163.285 101.801C163.699 101.86 164.098 102 164.458 102.213C164.819 102.426 165.134 102.709 165.386 103.044C165.637 103.38 165.821 103.762 165.925 104.168C166.03 104.575 166.053 104.998 165.995 105.414C165.936 105.829 165.797 106.23 165.584 106.591C165.371 106.953 165.09 107.269 164.755 107.521C164.421 107.774 164.04 107.958 163.635 108.062Z" fill="#F2F2F2"/>
<path d="M179.052 115.215L93.0414 137.465C92.6362 137.57 92.2143 137.594 91.7999 137.535C91.3855 137.476 90.9866 137.336 90.6262 137.123C90.2657 136.91 89.9507 136.627 89.699 136.292C89.4474 135.956 89.2641 135.574 89.1596 135.168C89.055 134.761 89.0314 134.338 89.0899 133.922C89.1485 133.506 89.288 133.106 89.5007 132.745C89.7134 132.383 89.9949 132.067 90.3294 131.815C90.6638 131.562 91.0445 131.378 91.4498 131.274L177.461 109.023C178.279 108.811 179.148 108.935 179.876 109.365C180.604 109.796 181.131 110.5 181.343 111.321C181.554 112.142 181.431 113.013 181.001 113.743C180.572 114.474 179.871 115.003 179.052 115.215Z" fill="#F2F2F2"/>
<path d="M175.672 154.883L102.391 173.84C101.573 174.051 100.704 173.927 99.9768 173.497C99.2493 173.066 98.7221 172.363 98.5111 171.542C98.3002 170.721 98.4227 169.85 98.8517 169.12C99.2808 168.39 99.9813 167.861 100.799 167.648L174.08 148.691C174.899 148.479 175.767 148.603 176.495 149.033C177.223 149.464 177.751 150.168 177.962 150.989C178.173 151.81 178.05 152.681 177.621 153.411C177.191 154.142 176.49 154.671 175.672 154.883Z" fill="#F2F2F2"/>
<path d="M191.088 162.039L105.077 184.289C104.672 184.395 104.25 184.419 103.835 184.36C103.42 184.302 103.021 184.162 102.661 183.949C102.3 183.735 101.985 183.453 101.733 183.117C101.481 182.781 101.297 182.399 101.193 181.993C101.088 181.586 101.065 181.162 101.123 180.746C101.182 180.33 101.322 179.93 101.535 179.568C101.748 179.207 102.029 178.891 102.364 178.638C102.699 178.386 103.08 178.202 103.486 178.098L189.497 155.847C190.315 155.636 191.184 155.759 191.912 156.19C192.64 156.62 193.167 157.324 193.378 158.145C193.59 158.966 193.467 159.837 193.037 160.568C192.608 161.298 191.907 161.827 191.088 162.039Z" fill="#F2F2F2"/>
<path d="M65.8075 99.6312L39.8741 106.34C39.4817 106.441 39.0653 106.382 38.7164 106.175C38.3674 105.969 38.1144 105.632 38.0128 105.238L32.0598 82.0812C31.959 81.6876 32.0181 81.2699 32.2239 80.9198C32.4298 80.5698 32.7657 80.3159 33.1579 80.214L59.0913 73.5052C59.4838 73.4042 59.9001 73.4634 60.2491 73.6699C60.598 73.8765 60.8511 74.2134 60.9527 74.6069L66.9057 97.7639C67.0064 98.1576 66.9474 98.5753 66.7415 98.9254C66.5356 99.2754 66.1997 99.5292 65.8075 99.6312Z" fill="#E6E6E6"/>
<path d="M77.8446 146.455L51.9112 153.164C51.5188 153.265 51.1024 153.206 50.7535 152.999C50.4045 152.793 50.1515 152.456 50.0499 152.063L44.0969 128.905C43.9961 128.512 44.0552 128.094 44.2611 127.744C44.4669 127.394 44.8028 127.14 45.195 127.038L71.1284 120.329C71.5209 120.228 71.9372 120.288 72.2862 120.494C72.6352 120.701 72.8882 121.038 72.9898 121.431L78.9428 144.588C79.0435 144.982 78.9845 145.4 78.7786 145.75C78.5727 146.1 78.2369 146.353 77.8446 146.455Z" fill="#E6E6E6"/>
<path d="M89.8818 193.28L63.9483 199.988C63.5559 200.089 63.1395 200.03 62.7906 199.824C62.4416 199.617 62.1886 199.28 62.087 198.887L56.134 175.73C56.0332 175.336 56.0923 174.918 56.2982 174.568C56.504 174.218 56.8399 173.964 57.2321 173.862L83.1656 167.154C83.558 167.053 83.9744 167.112 84.3233 167.318C84.6723 167.525 84.9253 167.862 85.0269 168.255L90.9799 191.412C91.0807 191.806 91.0216 192.224 90.8157 192.574C90.6099 192.924 90.274 193.178 89.8818 193.28Z" fill="#E6E6E6"/>
<path d="M260.342 43.8789H110.689C105.615 43.8846 100.75 45.9092 97.1625 49.5083C93.5746 53.1075 91.5565 57.9874 91.5508 63.0774V239.354C91.5565 244.444 93.5746 249.324 97.1625 252.923C100.75 256.522 105.615 258.547 110.689 258.553H260.342C265.416 258.547 270.28 256.522 273.868 252.923C277.456 249.324 279.474 244.444 279.48 239.354V63.0774C279.474 57.9874 277.456 53.1075 273.868 49.5083C270.28 45.9092 265.416 43.8846 260.342 43.8789Z" fill="#E6E6E6"/>
<path d="M260.342 49.4062H110.689C107.076 49.4103 103.612 50.852 101.057 53.4151C98.5018 55.9781 97.0646 59.4532 97.0605 63.0779V239.355C97.0646 242.979 98.5018 246.455 101.057 249.018C103.612 251.581 107.076 253.022 110.689 253.026H260.342C263.955 253.022 267.42 251.581 269.974 249.018C272.529 246.455 273.967 242.979 273.971 239.355V63.0779C273.967 59.4532 272.529 55.9782 269.974 53.4151C267.42 50.8521 263.955 49.4104 260.342 49.4062Z" fill="white"/>
<path d="M276.065 279.998C295.359 279.998 311.001 264.308 311.001 244.952C311.001 225.597 295.359 209.906 276.065 209.906C256.77 209.906 241.129 225.597 241.129 244.952C241.129 264.308 256.77 279.998 276.065 279.998Z" fill="#445FD2"/>
<path d="M292.773 240.382H280.621V228.192C280.621 226.98 280.141 225.817 279.286 224.96C278.432 224.103 277.273 223.621 276.064 223.621C274.856 223.621 273.697 224.103 272.842 224.96C271.987 225.817 271.507 226.98 271.507 228.192V240.382H259.356C258.147 240.382 256.988 240.864 256.134 241.721C255.279 242.578 254.799 243.741 254.799 244.953C254.799 246.166 255.279 247.329 256.134 248.186C256.988 249.043 258.147 249.525 259.356 249.525H271.507V261.715C271.507 262.927 271.987 264.09 272.842 264.947C273.697 265.804 274.856 266.286 276.064 266.286C277.273 266.286 278.432 265.804 279.286 264.947C280.141 264.09 280.621 262.927 280.621 261.715V249.525H292.773C293.981 249.525 295.14 249.043 295.995 248.186C296.849 247.329 297.33 246.166 297.33 244.953C297.33 243.741 296.849 242.578 295.995 241.721C295.14 240.864 293.981 240.382 292.773 240.382Z" fill="white"/>
<path d="M237.818 146.269H162.14C161.721 146.27 161.306 146.187 160.919 146.027C160.532 145.866 160.18 145.631 159.884 145.334C159.588 145.037 159.353 144.684 159.192 144.296C159.032 143.908 158.949 143.492 158.949 143.072C158.949 142.652 159.032 142.236 159.192 141.848C159.353 141.46 159.588 141.107 159.884 140.81C160.18 140.513 160.532 140.278 160.919 140.117C161.306 139.957 161.721 139.875 162.14 139.875H237.818C238.663 139.876 239.472 140.213 240.069 140.813C240.666 141.412 241.002 142.225 241.002 143.072C241.002 143.919 240.666 144.732 240.069 145.331C239.472 145.931 238.663 146.268 237.818 146.269Z" fill="#E6E6E6"/>
<path d="M250.965 157.058H162.14C161.721 157.059 161.306 156.976 160.919 156.816C160.532 156.655 160.18 156.42 159.884 156.123C159.588 155.826 159.353 155.474 159.192 155.085C159.032 154.697 158.949 154.281 158.949 153.861C158.949 153.441 159.032 153.025 159.192 152.637C159.353 152.249 159.588 151.896 159.884 151.599C160.18 151.302 160.532 151.067 160.919 150.906C161.306 150.746 161.721 150.664 162.14 150.664H250.965C251.81 150.664 252.62 151.001 253.218 151.6C253.816 152.2 254.152 153.013 254.152 153.861C254.152 154.709 253.816 155.522 253.218 156.122C252.62 156.721 251.81 157.058 250.965 157.058Z" fill="#E6E6E6"/>
<path d="M237.818 194.625H162.14C161.721 194.625 161.306 194.543 160.919 194.382C160.532 194.222 160.18 193.986 159.884 193.689C159.588 193.393 159.353 193.04 159.192 192.652C159.032 192.264 158.949 191.848 158.949 191.428C158.949 191.007 159.032 190.591 159.192 190.203C159.353 189.815 159.588 189.463 159.884 189.166C160.18 188.869 160.532 188.633 160.919 188.473C161.306 188.312 161.721 188.23 162.14 188.23H237.818C238.663 188.23 239.474 188.567 240.072 189.167C240.669 189.766 241.005 190.58 241.005 191.428C241.005 192.275 240.669 193.089 240.072 193.688C239.474 194.288 238.663 194.625 237.818 194.625Z" fill="#E6E6E6"/>
<path d="M250.965 205.414H162.14C161.721 205.414 161.306 205.332 160.919 205.171C160.532 205.011 160.18 204.775 159.884 204.479C159.588 204.182 159.353 203.829 159.192 203.441C159.032 203.053 158.949 202.637 158.949 202.217C158.949 201.796 159.032 201.38 159.192 200.992C159.353 200.604 159.588 200.252 159.884 199.955C160.18 199.658 160.532 199.422 160.919 199.262C161.306 199.101 161.721 199.019 162.14 199.02H250.965C251.383 199.019 251.798 199.101 252.185 199.262C252.572 199.422 252.924 199.658 253.22 199.955C253.517 200.252 253.752 200.604 253.912 200.992C254.073 201.38 254.155 201.796 254.155 202.217C254.155 202.637 254.073 203.053 253.912 203.441C253.752 203.829 253.517 204.182 253.22 204.479C252.924 204.775 252.572 205.011 252.185 205.171C251.798 205.332 251.383 205.414 250.965 205.414Z" fill="#E6E6E6"/>
<path d="M145.189 161.957H118.407C118.002 161.957 117.613 161.795 117.327 161.508C117.041 161.22 116.879 160.831 116.879 160.424V136.51C116.879 136.103 117.041 135.713 117.327 135.426C117.613 135.139 118.002 134.977 118.407 134.977H145.189C145.594 134.977 145.983 135.139 146.269 135.426C146.556 135.713 146.717 136.103 146.717 136.51V160.424C146.717 160.831 146.556 161.22 146.269 161.508C145.983 161.795 145.594 161.957 145.189 161.957Z" fill="#E6E6E6"/>
<path d="M145.189 210.313H118.407C118.002 210.312 117.613 210.151 117.327 209.863C117.041 209.576 116.879 209.186 116.879 208.78V184.865C116.879 184.459 117.041 184.069 117.327 183.782C117.613 183.494 118.002 183.332 118.407 183.332H145.189C145.594 183.332 145.983 183.494 146.269 183.782C146.556 184.069 146.717 184.459 146.717 184.865V208.78C146.717 209.186 146.556 209.576 146.269 209.863C145.983 210.151 145.594 210.312 145.189 210.313Z" fill="#E6E6E6"/>
<path d="M237.903 92.441H182.109C181.264 92.441 180.453 92.1042 179.855 91.5046C179.258 90.905 178.922 90.0918 178.922 89.2439C178.922 88.396 179.258 87.5828 179.855 86.9833C180.453 86.3837 181.264 86.0469 182.109 86.0469H237.903C238.749 86.0469 239.559 86.3837 240.157 86.9833C240.755 87.5828 241.09 88.396 241.09 89.2439C241.09 90.0918 240.755 90.905 240.157 91.5046C239.559 92.1042 238.749 92.441 237.903 92.441Z" fill="#CCCCCC"/>
<path d="M251.05 103.23H182.109C181.69 103.23 181.276 103.147 180.889 102.987C180.503 102.826 180.151 102.591 179.855 102.294C179.559 101.997 179.325 101.644 179.164 101.256C179.004 100.869 178.922 100.453 178.922 100.033C178.922 99.6131 179.004 99.1974 179.164 98.8095C179.325 98.4216 179.559 98.0692 179.855 97.7723C180.151 97.4755 180.503 97.24 180.889 97.0793C181.276 96.9186 181.69 96.8359 182.109 96.8359H251.05C251.895 96.8359 252.706 97.1728 253.303 97.7723C253.901 98.3719 254.237 99.1851 254.237 100.033C254.237 100.881 253.901 101.694 253.303 102.294C252.706 102.893 251.895 103.23 251.05 103.23Z" fill="#CCCCCC"/>
<path d="M169.761 116.305H118.323C117.918 116.305 117.53 116.143 117.243 115.856C116.957 115.569 116.795 115.179 116.795 114.772V74.5017C116.795 74.0953 116.957 73.7056 117.243 73.4182C117.53 73.1308 117.918 72.9692 118.323 72.9688H169.761C170.166 72.9692 170.554 73.1308 170.841 73.4182C171.127 73.7056 171.289 74.0953 171.289 74.5017V114.772C171.289 115.179 171.127 115.569 170.841 115.856C170.554 116.143 170.166 116.305 169.761 116.305Z" fill="#445FD2"/>
</g>
<defs>
<clipPath id="clip0_3604_25778">
<rect width="311" height="280" fill="white"/>
</clipPath>
</defs>
</svg>
