<svg width="40" height="41" viewBox="0 0 40 41" fill="none" xmlns="http://www.w3.org/2000/svg">
<circle cx="20" cy="20" r="20" fill="#E0F0FF"/>
<path d="M20 20.4C19.2422 20.4 18.5155 20.0839 17.9797 19.5213C17.4439 18.9587 17.1429 18.1957 17.1429 17.4C17.1429 16.6044 17.4439 15.8413 17.9797 15.2787C18.5155 14.7161 19.2422 14.4 20 14.4C20.7578 14.4 21.4845 14.7161 22.0203 15.2787C22.5561 15.8413 22.8571 16.6044 22.8571 17.4C22.8571 17.794 22.7832 18.1841 22.6397 18.5481C22.4961 18.912 22.2856 19.2427 22.0203 19.5213C21.755 19.7999 21.44 20.0209 21.0934 20.1716C20.7467 20.3224 20.3752 20.4 20 20.4ZM20 9C17.8783 9 15.8434 9.885 14.3431 11.4603C12.8429 13.0356 12 15.1722 12 17.4C12 23.7 20 33 20 33C20 33 28 23.7 28 17.4C28 15.1722 27.1571 13.0356 25.6569 11.4603C24.1566 9.885 22.1217 9 20 9Z" fill="#445FD2"/>
</svg>
