<svg width="14" height="14" viewBox="0 0 14 14" fill="none" xmlns="http://www.w3.org/2000/svg">
<path fill-rule="evenodd" clip-rule="evenodd" d="M10.1834 9.03391H9.57776L9.36309 8.82691C10.2831 7.75358 10.7584 6.28924 10.4978 4.73291C10.1374 2.60158 8.35876 0.899577 6.21209 0.638911C2.96909 0.240244 0.239756 2.96958 0.638422 6.21258C0.899089 8.35924 2.60109 10.1379 4.73242 10.4982C6.28876 10.7589 7.75309 10.2836 8.82642 9.36358L9.03342 9.57824V10.1839L12.2918 13.4422C12.6061 13.7566 13.1198 13.7566 13.4341 13.4422C13.7484 13.1279 13.7484 12.6142 13.4341 12.2999L10.1834 9.03391ZM5.58342 9.03391C3.67442 9.03391 2.13342 7.49291 2.13342 5.58391C2.13342 3.67491 3.67442 2.13391 5.58342 2.13391C7.49242 2.13391 9.03342 3.67491 9.03342 5.58391C9.03342 7.49291 7.49242 9.03391 5.58342 9.03391Z" fill="#C3CAD9"/>
</svg>
