<svg width="78" height="64" viewBox="0 0 78 64" fill="none" xmlns="http://www.w3.org/2000/svg">
<g clip-path="url(#clip0_6643_45485)">
<path d="M39.608 40.4933C38.9773 40.4944 38.3633 40.2886 37.8587 39.9071L37.8274 39.8835L31.2384 34.8019C30.6243 34.3248 30.223 33.6216 30.1224 32.8465C30.0218 32.0715 30.2303 31.2879 30.702 30.6675C31.1737 30.0472 31.8702 29.6408 32.6387 29.5375C33.4072 29.4341 34.1849 29.6423 34.8014 30.1163L39.0692 33.4158L49.1543 20.1511C49.3881 19.8436 49.6798 19.5855 50.0125 19.3916C50.3453 19.1977 50.7127 19.0718 51.0938 19.021C51.4749 18.9703 51.8621 18.9957 52.2334 19.0958C52.6047 19.196 52.9528 19.3689 53.2579 19.6046L53.2587 19.6053L53.1961 19.6929L53.2604 19.6053C53.8758 20.0821 54.2784 20.7856 54.3799 21.5614C54.4814 22.3372 54.2735 23.1219 53.8018 23.7433L41.9396 39.3385C41.6651 39.6979 41.3123 39.9886 40.9084 40.1883C40.5045 40.3879 40.0604 40.4911 39.6106 40.4898L39.608 40.4933Z" fill="#375DBB"/>
<path d="M76.5886 59.4573H0.221591C0.162821 59.4573 0.106459 59.4337 0.0649023 59.3918C0.0233459 59.3499 0 59.2931 0 59.2339V0.255143C0 0.195892 0.0233459 0.139068 0.0649023 0.0971717C0.106459 0.0552753 0.162821 0.0317383 0.221591 0.0317383H38.4051C38.4638 0.0317383 38.5202 0.0552753 38.5618 0.0971717C38.6033 0.139068 38.6267 0.195892 38.6267 0.255143C38.6267 0.314393 38.6033 0.371217 38.5618 0.413113C38.5202 0.45501 38.4638 0.478547 38.4051 0.478547H0.443182V59.0105H76.367V29.7445C76.367 29.6853 76.3903 29.6284 76.4319 29.5865C76.4734 29.5446 76.5298 29.5211 76.5886 29.5211C76.6473 29.5211 76.7037 29.5446 76.7453 29.5865C76.7868 29.6284 76.8102 29.6853 76.8102 29.7445V59.2339C76.8102 59.2931 76.7868 59.3499 76.7453 59.3918C76.7037 59.4337 76.6473 59.4573 76.5886 59.4573Z" fill="#3F3D56"/>
</g>
<defs>
<clipPath id="clip0_6643_45485">
<rect width="78" height="63" fill="white" transform="translate(0 0.0317383)"/>
</clipPath>
</defs>
</svg>
