<svg width="38" height="37" viewBox="0 0 38 37" fill="none" xmlns="http://www.w3.org/2000/svg">
<circle cx="19.001" cy="18.0713" r="18.0713" fill="#F3F6F9"/>
<g clip-path="url(#clip0_10759_43154)">
<path d="M29.5128 24.0758C29.5128 24.4739 29.3546 24.8557 29.0731 25.1373C28.7916 25.4188 28.4098 25.5769 28.0117 25.5769H9.99832C9.6002 25.5769 9.21838 25.4188 8.93687 25.1373C8.65536 24.8557 8.49721 24.4739 8.49721 24.0758V15.0691C8.49721 14.671 8.65536 14.2892 8.93687 14.0077C9.21838 13.7262 9.6002 13.568 9.99832 13.568H11.7576C12.9514 13.5674 14.096 13.0928 14.94 12.2486L16.1859 11.0056C16.4666 10.7248 16.8471 10.5667 17.2442 10.5658H20.7628C21.1609 10.5659 21.5426 10.7241 21.8241 11.0056L23.067 12.2486C23.4853 12.6669 23.9818 12.9988 24.5284 13.2252C25.075 13.4516 25.6608 13.5681 26.2524 13.568H28.0117C28.4098 13.568 28.7916 13.7262 29.0731 14.0077C29.3546 14.2892 29.5128 14.671 29.5128 15.0691V24.0758ZM9.99832 12.0669C9.20208 12.0669 8.43845 12.3832 7.87542 12.9463C7.3124 13.5093 6.99609 14.2729 6.99609 15.0691L6.99609 24.0758C6.99609 24.8721 7.3124 25.6357 7.87542 26.1987C8.43845 26.7617 9.20208 27.078 9.99832 27.078H28.0117C28.8079 27.078 29.5715 26.7617 30.1346 26.1987C30.6976 25.6357 31.0139 24.8721 31.0139 24.0758V15.0691C31.0139 14.2729 30.6976 13.5093 30.1346 12.9463C29.5715 12.3832 28.8079 12.0669 28.0117 12.0669H26.2524C25.4562 12.0668 24.6927 11.7503 24.1298 11.1873L22.8869 9.94435C22.324 9.38128 21.5605 9.06487 20.7643 9.0647H17.2457C16.4495 9.06487 15.686 9.38128 15.1231 9.94435L13.8802 11.1873C13.3173 11.7503 12.5538 12.0668 11.7576 12.0669H9.99832Z" fill="#6B7A99"/>
<path d="M19.0067 22.5748C18.0114 22.5748 17.0568 22.1794 16.3531 21.4756C15.6493 20.7718 15.2539 19.8173 15.2539 18.822C15.2539 17.8267 15.6493 16.8722 16.3531 16.1684C17.0568 15.4646 18.0114 15.0692 19.0067 15.0692C20.002 15.0692 20.9565 15.4646 21.6603 16.1684C22.3641 16.8722 22.7595 17.8267 22.7595 18.822C22.7595 19.8173 22.3641 20.7718 21.6603 21.4756C20.9565 22.1794 20.002 22.5748 19.0067 22.5748ZM19.0067 24.0759C20.4001 24.0759 21.7364 23.5224 22.7217 22.5371C23.707 21.5518 24.2606 20.2154 24.2606 18.822C24.2606 17.4286 23.707 16.0922 22.7217 15.1069C21.7364 14.1216 20.4001 13.5681 19.0067 13.5681C17.6133 13.5681 16.2769 14.1216 15.2916 15.1069C14.3063 16.0922 13.7528 17.4286 13.7528 18.822C13.7528 20.2154 14.3063 21.5518 15.2916 22.5371C16.2769 23.5224 17.6133 24.0759 19.0067 24.0759ZM11.5011 15.8198C11.5011 16.0188 11.422 16.2097 11.2813 16.3505C11.1405 16.4913 10.9496 16.5703 10.7506 16.5703C10.5515 16.5703 10.3606 16.4913 10.2198 16.3505C10.0791 16.2097 10 16.0188 10 15.8198C10 15.6207 10.0791 15.4298 10.2198 15.2891C10.3606 15.1483 10.5515 15.0692 10.7506 15.0692C10.9496 15.0692 11.1405 15.1483 11.2813 15.2891C11.422 15.4298 11.5011 15.6207 11.5011 15.8198Z" fill="#6B7A99"/>
</g>
<defs>
<clipPath id="clip0_10759_43154">
<rect width="24.0178" height="24.0178" fill="white" transform="translate(6.99609 6.0625)"/>
</clipPath>
</defs>
</svg>
