<svg width="20" height="20" viewBox="0 0 20 20" fill="none" xmlns="http://www.w3.org/2000/svg">
<path d="M3.33333 13.3333C1.46667 13.3333 0 11.8667 0 10C0 8.13333 1.46667 6.66667 3.33333 6.66667C5.2 6.66667 6.66667 8.13333 6.66667 10C6.66667 11.8667 5.2 13.3333 3.33333 13.3333ZM3.33333 8C2.2 8 1.33333 8.86667 1.33333 10C1.33333 11.1333 2.2 12 3.33333 12C4.46667 12 5.33333 11.1333 5.33333 10C5.33333 8.86667 4.46667 8 3.33333 8ZM16.6667 6.66667C14.8 6.66667 13.3333 5.2 13.3333 3.33333C13.3333 1.46667 14.8 0 16.6667 0C18.5333 0 20 1.46667 20 3.33333C20 5.2 18.5333 6.66667 16.6667 6.66667ZM16.6667 1.33333C15.5333 1.33333 14.6667 2.2 14.6667 3.33333C14.6667 4.46667 15.5333 5.33333 16.6667 5.33333C17.8 5.33333 18.6667 4.46667 18.6667 3.33333C18.6667 2.2 17.8 1.33333 16.6667 1.33333ZM16.6667 20C14.8 20 13.3333 18.5333 13.3333 16.6667C13.3333 14.8 14.8 13.3333 16.6667 13.3333C18.5333 13.3333 20 14.8 20 16.6667C20 18.5333 18.5333 20 16.6667 20ZM16.6667 14.6667C15.5333 14.6667 14.6667 15.5333 14.6667 16.6667C14.6667 17.8 15.5333 18.6667 16.6667 18.6667C17.8 18.6667 18.6667 17.8 18.6667 16.6667C18.6667 15.5333 17.8 14.6667 16.6667 14.6667Z" fill="#8C8C8C"/>
<path d="M6.00454 10.59L14.5912 14.8833L13.9945 16.0753L5.40788 11.782L6.00454 10.59ZM13.9952 3.92334L14.5912 5.11667L6.00454 9.40867L5.40855 8.21534L13.9952 3.92334Z" fill="#8C8C8C"/>
</svg>
