<svg width="36" height="36" viewBox="0 0 36 36" fill="none" xmlns="http://www.w3.org/2000/svg">
<g style="mix-blend-mode:multiply">
<rect x="2" y="2" width="32" height="32" rx="16" fill="#F3F6F9"/>
<path d="M11.334 19.6667L17.7621 22.8808C17.8496 22.9245 17.8933 22.9464 17.9392 22.955C17.9798 22.9626 18.0215 22.9626 18.0621 22.955C18.108 22.9464 18.1517 22.9245 18.2392 22.8808L24.6673 19.6667M11.334 16.3334L17.7621 13.1193C17.8496 13.0756 17.8933 13.0537 17.9392 13.0451C17.9798 13.0375 18.0215 13.0375 18.0621 13.0451C18.108 13.0537 18.1517 13.0756 18.2392 13.1193L24.6673 16.3334L18.2392 19.5474C18.1517 19.5912 18.108 19.613 18.0621 19.6216C18.0215 19.6293 17.9798 19.6293 17.9392 19.6216C17.8933 19.613 17.8496 19.5912 17.7621 19.5474L11.334 16.3334Z" stroke="#445FD2" stroke-width="1.33333" stroke-linecap="round" stroke-linejoin="round"/>
<rect x="2" y="2" width="32" height="32" rx="16" stroke="#F3F6F9" stroke-width="4"/>
</g>
</svg>
