<svg width="16" height="16" viewBox="0 0 16 16" fill="none" xmlns="http://www.w3.org/2000/svg">
<circle cx="8" cy="8" r="8" fill="#FFF3F3"/>
<path d="M11.4769 6.99899H10.4774C10.464 6.99433 10.4501 6.9913 10.436 6.98991H9.37174V6.1025C9.3718 6.03581 9.3458 5.97178 9.29945 5.92415C9.25304 5.87652 9.18995 5.84905 9.12369 5.84766H6.60672C6.53948 5.84766 6.47501 5.87447 6.42752 5.92227C6.37997 5.97008 6.35324 6.03489 6.35324 6.10249V6.98991H5.29439C5.2803 6.9913 5.2664 6.99432 5.25303 6.99898H4.25347C4.16288 6.99898 4.07921 7.04752 4.03395 7.12637C3.98868 7.20522 3.98868 7.30235 4.03395 7.3812C4.07921 7.46006 4.16288 7.50865 4.25347 7.50865H5.06783L5.72585 13.6629C5.7329 13.7256 5.76263 13.7834 5.8094 13.8254C5.85611 13.8674 5.91661 13.8906 5.97932 13.8907H9.75462C9.81668 13.8898 9.87627 13.8661 9.92233 13.8242C9.96831 13.7823 9.99751 13.725 10.0045 13.6629L10.6625 7.51763H11.4769C11.5675 7.51763 11.6511 7.4691 11.6964 7.39025C11.7417 7.31139 11.7417 7.21421 11.6964 7.13541C11.6511 7.05656 11.5675 7.00797 11.4769 7.00797L11.4769 6.99899ZM6.86566 6.35733H8.86472V6.98991H6.86566V6.35733ZM9.52455 13.3773H6.20582L5.57663 7.5177H10.1537L9.52455 13.3773Z" fill="#445FD2"/>
<path d="M7.86577 12.78C7.93301 12.78 7.99748 12.7532 8.04503 12.7054C8.09258 12.6576 8.11925 12.5928 8.11925 12.5252V8.36816C8.11925 8.27708 8.07097 8.19296 7.99254 8.14746C7.91411 8.10189 7.81745 8.10189 7.73901 8.14746C7.66058 8.19297 7.6123 8.27708 7.6123 8.36816V12.5252C7.6123 12.5928 7.63897 12.6576 7.68652 12.7054C7.73407 12.7532 7.79854 12.78 7.86578 12.78H7.86577Z" fill="#445FD2"/>
<path d="M6.8674 12.7788H6.87817C6.94511 12.776 7.00819 12.7466 7.0537 12.6972C7.09915 12.6477 7.12334 12.5822 7.12088 12.5149L6.96805 8.35787L6.96811 8.35781C6.96672 8.28973 6.93777 8.2251 6.88787 8.17898C6.83791 8.13293 6.77146 8.10939 6.7038 8.11381C6.63687 8.11665 6.57379 8.146 6.52834 8.19544C6.48283 8.24489 6.45869 8.31043 6.4611 8.37773L6.61393 12.5348C6.61712 12.6003 6.64517 12.6621 6.69236 12.7075C6.73949 12.7529 6.80215 12.7784 6.8674 12.7788L6.8674 12.7788Z" fill="#445FD2"/>
<path d="M8.85421 12.7774H8.86318C8.92999 12.779 8.9947 12.754 9.04345 12.7081C9.09215 12.6621 9.12104 12.5987 9.12387 12.5316L9.2767 8.37459H9.27664C9.27911 8.30729 9.25491 8.24175 9.20946 8.1923C9.16396 8.14286 9.10088 8.11351 9.03394 8.11067C8.9655 8.10359 8.89724 8.1258 8.84589 8.17191C8.79455 8.21796 8.76493 8.28368 8.76427 8.35292L8.60964 12.51H8.6097C8.60627 12.5782 8.63022 12.6449 8.67621 12.6952C8.72214 12.7455 8.7863 12.7751 8.85421 12.7774L8.85421 12.7774Z" fill="#445FD2"/>
</svg>
