<svg width="25" height="25" viewBox="0 0 25 25" fill="none" xmlns="http://www.w3.org/2000/svg">
<path d="M9.3957 17.7258L9.3957 17.7258L9.39283 17.7246C9.31531 17.6942 9.25 17.6067 9.25 17.5V11.5C9.25 11.3661 9.36614 11.25 9.5 11.25C9.63386 11.25 9.75 11.3661 9.75 11.5V15.69V16.8971L10.6036 16.0436L11.3236 15.3236C11.4183 15.2288 11.5817 15.2288 11.6764 15.3236C11.7712 15.4183 11.7712 15.5817 11.6764 15.6764L9.67645 17.6764C9.63163 17.7213 9.55941 17.75 9.5 17.75C9.47479 17.75 9.44799 17.7467 9.3957 17.7258Z" fill="#634B66" stroke="#634B66"/>
<path d="M9.49945 17.75C9.43491 17.75 9.3743 17.7277 9.32301 17.6764L7.32301 15.6764C7.22827 15.5817 7.22827 15.4183 7.32301 15.3236C7.41774 15.2288 7.58116 15.2288 7.6759 15.3236L9.6759 17.3236C9.77064 17.4183 9.77064 17.5817 9.6759 17.6764C9.62461 17.7277 9.564 17.75 9.49945 17.75Z" fill="#634B66" stroke="#634B66"/>
<path d="M15.5 22.75H9.5C6.8424 22.75 5.06492 22.1803 3.9423 21.0577C2.81968 19.9351 2.25 18.1576 2.25 15.5V9.5C2.25 6.8424 2.81968 5.06492 3.9423 3.9423C5.06492 2.81968 6.8424 2.25 9.5 2.25H14.5C14.6339 2.25 14.75 2.36614 14.75 2.5C14.75 2.63386 14.6339 2.75 14.5 2.75H9.5C7.15972 2.75 5.42432 3.16107 4.2927 4.2927C3.16107 5.42432 2.75 7.15972 2.75 9.5V15.5C2.75 17.8403 3.16107 19.5757 4.2927 20.7073C5.42432 21.8389 7.15972 22.25 9.5 22.25H15.5C17.8403 22.25 19.5757 21.8389 20.7073 20.7073C21.8389 19.5757 22.25 17.8403 22.25 15.5V10.5C22.25 10.3661 22.3661 10.25 22.5 10.25C22.6339 10.25 22.75 10.3661 22.75 10.5V15.5C22.75 18.1576 22.1803 19.9351 21.0577 21.0577C19.9351 22.1803 18.1576 22.75 15.5 22.75Z" fill="#634B66" stroke="#634B66"/>
<path d="M14.3928 2.27536L14.3999 2.27257L14.407 2.26956C14.4871 2.2352 14.5949 2.24812 14.6815 2.32858L22.6764 10.3235C22.746 10.3931 22.7676 10.5062 22.7304 10.593C22.6876 10.6929 22.596 10.75 22.5 10.75H18.5C16.8359 10.75 15.815 10.4229 15.1961 9.80394C14.5771 9.18502 14.25 8.16409 14.25 6.49999V2.49999C14.25 2.39333 14.3153 2.30582 14.3928 2.27536ZM15.6036 3.95644L14.75 3.10288V4.30999V6.49999C14.75 7.79032 14.9062 8.79827 15.5539 9.44604C16.2017 10.0938 17.2097 10.25 18.5 10.25H20.69H21.8971L21.0436 9.39644L15.6036 3.95644Z" fill="#634B66" stroke="#634B66"/>
</svg>
