<svg width="25" height="25" viewBox="0 0 25 25" fill="none" xmlns="http://www.w3.org/2000/svg">
<path d="M9.00898 17.7258L9.00898 17.7258L9.00611 17.7246C8.92859 17.6942 8.86328 17.6067 8.86328 17.5V11.5C8.86328 11.3661 8.97942 11.25 9.11328 11.25C9.24714 11.25 9.36328 11.3661 9.36328 11.5V15.69V16.8971L10.2168 16.0436L10.9368 15.3236C11.0316 15.2288 11.195 15.2288 11.2897 15.3236C11.3845 15.4183 11.3845 15.5817 11.2897 15.6764L9.28973 17.6764C9.24491 17.7213 9.17269 17.75 9.11328 17.75C9.08807 17.75 9.06127 17.7467 9.00898 17.7258Z" fill="#445FD2" stroke="#445FD2"/>
<path d="M9.11273 17.75C9.04819 17.75 8.98758 17.7277 8.93629 17.6764L6.93629 15.6764C6.84155 15.5817 6.84155 15.4183 6.93629 15.3236C7.03103 15.2288 7.19444 15.2288 7.28918 15.3236L9.28918 17.3236C9.38392 17.4183 9.38392 17.5817 9.28918 17.6764C9.23789 17.7277 9.17728 17.75 9.11273 17.75Z" fill="#445FD2" stroke="#445FD2"/>
<path d="M15.1133 22.75H9.11328C6.45568 22.75 4.67821 22.1803 3.55558 21.0577C2.43296 19.9351 1.86328 18.1576 1.86328 15.5V9.5C1.86328 6.8424 2.43296 5.06492 3.55558 3.9423C4.67821 2.81968 6.45568 2.25 9.11328 2.25H14.1133C14.2471 2.25 14.3633 2.36614 14.3633 2.5C14.3633 2.63386 14.2471 2.75 14.1133 2.75H9.11328C6.773 2.75 5.0376 3.16107 3.90598 4.2927C2.77435 5.42432 2.36328 7.15972 2.36328 9.5V15.5C2.36328 17.8403 2.77435 19.5757 3.90598 20.7073C5.0376 21.8389 6.773 22.25 9.11328 22.25H15.1133C17.4536 22.25 19.189 21.8389 20.3206 20.7073C21.4522 19.5757 21.8633 17.8403 21.8633 15.5V10.5C21.8633 10.3661 21.9794 10.25 22.1133 10.25C22.2471 10.25 22.3633 10.3661 22.3633 10.5V15.5C22.3633 18.1576 21.7936 19.9351 20.671 21.0577C19.5484 22.1803 17.7709 22.75 15.1133 22.75Z" fill="#445FD2" stroke="#445FD2"/>
<path d="M14.0061 2.27536L14.0132 2.27257L14.0202 2.26956C14.1004 2.2352 14.2081 2.24812 14.2948 2.32858L22.2897 10.3235C22.3592 10.3931 22.3809 10.5062 22.3437 10.593C22.3009 10.6929 22.2093 10.75 22.1133 10.75H18.1133C16.4492 10.75 15.4283 10.4229 14.8093 9.80394C14.1904 9.18502 13.8633 8.16409 13.8633 6.49999V2.49999C13.8633 2.39333 13.9286 2.30582 14.0061 2.27536ZM15.2168 3.95644L14.3633 3.10288V4.30999V6.49999C14.3633 7.79032 14.5195 8.79827 15.1672 9.44604C15.815 10.0938 16.8229 10.25 18.1133 10.25H20.3033H21.5104L20.6568 9.39644L15.2168 3.95644Z" fill="#445FD2" stroke="#445FD2"/>
</svg>
