<svg width="25" height="25" viewBox="0 0 25 25" fill="none" xmlns="http://www.w3.org/2000/svg">
<path opacity="0.4" d="M16.0799 12.5C16.0799 14.48 14.4799 16.08 12.4999 16.08C10.5199 16.08 8.91992 14.48 8.91992 12.5C8.91992 10.52 10.5199 8.92001 12.4999 8.92001C14.4799 8.92001 16.0799 10.52 16.0799 12.5Z" stroke="#634B66" stroke-width="1.5" stroke-linecap="round" stroke-linejoin="round"/>
<path d="M12.4998 20.77C16.0298 20.77 19.3198 18.69 21.6098 15.09C22.5098 13.68 22.5098 11.31 21.6098 9.9C19.3198 6.3 16.0298 4.22 12.4998 4.22C8.96984 4.22 5.67984 6.3 3.38984 9.9C2.48984 11.31 2.48984 13.68 3.38984 15.09C5.67984 18.69 8.96984 20.77 12.4998 20.77Z" stroke="#634B66" stroke-width="1.5" stroke-linecap="round" stroke-linejoin="round"/>
</svg>
